<svg width="294" height="486" viewBox="0 0 294 486" fill="none" xmlns="http://www.w3.org/2000/svg">
<path fill-rule="evenodd" clip-rule="evenodd" d="M94.9356 190.017C98.3593 193.929 104.888 194.953 109.812 192.353L154.425 168.799C160.987 165.335 162.67 158.032 158.11 152.821C153.601 147.672 144.81 146.649 138.751 150.567L97.0708 177.531C92.4119 180.545 91.4696 186.058 94.9356 190.017Z" fill="#FFC999"/>
<path fill-rule="evenodd" clip-rule="evenodd" d="M127.981 184.452L156.319 169.619C162.303 165.781 162.306 155.937 157.549 151.068C152.792 146.2 144.122 145.497 138.308 149.509L111.745 167.835C111.745 167.835 119.694 181.083 127.981 184.452Z" fill="#FE4040"/>
<path fill-rule="evenodd" clip-rule="evenodd" d="M76.1289 137.586C73.2641 138.809 71.9575 141.604 73.0849 144.098L92.9075 187.931C95.1849 192.965 102.227 195.279 108.074 192.915C113.788 190.604 115.947 184.79 112.783 180.234L84.588 139.643C82.8903 137.199 79.1616 136.292 76.1289 137.586Z" fill="#FFC999"/>
<path fill-rule="evenodd" clip-rule="evenodd" d="M173.231 147.597L166.055 141.134L168.317 119.867L188.384 121.41L188.283 142.455L173.231 147.597Z" fill="#FFC999"/>
<path fill-rule="evenodd" clip-rule="evenodd" d="M163.188 117.767C163.188 117.767 160.21 115.063 158.85 116.798C157.491 118.534 159.524 124.911 162.851 125.158C167.294 125.489 163.188 117.767 163.188 117.767Z" fill="#FFC999"/>
<path fill-rule="evenodd" clip-rule="evenodd" d="M181.985 134.444C181.985 134.444 175.281 138.699 166.782 134.099C160.663 130.788 160.319 119.354 161.834 111.006C162.691 106.283 165.435 103.8 171.088 102.54C176.743 101.28 191.933 101.62 191.506 115.573C191.031 131.114 181.985 134.444 181.985 134.444Z" fill="#FFC999"/>
<path d="M171.525 113.453L171.47 113.459C171.322 113.486 171.223 113.596 171.228 113.716L171.235 113.762L172.015 116.679L169.818 124.526C169.778 124.667 169.889 124.804 170.055 124.832L170.106 124.838L174.155 124.97C174.325 124.975 174.468 124.866 174.475 124.726C174.481 124.599 174.375 124.491 174.229 124.466L174.179 124.461L170.503 124.341L172.631 116.737C172.638 116.712 172.64 116.687 172.638 116.662L172.632 116.625L171.838 113.652C171.805 113.53 171.671 113.448 171.525 113.453Z" fill="#DD936F"/>
<path d="M175.419 112.787C175.356 113.158 175.669 113.501 176.119 113.554L178.821 113.879L179.169 113.92C181.804 114.226 183.405 114.335 184.364 114.203C184.812 114.142 185.114 113.792 185.04 113.423C184.97 113.075 184.591 112.833 184.173 112.857L183.939 112.882C183.247 112.942 181.983 112.861 180.102 112.656L178.874 112.514L176.348 112.21C175.898 112.158 175.482 112.416 175.419 112.787Z" fill="#FAAD14"/>
<path d="M177.426 127.007C177.374 126.815 177.144 126.695 176.912 126.738L176.758 126.763L176.697 126.772C176.512 126.799 176.294 126.826 176.043 126.851C174.359 127.022 172.312 127.026 170 126.754C169.765 126.727 169.547 126.862 169.513 127.056C169.48 127.25 169.644 127.43 169.879 127.458C172.269 127.739 174.392 127.734 176.148 127.557L176.451 127.524C176.547 127.513 176.637 127.501 176.723 127.49L177.026 127.445C177.057 127.439 177.082 127.435 177.101 127.432C177.333 127.389 177.478 127.198 177.426 127.007Z" fill="#FF7946"/>
<path fill-rule="evenodd" clip-rule="evenodd" d="M189.362 121.505L192.853 116.212C192.853 116.212 195.221 108.515 193.169 105.128C189.983 99.8728 182.256 99.8216 177.723 98.329C173.19 96.8357 173.28 95.5642 171.413 95.7305C169.546 95.8961 162.199 99.8614 161.234 104.173C160.386 107.963 161.21 117.694 161.21 117.694C161.21 117.694 162.818 109.135 163.903 106.89C167.58 105.728 180.779 105.991 186.237 107.528C186.237 107.528 186.609 110.464 186.809 112.531C189.696 114.345 189.362 121.505 189.362 121.505Z" fill="#FEC91E"/>
<path d="M166.676 133.611C166.565 133.505 166.37 133.492 166.241 133.584C166.112 133.676 166.097 133.836 166.208 133.943C166.293 134.024 166.454 134.158 166.695 134.328C167.09 134.606 167.567 134.884 168.129 135.142C171.151 136.533 175.19 136.827 180.284 135.355C180.445 135.308 180.529 135.163 180.473 135.031C180.417 134.898 180.241 134.828 180.08 134.875C175.154 136.299 171.298 136.018 168.429 134.698C167.904 134.456 167.46 134.198 167.095 133.941L166.948 133.834C166.815 133.734 166.724 133.658 166.676 133.611Z" fill="#DD936F"/>
<path d="M171.659 116.175C171.32 116.155 171.025 116.366 171.001 116.646C170.978 116.908 171.199 117.138 171.505 117.183L171.572 117.19L174.548 117.364C174.888 117.384 175.183 117.173 175.207 116.893C175.229 116.631 175.008 116.401 174.702 116.356L174.635 116.349L171.659 116.175Z" fill="#AA1215"/>
<path d="M174.242 117.881C173.619 117.642 172.98 117.514 172.351 117.565C171.82 117.608 171.335 117.781 170.927 118.095C170.678 118.286 170.665 118.608 170.897 118.814C171.129 119.019 171.52 119.03 171.769 118.839C171.972 118.682 172.203 118.6 172.472 118.578C172.846 118.548 173.281 118.635 173.722 118.804C173.957 118.894 174.135 118.983 174.225 119.036C174.503 119.199 174.888 119.146 175.085 118.917C175.283 118.688 175.218 118.37 174.941 118.207C174.794 118.121 174.553 118 174.242 117.881Z" fill="#AA1215"/>
<path d="M169.635 111.945C168.214 111.472 166.774 111.212 165.395 111.284C164.424 111.335 163.524 111.553 162.724 111.96C162.337 112.156 162.217 112.574 162.455 112.893C162.694 113.212 163.2 113.311 163.587 113.115C164.146 112.831 164.785 112.676 165.499 112.639C166.595 112.581 167.807 112.8 169.02 113.203C169.327 113.305 169.614 113.413 169.878 113.522L170.072 113.603C170.257 113.683 170.385 113.744 170.446 113.775C170.833 113.971 171.34 113.871 171.577 113.552C171.815 113.233 171.695 112.815 171.308 112.619L171.133 112.533C170.782 112.368 170.269 112.156 169.635 111.945Z" fill="#ED9609"/>
<path d="M171.64 129.324C171.47 129.316 171.324 129.423 171.314 129.563C171.305 129.69 171.409 129.8 171.554 129.826L171.604 129.832L174.03 129.949C174.2 129.957 174.346 129.85 174.356 129.709C174.365 129.583 174.261 129.473 174.116 129.446L174.066 129.441L171.64 129.324Z" fill="#DD936F"/>
<path d="M185.658 116.858C185.318 116.843 185.028 117.058 185.01 117.339C184.994 117.601 185.22 117.827 185.527 117.868L185.594 117.874L190.477 118.086C190.818 118.1 191.108 117.885 191.126 117.604C191.142 117.342 190.916 117.116 190.609 117.075L190.542 117.069L185.658 116.858Z" fill="#D63A45"/>
<path fill-rule="evenodd" clip-rule="evenodd" d="M185.316 116.552L175.993 116.106C175.343 116.075 174.785 116.483 174.751 117.02C174.69 118.023 174.645 119.633 174.864 121.024C175.122 122.664 176.82 123.742 178.814 123.914C181.304 124.129 183.544 124.238 184.753 123.223C186.593 121.676 186.36 118.974 186.423 117.552C186.446 117.03 185.948 116.582 185.316 116.552Z" fill="white"/>
<path d="M176.005 115.937L185.328 116.383C186.072 116.418 186.656 116.944 186.628 117.558L186.618 117.893L186.608 118.501C186.588 119.403 186.548 119.907 186.428 120.528C186.199 121.708 185.723 122.649 184.899 123.342C183.803 124.263 182.199 124.377 178.793 124.082C176.616 123.895 174.921 122.704 174.66 121.046C174.474 119.864 174.457 118.464 174.546 117.011C174.585 116.381 175.24 115.9 176.005 115.937ZM175.981 116.275C175.472 116.251 175.032 116.553 174.964 116.96L174.956 117.029C174.869 118.462 174.886 119.845 175.068 121.002C175.303 122.494 176.838 123.573 178.835 123.745L179.281 123.782C182.251 124.017 183.68 123.882 184.606 123.104C185.362 122.469 185.806 121.591 186.022 120.474L186.063 120.253C186.148 119.743 186.18 119.269 186.197 118.491L186.215 117.596C186.216 117.579 186.217 117.562 186.218 117.546C186.237 117.117 185.826 116.746 185.304 116.722L175.981 116.275Z" fill="#D63A45"/>
<path d="M178.803 118.142C178.576 118.132 178.382 118.275 178.369 118.462C178.294 119.525 179.162 120.448 180.339 120.505C181.517 120.562 182.508 119.727 182.583 118.664C182.596 118.476 182.422 118.316 182.196 118.305C181.969 118.294 181.775 118.437 181.761 118.624C181.712 119.332 181.084 119.861 180.387 119.828C179.69 119.794 179.14 119.209 179.19 118.501C179.203 118.314 179.03 118.153 178.803 118.142Z" fill="black"/>
<path fill-rule="evenodd" clip-rule="evenodd" d="M170.782 115.77L160.227 115.265C159.746 116.519 159.777 121.459 161.515 122.6C163.868 123.765 168.801 123.546 169.637 122.514C170.907 120.948 171.553 117.876 171.626 116.544C171.648 116.139 171.273 115.794 170.782 115.77Z" fill="white"/>
<path d="M160.239 115.096L170.794 115.601C171.397 115.63 171.858 116.053 171.831 116.552C171.727 118.439 170.908 121.252 169.808 122.608C168.856 123.783 163.745 123.902 161.409 122.745C159.835 121.713 159.332 117.036 160.031 115.214C160.059 115.14 160.145 115.091 160.239 115.096ZM160.379 115.442L160.352 115.525C159.809 117.363 160.311 121.592 161.643 122.467C163.79 123.529 168.659 123.415 169.466 122.42C170.516 121.125 171.32 118.368 171.42 116.537C171.438 116.223 171.149 115.958 170.77 115.94L160.379 115.442Z" fill="#D63A45"/>
<path d="M165.63 117.511C165.403 117.5 165.208 117.643 165.195 117.83C165.12 118.894 165.988 119.818 167.165 119.874C168.342 119.93 169.335 119.096 169.409 118.032C169.422 117.845 169.249 117.685 169.022 117.674C168.795 117.663 168.601 117.806 168.588 117.993C168.538 118.701 167.91 119.23 167.213 119.197C166.516 119.163 165.966 118.578 166.016 117.87C166.029 117.683 165.856 117.522 165.63 117.511Z" fill="black"/>
<path d="M174.77 115.842C174.43 115.833 174.145 116.053 174.134 116.334C174.124 116.596 174.356 116.818 174.664 116.854L174.731 116.859L186.305 117.162C186.645 117.171 186.93 116.951 186.941 116.67C186.951 116.408 186.719 116.186 186.411 116.15L186.344 116.145L174.77 115.842Z" fill="#D62023"/>
<path d="M160.171 114.945C159.832 114.925 159.536 115.136 159.512 115.416C159.489 115.678 159.71 115.907 160.016 115.953L160.083 115.96L171.398 116.634C171.738 116.654 172.033 116.444 172.057 116.163C172.08 115.902 171.859 115.672 171.553 115.626L171.487 115.619L160.171 114.945Z" fill="#FE4040"/>
<path fill-rule="evenodd" clip-rule="evenodd" d="M191.001 117.198C192.217 116.202 194.075 115.95 195.358 117.139C197.426 119.056 195.315 126.036 189.618 126.244C187.462 125.964 189.103 118.753 191.001 117.198Z" fill="#FFC999"/>
<path fill-rule="evenodd" clip-rule="evenodd" d="M213.533 403.197C224.572 407.037 230.237 401.507 230.237 401.507C230.237 401.507 230.549 399.573 228.618 397.41C226.201 394.703 220.818 393.74 214.436 388.561C209.533 384.582 206.298 378.39 206.298 378.39C202.756 374.077 191.463 379.213 191.463 379.213C191.463 379.213 191.272 388.125 191.499 393.224C191.499 393.224 191.909 396.031 200.379 397.036C206.716 397.787 206.922 400.897 213.533 403.197Z" fill="#4E5C93"/>
<path fill-rule="evenodd" clip-rule="evenodd" d="M149.363 376.812C149.363 376.812 149.837 389.809 148.58 393.232C144.941 396.624 141.732 395.051 136.902 398.427C132.072 401.803 121.909 407.4 112.762 401.547C111.647 397.6 114.681 395.825 118.439 393.73C133.931 385.093 131.226 383.532 134.048 378.519C138.378 370.826 149.468 371.407 149.363 376.812Z" fill="#4E5C93"/>
<path fill-rule="evenodd" clip-rule="evenodd" d="M196.857 204.572C196.857 204.572 201.967 183.462 204.229 175.664C206.49 167.864 209.925 149.193 206.02 147.795C202.115 146.397 192.766 143.428 192.766 143.428C192.766 143.428 183.491 144.411 175.113 145.883C168.482 147.048 170.365 141.91 162.324 143.006C158.919 143.471 148.233 144.861 142.898 147.262C140.758 148.225 141.104 154.074 140.8 159.758C139.83 177.902 145.195 205.702 145.195 205.702C145.195 205.702 142.013 208.4 145.87 211.899C147.782 213.538 156.056 212.983 166.649 213.004C178.707 213.028 192.89 214.278 195.522 212.386C200.465 208.832 196.857 204.572 196.857 204.572Z" fill="#FE4040"/>
<path fill-rule="evenodd" clip-rule="evenodd" d="M165.736 140.28L173.82 146.684L164.12 152.287L159.916 143.748L165.736 140.28Z" fill="#FE4040"/>
<path fill-rule="evenodd" clip-rule="evenodd" d="M187.837 381.277L170.845 248.543L170.168 248.268L152.331 381.583C152.331 381.583 139.032 384.126 132.005 380.646C131.731 354.797 139.107 270.831 142.228 232.485C142.73 226.312 145.03 217.92 145.489 215.588C166.84 212.61 195.766 216.904 195.766 216.904L197.016 219.999C197.259 220.601 197.406 221.228 197.453 221.861L210.859 379.967C210.859 379.967 197.718 383.892 187.837 381.277Z" fill="#ADC6FF"/>
<path d="M159.282 243.13C159.129 243.068 158.945 243.12 158.87 243.247C158.803 243.359 158.846 243.492 158.964 243.563L159.011 243.587L171.88 248.776C172.033 248.838 172.217 248.785 172.292 248.659C172.359 248.547 172.316 248.414 172.198 248.343L172.151 248.319L159.282 243.13Z" fill="black"/>
<path fill-rule="evenodd" clip-rule="evenodd" d="M195.65 212.33C195.65 212.33 168.463 209.015 145.862 212.281C145.676 213.935 145.482 215.97 145.482 215.97C145.482 215.97 164.821 217.069 196.089 217.705C196.002 213.218 195.65 212.33 195.65 212.33Z" fill="#ADC6FF"/>
<path d="M186.843 217.07C176.939 216.405 166.774 216.149 157.28 216.54C153.29 216.704 149.526 216.982 146.025 217.382C145.856 217.401 145.738 217.53 145.762 217.669C145.785 217.808 145.941 217.905 146.109 217.886C149.592 217.488 153.338 217.212 157.311 217.048C166.774 216.658 176.914 216.914 186.793 217.577L188.361 217.686C189.896 217.796 191.331 217.911 192.651 218.026L194.132 218.16L195.186 218.262C195.286 218.272 195.363 218.28 195.415 218.286C195.584 218.304 195.738 218.205 195.76 218.066C195.782 217.927 195.662 217.799 195.493 217.781L194.885 217.72C194.459 217.678 193.973 217.632 193.429 217.583L192.271 217.482C190.622 217.341 188.804 217.201 186.843 217.07Z" fill="black"/>
<path d="M186.952 211.467C177.048 210.802 166.883 210.546 157.389 210.937C153.399 211.101 149.635 211.379 146.134 211.779C145.965 211.798 145.847 211.927 145.871 212.066C145.894 212.205 146.05 212.302 146.218 212.283C149.701 211.885 153.447 211.609 157.42 211.445C166.883 211.055 177.023 211.311 186.902 211.974L187.955 212.046C189.512 212.156 190.97 212.27 192.316 212.385L193.994 212.534L195.524 212.683C195.692 212.701 195.847 212.602 195.869 212.463C195.89 212.324 195.771 212.196 195.602 212.178L194.994 212.117C194.639 212.082 194.242 212.044 193.805 212.004L192.379 211.879C190.731 211.738 188.913 211.598 186.952 211.467Z" fill="black"/>
<path d="M168.411 211.816C168.24 211.813 168.099 211.924 168.095 212.064L168.061 213.392C168.047 213.962 168.034 214.59 168.022 215.27C167.92 220.904 167.913 226.882 168.067 232.482L168.105 233.757C168.272 238.928 168.574 243.264 169.035 246.515C169.055 246.655 169.208 246.755 169.378 246.738C169.547 246.722 169.668 246.595 169.648 246.456L169.575 245.922C169.121 242.481 168.832 237.905 168.683 232.471C168.542 227.308 168.536 221.822 168.617 216.582L168.644 214.989L168.711 212.077C168.715 211.936 168.581 211.82 168.411 211.816Z" fill="black"/>
<path fill-rule="evenodd" clip-rule="evenodd" d="M163.124 213.656C163.112 214.289 163.586 214.809 164.182 214.817C164.779 214.825 165.272 214.318 165.284 213.685C165.296 213.052 164.823 212.533 164.226 212.524C163.629 212.516 163.136 213.023 163.124 213.656Z" fill="white"/>
<path fill-rule="evenodd" clip-rule="evenodd" d="M173.777 146.162L181.259 154.286L192.438 143.445L188.344 139.222L173.777 146.162Z" fill="#FE4040"/>
<path d="M173.44 146.601C173.227 146.537 172.991 146.627 172.912 146.803L172.835 146.992L172.758 147.195C172.731 147.268 172.702 147.348 172.673 147.433L172.627 147.566C172.439 148.115 172.234 148.789 172.015 149.6L171.894 150.056C171.16 152.872 170.427 156.595 169.741 161.343L169.558 162.638C168.821 168.006 168.187 174.311 167.688 181.629L167.646 182.241C166.902 193.396 167.074 202.965 167.723 210.118C167.74 210.305 167.937 210.445 168.164 210.431C168.39 210.417 168.56 210.254 168.543 210.067L168.479 209.335C167.897 202.418 167.755 193.35 168.431 182.843L168.468 182.279C168.973 174.712 169.619 168.218 170.375 162.715L170.499 161.831C171.199 156.908 171.949 153.073 172.698 150.198L172.817 149.749C173.014 149.023 173.198 148.409 173.368 147.899L173.418 147.75C173.479 147.573 173.534 147.421 173.582 147.293L173.666 147.08C173.674 147.061 173.68 147.047 173.684 147.037C173.763 146.861 173.654 146.666 173.44 146.601Z" fill="black"/>
<path d="M140.74 158.431C140.54 158.292 140.257 158.317 140.094 158.481C140.024 158.55 139.987 158.629 139.957 158.731C139.923 158.847 139.898 159.01 139.881 159.223L139.872 159.334C139.842 159.783 139.837 160.435 139.858 161.27L139.869 161.669C139.936 163.787 140.144 166.822 140.478 170.466L140.603 171.795C141.438 180.477 142.832 191.255 144.703 202.965L144.903 204.205L144.827 204.366L144.76 204.513C144.624 204.822 144.488 205.163 144.36 205.527C144.051 206.412 143.845 207.292 143.79 208.119C143.697 209.502 144.033 210.627 144.925 211.387C145.083 211.521 145.343 211.525 145.506 211.394C145.67 211.264 145.674 211.049 145.516 210.914C144.813 210.315 144.53 209.368 144.611 208.156C144.662 207.386 144.857 206.555 145.151 205.715C145.248 205.436 145.351 205.172 145.455 204.926L145.595 204.609C145.643 204.505 145.68 204.428 145.703 204.382C145.732 204.326 145.742 204.265 145.732 204.205L145.413 202.215C143.562 190.553 142.189 179.844 141.377 171.253L141.267 170.065C140.973 166.819 140.783 164.078 140.706 162.07L140.681 161.283C140.661 160.51 140.664 159.899 140.688 159.468L140.694 159.372C140.703 159.233 140.715 159.118 140.728 159.03L140.743 158.948L140.749 158.945L140.791 158.909C140.937 158.765 140.914 158.551 140.74 158.431Z" fill="black"/>
<path d="M161.702 156.961L162.267 157.001C162.45 157.015 162.626 157.029 162.797 157.043L163.631 157.116L163.886 157.141C164.112 157.165 164.276 157.33 164.261 157.517L163.265 170.178C163.256 170.298 163.173 170.407 163.046 170.465L154.734 174.303C154.591 174.369 154.416 174.362 154.281 174.286L147.861 170.669C147.743 170.603 147.673 170.493 147.673 170.376L147.679 168.072L147.688 166.602C147.709 164.056 147.747 161.223 147.806 158.151C147.809 158.014 147.907 157.891 148.058 157.834C149.679 157.221 152.02 156.898 154.906 156.808C157.086 156.739 159.417 156.807 161.702 156.961ZM154.632 157.529C152.194 157.621 150.188 157.889 148.761 158.359L148.664 158.391L148.609 161.512C148.585 163.135 148.566 164.676 148.554 166.127L148.536 168.873L148.534 170.188L154.546 173.575L162.421 169.939L163.376 157.807L163.198 157.791C162.731 157.75 162.205 157.708 161.631 157.67C159.378 157.517 157.08 157.451 154.939 157.518L154.632 157.529Z" fill="black"/>
<path fill-rule="evenodd" clip-rule="evenodd" d="M173.194 152.268C173.182 152.901 173.691 153.421 174.33 153.43C174.969 153.438 175.497 152.932 175.51 152.299C175.522 151.666 175.014 151.146 174.374 151.137C173.735 151.129 173.207 151.635 173.194 152.268Z" fill="white"/>
<path fill-rule="evenodd" clip-rule="evenodd" d="M171.347 163.899C171.335 164.531 171.843 165.051 172.483 165.06C173.122 165.068 173.65 164.562 173.663 163.929C173.675 163.296 173.166 162.776 172.527 162.768C171.887 162.759 171.359 163.265 171.347 163.899Z" fill="white"/>
<path fill-rule="evenodd" clip-rule="evenodd" d="M170.176 176.493C170.164 177.126 170.672 177.646 171.311 177.654C171.95 177.663 172.478 177.157 172.491 176.524C172.503 175.891 171.995 175.371 171.356 175.362C170.716 175.354 170.188 175.86 170.176 176.493Z" fill="white"/>
<path fill-rule="evenodd" clip-rule="evenodd" d="M169.714 188.333C169.702 188.965 170.21 189.485 170.849 189.494C171.488 189.502 172.016 188.996 172.029 188.363C172.041 187.731 171.533 187.21 170.894 187.202C170.255 187.193 169.727 187.699 169.714 188.333Z" fill="white"/>
<path fill-rule="evenodd" clip-rule="evenodd" d="M169.641 203.999C169.629 204.632 170.137 205.151 170.776 205.16C171.415 205.169 171.943 204.662 171.956 204.029C171.968 203.397 171.46 202.876 170.821 202.868C170.181 202.859 169.653 203.365 169.641 203.999Z" fill="white"/>
<path d="M192.559 143.518C192.402 143.408 192.173 143.412 192.022 143.521L191.98 143.557L181.489 153.766L173.999 146.576C173.864 146.447 173.637 146.422 173.468 146.51L173.419 146.54C173.262 146.651 173.232 146.838 173.339 146.978L173.375 147.019L181.179 154.51C181.33 154.655 181.592 154.667 181.761 154.545L181.804 154.508L192.607 143.996C192.754 143.853 192.733 143.639 192.559 143.518Z" fill="black"/>
<path d="M161.243 143.977C161.174 143.799 160.943 143.7 160.726 143.757C160.528 143.809 160.411 143.974 160.446 144.138L160.459 144.183L163.728 152.657C163.809 152.866 164.102 152.955 164.324 152.849L164.371 152.823L173.632 146.935C173.812 146.821 173.845 146.607 173.707 146.459C173.581 146.324 173.356 146.289 173.181 146.37L173.13 146.397L164.334 151.989L161.243 143.977Z" fill="black"/>
<path d="M161.646 216.72C161.477 216.699 161.32 216.795 161.295 216.934L161.216 217.42L161.197 217.544C161.123 218.032 161.049 218.583 160.981 219.188C160.668 221.95 160.561 224.8 160.784 227.464C161.303 233.68 163.495 237.624 167.944 238.124C168.112 238.143 168.268 238.045 168.291 237.906C168.314 237.767 168.195 237.638 168.027 237.619C163.978 237.164 161.9 233.425 161.399 227.429C161.179 224.796 161.285 221.973 161.595 219.236L161.654 218.735C161.694 218.41 161.736 218.104 161.777 217.818L161.845 217.369L161.905 217.009C161.93 216.87 161.814 216.741 161.646 216.72Z" fill="black"/>
<path d="M193.568 118.163C193.504 118.032 193.324 117.969 193.167 118.022L193.058 118.061C192.994 118.086 192.916 118.119 192.826 118.16C192.578 118.273 192.331 118.409 192.099 118.571C191.245 119.166 190.817 119.937 191.08 120.87C191.18 121.224 191.377 121.412 191.743 121.592L191.901 121.665C192.215 121.807 192.294 121.878 192.323 122.098C192.378 122.521 192.145 122.837 191.698 123.079C191.549 123.16 191.387 123.225 191.226 123.276L191.081 123.317C191.056 123.324 191.036 123.329 191.021 123.331C190.856 123.365 190.754 123.503 190.795 123.639C190.835 123.776 191.002 123.859 191.168 123.826C191.392 123.781 191.712 123.68 192.036 123.505C192.661 123.166 193.019 122.68 192.936 122.043C192.884 121.649 192.697 121.459 192.288 121.261L192.136 121.191C191.846 121.06 191.742 120.971 191.681 120.755C191.477 120.032 191.804 119.442 192.496 118.96C192.695 118.821 192.909 118.703 193.123 118.606C193.25 118.548 193.347 118.511 193.398 118.494C193.556 118.441 193.632 118.293 193.568 118.163Z" fill="#DD936F"/>
<path d="M156.17 247.468C156 247.459 155.854 247.566 155.843 247.706C155.833 247.832 155.937 247.943 156.081 247.97L156.131 247.976L166.308 248.511C166.478 248.52 166.624 248.414 166.635 248.273C166.645 248.147 166.541 248.037 166.397 248.009L166.347 248.003L156.17 247.468Z" fill="black"/>
<path fill-rule="evenodd" clip-rule="evenodd" d="M85.2313 140.852C85.2313 140.852 76.3717 119.059 66.3407 113.769C63.3544 113.86 66.1546 117.106 68.233 119.762C69.2959 121.12 69.997 122.836 69.997 122.836C69.997 122.836 65.9014 122.483 66.6869 125.352C63.4053 125.221 64.593 128.251 64.593 128.251C64.593 128.251 62.0702 128.256 62.8816 131.071C63.4389 133.006 66.5991 135.291 67.3235 137.327C70.1167 145.18 74.705 145.614 76.5474 145.855C81.2106 146.463 84.0737 144.998 85.2313 140.852Z" fill="#FFC999"/>
<path d="M79.4757 131.011L75.8847 124.594L75.7952 124.316C75.0006 121.961 73.7415 120.998 72.6632 121.848C71.7357 122.579 71.5718 124.444 72.4025 126.14C74.0561 129.516 74.2229 131.079 73.6284 132.921L73.432 133.51C73.3215 133.859 73.2576 134.139 73.231 134.436C73.1167 135.711 73.1921 136.898 73.6221 138.043C74.2502 139.716 75.5493 140.895 77.6606 141.371C77.8248 141.408 77.9944 141.328 78.0393 141.192C78.0841 141.057 77.9873 140.917 77.823 140.88C74.482 140.127 73.5595 137.67 73.846 134.474C73.8661 134.249 73.9111 134.032 73.9877 133.772L74.0723 133.504C74.0993 133.423 74.1331 133.323 74.1835 133.175L74.2622 132.931C74.8462 131.03 74.6418 129.354 72.9743 125.95C72.2288 124.428 72.3736 122.78 73.0891 122.216C73.6663 121.761 74.5189 122.416 75.2123 124.474L75.3059 124.763L78.9157 131.224C78.987 131.351 79.1702 131.407 79.3248 131.348C79.4623 131.296 79.531 131.171 79.4944 131.054L79.4757 131.011Z" fill="#DD936F"/>
<path d="M66.551 125.123C66.3981 125.185 66.3348 125.338 66.4098 125.464L66.5267 125.656C66.6203 125.807 66.7271 125.975 66.8453 126.157C67.1833 126.675 67.5456 127.193 67.9185 127.678C68.3177 128.196 68.7061 128.646 69.0766 129.007C69.8322 129.744 70.4925 130.105 71.0974 129.952C72.4562 129.609 72.8733 128.783 72.533 127.71C72.4042 127.304 72.173 126.877 71.8689 126.444C71.7029 126.208 71.5253 125.984 71.3477 125.779L71.2057 125.62C71.1651 125.576 71.1316 125.541 71.1068 125.515C70.9993 125.406 70.8051 125.39 70.673 125.479C70.5409 125.567 70.5209 125.727 70.6284 125.836L70.7551 125.972C70.7827 126.003 70.8133 126.038 70.8465 126.076C71.0131 126.268 71.1799 126.478 71.3352 126.699C71.6138 127.096 71.8235 127.483 71.9364 127.839C72.1997 128.669 71.9262 129.21 70.9168 129.465C70.6418 129.535 70.1501 129.266 69.5473 128.679C69.1973 128.337 68.8245 127.906 68.4391 127.405C68.075 126.932 67.7198 126.424 67.3884 125.915L67.223 125.659L66.9636 125.24C66.8887 125.114 66.704 125.061 66.551 125.123Z" fill="#DD936F"/>
<path d="M65.0382 128.317C64.9836 128.183 64.8086 128.112 64.6473 128.157C64.486 128.202 64.3995 128.347 64.4541 128.48L64.5237 128.639L64.6153 128.835C64.6482 128.903 64.6836 128.975 64.7214 129.049C64.9374 129.472 65.1872 129.895 65.4688 130.292C66.3433 131.524 67.3306 132.252 68.457 132.179C69.5649 132.106 70.0823 131.508 70.1119 130.627C70.1227 130.307 70.0692 129.969 69.9737 129.634C69.9215 129.451 69.8689 129.308 69.8324 129.224C69.7751 129.091 69.5987 129.022 69.4383 129.07C69.2779 129.117 69.1944 129.263 69.2517 129.395L69.2859 129.481C69.3116 129.55 69.3424 129.641 69.3733 129.75C69.4576 130.046 69.5046 130.342 69.4955 130.613C69.4737 131.259 69.1594 131.622 68.4084 131.671C67.5955 131.724 66.766 131.113 66.001 130.035C65.7344 129.659 65.496 129.255 65.2898 128.851L65.1885 128.647L65.0618 128.372C65.0513 128.348 65.0434 128.329 65.0382 128.317Z" fill="#DD936F"/>
<path d="M62.7205 130.406C62.5551 130.439 62.4539 130.577 62.4944 130.713L62.5416 130.859L62.6283 131.1C62.6445 131.143 62.6615 131.186 62.6794 131.231C62.8327 131.617 63.0172 132.002 63.2341 132.363C64.0383 133.703 65.0822 134.401 66.378 133.991C67.2959 133.701 67.6558 133.157 67.5171 132.486C67.4493 132.158 67.2676 131.819 67.0083 131.478C66.8948 131.329 66.7735 131.19 66.6521 131.064L66.538 130.949C66.517 130.929 66.4993 130.912 66.4852 130.899C66.3706 130.795 66.1755 130.788 66.0496 130.883C65.9237 130.977 65.9147 131.138 66.0294 131.242L66.0995 131.309C66.1198 131.329 66.1431 131.353 66.1688 131.38C66.2771 131.493 66.3855 131.617 66.4863 131.749C66.7062 132.038 66.8571 132.32 66.9092 132.572C66.9992 133.007 66.7962 133.314 66.1573 133.516C65.2593 133.8 64.4665 133.27 63.7867 132.137C63.5841 131.8 63.4101 131.436 63.2653 131.073C63.2315 130.988 63.201 130.907 63.1737 130.831L63.0934 130.592C63.0574 130.471 62.9215 130.391 62.7756 130.399L62.7205 130.406Z" fill="#DD936F"/>
<path d="M111.532 167.545C111.337 167.642 111.275 167.851 111.393 168.011L111.859 168.634L112.297 169.21C112.655 169.677 113.046 170.18 113.465 170.71C115.064 172.733 116.752 174.756 118.455 176.645C119.689 178.013 120.885 179.26 122.03 180.359C124.211 182.454 126.142 183.954 127.774 184.744C127.887 184.799 128.025 184.806 128.144 184.763L128.202 184.738L141.663 177.7C141.855 177.6 141.912 177.39 141.79 177.232C141.68 177.088 141.459 177.036 141.276 177.103L141.223 177.127L127.978 184.052L127.868 183.995C126.45 183.24 124.764 181.921 122.873 180.126L122.654 179.917C121.523 178.831 120.338 177.596 119.115 176.239C117.423 174.363 115.744 172.351 114.155 170.34L113.747 169.821C113.416 169.398 113.105 168.995 112.818 168.618L112.388 168.051L112.097 167.66C111.979 167.499 111.726 167.448 111.532 167.545Z" fill="black"/>
<path d="M105.823 168.757C105.744 168.632 105.558 168.584 105.407 168.65C105.273 168.708 105.212 168.836 105.256 168.951L105.277 168.993L112.51 180.352C112.589 180.476 112.776 180.524 112.926 180.459C113.06 180.401 113.121 180.273 113.077 180.158L113.056 180.115L105.823 168.757Z" fill="#DD936F"/>
<path fill-rule="evenodd" clip-rule="evenodd" d="M224.623 206.99C230.021 205.135 232.723 200.125 230.783 195.574L213.203 154.347C210.617 148.285 202.387 145.261 195.197 147.733C188.091 150.176 184.872 157.004 188.109 162.767L210.382 202.419C212.872 206.851 219.159 208.869 224.623 206.99Z" fill="#FFC999"/>
<path fill-rule="evenodd" clip-rule="evenodd" d="M223.896 179.171L212.882 153.014C209.723 147.33 198.11 145.074 191.278 147.782C184.447 150.489 181.634 157.294 185.036 162.882L200.579 188.412C200.579 188.412 218.026 185.058 223.896 179.171Z" fill="#FE4040"/>
<path d="M192.264 169.143C192.175 168.97 191.933 168.89 191.724 168.963C191.534 169.03 191.436 169.201 191.487 169.361L191.507 169.408L201.208 188.219C201.291 188.381 201.509 188.463 201.712 188.41L202.568 188.176L203.36 187.953C204.002 187.771 204.693 187.57 205.422 187.352C208.203 186.522 210.984 185.616 213.581 184.664L214.331 184.386C218.277 182.905 221.37 181.457 223.322 180.081C223.645 179.854 223.935 179.628 224.193 179.406C224.35 179.27 224.344 179.055 224.179 178.926C224.015 178.796 223.755 178.802 223.598 178.937C223.36 179.143 223.09 179.352 222.788 179.565C220.789 180.974 217.485 182.491 213.247 184.044C210.67 184.988 207.906 185.888 205.143 186.714L204.43 186.925C203.848 187.096 203.295 187.255 202.777 187.401L201.817 187.667L192.264 169.143Z" fill="black"/>
<path fill-rule="evenodd" clip-rule="evenodd" d="M156.91 202.055C157.227 204.703 159.892 206.739 163.117 206.797L219.801 207.806C226.31 207.922 231.52 203.378 231.019 198.021C230.531 192.785 224.782 188.98 218.482 189.722L162.354 196.33C158.974 196.728 156.574 199.252 156.91 202.055Z" fill="#FFC999"/>
<path fill-rule="evenodd" clip-rule="evenodd" d="M161.549 214.083L149.087 181.914C148.881 181.383 148.288 181.02 147.613 181.013L112.666 180.623C111.581 180.611 110.809 181.49 111.162 182.337L124.171 213.653C124.38 214.157 124.942 214.503 125.586 214.526L159.986 215.771C161.077 215.811 161.882 214.942 161.549 214.083Z" fill="#4E5C93"/>
<path fill-rule="evenodd" clip-rule="evenodd" d="M159.707 213.691L147.462 182.082C147.213 181.44 146.494 181.001 145.677 180.991L110.299 180.596C109.54 180.588 109 181.203 109.246 181.795L122.437 213.544C122.668 214.102 123.289 214.486 124.003 214.511L157.814 215.735C159.135 215.783 160.11 214.73 159.707 213.691Z" fill="black"/>
<path fill-rule="evenodd" clip-rule="evenodd" d="M142.671 184.037C142.276 184.401 142.418 185.038 142.989 185.462C143.56 185.886 144.344 185.935 144.74 185.573C145.135 185.209 144.993 184.571 144.422 184.148C143.851 183.723 143.066 183.674 142.671 184.037Z" fill="#ADC6FF"/>
<path fill-rule="evenodd" clip-rule="evenodd" d="M143.141 184.417C142.935 184.605 143.009 184.937 143.305 185.157C143.603 185.377 144.009 185.402 144.215 185.214C144.42 185.026 144.346 184.694 144.05 184.474C143.753 184.254 143.346 184.229 143.141 184.417Z" fill="#E4EBF7"/>
<path fill-rule="evenodd" clip-rule="evenodd" d="M145.993 208.034C143.985 207.874 142.929 207.181 143.119 205.8C140.704 205.174 140.974 203.486 140.974 203.486C140.974 203.486 136.325 203.427 135.543 201.788C135.239 201.151 135.829 200.47 136.656 200.424C146.615 199.866 153.717 195.512 153.717 195.512C153.717 195.512 149.802 190.767 150.216 188.577C150.338 187.93 151.364 187.721 151.844 188.243C155.95 192.715 164.183 196.221 164.183 196.221C164.183 196.221 174.067 203.862 163.346 207.327C163.346 207.327 155.173 210.015 149.483 209.674C146.789 209.513 145.993 208.034 145.993 208.034Z" fill="#FFC999"/>
<path d="M148.299 202.029C148.216 201.906 148.028 201.862 147.879 201.931C147.166 202.26 146.332 202.528 145.403 202.74C144.295 202.992 143.105 203.154 141.908 203.241L141.544 203.266C141.075 203.295 140.673 203.308 140.36 203.311L140.128 203.311C139.958 203.31 139.818 203.422 139.816 203.562C139.814 203.689 139.924 203.795 140.07 203.816L140.12 203.82L140.247 203.821C140.664 203.82 141.254 203.8 141.963 203.748C143.194 203.658 144.42 203.492 145.567 203.23C146.541 203.008 147.42 202.726 148.18 202.375C148.329 202.306 148.382 202.151 148.299 202.029Z" fill="#DD936F"/>
<path d="M149.236 204.554C149.162 204.428 148.977 204.375 148.824 204.436C148.732 204.473 148.64 204.508 148.546 204.543C147.364 204.983 146.094 205.266 144.818 205.421C144.031 205.516 143.4 205.547 143.007 205.545C142.832 205.543 142.692 205.656 142.69 205.796C142.687 205.923 142.798 206.029 142.944 206.05L142.994 206.054H143.104L143.332 206.05C143.739 206.038 144.276 206.001 144.908 205.924C146.236 205.763 147.56 205.468 148.8 205.007C148.898 204.97 148.996 204.933 149.092 204.894C149.246 204.833 149.31 204.681 149.236 204.554Z" fill="#DD936F"/>
<path d="M151.009 207.376C150.934 207.25 150.75 207.197 150.597 207.258C150.269 207.389 149.494 207.511 148.441 207.611C147.903 207.663 147.325 207.705 146.747 207.74L145.977 207.78C145.807 207.787 145.676 207.907 145.685 208.047C145.693 208.188 145.838 208.296 146.008 208.289L146.64 208.256L146.791 208.247C147.377 208.212 147.964 208.169 148.512 208.117L148.896 208.078C149.824 207.979 150.5 207.862 150.865 207.716C151.019 207.655 151.083 207.503 151.009 207.376Z" fill="#DD936F"/>
<path d="M218.441 189.47L163.712 195.639C163.543 195.658 163.425 195.786 163.448 195.926C163.469 196.051 163.597 196.143 163.745 196.146L163.795 196.143L218.524 189.974C218.693 189.955 218.811 189.827 218.788 189.687C218.767 189.562 218.639 189.471 218.491 189.468L218.441 189.47Z" fill="#DD936F"/>
</svg>
