<svg width="294" height="499" viewBox="0 0 294 499" fill="none" xmlns="http://www.w3.org/2000/svg">
<path fill-rule="evenodd" clip-rule="evenodd" d="M102.834 390.536C99.0233 390.136 96.2656 387.984 96.5851 384.737L103.428 314.551C103.921 309.548 109.219 305.897 115.09 306.514C120.962 307.13 125.05 311.768 124.091 316.722L109.909 386.227C109.287 389.443 106.645 390.936 102.834 390.536Z" fill="#FFC999"/>
<path fill-rule="evenodd" clip-rule="evenodd" d="M149.51 389.543C153.349 389.619 156.574 387.11 156.816 383.859L162.009 314.301C162.384 309.29 157.772 305.021 151.858 304.902C145.942 304.784 141.099 308.864 141.195 313.886L142.527 383.573C142.589 386.831 145.671 389.466 149.51 389.543Z" fill="#FFC999"/>
<path fill-rule="evenodd" clip-rule="evenodd" d="M153.659 239.933C160.628 240.072 166.096 245.052 165.766 250.962L162.222 314.496C161.948 319.389 157.124 323.204 151.352 323.088C145.582 322.972 140.974 318.97 140.972 314.071L140.954 250.467C140.952 244.55 146.69 239.794 153.659 239.933Z" fill="#FFC999"/>
<path fill-rule="evenodd" clip-rule="evenodd" d="M124.499 242.017C117.581 241.291 111.314 245.54 110.622 251.427L103.185 314.718C102.612 319.592 106.729 323.965 112.457 324.566C118.186 325.167 123.434 321.78 124.28 316.934L135.253 254.015C136.274 248.162 131.417 242.745 124.499 242.017Z" fill="#FFC999"/>
<path fill-rule="evenodd" clip-rule="evenodd" d="M157.987 392.093L143.161 392.256L142.764 415.312L176.17 414.944L176.198 411.404C176.203 410.103 175.109 408.986 173.6 408.753L164.698 406.638L160.108 404.487C158.726 403.839 157.876 402.602 157.897 401.262C157.942 398.382 158.012 393.495 157.987 392.093Z" fill="#4E5C93"/>
<path fill-rule="evenodd" clip-rule="evenodd" d="M94.4329 391.808L109.256 392.09L106.552 415.148L73.1513 414.511L73.1629 410.972C73.1726 409.671 74.2806 408.563 75.79 408.342L84.7163 406.298L89.3292 404.184C90.7197 403.547 91.9412 402.25 92.4387 400.977C93.359 398.624 94.3916 393.21 94.4329 391.808Z" fill="#4E5C93"/>
<path fill-rule="evenodd" clip-rule="evenodd" d="M156.653 392.821L143.169 392.969L142.133 374.876L157.615 374.706L156.653 392.821Z" fill="#FEC91E"/>
<path fill-rule="evenodd" clip-rule="evenodd" d="M94.637 392.546L108.982 392.803L112.785 374.72L97.3055 374.425L94.637 392.546Z" fill="#FAAD14"/>
<path d="M157.498 377.943C157.743 377.94 157.944 378.106 157.947 378.314C157.95 378.504 157.786 378.663 157.57 378.69L157.51 378.695L143.216 378.852C142.971 378.854 142.771 378.688 142.767 378.481C142.765 378.291 142.929 378.131 143.145 378.104L143.205 378.1L157.498 377.943Z" fill="#E4EBF7"/>
<path d="M176.336 411.36C176.461 411.359 176.564 411.444 176.566 411.55C176.567 411.643 176.491 411.721 176.388 411.741L176.342 411.745L143.037 412.112C142.912 412.113 142.809 412.029 142.808 411.922C142.806 411.829 142.883 411.751 142.986 411.732L143.032 411.727L176.336 411.36Z" fill="#A3B5D6"/>
<path d="M97.4045 377.662L111.696 377.935C111.94 377.939 112.134 378.112 112.129 378.319C112.123 378.509 111.953 378.663 111.736 378.684L111.676 378.686L97.3851 378.413C97.1403 378.409 96.9465 378.237 96.952 378.029C96.9574 377.839 97.1281 377.685 97.3444 377.665L97.4045 377.662Z" fill="#E4EBF7"/>
<path d="M73.0256 410.926L106.325 411.561C106.45 411.564 106.55 411.652 106.546 411.758C106.544 411.851 106.464 411.927 106.361 411.943L106.315 411.946L73.0153 411.31C72.8901 411.308 72.7911 411.221 72.7936 411.114C72.7966 411.021 72.8762 410.945 72.9794 410.929L73.0256 410.926Z" fill="#A3B5D6"/>
<path fill-rule="evenodd" clip-rule="evenodd" d="M176.339 411.553C176.308 409.555 174.575 407.871 172.246 407.579L164.698 406.628L164.276 411.615L176.339 411.553Z" fill="#E4EBF7"/>
<path fill-rule="evenodd" clip-rule="evenodd" d="M143.097 416.059L176.402 415.693C176.718 415.69 176.971 415.469 176.967 415.201L176.918 412.032C176.914 411.764 176.655 411.55 176.339 411.553L143.035 411.919C142.719 411.923 142.466 412.143 142.47 412.411L142.519 415.581C142.523 415.848 142.781 416.063 143.097 416.059Z" fill="#E4EBF7"/>
<path d="M157.647 400.097C157.891 400.05 158.134 400.181 158.188 400.388C158.243 400.595 158.089 400.801 157.846 400.847L157.719 400.875L157.67 400.886C157.521 400.921 157.355 400.966 157.175 401.02C156.661 401.176 156.147 401.377 155.671 401.628C155.479 401.729 155.299 401.835 155.129 401.947L155.062 401.994L155.078 401.995C155.254 402.016 155.443 402.04 155.641 402.069L156.052 402.131C156.332 402.176 156.624 402.227 156.925 402.282C157.203 402.333 157.478 402.386 157.746 402.44L158.547 402.609C158.588 402.618 158.622 402.626 158.65 402.632C159.035 402.719 159.11 403.153 158.772 403.331L158.73 403.353C158.703 403.369 158.666 403.39 158.621 403.416C158.493 403.493 158.348 403.586 158.192 403.695C157.871 403.918 157.549 404.173 157.238 404.46L157.195 404.501L157.285 404.5C157.45 404.501 157.62 404.505 157.794 404.512L158.059 404.524C158.799 404.563 159.587 404.647 160.386 404.764C160.68 404.807 160.963 404.852 161.228 404.898L161.749 404.993C161.821 405.008 161.879 405.019 161.92 405.027C162.398 405.127 162.372 405.711 161.886 405.78C161.809 405.791 161.654 405.824 161.449 405.888C161.1 405.996 160.751 406.152 160.426 406.362C160.105 406.57 159.825 406.821 159.597 407.119C159.461 407.298 159.18 407.349 158.97 407.233C158.761 407.117 158.7 406.88 158.837 406.701C159.123 406.326 159.475 406.01 159.876 405.75C159.968 405.691 160.06 405.635 160.152 405.584L160.258 405.525L160.232 405.522C159.591 405.428 158.959 405.356 158.359 405.313L158.003 405.291C157.339 405.256 156.748 405.262 156.25 405.315C155.856 405.356 155.594 404.978 155.828 404.706C155.938 404.578 156.053 404.453 156.17 404.331C156.565 403.922 156.983 403.562 157.406 403.252L157.503 403.182L157.138 403.11L156.733 403.033C156.44 402.979 156.156 402.93 155.885 402.887L155.53 402.833C154.9 402.741 154.389 402.692 154.041 402.697C153.655 402.701 153.44 402.32 153.685 402.068C154.094 401.647 154.605 401.285 155.193 400.975C155.729 400.692 156.3 400.469 156.871 400.296L157.114 400.225C157.343 400.162 157.526 400.12 157.647 400.097Z" fill="#E4EBF7"/>
<path d="M157.692 396.703L157.472 396.706C157.402 396.708 157.323 396.71 157.238 396.714L157.105 396.719C156.765 396.735 156.395 396.76 156.005 396.797C154.936 396.897 153.87 397.069 152.865 397.33C149.992 398.075 148.089 399.405 147.716 401.472C147.476 402.797 148.162 403.463 149.468 403.28C150.377 403.153 151.605 402.625 153.105 401.778C153.552 401.527 154.016 401.25 154.494 400.952C155.303 400.448 156.112 399.908 156.883 399.369L157.342 399.045L157.889 398.648C157.955 398.612 158.105 398.511 158.258 398.379C158.518 398.156 158.691 397.925 158.728 397.664C158.788 397.238 158.461 396.907 157.844 396.724C157.795 396.71 157.744 396.703 157.692 396.703ZM157.615 397.472C157.709 397.504 157.77 397.534 157.806 397.561L157.826 397.578L157.828 397.573C157.821 397.624 157.744 397.727 157.613 397.839C157.507 397.931 157.398 398.004 157.334 398.041L156.614 398.559C156.516 398.629 156.413 398.701 156.307 398.775C155.548 399.307 154.752 399.837 153.958 400.332C153.49 400.623 153.037 400.893 152.604 401.138C151.205 401.927 150.065 402.418 149.321 402.521C148.657 402.614 148.46 402.423 148.612 401.588C148.921 399.875 150.554 398.733 153.13 398.065C154.075 397.82 155.087 397.657 156.105 397.561C156.627 397.512 157.078 397.486 157.427 397.476L157.615 397.472Z" fill="#E4EBF7"/>
<path fill-rule="evenodd" clip-rule="evenodd" d="M106.21 415.893L72.9102 415.258C72.5949 415.252 72.3446 415.03 72.3513 414.762L72.4358 411.593C72.4424 411.324 72.7042 411.113 73.0207 411.119L106.319 411.754C106.636 411.76 106.885 411.982 106.879 412.25L106.794 415.419C106.787 415.687 106.525 415.899 106.21 415.893Z" fill="#E4EBF7"/>
<path fill-rule="evenodd" clip-rule="evenodd" d="M73.0207 411.119C73.073 409.121 74.8254 407.451 77.158 407.176L84.7163 406.287L85.082 411.279L73.0207 411.119Z" fill="#E4EBF7"/>
<path d="M91.2955 400.101C91.3526 399.894 91.5962 399.766 91.8398 399.814L91.9795 399.844C92.1386 399.881 92.3537 399.939 92.6094 400.018C93.1749 400.194 93.7405 400.421 94.272 400.705C94.8618 401.021 95.3726 401.39 95.7796 401.817C96.022 402.071 95.8027 402.45 95.417 402.443C95.0057 402.435 94.3649 402.498 93.5679 402.619C93.2903 402.66 92.9988 402.709 92.6981 402.762L92.2972 402.834L91.9491 402.9L92.0378 402.965C92.384 403.224 92.7279 403.516 93.0577 403.843L93.2533 404.043C93.3754 404.171 93.4932 404.303 93.6074 404.438C93.8383 404.712 93.5722 405.088 93.1786 405.043C92.6793 404.986 92.0846 404.975 91.4164 405.005C90.8199 405.033 90.1863 405.091 89.5394 405.172L89.1671 405.221L89.26 405.273L89.3954 405.353L89.5321 405.439C89.9367 405.704 90.2902 406.025 90.5763 406.408C90.7106 406.588 90.648 406.825 90.4366 406.939C90.2252 407.053 89.9452 407 89.8115 406.82C89.5838 406.515 89.3019 406.26 88.9781 406.047C88.658 405.838 88.3136 405.682 87.9692 405.572C87.7663 405.508 87.6138 405.474 87.5373 405.462C87.0526 405.39 87.0331 404.805 87.5124 404.709L87.838 404.649L87.9321 404.632C88.2595 404.575 88.6204 404.518 89.0036 404.465C89.8152 404.352 90.6158 404.272 91.3684 404.237C91.6381 404.225 91.8981 404.219 92.1478 404.22L92.2419 404.221L92.1872 404.168C91.943 403.94 91.6916 403.73 91.4389 403.541L91.2494 403.403C91.1339 403.322 91.0252 403.249 90.925 403.186L90.7203 403.062C90.702 403.051 90.6887 403.044 90.679 403.038C90.3431 402.859 90.4232 402.425 90.8084 402.341L91.3095 402.237C91.6946 402.159 92.1022 402.081 92.5134 402.009C92.8226 401.955 93.1227 401.905 93.4094 401.862C93.6931 401.819 93.9591 401.782 94.2058 401.754L94.4032 401.731L94.3303 401.68C94.2179 401.605 94.0995 401.531 93.9768 401.46L93.7884 401.356C93.3159 401.103 92.8068 400.899 92.2972 400.74C92.1635 400.699 92.0378 400.663 91.9206 400.632L91.7171 400.581C91.6782 400.572 91.6503 400.566 91.6333 400.563C91.3897 400.514 91.2384 400.307 91.2955 400.101Z" fill="#E4EBF7"/>
<path d="M91.8294 396.42C91.779 396.419 91.7286 396.426 91.6806 396.44C91.0489 396.622 90.7172 396.962 90.7901 397.398C90.832 397.65 91.0009 397.875 91.2499 398.093C91.4012 398.225 91.5494 398.327 91.6563 398.39L91.677 398.408C91.7116 398.436 91.7881 398.492 91.8853 398.565L92.3051 398.871C92.4047 398.943 92.5079 399.018 92.6155 399.095C93.3839 399.642 94.1893 400.19 94.9948 400.702C95.4704 401.004 95.9327 401.285 96.3773 401.541C97.8649 402.396 99.0841 402.932 99.9892 403.065C101.29 403.255 101.98 402.595 101.756 401.269C101.409 399.219 99.553 397.879 96.7315 397.107C95.6569 396.813 94.5113 396.622 93.3663 396.512C93.0461 396.481 92.7436 396.459 92.4642 396.444L92.2595 396.433C92.0566 396.424 91.9102 396.421 91.8294 396.42ZM91.9017 397.19L92.0414 397.194L92.2115 397.201C92.5286 397.216 92.8827 397.239 93.2642 397.277C94.3539 397.381 95.4425 397.562 96.4533 397.839C98.9808 398.531 100.571 399.679 100.859 401.379C101 402.213 100.802 402.403 100.143 402.307C99.403 402.198 98.2719 401.701 96.8857 400.904C96.4539 400.655 96.0025 400.382 95.5378 400.086C94.9055 399.684 94.2713 399.259 93.656 398.829L93.1986 398.506C93.0401 398.393 92.8894 398.284 92.7491 398.182L92.2182 397.789C92.1119 397.723 92.005 397.649 91.9005 397.558L91.8489 397.51C91.7681 397.433 91.7152 397.363 91.6952 397.316L91.6885 397.294C91.7146 397.267 91.7827 397.23 91.9017 397.19Z" fill="#E4EBF7"/>
<path fill-rule="evenodd" clip-rule="evenodd" d="M172.829 141.538C172.829 141.538 181.833 139.151 185.827 147.089C195.279 148.632 194.402 157.233 194.402 157.233C194.402 157.233 200.113 163.119 191.828 167.656C192.37 174.408 183.229 174.408 183.229 174.408C183.229 174.408 182.061 179.841 174.889 178.643C168.49 184.458 154.536 185.36 148.534 180.127C139.996 187.586 121.711 182.38 122.771 176.485C111.337 177.441 103.925 167.993 108.929 158.434C102.542 152.278 107.589 147.447 107.589 147.447C107.589 147.447 103.02 131.935 115.453 128.074C120.45 118.709 135.992 123.58 135.992 123.58C135.992 123.58 145.125 120.633 149.823 127.131C160.639 127.076 161.072 132.068 162.663 136.091C172.195 135.263 172.829 141.538 172.829 141.538Z" fill="black"/>
<path fill-rule="evenodd" clip-rule="evenodd" d="M142.092 137.833C134.899 139.94 131.753 135.492 131.753 135.492C131.753 135.492 127.437 129.213 127.43 133.43C127.426 135.67 122.9 133.312 121.511 135.889C120.575 137.623 124.033 139.223 120.821 143.944C118.96 146.679 128.465 147.369 123.666 152.596C123.666 152.596 128.703 157.496 122.15 160.207L122.624 166.691C122.9 170.464 126.95 173.213 131.349 172.609C135.542 172.035 138.348 168.634 137.55 165.093L135.803 157.347C146.498 155.895 144.668 143.35 142.092 137.833Z" fill="#FFC999"/>
<path fill-rule="evenodd" clip-rule="evenodd" d="M203.831 167.196L209.258 150.922C209.258 150.922 218.145 137.718 221.354 138.53C224.335 139.637 217.597 143.417 216.261 147.148C219.098 146.975 217.81 150.557 217.81 150.557C217.81 150.557 220.068 150.488 219.461 153.406C221.558 154.459 219.877 157.808 219.877 157.808C219.877 157.808 215.663 166.63 210.995 172.514C210.995 172.514 203.25 177.59 203.831 167.196Z" fill="#FFC999"/>
<path fill-rule="evenodd" clip-rule="evenodd" d="M205.037 161.698C205.037 161.698 205.847 156.116 206.452 153.274C207.057 150.43 205.643 145.295 208.086 146.656C209.728 147.571 209.443 150.625 209.383 152.878C209.324 155.13 213.612 160.469 210.417 164.165C208.258 166.662 204.855 166.99 205.037 161.698Z" fill="#FFC999"/>
<path fill-rule="evenodd" clip-rule="evenodd" d="M210.019 166.089C207.794 164.833 204.8 165.286 203.221 167.116L172.756 202.429C170.083 205.753 171.126 210.291 175.076 212.518C179.06 214.764 184.442 213.784 186.989 210.347L211.65 171.637C212.878 169.708 212.171 167.303 210.019 166.089Z" fill="#FFC999"/>
<path d="M129.7 146.325C129.855 146.142 130.156 146.102 130.371 146.234L130.432 146.268C130.472 146.29 130.527 146.319 130.596 146.354C130.794 146.452 131.025 146.55 131.285 146.643C132.491 147.071 133.841 147.213 135.263 146.898C135.519 146.841 135.782 146.972 135.849 147.19C135.916 147.408 135.762 147.63 135.505 147.687C133.861 148.052 132.301 147.888 130.914 147.395C130.397 147.211 130.02 147.025 129.807 146.894C129.592 146.762 129.544 146.507 129.7 146.325Z" fill="#F5222D"/>
<path d="M129.373 139.869C129.626 139.835 129.863 139.98 129.903 140.195C130.184 141.684 129.093 143.083 127.442 143.308C125.792 143.531 124.241 142.49 123.96 141.001C123.92 140.787 124.092 140.585 124.344 140.552C124.596 140.518 124.834 140.663 124.874 140.877C125.076 141.952 126.169 142.685 127.296 142.533C128.424 142.378 129.192 141.393 128.99 140.318C128.949 140.104 129.121 139.903 129.373 139.869Z" fill="black"/>
<path d="M140.947 138.571C141.186 138.538 141.412 138.676 141.45 138.879C141.727 140.351 140.77 141.731 139.261 141.935C137.751 142.14 136.335 141.083 136.057 139.612C136.019 139.409 136.182 139.218 136.421 139.185C136.66 139.153 136.885 139.291 136.923 139.494C137.13 140.587 138.131 141.334 139.122 141.2C140.112 141.065 140.79 140.09 140.583 138.997C140.545 138.794 140.708 138.603 140.947 138.571Z" fill="black"/>
<path d="M124.553 135.916C126.071 135.416 127.674 135.392 129.164 135.647L129.404 135.69C129.626 135.734 129.796 135.775 129.905 135.806C130.147 135.876 130.277 136.099 130.195 136.304C130.113 136.51 129.85 136.619 129.608 136.55L129.506 136.523C129.385 136.493 129.207 136.455 128.982 136.417C127.649 136.188 126.217 136.21 124.887 136.648C124.268 136.851 123.694 137.141 123.175 137.525C122.983 137.668 122.69 137.65 122.523 137.488C122.354 137.324 122.374 137.076 122.567 136.934C123.169 136.488 123.835 136.152 124.553 135.916Z" fill="black"/>
<path fill-rule="evenodd" clip-rule="evenodd" d="M185.081 211.902C189.01 209.578 189.974 204.99 187.234 201.656L160.542 169.166C157.801 165.831 152.397 165.013 148.468 167.337C144.539 169.662 143.575 174.249 146.314 177.584L173.007 210.074C175.746 213.409 181.151 214.227 185.081 211.902Z" fill="#FFC999"/>
<path d="M145.952 177.515C146.062 177.449 146.209 177.463 146.301 177.54L146.333 177.572L157.49 191.152L171.385 182.74C171.495 182.674 171.642 182.686 171.735 182.763L171.767 182.795C171.845 182.887 171.831 183.013 171.741 183.091L171.703 183.119L157.583 191.667C157.472 191.734 157.324 191.722 157.231 191.643L157.199 191.611L145.884 177.838C145.797 177.733 145.828 177.588 145.952 177.515Z" fill="#4E5C93"/>
<path fill-rule="evenodd" clip-rule="evenodd" d="M157.63 191.357L146.314 177.583C143.586 174.263 144.555 169.652 148.468 167.338C152.38 165.022 157.813 165.845 160.541 169.166L171.749 182.807L157.63 191.357Z" fill="#FEC91E"/>
<path fill-rule="evenodd" clip-rule="evenodd" d="M153.824 179.27C155.677 182.697 159.109 188.594 159.536 192.49C160.228 198.807 155.382 203.507 155.382 203.507C155.382 203.507 155.333 201.649 154.863 218.015C132.664 221.32 118.511 217.806 118.511 217.806L118.944 213.468L115.339 203.213C115.339 203.213 113.149 199.394 108.648 190.874C105.52 184.952 105.737 177.609 106.161 173.683C106.342 172.001 105.401 168.489 107.368 168.227C114.049 167.335 118.685 166.855 118.685 166.855L119.498 164.734C119.607 164.093 120.254 163.616 121.019 163.616H138.197C138.898 163.616 139.51 164.019 139.683 164.596L140.888 166.855L149.941 167.129C151.527 167.393 152.898 171.609 153.063 172.973L153.824 179.27Z" fill="#FEC91E"/>
<path d="M118.467 167.435C118.608 167.34 118.805 167.349 118.932 167.447L118.972 167.484L134.482 184.08L140.502 168.599C140.558 168.455 140.728 168.37 140.898 168.393L140.955 168.405C141.125 168.452 141.224 168.597 141.197 168.741L141.184 168.79L134.956 184.808C134.873 185.023 134.557 185.084 134.371 184.937L134.334 184.902L118.41 167.863C118.286 167.731 118.313 167.539 118.467 167.435Z" fill="#CCD7EE"/>
<path fill-rule="evenodd" clip-rule="evenodd" d="M139.061 186.001C140.691 188.333 139.956 191.257 137.421 192.533C134.886 193.809 131.51 192.952 129.881 190.621C128.251 188.288 128.985 185.364 131.521 184.088C134.055 182.812 137.431 183.669 139.061 186.001Z" fill="#CCD7EE"/>
<path fill-rule="evenodd" clip-rule="evenodd" d="M139.646 185.99C141.276 188.321 140.541 191.246 138.006 192.521C135.471 193.797 132.095 192.941 130.466 190.609C128.836 188.277 129.57 185.352 132.106 184.077C134.64 182.801 138.017 183.658 139.646 185.99Z" fill="#E4EBF7"/>
<path fill-rule="evenodd" clip-rule="evenodd" d="M138.611 186.396C139.877 188.206 139.307 190.477 137.337 191.467C135.369 192.458 132.748 191.793 131.484 189.983C130.219 188.172 130.788 185.902 132.757 184.911C134.725 183.92 137.346 184.585 138.611 186.396Z" fill="#4E5C93"/>
<path d="M106.169 173.45C106.32 173.454 106.439 173.561 106.435 173.69L106.411 174.614L106.407 174.79C106.37 176.631 106.366 178.578 106.417 180.399L106.433 180.923C106.502 182.898 106.635 184.487 106.845 185.555C107.083 186.766 107.996 188.824 109.414 191.476C109.661 191.939 109.921 192.416 110.194 192.905C110.944 194.252 111.748 195.629 112.552 196.959L112.959 197.628L113.612 198.687L113.642 198.739L119.464 213.469L119.476 213.566L118.981 217.841L119.412 217.913C119.535 217.933 119.665 217.953 119.803 217.974L120.016 218.007C121.058 218.163 122.265 218.319 123.623 218.465C132.894 219.462 143.388 219.467 154.199 217.83L154.639 217.762L154.676 216.572C154.704 215.794 154.745 214.724 154.799 213.404L155.012 208.305L155.197 204.013L155.231 203.91L155.364 203.7L155.576 203.355C155.636 203.256 155.699 203.151 155.763 203.043L155.861 202.876C156.334 202.063 156.808 201.182 157.25 200.265C157.878 198.959 158.389 197.689 158.741 196.496C159.081 195.342 159.262 194.292 159.262 193.372C159.262 191.068 158.902 189.299 158.094 187.476C157.689 186.562 157.17 185.62 156.421 184.416L156.049 183.827C155.546 183.044 154.575 181.558 154.012 180.698L153.584 180.043L153.551 179.94L153.377 176.048C153.371 175.919 153.489 175.811 153.641 175.807C153.775 175.802 153.89 175.881 153.919 175.988L153.925 176.03L154.095 179.867L156.339 183.309L156.752 183.953L157.056 184.44C157.735 185.547 158.221 186.441 158.606 187.312C159.438 189.19 159.81 191.013 159.81 193.372C159.81 194.335 159.622 195.421 159.272 196.608C158.914 197.825 158.394 199.116 157.757 200.44C157.374 201.237 156.967 202.005 156.557 202.726L156.352 203.082C156.251 203.255 156.155 203.416 156.064 203.568L155.742 204.086L155.294 214.735C155.228 216.409 155.189 217.509 155.185 217.893V217.956C155.185 218.068 155.091 218.164 154.961 218.185C143.856 219.933 133.067 219.949 123.554 218.927C122.323 218.794 121.215 218.654 120.241 218.512L119.921 218.465C119.7 218.432 119.496 218.4 119.309 218.37L118.625 218.254C118.507 218.231 118.422 218.146 118.412 218.047L118.412 218.004L118.925 213.57L113.141 198.923L112.844 198.448C112.609 198.068 112.347 197.639 112.065 197.172C111.258 195.837 110.452 194.456 109.698 193.104L109.298 192.376C109.232 192.256 109.168 192.138 109.104 192.019L108.914 191.668C107.478 188.979 106.553 186.896 106.304 185.631C106.071 184.443 105.932 182.65 105.869 180.409C105.825 178.842 105.822 177.184 105.845 175.58L105.867 174.436L105.887 173.676C105.891 173.548 106.017 173.447 106.169 173.45Z" fill="#4E5C93"/>
<path fill-rule="evenodd" clip-rule="evenodd" d="M89.8218 217.382L89.5746 217.301C85.178 215.853 82.9979 211.654 84.7042 207.923L100.984 172.337C102.692 168.606 107.64 166.756 112.036 168.205L112.283 168.286C116.68 169.735 118.86 173.933 117.152 177.665L100.874 213.249C99.1661 216.981 94.2179 218.831 89.8218 217.382Z" fill="#FFC999"/>
<path fill-rule="evenodd" clip-rule="evenodd" d="M118.859 221.275C111.06 221.794 88.0603 263.104 81.0674 278.06C81.9986 281.072 92.1745 286.902 92.1745 286.902C92.1745 286.902 91.5664 289.3 91.1904 290.74C97.8461 295.386 110.718 297.909 110.718 297.909L110.746 299.97C131.326 308.012 158.884 300.304 158.884 300.304C158.884 300.304 159.398 299.858 159.03 298.241C168.373 298.149 188.381 288.089 188.381 288.089L185.537 283.112L193.766 275.964C193.766 275.964 171.544 241.271 164.704 231.567C158.699 223.049 153.066 220.596 153.066 220.596C153.066 220.596 132.697 220.356 118.859 221.275Z" fill="#4E5C93"/>
<path fill-rule="evenodd" clip-rule="evenodd" d="M154.557 221.275L153.969 217.491C153.969 217.491 136.367 217.58 119.103 216.846C118.668 218.527 118.167 221.549 118.167 221.549C119.618 220.537 135.299 223.492 154.557 221.275Z" fill="#4E5C93"/>
<path d="M153.914 228.653C154.069 228.589 154.253 228.631 154.35 228.746L154.379 228.788L188.342 287.668C188.413 287.794 188.373 287.944 188.244 288.03L188.031 288.167L187.683 288.384C187.598 288.436 187.508 288.49 187.413 288.548C186.734 288.956 185.936 289.411 185.024 289.901C182.418 291.298 179.412 292.696 176.048 293.999C170.816 296.026 165.204 297.636 159.275 298.675C159.087 298.708 158.904 298.606 158.866 298.447C158.827 298.288 158.947 298.132 159.135 298.099C165.011 297.069 170.574 295.473 175.76 293.464C179.095 292.172 182.073 290.787 184.653 289.404C185.455 288.974 186.167 288.571 186.784 288.204L187.148 287.985L187.593 287.71L153.756 229.047C153.68 228.915 153.73 228.759 153.866 228.677L153.914 228.653Z" fill="black"/>
<path d="M112.819 240.881C112.887 240.729 113.087 240.652 113.266 240.71C113.427 240.761 113.517 240.904 113.483 241.043L113.468 241.089L91.2718 290.918L91.6363 291.11L92.0779 291.335C92.4618 291.529 92.8864 291.737 93.3486 291.955C95.1989 292.832 97.2727 293.708 99.5196 294.526C103.182 295.859 106.939 296.903 110.699 297.548C110.887 297.58 111.008 297.735 110.97 297.894C110.932 298.054 110.749 298.157 110.562 298.124C106.752 297.471 102.95 296.415 99.2462 295.067C96.9762 294.24 94.8812 293.355 93.0109 292.47C92.449 292.204 91.9424 291.954 91.4941 291.725L91.0288 291.484L90.6577 291.284C90.5374 291.217 90.4797 291.094 90.5089 290.978L90.524 290.934L112.819 240.881Z" fill="black"/>
<path d="M127.696 222.388L127.752 222.394C127.921 222.423 128.036 222.551 128.031 222.693L128.021 222.753L126.693 228.442C126.236 230.412 125.748 232.521 125.235 234.748L124.954 235.975C122.815 245.284 120.677 254.762 118.661 263.929L118.198 266.038C117.952 267.163 117.709 268.277 117.469 269.379L116.186 275.324C114.296 284.154 112.692 291.962 111.435 298.515L111.139 300.064L111.612 300.197C112.115 300.336 112.62 300.47 113.128 300.597L113.892 300.786C126.235 303.752 139.426 303.584 151.884 301.517C153.86 301.189 155.643 300.838 157.203 300.487L157.653 300.384C157.871 300.334 158.075 300.285 158.267 300.239L158.829 300.098L143.374 234.36C143.341 234.216 143.436 234.076 143.592 234.026L143.646 234.014C143.816 233.985 143.98 234.066 144.039 234.198L144.055 234.244L159.571 300.243C159.606 300.39 159.505 300.535 159.338 300.581L158.83 300.712L158.458 300.804C158.199 300.867 157.917 300.933 157.613 301.003L157.381 301.056C155.807 301.41 154.009 301.764 152.017 302.094C139.461 304.177 126.166 304.346 113.703 301.352C112.669 301.103 111.648 300.834 110.639 300.543C110.479 300.496 110.381 300.359 110.408 300.218L110.839 297.961C112.083 291.501 113.657 283.847 115.504 275.22L116.313 271.463C116.705 269.651 117.106 267.805 117.517 265.931C119.513 256.813 121.641 247.347 123.779 238.014L125.632 229.971L127.345 222.625C127.378 222.481 127.529 222.384 127.696 222.388Z" fill="black"/>
<path d="M136.013 223.522C136.186 223.514 136.335 223.614 136.372 223.752L136.379 223.8L140.026 278.689C140.037 278.851 139.891 278.99 139.699 279C139.527 279.008 139.378 278.908 139.341 278.77L139.334 278.723L135.687 223.833C135.676 223.67 135.823 223.531 136.013 223.522Z" fill="black"/>
<path d="M145.281 222.118C145.446 222.075 145.619 222.141 145.694 222.267L145.715 222.312L159.408 259.722C159.465 259.877 159.362 260.042 159.179 260.09C159.015 260.134 158.841 260.068 158.767 259.941L158.745 259.897L145.053 222.486C144.996 222.331 145.098 222.166 145.281 222.118Z" fill="black"/>
<path d="M120.019 221.255C127.789 221.563 135.331 221.702 142.045 221.702L144.336 221.696C146.702 221.684 148.792 221.653 150.388 221.611L151.146 221.589C151.378 221.582 151.587 221.573 151.771 221.566L152.143 221.549C152.266 221.542 152.369 221.536 152.446 221.53L152.539 221.522L152.579 221.509C152.63 221.495 152.685 221.492 152.74 221.5L152.794 221.511L152.839 221.516C152.922 221.529 152.932 221.575 153.003 221.92L152.861 222.046C152.817 222.081 152.805 222.082 152.774 222.083C152.747 222.09 152.718 222.095 152.684 222.1L152.627 222.106C152.579 222.111 152.518 222.116 152.444 222.121L152.185 222.136C151.852 222.154 151.383 222.172 150.808 222.188L149.614 222.219C148.047 222.253 146.111 222.276 143.963 222.286L143.583 222.287C136.481 222.311 128.366 222.175 119.987 221.842C119.796 221.835 119.648 221.697 119.657 221.535C119.666 221.372 119.829 221.247 120.019 221.255Z" fill="black"/>
<path fill-rule="evenodd" clip-rule="evenodd" d="M110.652 191.874L117.813 176.221C119.54 172.448 117.313 168.162 112.867 166.698C108.421 165.233 103.371 167.121 101.644 170.894L94.552 186.398L110.652 191.874Z" fill="#FEC91E"/>
<path d="M138.131 168.446C138.282 168.446 138.405 168.55 138.405 168.679C138.405 168.793 138.308 168.888 138.18 168.907L138.131 168.911H123.438C123.287 168.911 123.164 168.807 123.164 168.679C123.164 168.564 123.261 168.469 123.389 168.449L123.438 168.446H138.131Z" fill="#4E5C93"/>
<path d="M117.791 176.215C117.845 176.095 118.005 176.036 118.145 176.082C118.271 176.123 118.34 176.235 118.315 176.342L118.302 176.383L111.141 192.035C111.091 192.142 110.959 192.201 110.831 192.179L110.783 192.167L94.6832 186.691C94.5429 186.643 94.4748 186.508 94.5307 186.388C94.5811 186.283 94.7123 186.225 94.8399 186.248L94.8873 186.259L110.73 191.647L117.791 176.215Z" fill="#4E5C93"/>
<path fill-rule="evenodd" clip-rule="evenodd" d="M134.931 218.496L149.135 185.624C149.37 185.083 149.986 184.728 150.666 184.745L185.881 185.598C186.975 185.624 187.707 186.563 187.31 187.428L172.598 219.394C172.362 219.909 171.778 220.247 171.127 220.248L136.418 220.3C135.318 220.302 134.552 219.373 134.931 218.496Z" fill="#4E5C93"/>
<path fill-rule="evenodd" clip-rule="evenodd" d="M136.807 218.156L150.764 185.857C151.047 185.201 151.793 184.772 152.616 184.792L188.268 185.656C189.032 185.674 189.545 186.33 189.266 186.935L174.351 219.344C174.089 219.914 173.443 220.289 172.723 220.29L138.608 220.341C137.275 220.343 136.347 219.218 136.807 218.156Z" fill="black"/>
<path fill-rule="evenodd" clip-rule="evenodd" d="M155.487 188.055C155.867 188.445 155.691 189.101 155.094 189.519C154.497 189.938 153.706 189.961 153.325 189.57C152.946 189.18 153.121 188.524 153.718 188.106C154.316 187.687 155.107 187.664 155.487 188.055Z" fill="#4E5C93"/>
<path fill-rule="evenodd" clip-rule="evenodd" d="M154.995 188.431C155.193 188.634 155.101 188.974 154.791 189.192C154.481 189.408 154.069 189.421 153.873 189.218C153.676 189.015 153.767 188.675 154.077 188.457C154.386 188.241 154.798 188.229 154.995 188.431Z" fill="#FFC999"/>
<path fill-rule="evenodd" clip-rule="evenodd" d="M148.357 218.004C147.979 220.248 145.587 221.843 142.928 221.624L91.5962 217.401C86.8946 216.881 83.5999 213.2 84.2717 209.217C84.9484 205.197 89.3949 202.442 94.1116 203.117L144.564 213.276C147.079 213.783 148.723 215.833 148.357 218.004Z" fill="#FFC999"/>
<path fill-rule="evenodd" clip-rule="evenodd" d="M148.366 223.297C148.366 223.297 136.587 222.283 135.072 217.833C133.7 213.802 138.272 212.156 138.272 212.156C138.272 212.156 142.513 209.909 147.994 209.134C151.606 208.624 158.591 208.244 159.162 209.817C159.909 211.869 151.974 211.909 151.96 213.471C151.945 215.074 153.585 215.169 157.23 216.426C159.51 217.212 160.93 216.725 162.712 217.704C166.195 219.616 162.098 225.305 148.366 223.297Z" fill="#FFC999"/>
<path d="M134.356 139.273C134.524 139.26 134.674 139.354 134.715 139.488L134.739 139.616C134.747 139.654 134.76 139.702 134.777 139.761C134.838 139.965 134.934 140.202 135.075 140.469C135.482 141.244 136.164 142.096 137.186 142.993C137.321 143.112 137.311 143.302 137.166 143.411L136.723 143.736C136.078 144.206 135.516 144.597 135.035 144.913L134.695 145.133L134.344 145.348C134.335 145.353 134.328 145.357 134.321 145.361C134.165 145.45 133.954 145.414 133.85 145.282C133.745 145.15 133.787 144.971 133.943 144.882L134.106 144.784L134.29 144.669C134.356 144.628 134.427 144.583 134.502 144.533L134.619 144.457C135.039 144.181 135.523 143.847 136.072 143.45L136.452 143.173L136.31 143.042C135.505 142.281 134.927 141.549 134.54 140.862L134.454 140.704C134.184 140.191 134.07 139.807 134.047 139.585C134.031 139.426 134.168 139.287 134.356 139.273Z" fill="#DD936F"/>
<path d="M128.666 156.732C128.728 156.582 128.922 156.504 129.099 156.556C131.354 157.233 133.597 157.422 135.762 157.154C135.948 157.131 136.12 157.24 136.148 157.398C136.174 157.555 136.046 157.701 135.86 157.725C133.585 158.006 131.231 157.808 128.873 157.1C128.695 157.047 128.603 156.882 128.666 156.732Z" fill="#DD936F"/>
<path d="M216.495 146.938C216.631 147.048 216.636 147.231 216.507 147.346L216.349 147.491L216.148 147.68C216.078 147.747 216.004 147.818 215.928 147.892C215.492 148.318 215.056 148.774 214.649 149.24C214.246 149.701 213.895 150.147 213.609 150.569C212.637 152.005 212.557 152.922 213.481 153.25C213.654 153.311 213.736 153.48 213.664 153.626C213.592 153.774 213.392 153.843 213.219 153.782C211.756 153.264 211.869 151.982 213.02 150.282C213.319 149.839 213.685 149.375 214.102 148.897C214.521 148.417 214.968 147.951 215.415 147.514L215.747 147.196L216.015 146.949C216.143 146.833 216.359 146.829 216.495 146.938Z" fill="#DD936F"/>
<path d="M217.81 150.489C217.924 150.616 217.897 150.797 217.748 150.894L217.582 151.005L217.37 151.15C217.296 151.202 217.219 151.256 217.138 151.314C216.679 151.643 216.219 151.995 215.792 152.356C215.336 152.74 214.944 153.112 214.635 153.461C213.811 154.392 213.682 155.005 214.271 155.312C214.517 155.44 214.793 155.468 215.112 155.405C215.578 155.313 216.104 155.032 216.643 154.619C216.886 154.431 217.117 154.23 217.325 154.028L217.483 153.87C217.527 153.825 217.561 153.789 217.583 153.764C217.697 153.638 217.91 153.613 218.059 153.709C218.209 153.806 218.237 153.987 218.124 154.114L218.01 154.235C217.962 154.284 217.903 154.343 217.836 154.408C217.612 154.626 217.364 154.842 217.098 155.046C216.482 155.519 215.867 155.848 215.266 155.967C214.782 156.062 214.324 156.015 213.916 155.804C212.855 155.252 213.058 154.282 214.092 153.115C214.423 152.742 214.836 152.35 215.312 151.947C215.755 151.574 216.227 151.211 216.7 150.873L216.939 150.704L217.334 150.436C217.483 150.339 217.696 150.363 217.81 150.489Z" fill="#DD936F"/>
<path d="M218.652 153.333C218.837 153.308 219.011 153.416 219.04 153.573C219.069 153.73 218.943 153.878 218.757 153.903C218.303 153.964 217.722 154.312 217.027 155.006C215.567 156.464 215.264 157.402 215.699 157.618C216.148 157.841 217.214 157.428 217.9 156.597C218.142 156.303 218.672 156.572 218.481 156.892C217.628 158.321 216.628 159.318 215.384 160.092L215.074 160.279C214.553 160.586 214.362 160.673 212.925 161.317L212.589 161.471C210.638 162.387 209.85 163.192 209.4 165.098C209.363 165.254 209.183 165.356 208.999 165.324C208.815 165.293 208.696 165.141 208.733 164.985C209.242 162.833 210.195 161.911 212.433 160.886L213.745 160.293C214.246 160.062 214.421 159.963 214.806 159.735C215.551 159.292 216.202 158.773 216.787 158.123L216.81 158.096L216.727 158.125C216.255 158.277 215.797 158.297 215.437 158.152L215.356 158.116C214.387 157.635 214.806 156.333 216.509 154.633C217.299 153.844 218.006 153.42 218.652 153.333Z" fill="#DD936F"/>
<path d="M209.429 149.775C209.597 149.763 209.747 149.857 209.787 149.992L209.796 150.038L210.208 154.261L210.335 154.452L210.43 154.602C210.625 154.915 210.819 155.264 211.002 155.64C211.529 156.733 211.845 157.829 211.838 158.863C211.832 159.67 211.628 160.406 211.195 161.05C211.102 161.188 210.895 161.236 210.731 161.157C210.568 161.078 210.512 160.902 210.605 160.764C210.976 160.211 211.153 159.573 211.158 158.86C211.164 157.914 210.869 156.888 210.372 155.86C210.234 155.573 210.087 155.303 209.94 155.054L209.829 154.871C209.718 154.693 209.634 154.568 209.586 154.503C209.568 154.478 209.554 154.45 209.545 154.421L209.537 154.376L209.118 150.086C209.103 149.927 209.242 149.788 209.429 149.775Z" fill="#DD936F"/>
<path d="M152.35 217.562C152.463 217.435 152.675 217.408 152.826 217.503L152.913 217.556C153.019 217.617 153.179 217.704 153.393 217.809C153.873 218.045 154.439 218.282 155.089 218.503C157.333 219.267 159.962 219.658 162.931 219.473C163.118 219.462 163.281 219.581 163.295 219.74C163.309 219.899 163.168 220.037 162.981 220.049C159.904 220.24 157.172 219.834 154.836 219.038C154.155 218.806 153.559 218.557 153.052 218.308C152.918 218.242 152.797 218.179 152.69 218.121L152.587 218.064C152.506 218.018 152.451 217.985 152.42 217.966C152.27 217.871 152.239 217.69 152.35 217.562Z" fill="#DD936F"/>
<path d="M150.609 220.073C150.688 219.929 150.891 219.867 151.06 219.934C151.23 220.002 151.401 220.066 151.574 220.128C154.183 221.062 156.909 221.347 159.205 221.266L159.468 221.255C159.62 221.248 159.724 221.241 159.776 221.236C159.963 221.219 160.13 221.335 160.149 221.493C160.169 221.652 160.033 221.793 159.847 221.81L159.654 221.823C159.61 221.825 159.561 221.828 159.507 221.831C157.063 221.948 154.129 221.67 151.31 220.659C151.129 220.594 150.95 220.527 150.772 220.457C150.602 220.389 150.529 220.217 150.609 220.073Z" fill="#DD936F"/>
<path d="M147.687 221.504C147.784 221.368 147.993 221.324 148.154 221.406L148.231 221.442C148.325 221.486 148.473 221.547 148.675 221.623C149.133 221.793 149.693 221.964 150.358 222.124C151.824 222.478 153.577 222.725 155.629 222.82C155.816 222.829 155.96 222.965 155.949 223.124C155.94 223.283 155.779 223.405 155.592 223.396C153.49 223.299 151.687 223.044 150.173 222.679C149.478 222.512 148.889 222.332 148.403 222.151C148.106 222.041 147.907 221.953 147.803 221.9C147.642 221.817 147.59 221.641 147.687 221.504Z" fill="#DD936F"/>
</svg>
