<svg width="888" height="825" viewBox="0 0 888 825" fill="none" xmlns="http://www.w3.org/2000/svg">
<path d="M395.237 198.973H376.117V206.475H395.237V198.973Z" fill="#8B2C27"/>
<path fill-rule="evenodd" clip-rule="evenodd" d="M372.892 195.552H377.427C378.114 195.552 378.672 196.011 378.672 196.578V198.48H371.647V196.578C371.647 196.011 372.204 195.552 372.892 195.552Z" fill="#8B2C27"/>
<path fill-rule="evenodd" clip-rule="evenodd" d="M394.446 195.552H398.981C399.668 195.552 400.226 196.011 400.226 196.578V198.48H393.201V196.578C393.201 196.011 393.759 195.552 394.446 195.552Z" fill="#8B2C27"/>
<path d="M395.396 197.46H376.277V204.961H395.396V197.46Z" fill="#D63A45"/>
<path fill-rule="evenodd" clip-rule="evenodd" d="M374.809 196.736C378.199 196.736 380.947 198.997 380.947 201.785C380.947 202.766 380.607 203.682 380.018 204.458L380.04 204.465L375.404 211.144C374.749 212.348 373.28 213.187 371.572 213.187C369.255 213.187 367.376 211.641 367.376 209.735C367.376 209.519 367.4 209.307 367.446 209.102L368.673 201.648C368.761 198.923 371.474 196.736 374.809 196.736Z" fill="#8B2C27"/>
<path fill-rule="evenodd" clip-rule="evenodd" d="M396.465 196.736C393.075 196.736 390.327 198.997 390.327 201.785C390.327 202.766 390.668 203.682 391.257 204.458L391.234 204.465L395.87 211.144C396.526 212.348 397.995 213.187 399.702 213.187C402.019 213.187 403.898 211.641 403.898 209.735C403.898 209.519 403.874 209.307 403.828 209.102L402.601 201.648C402.513 198.923 399.8 196.736 396.465 196.736Z" fill="#8B2C27"/>
<path d="M396.414 206.837C399.798 206.837 402.541 204.576 402.541 201.786C402.541 198.997 399.798 196.736 396.414 196.736C393.03 196.736 390.287 198.997 390.287 201.786C390.287 204.576 393.03 206.837 396.414 206.837Z" fill="#D63A45"/>
<path d="M396.258 200.511C396.96 200.511 397.528 200.042 397.528 199.463C397.528 198.883 396.96 198.414 396.258 198.414C395.557 198.414 394.988 198.883 394.988 199.463C394.988 200.042 395.557 200.511 396.258 200.511Z" fill="white"/>
<path d="M396.347 205.147C397.049 205.147 397.618 204.677 397.618 204.098C397.618 203.519 397.049 203.05 396.347 203.05C395.646 203.05 395.077 203.519 395.077 204.098C395.077 204.677 395.646 205.147 396.347 205.147Z" fill="white"/>
<path d="M399.155 202.829C399.857 202.829 400.426 202.359 400.426 201.78C400.426 201.201 399.857 200.732 399.155 200.732C398.454 200.732 397.885 201.201 397.885 201.78C397.885 202.359 398.454 202.829 399.155 202.829Z" fill="white"/>
<path d="M393.673 202.829C394.375 202.829 394.943 202.359 394.943 201.78C394.943 201.201 394.375 200.732 393.673 200.732C392.971 200.732 392.403 201.201 392.403 201.78C392.403 202.359 392.971 202.829 393.673 202.829Z" fill="white"/>
<path d="M374.86 206.837C378.244 206.837 380.987 204.576 380.987 201.786C380.987 198.997 378.244 196.736 374.86 196.736C371.476 196.736 368.733 198.997 368.733 201.786C368.733 204.576 371.476 206.837 374.86 206.837Z" fill="#D63A45"/>
<path fill-rule="evenodd" clip-rule="evenodd" d="M373.876 200.719V199.072H375.873V200.719L374.875 201.424L373.88 200.719H373.876Z" fill="white"/>
<path fill-rule="evenodd" clip-rule="evenodd" d="M375.873 202.835V204.482H373.876V202.835L374.875 202.13L375.869 202.835H375.873Z" fill="white"/>
<path fill-rule="evenodd" clip-rule="evenodd" d="M376.3 201.013H378.298V202.659H376.3L375.445 201.836L376.3 201.016V201.013Z" fill="white"/>
<path fill-rule="evenodd" clip-rule="evenodd" d="M373.485 201.013H371.487V202.659H373.485L374.34 201.836L373.485 201.016V201.013Z" fill="white"/>
<g opacity="0.8">
<path fill-rule="evenodd" clip-rule="evenodd" d="M288.33 100.241L191.639 145.497L185.578 245.737L276.209 300.722L370.933 256.387L372.901 255.466L373.223 250.14L378.961 155.226L288.33 100.241Z" fill="url(#paint0_linear_11390_1362)"/>
<path d="M601.406 491.541L698.097 446.285L704.156 346.057V346.044L613.526 291.06L521.714 334.032L373.223 250.14L372.901 255.466L370.933 256.387L516.688 338.732L510.773 436.557L512.371 437.526L372.242 517.92L372.098 516.245L274.106 473.023L184.711 530.042L193.308 630.283L291.3 673.504L380.695 616.486L372.861 525.137L518.786 441.418L601.406 491.541Z" fill="url(#paint1_linear_11390_1362)"/>
</g>
<path opacity="0.782971" fill-rule="evenodd" clip-rule="evenodd" d="M430.949 628.516L388.5 655.585L392.583 703.173L439.113 723.692L481.562 696.623L477.481 649.035L430.949 628.516Z" fill="url(#paint2_linear_11390_1362)"/>
<path opacity="0.782971" fill-rule="evenodd" clip-rule="evenodd" d="M580.295 176.342L534.293 197.861L531.409 245.525L574.529 271.669L620.53 250.15L623.414 202.487L580.295 176.342Z" fill="url(#paint3_linear_11390_1362)"/>
<path opacity="0.782971" fill-rule="evenodd" clip-rule="evenodd" d="M679.367 224.191L655.984 235.129L654.518 259.358L676.436 272.647L699.82 261.709L701.285 237.481L679.367 224.191Z" fill="url(#paint4_linear_11390_1362)"/>
<path opacity="0.41748" fill-rule="evenodd" clip-rule="evenodd" d="M439.763 541.961L412.633 561.45L417.289 592.958L449.073 604.977L476.202 585.488L471.546 553.98L439.763 541.961Z" fill="url(#paint5_linear_11390_1362)"/>
<ellipse cx="621.524" cy="386.965" rx="125.173" ry="104.963" fill="url(#paint6_linear_11390_1362)"/>
<path d="M482.79 341.992H221.281C216.672 341.992 212.935 351.669 212.935 363.605C212.935 375.542 216.672 385.218 221.281 385.218H482.79C487.399 385.218 491.136 375.542 491.136 363.605C491.136 351.669 487.399 341.992 482.79 341.992Z" fill="#FF8172" fill-opacity="0.19"/>
<path fill-rule="evenodd" clip-rule="evenodd" d="M412.756 170.975C412.756 170.975 405.5 160.571 397.474 151.936C390.155 144.063 382.484 138.189 377.005 142.347C370.126 147.566 380.924 158.128 385.939 163.855C389.548 167.976 397.926 175.912 402.639 179.743C410.157 185.854 418.502 177.007 412.756 170.975Z" fill="#FFC999"/>
<path fill-rule="evenodd" clip-rule="evenodd" d="M387.961 166.164C382.946 160.438 368.462 148.825 376.929 142.26C382.903 137.628 390.819 143.984 400.055 154.883L387.961 166.164Z" fill="#E4EBF7"/>
<path fill-rule="evenodd" clip-rule="evenodd" d="M375.899 207.141C375.899 207.141 404.301 189.694 411.995 180.488C416.297 175.34 411.784 167.431 404.049 170.073C397.701 172.241 370.065 200.741 370.065 200.741C370.065 200.741 366.965 203.035 369.863 206.474C372.869 210.041 375.899 207.141 375.899 207.141Z" fill="#FFC999"/>
<path fill-rule="evenodd" clip-rule="evenodd" d="M368.642 213.49C368.642 213.49 376.351 208.974 375.877 204.975C375.448 201.353 370.477 201.244 370.477 201.244C370.477 201.244 366.581 201.576 362.489 203.011C359.808 203.951 354.429 205.02 354.57 206.445C354.754 208.302 360.065 206.361 361.055 207.346C363.06 209.341 355.045 213.225 354.104 214.512C352.264 217.03 359.439 218.975 368.642 213.49Z" fill="#FFC999"/>
<path d="M362.087 211.159C362.177 211.07 362.326 211.067 362.421 211.152C362.515 211.236 362.519 211.377 362.429 211.466L362.288 211.601C362.262 211.625 362.233 211.652 362.202 211.681C362.019 211.849 361.806 212.036 361.565 212.237C360.877 212.811 360.104 213.386 359.26 213.922C357.914 214.778 356.519 215.454 355.104 215.882C354.98 215.919 354.847 215.855 354.807 215.738C354.767 215.621 354.836 215.496 354.96 215.458C356.328 215.044 357.685 214.387 358.997 213.553C359.822 213.028 360.58 212.466 361.252 211.904C361.44 211.747 361.611 211.599 361.763 211.462L361.956 211.285C362.017 211.228 362.062 211.185 362.087 211.159Z" fill="#DD936F"/>
<path d="M364.261 212.413C364.36 212.333 364.509 212.343 364.594 212.437C364.678 212.53 364.667 212.67 364.569 212.75C362.793 214.192 361.007 215.285 359.298 216.076C358.698 216.354 358.151 216.574 357.666 216.743L357.471 216.809C357.409 216.83 357.351 216.848 357.296 216.865L357.1 216.924L357.052 216.937C356.926 216.969 356.797 216.899 356.762 216.78C356.728 216.662 356.802 216.539 356.928 216.507L357.073 216.466L357.23 216.417C357.286 216.399 357.345 216.38 357.407 216.358L357.503 216.325C357.973 216.162 358.505 215.948 359.09 215.677C360.764 214.901 362.517 213.829 364.261 212.413Z" fill="#DD936F"/>
<path d="M366.569 212.993C366.662 212.907 366.811 212.909 366.902 212.996C366.993 213.084 366.992 213.225 366.899 213.311L366.816 213.385L366.705 213.478C366.664 213.512 366.62 213.547 366.573 213.585C366.304 213.8 365.975 214.042 365.585 214.307C364.473 215.06 363.09 215.844 361.418 216.619C361.301 216.674 361.16 216.628 361.102 216.518C361.045 216.408 361.093 216.274 361.21 216.22C362.858 215.456 364.219 214.684 365.31 213.945C365.642 213.72 365.928 213.512 366.168 213.324L366.269 213.245C366.423 213.122 366.522 213.037 366.569 212.993Z" fill="#DD936F"/>
<path fill-rule="evenodd" clip-rule="evenodd" d="M366.426 284.428C362.247 258.989 364.481 237.495 364.481 237.495C364.481 237.495 371.819 216.995 383.266 230.067C388.811 236.398 388.726 253.554 386.341 282.168C386.341 282.168 386.508 295.533 376.107 295.594C367.401 295.645 366.426 284.428 366.426 284.428Z" fill="#FFC999"/>
<path fill-rule="evenodd" clip-rule="evenodd" d="M363.969 267.034C375.344 270.25 387.827 265.962 387.827 265.962C388.018 258.176 388.693 248.646 386.521 221.37C371.858 212.632 360.923 231.613 360.923 231.613L363.969 267.034Z" fill="#AA1215"/>
<path d="M386.594 261.202C386.634 261.32 386.566 261.447 386.441 261.485L386.176 261.561L385.825 261.656C385.698 261.689 385.563 261.723 385.419 261.759C384.594 261.964 383.646 262.168 382.586 262.358C376.876 263.385 370.566 263.608 364.141 262.523C364.012 262.501 363.925 262.384 363.949 262.262C363.972 262.139 364.096 262.058 364.225 262.08C370.587 263.154 376.84 262.934 382.497 261.917C383.441 261.747 384.295 261.566 385.05 261.385L385.57 261.256C385.7 261.222 385.821 261.19 385.932 261.16L386.294 261.057C386.419 261.019 386.553 261.083 386.594 261.202Z" fill="#312812"/>
<path d="M360.87 232.54C360.988 232.531 361.093 232.604 361.121 232.709L361.127 232.745L364.193 266.863L364.23 266.873C364.356 266.908 364.5 266.946 364.661 266.986L364.786 267.017C365.396 267.166 366.1 267.316 366.89 267.455C373.454 268.616 380.711 268.374 387.739 265.754C387.862 265.708 388 265.765 388.048 265.88C388.097 265.996 388.037 266.126 387.914 266.172C380.791 268.828 373.447 269.072 366.802 267.897C366.001 267.756 365.286 267.604 364.666 267.452L364.418 267.39L364.096 267.305C363.999 267.278 363.931 267.258 363.896 267.248C363.818 267.224 363.759 267.164 363.739 267.091L363.732 267.053L360.653 232.783C360.641 232.66 360.739 232.551 360.87 232.54Z" fill="#312812"/>
<path fill-rule="evenodd" clip-rule="evenodd" d="M368.915 124.223L368.937 117.299C368.937 117.299 374.572 113.91 375.292 117.424C376.027 121.007 373.544 124.023 371.067 124.433C369.44 124.703 368.915 124.223 368.915 124.223Z" fill="#FFC999"/>
<path fill-rule="evenodd" clip-rule="evenodd" d="M351.089 124.223L351.066 117.299C351.066 117.299 345.432 113.91 344.711 117.424C343.976 121.007 346.469 124.473 348.936 124.433C350.587 124.407 351.089 124.223 351.089 124.223Z" fill="#FFC999"/>
<path fill-rule="evenodd" clip-rule="evenodd" d="M371.278 119.914C370.329 127.508 367.879 133.14 359.827 133.14C351.419 133.14 349.451 125.655 348.556 119.295C346.884 107.405 354.319 104.55 360.543 104.55C366.768 104.55 372.531 109.896 371.278 119.914Z" fill="#FFC999"/>
<path fill-rule="evenodd" clip-rule="evenodd" d="M348.182 138.322C348.182 138.322 351.16 145.747 360.544 145.747C371.436 145.747 371.966 138.045 371.966 138.045L369.433 137.279C368.845 137.101 368.431 136.609 368.384 136.028C368.229 134.069 367.881 129.252 367.665 122.924C358.31 120.023 353.135 122.673 353.135 122.673C353.135 122.673 352.612 130.356 352.127 135.91C352.08 136.455 351.709 136.927 351.168 137.125C350.241 137.465 348.827 138 348.182 138.322Z" fill="#FFC999"/>
<path fill-rule="evenodd" clip-rule="evenodd" d="M369.275 114.512C367.016 113.058 366.448 110.459 366.448 110.459C366.631 110.538 360.72 113.352 357.681 114.005C355.087 114.562 353.397 113.898 356.428 110.796C353.081 112.558 350.974 113.925 349.885 114.685C349.31 115.086 348.967 115.714 348.954 116.389L348.855 121.546L346.708 116.706C346.708 116.706 345.157 117.269 344.442 115.805C343.535 113.953 346.052 110.206 346.052 110.206C346.052 110.206 343.895 110.803 344.203 108.602C344.511 106.4 350.406 103.536 350.406 103.536C350.406 103.536 348.61 103.446 349.287 101.744C349.965 100.042 357.084 100.497 357.084 100.497C357.084 100.497 355.891 98.6962 358.46 98.5193C361.365 98.319 366.269 101.848 366.269 101.848C366.269 101.848 369.846 98.6962 370.542 103.905C374.141 104.437 375.572 107.476 372.947 108.377C375.572 110.515 375.781 111.923 373.156 112.147C374.587 113.948 375.035 116.453 372.351 117.381L370.92 121.659L370.656 116.832C370.604 115.898 370.094 115.039 369.275 114.512Z" fill="#312812"/>
<path d="M362.882 115.549C364.096 115.27 365.349 115.172 366.534 115.363C367.027 115.443 367.495 115.572 367.932 115.755C368.173 115.856 368.281 116.122 368.175 116.349C368.068 116.576 367.786 116.678 367.546 116.578C367.183 116.426 366.791 116.317 366.373 116.25C365.334 116.082 364.205 116.171 363.107 116.423C362.911 116.468 362.728 116.515 362.562 116.563L362.337 116.632C362.276 116.651 362.233 116.666 362.207 116.675C361.962 116.765 361.686 116.65 361.591 116.418C361.496 116.186 361.618 115.926 361.864 115.836L361.976 115.798C362.024 115.782 362.081 115.764 362.148 115.743C362.366 115.677 362.613 115.611 362.882 115.549Z" fill="#312812"/>
<path d="M357.03 116.005C357.132 115.952 357.256 115.977 357.327 116.059L357.35 116.092L358.335 117.78C358.348 117.803 358.357 117.828 358.361 117.853L358.364 117.891L358.277 123.05L359.99 123.353C360.105 123.374 360.185 123.47 360.182 123.577L360.178 123.613C360.157 123.722 360.055 123.797 359.941 123.795L359.903 123.791L357.995 123.453C357.895 123.435 357.819 123.359 357.805 123.266L357.803 123.231L357.891 117.943L356.937 116.307C356.882 116.211 356.908 116.094 356.995 116.027L357.03 116.005Z" fill="#DD936F"/>
<path fill-rule="evenodd" clip-rule="evenodd" d="M355.772 119.464C355.772 120.396 355.211 121.152 354.52 121.152C353.828 121.152 353.268 120.396 353.268 119.464C353.268 118.531 353.828 117.776 354.52 117.776C355.211 117.776 355.772 118.531 355.772 119.464Z" fill="#312812"/>
<path fill-rule="evenodd" clip-rule="evenodd" d="M366.089 119.464C366.089 120.396 365.529 121.152 364.837 121.152C364.145 121.152 363.585 120.396 363.585 119.464C363.585 118.531 364.145 117.776 364.837 117.776C365.529 117.776 366.089 118.531 366.089 119.464Z" fill="#312812"/>
<path d="M361.089 127.101C361.219 127.101 361.325 127.201 361.325 127.324C361.325 127.434 361.239 127.526 361.127 127.543L361.089 127.546H359.062C358.932 127.546 358.826 127.447 358.826 127.324C358.826 127.213 358.912 127.121 359.024 127.104L359.062 127.101H361.089Z" fill="#DD936F"/>
<path d="M352.075 115.692C353.438 115.305 354.876 115.323 356.232 115.583L356.44 115.625C356.702 115.68 356.902 115.734 357.027 115.773C357.277 115.852 357.411 116.107 357.328 116.343C357.249 116.563 357.009 116.688 356.774 116.639L356.553 116.578C356.404 116.54 356.233 116.501 356.043 116.464C354.828 116.231 353.54 116.215 352.349 116.553C352.127 116.617 351.911 116.692 351.702 116.779C351.461 116.88 351.18 116.778 351.073 116.551C350.966 116.324 351.074 116.058 351.315 115.957C351.561 115.854 351.815 115.766 352.075 115.692Z" fill="#312812"/>
<path d="M362.696 124.834C362.835 124.786 362.99 124.854 363.041 124.985C363.092 125.117 363.02 125.263 362.881 125.311C362.542 125.428 362.187 125.52 361.818 125.588C360.525 125.828 359.152 125.769 357.834 125.528C357.633 125.491 357.446 125.452 357.276 125.412L356.994 125.343C356.951 125.331 356.918 125.322 356.894 125.315C356.752 125.273 356.674 125.13 356.718 124.997C356.762 124.863 356.913 124.789 357.055 124.831L357.233 124.878L357.287 124.892C357.478 124.939 357.696 124.986 357.937 125.03C359.192 125.26 360.5 125.315 361.714 125.091C362.056 125.027 362.384 124.942 362.696 124.834Z" fill="#FF7A46"/>
<path d="M353.178 130.431C353.268 130.342 353.417 130.339 353.511 130.424C355.159 131.912 357.285 132.695 359.986 132.695C362.849 132.695 365.061 131.975 366.74 130.568C366.838 130.486 366.987 130.495 367.073 130.587C367.159 130.679 367.151 130.819 367.053 130.901C365.284 132.383 362.959 133.14 359.986 133.14C357.165 133.14 354.922 132.314 353.185 130.745C353.091 130.66 353.088 130.519 353.178 130.431Z" fill="#DD936F"/>
<path fill-rule="evenodd" clip-rule="evenodd" d="M341.562 187.888C338.223 194.417 342.755 196.443 342.755 196.443C353.238 197.116 380.683 196.894 380.683 196.894C384.261 193.967 380.444 188.339 380.444 188.339C380.444 188.339 390.562 145.039 386.94 142.597C383.601 140.346 377.661 138.572 369.825 137.335C369.605 137.795 367.409 141.387 360.074 141.472C352.045 141.564 350.318 138.164 350.027 137.568C343.763 138.77 337.641 140.346 333.586 143.048C332.383 143.849 336.314 164.025 341.562 187.888Z" fill="#E4EBF7"/>
<path d="M371.23 140.543C371.339 140.473 371.487 140.499 371.562 140.602C371.636 140.704 371.608 140.844 371.499 140.914C365.573 144.732 359.293 145.033 353.507 143.256C352.787 143.035 352.141 142.797 351.578 142.56C351.381 142.476 351.208 142.399 351.061 142.329L350.877 142.239C350.762 142.179 350.72 142.042 350.783 141.933C350.847 141.825 350.992 141.785 351.107 141.845L351.187 141.885L351.274 141.927C351.416 141.994 351.582 142.069 351.773 142.149C352.32 142.381 352.951 142.612 353.655 142.828C359.312 144.565 365.442 144.272 371.23 140.543Z" fill="#A3B5D6"/>
<path d="M386.409 154.571L386.448 154.574C386.565 154.592 386.647 154.688 386.647 154.796L386.644 154.833L380.694 188.293L380.808 188.475C380.839 188.527 380.872 188.582 380.905 188.641C381.098 188.975 381.29 189.35 381.47 189.758C382.136 191.273 382.452 192.816 382.219 194.266C382.053 195.295 381.612 196.229 380.863 197.041C380.777 197.135 380.626 197.145 380.527 197.063C380.428 196.981 380.417 196.839 380.504 196.746C381.192 196 381.595 195.145 381.747 194.199C381.966 192.842 381.666 191.376 381.03 189.93C380.857 189.538 380.672 189.177 380.487 188.856L380.394 188.698L380.255 188.476C380.25 188.47 380.247 188.465 380.244 188.461C380.22 188.426 380.207 188.385 380.206 188.343L380.21 188.302L386.174 154.758C386.193 154.648 386.295 154.57 386.409 154.571Z" fill="#A3B5D6"/>
<path d="M335.198 154.912C335.314 154.892 335.426 154.955 335.465 155.057L335.475 155.093L341.796 187.849C341.803 187.885 341.8 187.922 341.788 187.958L341.728 188.151C341.717 188.187 341.706 188.226 341.693 188.27C341.621 188.523 341.548 188.809 341.48 189.121C341.216 190.339 341.099 191.58 341.213 192.733C341.364 194.251 341.904 195.464 342.909 196.272C343.01 196.352 343.022 196.494 342.936 196.589C342.851 196.683 342.701 196.695 342.6 196.614C341.488 195.72 340.9 194.4 340.739 192.775C340.62 191.572 340.74 190.289 341.013 189.031C341.083 188.71 341.158 188.415 341.233 188.152L341.316 187.875L335.006 155.173C334.985 155.063 335.052 154.958 335.16 154.921L335.198 154.912Z" fill="#A3B5D6"/>
<path fill-rule="evenodd" clip-rule="evenodd" d="M367.388 233.928C367.388 233.928 360.947 234.603 356.414 233.506C349.979 231.948 342.158 224.415 337.387 220.137C337.566 206.799 342.182 200.918 342.182 200.918L381.128 201.181C381.128 201.181 385.872 207.925 386.587 222.332C386.587 222.332 371.445 233.384 367.388 233.928Z" fill="#AA1215"/>
<path fill-rule="evenodd" clip-rule="evenodd" d="M341.817 201.248L342.279 196.867L380.87 197.01L381.367 201.186C381.367 201.186 345.751 201.331 341.817 201.248Z" fill="#AA1215"/>
<path d="M368.344 201.51C368.475 201.511 368.581 201.613 368.58 201.737L368.516 209.092L368.43 217.117C368.414 218.395 368.399 219.521 368.384 220.473L368.351 222.249C368.348 222.402 368.345 222.544 368.342 222.677C368.304 224.248 367.276 225.302 365.618 225.926C365.036 226.144 364.416 226.294 363.797 226.389C363.58 226.422 363.379 226.445 363.198 226.462L362.964 226.478C362.833 226.483 362.722 226.387 362.716 226.263C362.71 226.139 362.812 226.034 362.944 226.029L363.004 226.025C363.042 226.023 363.092 226.019 363.153 226.014C363.324 225.999 363.515 225.976 363.721 225.945C364.308 225.855 364.896 225.713 365.441 225.508C366.94 224.945 367.833 224.029 367.865 222.667L367.891 221.398L367.944 217.859C367.962 216.481 367.98 214.902 367.999 213.152L368.054 207.543L368.104 201.734C368.105 201.609 368.212 201.51 368.344 201.51Z" fill="#312812"/>
<path d="M341.818 201.023L362.967 201.074L378.632 201.09C379.517 201.09 380.342 201.089 381.104 201.089C381.236 201.088 381.343 201.189 381.343 201.313C381.343 201.437 381.236 201.538 381.105 201.538L369.133 201.534L354.722 201.507L341.816 201.473C341.684 201.473 341.578 201.372 341.578 201.247C341.579 201.123 341.686 201.023 341.818 201.023Z" fill="#312812"/>
<path d="M377.849 201.637C377.979 201.621 378.099 201.707 378.116 201.83L378.141 201.986C378.152 202.053 378.167 202.136 378.185 202.232C378.246 202.556 378.324 202.917 378.422 203.306C378.701 204.417 379.079 205.528 379.569 206.562C380.657 208.863 382.131 210.446 384.037 211.004C384.163 211.041 384.233 211.167 384.194 211.285C384.155 211.404 384.022 211.47 383.896 211.434C381.834 210.83 380.272 209.153 379.133 206.746C378.631 205.683 378.244 204.546 377.958 203.41C377.875 203.079 377.806 202.767 377.749 202.48L377.716 202.311C377.699 202.224 377.685 202.144 377.673 202.071L377.644 201.889C377.627 201.766 377.718 201.653 377.849 201.637Z" fill="#312812"/>
<path d="M344.418 201.193C344.547 201.214 344.635 201.33 344.613 201.453L344.564 201.699C344.554 201.749 344.543 201.802 344.531 201.858C344.462 202.177 344.378 202.533 344.278 202.916C343.992 204.01 343.636 205.105 343.203 206.128C342.157 208.603 340.84 210.272 339.191 210.759C339.066 210.796 338.932 210.729 338.893 210.611C338.853 210.492 338.923 210.366 339.049 210.329C340.521 209.895 341.763 208.321 342.76 205.962C343.184 204.959 343.535 203.884 343.815 202.808C343.897 202.494 343.968 202.199 344.029 201.928L344.131 201.442C344.136 201.416 344.14 201.395 344.143 201.377C344.163 201.267 344.264 201.189 344.379 201.19L344.418 201.193Z" fill="#312812"/>
<path fill-rule="evenodd" clip-rule="evenodd" d="M361.556 198.965C361.546 199.399 361.057 199.742 360.464 199.729C359.872 199.717 359.399 199.354 359.41 198.919C359.42 198.484 359.909 198.141 360.502 198.154C361.094 198.166 361.567 198.529 361.556 198.965Z" fill="#312812"/>
<path d="M362.856 197.008C362.974 197.008 363.072 197.089 363.091 197.196L363.094 197.233V234.153C363.094 234.277 362.987 234.378 362.856 234.378C362.737 234.378 362.639 234.297 362.621 234.19L362.617 234.153V197.233C362.617 197.109 362.724 197.008 362.856 197.008Z" fill="#312812"/>
<path d="M380.508 196.642C380.64 196.642 380.746 196.743 380.746 196.867C380.746 196.979 380.66 197.071 380.547 197.089L380.508 197.092H342.279C342.147 197.092 342.041 196.991 342.041 196.867C342.041 196.755 342.127 196.662 342.24 196.645L342.279 196.642H380.508Z" fill="#312812"/>
<path fill-rule="evenodd" clip-rule="evenodd" d="M348.421 307.787C344.755 327.295 340.244 340.404 339.433 360.144C339.334 362.538 335.67 362.618 332.237 362.305C324.34 368.023 309.889 369.434 308.017 366.727C306.894 365.101 312.215 359.27 317.082 358.276C327.958 356.054 328.091 344.27 328.091 344.27C328.091 344.27 328.663 314.246 329.534 291.243C329.534 291.243 331.064 274.433 340.317 275.338C356.337 276.906 349.672 301.128 348.421 307.787Z" fill="#FFC999"/>
<path fill-rule="evenodd" clip-rule="evenodd" d="M301.938 366.325C301.938 366.325 303.244 369.522 311.5 369.836C319.757 370.15 323.901 367.082 328.268 366.856C336.431 366.433 340.082 364.806 340.082 364.806C340.082 364.806 340.384 365.991 339.547 367.485C338.255 369.789 330.782 368.334 326.126 369.901C322.759 371.035 320.157 371.616 314.656 372.325C309.156 373.035 302.515 370.962 301.898 369.18C301.283 367.398 301.938 366.325 301.938 366.325Z" fill="#A3B5D6"/>
<path fill-rule="evenodd" clip-rule="evenodd" d="M339.809 365.062C339.809 365.062 337.906 365.889 331.704 366.721C330.221 366.92 328.759 367.164 326.155 367.762C322.152 368.68 309.412 372.804 302.612 367.456C301.62 366.192 302.064 364.861 302.733 363.861C303.37 362.91 304.383 362.241 305.542 361.978C309.055 361.183 317.448 359.299 322.216 353.816C322.773 353.174 323.685 352.925 324.519 353.189C325.528 353.509 326.818 354.108 327.672 355.197C328.384 356.104 325.826 359.069 326.688 359.296C329.059 359.921 333.178 359.65 335.943 358.268C338.259 357.11 339.758 355.938 339.758 355.938C339.758 355.938 341.211 361.869 339.809 365.062Z" fill="#D62023"/>
<path d="M304.925 363.905C305.015 363.793 305.183 363.771 305.302 363.855L305.353 363.889C305.415 363.929 305.513 363.986 305.647 364.056C305.95 364.215 306.318 364.374 306.752 364.524C308.774 365.219 311.408 365.452 314.682 364.94C314.829 364.918 314.967 365.011 314.991 365.149C315.016 365.287 314.917 365.418 314.77 365.441C311.404 365.967 308.677 365.726 306.568 365C306.107 364.842 305.713 364.671 305.386 364.5L305.248 364.425C305.122 364.355 305.033 364.299 304.979 364.261C304.86 364.176 304.836 364.017 304.925 363.905Z" fill="#A3B5D6"/>
<path d="M319.659 356.379C319.711 356.248 319.866 356.181 320.005 356.229L320.13 356.277L320.175 356.295C320.305 356.348 320.449 356.412 320.604 356.488C321.046 356.704 321.487 356.969 321.901 357.285C322.454 357.709 322.914 358.194 323.247 358.743C323.321 358.864 323.276 359.019 323.147 359.089C323.018 359.159 322.854 359.116 322.78 358.995C322.483 358.504 322.067 358.066 321.562 357.679C321.179 357.386 320.768 357.139 320.357 356.939C320.249 356.886 320.147 356.839 320.053 356.799L319.858 356.72C319.841 356.713 319.828 356.708 319.818 356.705C319.679 356.656 319.608 356.51 319.659 356.379Z" fill="#A3B5D6"/>
<path fill-rule="evenodd" clip-rule="evenodd" d="M366.34 305.906C367.711 325.477 370.562 338.832 369.22 358.347C369.058 360.715 372.5 361.156 375.766 361.188C382.594 367.6 396.05 370.42 398.102 367.94C399.334 366.451 396.378 361.774 391.895 360.333C380.683 356.731 381.593 343.842 381.593 343.842C381.593 343.842 384.256 314.222 385.889 291.487C385.889 291.487 386.241 274.784 377.431 274.759C362.178 274.716 365.872 299.226 366.34 305.906Z" fill="#FFC999"/>
<path fill-rule="evenodd" clip-rule="evenodd" d="M403.871 368.179C403.871 368.179 402.301 371.065 394.492 370.578C386.683 370.09 383.107 366.808 379.019 366.18C371.377 365.009 368.113 363.13 368.113 363.13C368.113 363.13 367.702 364.218 368.331 365.704C369.303 367.995 376.495 367.334 380.712 369.252C383.763 370.639 386.151 371.433 391.255 372.622C396.359 373.812 402.833 372.49 403.603 370.87C404.374 369.251 403.871 368.179 403.871 368.179Z" fill="#A3B5D6"/>
<path fill-rule="evenodd" clip-rule="evenodd" d="M368.343 363.397C368.343 363.397 370.047 364.356 375.798 365.728C377.174 366.056 378.523 366.425 380.912 367.234C384.585 368.479 396.142 373.571 403.116 369.179C404.184 368.083 403.908 366.786 403.384 365.782C402.886 364.826 402.003 364.1 400.939 363.743C397.717 362.661 390.014 360.09 386.108 354.476C385.65 353.818 384.819 353.496 384.005 353.666C383.021 353.872 381.743 354.314 380.822 355.258C380.055 356.045 382.148 359.079 381.312 359.212C379.014 359.575 375.163 358.929 372.706 357.365C370.649 356.056 369.362 354.81 369.362 354.81C369.362 354.81 367.362 360.258 368.343 363.397Z" fill="#D62023"/>
<path d="M400.966 365.533C401.087 365.465 401.243 365.502 401.315 365.616C401.387 365.73 401.348 365.878 401.227 365.946L401.17 365.977C401.112 366.006 401.032 366.043 400.928 366.087C400.69 366.188 400.408 366.288 400.08 366.381C397.988 366.975 395.25 367.01 391.881 366.129C391.745 366.093 391.666 365.961 391.703 365.833C391.741 365.705 391.881 365.63 392.017 365.665C395.293 366.522 397.933 366.488 399.933 365.921C400.239 365.834 400.501 365.741 400.719 365.649L400.858 365.587C400.909 365.564 400.945 365.545 400.966 365.533Z" fill="#A3B5D6"/>
<path d="M387.933 356.957C388.069 356.925 388.208 357.003 388.242 357.131C388.277 357.26 388.194 357.391 388.058 357.424L387.904 357.466C387.776 357.504 387.633 357.552 387.479 357.61C387.037 357.775 386.596 357.989 386.186 358.255C385.723 358.554 385.329 358.901 385.025 359.299C384.942 359.406 384.783 359.431 384.669 359.353C384.555 359.275 384.529 359.125 384.612 359.017C384.952 358.572 385.389 358.187 385.897 357.858C386.342 357.57 386.816 357.341 387.291 357.163C387.415 357.116 387.533 357.075 387.644 357.041L387.751 357.008C387.836 356.982 387.898 356.966 387.933 356.957Z" fill="#A3B5D6"/>
<path fill-rule="evenodd" clip-rule="evenodd" d="M312.177 176.135C312.177 176.135 317.459 164.721 323.819 154.928C329.619 145.998 336.124 138.983 342.27 142.204C349.987 146.248 341.241 158.384 337.327 164.829C334.51 169.468 327.678 178.629 323.72 183.158C317.408 190.382 307.595 182.998 312.177 176.135Z" fill="#FFC999"/>
<path fill-rule="evenodd" clip-rule="evenodd" d="M335.748 167.429C339.663 160.984 351.853 147.223 342.33 142.106C335.611 138.496 328.951 146.027 321.805 158.245L335.748 167.429Z" fill="#E4EBF7"/>
<path fill-rule="evenodd" clip-rule="evenodd" d="M353.102 157.703C353.102 157.703 331.571 180.252 321.28 185.583C315.524 188.564 308.313 183.13 312.076 176.624C315.165 171.284 347.586 151.342 347.586 151.342C347.586 151.342 350.324 148.948 353.322 152.152C356.433 155.478 353.102 157.703 353.102 157.703Z" fill="#FFC999"/>
<path fill-rule="evenodd" clip-rule="evenodd" d="M364.375 155.926H355.903C355.063 155.926 354.368 155.31 354.316 154.518L353.219 137.918C353.162 137.054 353.889 136.323 354.807 136.323H365.472C366.389 136.323 367.116 137.054 367.06 137.918L365.962 154.518C365.91 155.31 365.215 155.926 364.375 155.926Z" fill="#A3B5D6"/>
<path fill-rule="evenodd" clip-rule="evenodd" d="M364.375 156.787H355.903C355.063 156.787 354.368 156.17 354.316 155.379L353.219 138.779C353.162 137.914 353.889 137.184 354.807 137.184H365.472C366.389 137.184 367.116 137.914 367.06 138.779L365.962 155.379C365.91 156.17 365.215 156.787 364.375 156.787Z" fill="#141414"/>
<path fill-rule="evenodd" clip-rule="evenodd" d="M354.39 159.419C354.39 159.419 347.09 161.65 344.498 158.736C342.15 156.096 344.461 153.504 344.461 153.504C344.461 153.504 345.301 150.865 348.882 148.565C350.571 147.48 353.694 144.235 353.693 145.588C353.691 148.287 353.615 148.983 353.861 150.245C354.185 151.902 363.063 150.461 364.611 150.692C367.638 151.145 364.37 157.049 354.39 159.419Z" fill="#FFC999"/>
<path d="M364.736 151.854C364.848 151.796 364.989 151.835 365.05 151.942C365.112 152.048 365.07 152.181 364.958 152.239C364.432 152.509 363.872 152.75 363.283 152.961C361.903 153.457 360.427 153.775 358.951 153.952C358.435 154.013 357.955 154.053 357.523 154.075L357.211 154.088L356.973 154.093L356.935 154.09C356.825 154.073 356.741 153.983 356.741 153.874C356.741 153.765 356.825 153.675 356.936 153.658L356.989 153.655L357.109 153.653C357.193 153.651 357.287 153.648 357.391 153.643L357.498 153.638C357.919 153.617 358.388 153.578 358.893 153.517C360.335 153.345 361.776 153.034 363.118 152.552C363.688 152.348 364.229 152.115 364.736 151.854Z" fill="#DD936F"/>
<path d="M364.212 153.81C364.322 153.748 364.464 153.781 364.531 153.884C364.597 153.988 364.562 154.122 364.452 154.185L364.397 154.215C364.363 154.234 364.317 154.257 364.262 154.286L364.064 154.383C363.959 154.434 363.843 154.487 363.718 154.543C363.123 154.807 362.423 155.071 361.624 155.317C360.095 155.788 358.386 156.136 356.51 156.313C356.383 156.325 356.269 156.237 356.256 156.117C356.244 155.997 356.337 155.889 356.464 155.877C358.306 155.704 359.982 155.362 361.48 154.901C362.261 154.661 362.942 154.404 363.52 154.147C363.682 154.075 363.825 154.008 363.951 153.946L364.042 153.9C364.128 153.857 364.185 153.826 364.212 153.81Z" fill="#DD936F"/>
<path d="M361.213 156.389C361.333 156.347 361.467 156.405 361.511 156.519C361.555 156.632 361.494 156.758 361.373 156.8C359.72 157.375 358.249 157.757 356.977 157.984C356.594 158.052 356.253 158.102 355.954 158.136L355.808 158.152C355.607 158.173 355.469 158.182 355.396 158.184C355.268 158.188 355.161 158.093 355.157 157.973C355.152 157.852 355.253 157.751 355.381 157.747L355.477 157.742C355.546 157.737 355.64 157.729 355.759 157.717C356.078 157.684 356.456 157.632 356.891 157.554C358.138 157.332 359.584 156.956 361.213 156.389Z" fill="#DD936F"/>
<path fill-rule="evenodd" clip-rule="evenodd" d="M351.405 285.992C357.931 260.995 357.7 239.4 357.7 239.4C357.7 239.4 352.293 218.372 339.677 230.447C333.566 236.295 333.177 254.336 331.777 282.094C331.777 282.094 330.37 295.393 340.725 296.314C349.393 297.084 351.405 285.992 351.405 285.992Z" fill="#FFC999"/>
<path fill-rule="evenodd" clip-rule="evenodd" d="M355.468 268.867C343.838 271.131 331.802 265.828 331.802 265.828C332.729 258.539 334.038 246.435 337.652 217.885C353.069 210.393 361.79 233.834 361.79 233.834L355.468 268.867Z" fill="#AA1215"/>
<path d="M333.472 261.187C333.523 261.073 333.663 261.019 333.784 261.068L333.937 261.127L334.123 261.196C334.404 261.298 334.735 261.413 335.113 261.537C336.195 261.89 337.436 262.244 338.817 262.575C344.081 263.834 349.804 264.407 355.673 263.911C355.804 263.9 355.92 263.991 355.932 264.115C355.943 264.238 355.847 264.348 355.716 264.359C349.788 264.86 344.012 264.282 338.7 263.011C337.421 262.705 336.261 262.379 335.234 262.051L334.957 261.962C334.683 261.872 334.433 261.787 334.208 261.708L333.816 261.565C333.715 261.528 333.642 261.5 333.598 261.482C333.477 261.433 333.42 261.301 333.472 261.187Z" fill="#312812"/>
<path d="M367.666 233.255C367.913 233.209 368.243 233.554 367.791 233.693L367.473 233.779L364.787 234.455L361.925 235.165L355.703 268.906C355.689 268.983 355.634 269.046 355.56 269.075L355.521 269.087L355.392 269.113C355.289 269.133 355.166 269.155 355.026 269.179C354.627 269.247 354.163 269.316 353.641 269.379C346.921 270.197 339.335 269.521 332.123 266.228L331.695 266.029C331.578 265.973 331.53 265.838 331.589 265.727C331.648 265.616 331.791 265.571 331.909 265.627L332.012 265.675C339.224 269.052 346.846 269.753 353.58 268.933C354.021 268.879 354.418 268.822 354.77 268.765L355.133 268.703L355.261 268.679L361.482 234.946C361.496 234.872 361.548 234.81 361.619 234.779L361.668 234.764L366.754 233.497L367.58 233.284L367.601 233.277L367.629 233.265L367.666 233.255Z" fill="#312812"/>
<path d="M343.817 153.714C343.923 153.646 344.067 153.672 344.139 153.772C344.203 153.86 344.189 153.978 344.111 154.051L344.078 154.076L317.838 170.96C317.732 171.028 317.588 171.002 317.516 170.903C317.452 170.814 317.466 170.696 317.544 170.623L317.577 170.598L343.817 153.714Z" fill="#DD936F"/>
<path d="M399.887 154.723C399.981 154.636 400.132 154.637 400.224 154.725C400.306 154.804 400.315 154.925 400.25 155.012L400.222 155.043L388.129 166.324C388.035 166.412 387.884 166.411 387.792 166.322C387.71 166.244 387.701 166.123 387.766 166.035L387.794 166.004L399.887 154.723Z" fill="#A3B5D6"/>
<path d="M321.61 158.115C321.677 158.025 321.802 157.996 321.905 158.041L321.942 158.061L328.937 162.716C329.045 162.788 329.071 162.928 328.995 163.029C328.927 163.12 328.802 163.149 328.7 163.104L328.663 163.084L321.667 158.428C321.56 158.357 321.534 158.217 321.61 158.115Z" fill="#A3B5D6"/>
<g opacity="0.1">
<path d="M552.445 542.23L481.247 587.889L767.297 588.634L837.238 542.23H552.445Z" fill="#ED9609"/>
</g>
<path fill-rule="evenodd" clip-rule="evenodd" d="M773.17 520.854H758.449V473.068C758.449 469.264 761.727 466.181 765.771 466.181H765.848C769.892 466.181 773.17 469.264 773.17 473.068V520.854Z" fill="#7CB305"/>
<path fill-rule="evenodd" clip-rule="evenodd" d="M780.491 532.55H765.727V507.598C765.727 503.895 768.932 500.893 772.887 500.893H773.33C777.285 500.893 780.491 503.895 780.491 507.598V532.55Z" fill="#5B8C00"/>
<path fill-rule="evenodd" clip-rule="evenodd" d="M760.608 520.829H745.745V493.699C745.745 489.975 748.96 486.956 752.925 486.956H753.429C757.394 486.956 760.608 489.975 760.608 493.699V520.829Z" fill="#7CB305"/>
<path fill-rule="evenodd" clip-rule="evenodd" d="M781.369 560.462H742.705C741.177 560.462 739.938 559.301 739.938 557.868V521.833C739.938 520.4 741.177 519.239 742.705 519.239H781.369C782.897 519.239 784.136 520.4 784.136 521.833V557.868C784.136 559.301 782.897 560.462 781.369 560.462Z" fill="black"/>
<path fill-rule="evenodd" clip-rule="evenodd" d="M649.92 539.128H699.272V532.073H649.92V539.128Z" fill="black"/>
<path fill-rule="evenodd" clip-rule="evenodd" d="M686.992 460.033L700.208 573.928H711.557L698.34 460.033H686.992Z" fill="black"/>
<path fill-rule="evenodd" clip-rule="evenodd" d="M650.851 460.033L637.635 573.928H648.983L662.2 460.033H650.851Z" fill="black"/>
<path fill-rule="evenodd" clip-rule="evenodd" d="M646.033 467.446C640.179 467.446 635.433 464.127 635.433 460.033C635.433 455.939 640.179 452.62 646.033 452.62H704.195C710.049 452.62 714.796 455.939 714.796 460.033C714.796 464.127 710.049 467.446 704.195 467.446H646.033Z" fill="#A3B5D6"/>
<path d="M691.459 426.333C691.603 426.331 691.721 426.442 691.723 426.581C691.725 426.706 691.632 426.811 691.509 426.832L691.466 426.836L668.513 427.153C668.369 427.155 668.251 427.044 668.249 426.905C668.247 426.78 668.34 426.675 668.464 426.654L668.506 426.65L691.459 426.333Z" fill="#A3B5D6"/>
<path fill-rule="evenodd" clip-rule="evenodd" d="M620.03 496.947C620.08 496.8 609.081 533.795 608.526 536.504C607.012 543.899 607.685 545.081 603.192 546.267C602.041 546.571 600.574 545.703 598.545 547.189C592.993 551.258 585.779 552.789 585.518 549.797C585.517 547.042 597.961 540.617 600.149 535.337C602.423 529.851 603.883 484.28 608.595 481.821C613.306 479.362 624.963 465.587 620.03 496.947Z" fill="#FFC999"/>
<path fill-rule="evenodd" clip-rule="evenodd" d="M605.638 547.719C605.638 547.719 607.788 543.954 607.934 538.873C607.934 538.873 603.862 541.262 600.172 544.022C595.911 547.211 595.026 547.247 595.026 547.247C590.38 547.733 589.883 545.13 589.883 545.13C589.883 545.13 586.894 547.642 581.745 549.984C577.134 552.081 592.68 555.616 595.597 552.205C598.514 548.795 601.792 547.098 601.792 547.098L601.848 553.111L603.348 553.352L605.638 547.719Z" fill="black"/>
<path fill-rule="evenodd" clip-rule="evenodd" d="M605.131 458.813L591.96 523.598L615.709 528.149C615.709 528.149 624.093 493.362 629.093 463.59C629.093 463.59 632.796 448.241 620.109 445.968C607.423 443.694 605.131 458.813 605.131 458.813Z" fill="#A3B5D6"/>
<path fill-rule="evenodd" clip-rule="evenodd" d="M619.964 444.836C644.986 441.844 663.462 441.589 669.249 442.988C669.249 442.988 681.261 445.31 679.007 454.225C676.257 465.105 663.341 465.287 663.341 465.287L621.508 468.451C618.182 468.736 607.236 469.958 606.605 457.561C606.009 445.869 619.419 444.901 619.964 444.836Z" fill="#A3B5D6"/>
<path fill-rule="evenodd" clip-rule="evenodd" d="M619.612 429.291C619.612 429.291 651.614 418.45 656.14 417.209C667.584 414.07 669.017 427.513 661.758 429.306C657.384 430.387 648.523 431.625 640.807 432.797C629.932 434.448 621.935 435.333 621.935 435.333L619.612 429.291Z" fill="#FFC999"/>
<path fill-rule="evenodd" clip-rule="evenodd" d="M676.631 344.625C676.631 344.625 659.021 347.908 659.18 357.684C659.262 362.712 664.498 368.038 662.079 369.637C652.629 375.884 663.169 378.079 657.205 383.056C648.336 390.458 654.234 402.549 663.807 401.492C673.722 400.397 669.358 414.117 686.365 409.79C695.949 407.351 698.704 405.227 705.458 401.76C712.212 398.292 715.93 380.937 707.268 372.68C701.881 367.452 696.89 368.107 693.729 359.255C690.568 350.404 687.613 345.006 683.048 345.858C681.312 343.594 676.631 344.625 676.631 344.625Z" fill="black"/>
<path fill-rule="evenodd" clip-rule="evenodd" d="M666.887 366.056C666.833 365.869 666.562 365.866 666.502 366.051C665.976 367.689 664.731 372.104 666.52 372.27C668.536 372.457 667.374 367.763 666.887 366.056Z" fill="white"/>
<path fill-rule="evenodd" clip-rule="evenodd" d="M684.486 378.966C683.683 372.248 682.92 366.759 682.92 366.759L672.187 372.6L672.82 380.787C673.309 383.801 676.288 385.825 679.397 385.257C682.683 384.655 684.869 382.17 684.486 378.966Z" fill="#F4B784"/>
<path fill-rule="evenodd" clip-rule="evenodd" d="M677.486 354.962C677.486 354.962 676.295 351.925 674.137 353.398C672.592 354.45 673.004 353.585 672.656 352.768C671.365 349.727 670.933 357.214 665.931 358.782C665.848 362.595 665.631 374.783 674.175 375.257C677.499 375.442 681.756 373.16 683.221 368.816C684.177 365.984 683.381 363.133 682.216 362.565C678.376 360.693 678.448 358.763 677.486 354.962Z" fill="#FFC999"/>
<path d="M669.929 358.218C670.053 358.173 670.19 358.223 670.254 358.331L670.272 358.368L671.055 360.381L671.07 360.444L671.09 360.671C671.093 360.713 671.096 360.759 671.098 360.81C671.173 362.083 671.117 363.729 670.84 365.667L670.798 365.948L670.978 365.961C671.364 365.991 671.725 366.036 672.059 366.094L672.256 366.131C672.449 366.168 672.622 366.207 672.775 366.248L672.886 366.278C672.995 366.309 673.072 366.333 673.113 366.349C673.251 366.399 673.321 366.547 673.268 366.68C673.216 366.813 673.063 366.88 672.925 366.83L672.836 366.801C672.808 366.792 672.775 366.782 672.736 366.771C672.572 366.725 672.376 366.678 672.151 366.635C671.66 366.54 671.101 366.472 670.479 366.446C670.321 366.439 670.203 366.301 670.227 366.149C670.557 364.098 670.639 362.356 670.576 361.019L670.558 360.707L670.543 360.53L669.773 358.549C669.726 358.429 669.778 358.297 669.889 358.236L669.929 358.218Z" fill="#DD936F"/>
<path d="M675.716 367.491C675.899 367.437 676.094 367.536 676.15 367.713C676.206 367.89 676.103 368.078 675.92 368.132C675.788 368.171 675.654 368.208 675.518 368.243C674.696 368.454 673.821 368.584 672.935 368.65C672.404 368.689 671.933 368.702 671.551 368.698L671.314 368.693C671.123 368.684 670.974 368.528 670.982 368.343C670.991 368.158 671.153 368.015 671.345 368.023L671.428 368.025C671.811 368.034 672.309 368.024 672.881 367.981C673.728 367.918 674.563 367.794 675.34 367.595C675.467 367.562 675.593 367.528 675.716 367.491Z" fill="#C44343"/>
<path d="M666.126 358.592C667.053 357.986 668.35 357.811 670.037 358.306C670.221 358.359 670.324 358.547 670.268 358.724C670.213 358.901 670.018 359.001 669.835 358.947C668.346 358.511 667.266 358.656 666.516 359.147C666.265 359.311 666.115 359.469 666.055 359.561C665.952 359.717 665.737 359.764 665.575 359.664C665.413 359.565 665.365 359.358 665.468 359.202C665.576 359.037 665.79 358.812 666.126 358.592Z" fill="black"/>
<path d="M677.094 357.42C677.622 357.405 678.104 357.436 678.531 357.519C678.719 357.556 678.841 357.733 678.803 357.914C678.765 358.096 678.582 358.213 678.394 358.177C678.023 358.104 677.592 358.077 677.113 358.09C676.497 358.106 675.833 358.187 675.163 358.313C674.964 358.35 674.775 358.389 674.599 358.429L674.308 358.498C674.237 358.515 674.184 358.529 674.152 358.538C673.967 358.589 673.775 358.486 673.722 358.308C673.669 358.13 673.776 357.945 673.961 357.894L674.133 357.849L674.261 357.818C674.494 357.762 674.753 357.707 675.03 357.655C675.735 357.523 676.435 357.437 677.094 357.42Z" fill="black"/>
<path d="M674.001 370.062C674.148 370.058 674.271 370.169 674.276 370.311C674.28 370.439 674.186 370.548 674.06 370.571L674.017 370.576L673.088 370.604C672.941 370.608 672.818 370.496 672.814 370.355C672.81 370.227 672.903 370.118 673.029 370.094L673.072 370.09L674.001 370.062Z" fill="#DD936F"/>
<path fill-rule="evenodd" clip-rule="evenodd" d="M688.115 364.405C688.768 361.174 685.565 361.424 685.565 361.424C685.565 361.424 685.56 364.632 684.74 367.515C687.952 367.368 688.115 364.405 688.115 364.405Z" fill="#FFC999"/>
<path fill-rule="evenodd" clip-rule="evenodd" d="M686.344 366.691C686.291 366.504 686.019 366.5 685.959 366.685C685.434 368.323 684.189 372.739 685.977 372.904C687.993 373.092 686.831 368.398 686.344 366.691Z" fill="white"/>
<path d="M668.281 361.09C669.025 361.01 669.66 361.69 669.76 362.558C669.781 362.742 669.643 362.907 669.452 362.928C669.262 362.948 669.09 362.816 669.069 362.632C669.007 362.094 668.661 361.724 668.357 361.757C668.052 361.789 667.799 362.222 667.862 362.761C667.883 362.945 667.745 363.11 667.555 363.131C667.364 363.151 667.192 363.019 667.171 362.835C667.07 361.967 667.536 361.169 668.281 361.09Z" fill="black"/>
<path d="M676.017 360.388C676.852 360.269 677.613 360.951 677.754 361.873C677.782 362.056 677.651 362.227 677.461 362.254C677.271 362.281 677.094 362.154 677.066 361.971C676.977 361.387 676.536 360.992 676.119 361.051C675.702 361.111 675.398 361.611 675.487 362.196C675.515 362.379 675.384 362.55 675.194 362.576C675.004 362.603 674.827 362.477 674.799 362.293C674.659 361.371 675.183 360.507 676.017 360.388Z" fill="black"/>
<path fill-rule="evenodd" clip-rule="evenodd" d="M654.577 424.294C654.577 424.294 655.301 401.708 655.807 397.357C657.03 386.847 663.146 384.505 667.77 388.786C673.344 393.946 666.705 425.521 666.705 425.521C666.705 425.521 665.861 429.73 660.622 429.808C654.43 429.901 654.577 424.294 654.577 424.294Z" fill="#FFC999"/>
<path fill-rule="evenodd" clip-rule="evenodd" d="M654.774 408.077C654.924 405.811 653.122 385.549 662.967 385.471C670.624 385.411 668.813 395.063 666.618 411.265L654.774 408.077Z" fill="#E4EBF7"/>
<path fill-rule="evenodd" clip-rule="evenodd" d="M690.769 427.096C685.295 428.383 670.146 427.768 668.52 427.096C666.894 426.424 667.781 421.627 667.781 421.627C657.862 397.213 658.798 389.101 659.667 387.286C660.842 384.832 671.364 384.972 671.761 383.056C671.957 382.112 671.888 378.852 671.888 378.852L685.45 378.125C685.45 378.125 686.206 381.715 686.923 382.867C688.317 385.107 696.885 383.37 700.409 387.901C706.707 395.999 698.105 409.915 693.372 420.038C693.372 420.038 693.665 424.796 690.769 427.096Z" fill="#E4EBF7"/>
<path fill-rule="evenodd" clip-rule="evenodd" d="M670.835 461.184L659.267 449.521C659.267 449.521 661.762 436.517 668.171 430.852L691.033 430.079C691.033 430.079 700.843 436.666 699.776 452.626L682.239 461.276L670.835 461.184Z" fill="#E4EBF7"/>
<path fill-rule="evenodd" clip-rule="evenodd" d="M691.568 430.336L668.172 430.852L668.753 427.399L690.794 426.758L691.568 430.336Z" fill="#E4EBF7"/>
<path d="M676.324 430.859C676.467 430.875 676.57 431 676.553 431.138C676.289 433.341 676.088 435.736 675.947 438.294C675.631 444.032 675.626 450.138 675.815 455.951L675.851 456.974C675.882 457.818 675.915 458.589 675.948 459.276L676.01 460.455C676.019 460.594 675.909 460.713 675.765 460.721C675.621 460.729 675.498 460.623 675.49 460.485L675.462 459.992L675.415 459.037C675.39 458.505 675.365 457.927 675.341 457.306L675.33 456.992C675.105 450.862 675.091 444.36 675.427 438.267C675.568 435.7 675.769 433.295 676.035 431.08C676.05 430.956 676.156 430.863 676.282 430.858L676.324 430.859Z" fill="#A3B5D6"/>
<path d="M691.5 430.264C691.644 430.261 691.763 430.372 691.765 430.511C691.767 430.636 691.675 430.741 691.551 430.762L691.509 430.766L668.58 431.153C668.436 431.155 668.317 431.044 668.315 430.906C668.313 430.781 668.405 430.675 668.529 430.654L668.571 430.65L691.5 430.264Z" fill="#A3B5D6"/>
<path fill-rule="evenodd" clip-rule="evenodd" d="M668.691 494.652C668.653 494.49 679.467 534.346 680.489 537.133C683.28 544.739 684.57 545.473 681.104 548.93C680.216 549.815 678.373 549.789 677.347 552.226C674.537 558.894 668.762 564.1 666.827 561.483C665.266 558.945 673.089 546.481 672.115 540.467C671.103 534.219 646.652 491.486 649.598 486.741C652.544 481.997 655.481 463.177 668.691 494.652Z" fill="#FFC999"/>
<path fill-rule="evenodd" clip-rule="evenodd" d="M684.178 549.426C684.178 549.426 684.027 544.828 681.286 540.073C681.286 540.073 678.887 544.415 677.052 548.9C674.934 554.078 674.139 554.577 674.139 554.577C670.136 557.471 668.203 555.335 668.203 555.335C668.203 555.335 666.874 559.221 663.458 564.088C660.399 568.446 676.716 563.52 677.472 558.843C678.227 554.166 680.285 550.879 680.285 550.879L683.74 556.387L685.258 555.818L684.178 549.426Z" fill="black"/>
<path fill-rule="evenodd" clip-rule="evenodd" d="M632.581 463.039L652.727 530.988L677.666 524.179C677.666 524.179 668.099 487.078 657.838 456.348C657.838 456.348 653.62 439.976 640.377 443.763C627.134 447.549 632.581 463.039 632.581 463.039Z" fill="#E4EBF7"/>
<path fill-rule="evenodd" clip-rule="evenodd" d="M645.712 442.612C673.464 438.677 682.165 438.727 688.637 440.141C688.637 440.141 702.058 442.432 699.786 452.404C697.011 464.572 682.65 465.088 682.65 465.088L648.047 468.841C644.355 469.24 631.185 470.078 631.185 457.092C631.185 444.068 645.108 442.698 645.712 442.612Z" fill="#E4EBF7"/>
<path fill-rule="evenodd" clip-rule="evenodd" d="M692.04 420.017C692.04 420.017 687.578 400.616 687.75 396.081C688.163 385.13 696.097 384.026 700.148 388.908C703.28 392.683 705.238 421.187 705.238 421.187C705.238 421.187 704.045 426.063 698.824 426.567C692.653 427.161 692.04 420.017 692.04 420.017Z" fill="#FFC999"/>
<path fill-rule="evenodd" clip-rule="evenodd" d="M695.58 385.132C701.068 386.225 703.174 391.449 703.672 406.275L689.184 408.539C689.152 406.269 679.658 383.496 696.734 385.346" fill="#E4EBF7"/>
<path fill-rule="evenodd" clip-rule="evenodd" d="M656.444 430.005C656.444 430.005 691.072 416.487 695.662 415.49C704.976 413.467 708.233 424.065 700.434 427.206C690.394 431.249 658.181 437.269 658.181 437.269L656.444 430.005Z" fill="#FFC999"/>
<path d="M691.625 387.922C691.757 387.867 691.911 387.925 691.968 388.052C692.026 388.179 691.966 388.327 691.834 388.383C690.679 388.87 689.742 390.19 689.026 392.089C688.694 392.968 688.432 393.912 688.232 394.857C688.176 395.121 688.128 395.371 688.089 395.601L688.039 395.899L688.012 396.084L689.444 408.512C689.458 408.636 689.376 408.749 689.255 408.781L689.213 408.789C689.085 408.803 688.967 408.724 688.934 408.607L688.926 408.567L687.49 396.109L687.491 396.05L687.523 395.825L687.545 395.691C687.591 395.409 687.65 395.095 687.721 394.756C687.925 393.789 688.194 392.822 688.536 391.917C689.297 389.9 690.305 388.479 691.625 387.922Z" fill="black"/>
<path d="M683.836 383.543C683.98 383.538 684.1 383.647 684.105 383.786C684.11 383.91 684.019 384.017 683.896 384.041L683.853 384.045L673.793 384.377C673.649 384.381 673.529 384.273 673.524 384.134C673.519 384.009 673.61 383.902 673.733 383.879L673.775 383.874L683.836 383.543Z" fill="black"/>
<path d="M662.674 391.69C662.797 391.65 662.929 391.704 662.987 391.811L663.004 391.849L663.787 394.114C663.8 394.154 663.804 394.197 663.796 394.238L663.784 394.279L661.759 399.671L661.722 399.749C661.706 399.784 661.686 399.828 661.664 399.882C661.589 400.064 661.513 400.279 661.442 400.525C660.595 403.456 661.177 407.063 664.28 411.013C664.367 411.124 664.344 411.282 664.229 411.366C664.114 411.449 663.951 411.428 663.864 411.317C660.659 407.236 660.05 403.467 660.939 400.39C661.016 400.126 661.097 399.894 661.18 399.695L661.237 399.562C661.254 399.525 661.267 399.498 661.275 399.483L661.282 399.471L663.263 394.189L662.509 392.008C662.468 391.889 662.524 391.762 662.635 391.706L662.674 391.69Z" fill="black"/>
<path d="M683.437 437.908C683.58 437.891 683.71 437.989 683.728 438.127C683.743 438.251 683.663 438.365 683.542 438.399L683.501 438.407L643.869 443.1C643.726 443.117 643.596 443.019 643.578 442.881C643.562 442.757 643.643 442.643 643.764 442.609L643.805 442.601L683.437 437.908Z" fill="#A3B5D6"/>
<path fill-rule="evenodd" clip-rule="evenodd" d="M642.864 450.84L683.401 444.653L643.228 432.93L609.84 441.27L642.864 450.84Z" fill="#CCD7EE"/>
<path fill-rule="evenodd" clip-rule="evenodd" d="M641.336 448.116L670.777 443.622L642.294 435.055L617.351 441.165L641.336 448.116Z" fill="#4E5C93"/>
<path fill-rule="evenodd" clip-rule="evenodd" d="M683.377 446.67L683.41 444.667L642.038 450.66L642.739 452.8L683.377 446.67Z" fill="black"/>
<path d="M636.675 436.839C636.704 436.763 636.784 436.719 636.864 436.731L636.898 436.739L660.067 444.93C660.157 444.962 660.204 445.058 660.171 445.145C660.142 445.221 660.062 445.265 659.982 445.253L659.948 445.245L636.778 437.054C636.688 437.022 636.642 436.926 636.675 436.839Z" fill="#CCD7EE"/>
<path d="M639.748 435.651C639.775 435.575 639.855 435.53 639.935 435.54L639.969 435.548L665.876 444.235C665.966 444.265 666.014 444.361 665.983 444.448C665.955 444.525 665.876 444.57 665.796 444.559L665.762 444.552L639.855 435.865C639.764 435.834 639.716 435.739 639.748 435.651Z" fill="#CCD7EE"/>
<path d="M636.325 438.87C636.355 438.794 636.436 438.751 636.516 438.764L636.55 438.773L656.007 445.949C656.096 445.982 656.141 446.079 656.107 446.165C656.077 446.241 655.996 446.283 655.916 446.271L655.883 446.262L636.425 439.086C636.336 439.053 636.291 438.956 636.325 438.87Z" fill="#CCD7EE"/>
<path d="M630.994 439.383C631.024 439.308 631.105 439.265 631.185 439.278L631.219 439.287L650.676 446.462C650.766 446.495 650.81 446.591 650.776 446.678C650.746 446.754 650.665 446.796 650.586 446.784L650.552 446.775L631.095 439.6C631.005 439.567 630.96 439.47 630.994 439.383Z" fill="#CCD7EE"/>
<path d="M626.071 440.191C626.101 440.115 626.182 440.073 626.261 440.085L626.295 440.094L645.752 447.269C645.842 447.302 645.887 447.399 645.853 447.486C645.823 447.561 645.742 447.604 645.662 447.591L645.628 447.582L626.171 440.407C626.081 440.374 626.037 440.277 626.071 440.191Z" fill="#CCD7EE"/>
<path d="M665.962 442.392C666.057 442.38 666.144 442.446 666.156 442.537C666.166 442.618 666.116 442.692 666.039 442.717L666.005 442.724L640.811 445.722C640.715 445.733 640.629 445.668 640.617 445.576C640.606 445.496 640.657 445.422 640.734 445.397L640.768 445.389L665.962 442.392Z" fill="#CCD7EE"/>
<path d="M660.373 440.492C660.469 440.48 660.556 440.546 660.567 440.638C660.578 440.718 660.527 440.792 660.45 440.817L660.416 440.824L635.222 443.822C635.127 443.833 635.04 443.768 635.028 443.676C635.018 443.596 635.069 443.522 635.145 443.497L635.179 443.489L660.373 440.492Z" fill="#CCD7EE"/>
<path d="M653.446 439.224C653.542 439.213 653.628 439.278 653.64 439.37C653.65 439.45 653.6 439.524 653.523 439.549L653.489 439.557L628.295 442.554C628.2 442.566 628.113 442.5 628.101 442.409C628.091 442.328 628.141 442.254 628.218 442.229L628.252 442.222L653.446 439.224Z" fill="#CCD7EE"/>
<path d="M648.761 435.862C648.856 435.851 648.943 435.916 648.955 436.008C648.965 436.088 648.914 436.162 648.838 436.187L648.803 436.195L623.609 439.192C623.514 439.204 623.427 439.138 623.416 439.047C623.405 438.966 623.456 438.892 623.533 438.867L623.567 438.86L648.761 435.862Z" fill="#CCD7EE"/>
<path fill-rule="evenodd" clip-rule="evenodd" d="M642.706 452.801L640.884 452.954L609.63 443.486L596.998 392.538L630.662 399.019L642.706 452.801Z" fill="black"/>
<path fill-rule="evenodd" clip-rule="evenodd" d="M640.82 452.957L607.86 442.987C607.559 442.896 607.329 442.659 607.256 442.363L595.059 393.401C594.906 392.786 595.466 392.225 596.109 392.35L628.042 398.54C628.392 398.608 628.667 398.87 628.743 399.206L640.82 452.957Z" fill="#4E5C93"/>
<path fill-rule="evenodd" clip-rule="evenodd" d="M660.246 435.992C659.253 439.568 650.993 438.354 650.993 438.354L646.943 441.533C646.302 441.959 646.027 441.543 645.678 441.62C644.737 441.826 644.512 440.873 644.512 440.873C644.153 440.796 643.687 441.15 643.342 440.32C643.342 440.32 642.673 440.419 642.444 439.658C642.359 439.375 643.651 435.545 644.423 433.304C644.762 432.32 645.644 431.605 646.708 431.451L656.594 430.016C656.594 430.016 661.583 431.18 660.246 435.992Z" fill="#FFC999"/>
<path d="M651.582 435.818C651.717 435.762 651.874 435.823 651.932 435.954C651.984 436.071 651.938 436.205 651.83 436.272L651.791 436.291L648.883 437.488L645.974 441.35C645.897 441.452 645.757 441.484 645.643 441.431L645.602 441.407C645.496 441.333 645.463 441.197 645.518 441.088L645.543 441.048L648.495 437.129C648.514 437.104 648.537 437.082 648.564 437.066L648.606 437.044L651.582 435.818Z" fill="#DD936F"/>
<path d="M649.592 434.639C649.721 434.57 649.883 434.613 649.956 434.737C650.021 434.849 649.99 434.987 649.89 435.064L649.854 435.087L647.184 436.537L644.814 440.535C644.748 440.646 644.609 440.692 644.489 440.648L644.45 440.63C644.335 440.567 644.287 440.433 644.332 440.317L644.351 440.28L646.757 436.221C646.773 436.194 646.794 436.17 646.818 436.151L646.858 436.124L649.592 434.639Z" fill="#DD936F"/>
<path d="M647.663 433.551C647.778 433.463 647.946 433.482 648.037 433.593C648.118 433.692 648.112 433.831 648.028 433.922L647.994 433.954L646.196 435.325L644.033 439.617C643.975 439.732 643.84 439.786 643.717 439.751L643.677 439.736C643.558 439.68 643.501 439.549 643.538 439.431L643.554 439.392L645.744 435.047C645.755 435.024 645.771 435.003 645.789 434.984L645.818 434.958L647.663 433.551Z" fill="#DD936F"/>
<path d="M377.311 693.52H115.803C111.193 693.52 107.457 703.196 107.457 715.133C107.457 727.069 111.193 736.746 115.803 736.746H377.311C381.92 736.746 385.657 727.069 385.657 715.133C385.657 703.196 381.92 693.52 377.311 693.52Z" fill="#E4EBF7"/>
<path fill-rule="evenodd" clip-rule="evenodd" d="M183.1 608.761C183.1 614.972 179.934 620.007 176.028 620.007C172.122 620.007 168.955 614.972 168.955 608.761C168.955 602.55 172.122 597.515 176.028 597.515C179.934 597.515 183.1 602.55 183.1 608.761Z" fill="black"/>
<path fill-rule="evenodd" clip-rule="evenodd" d="M174.701 709.976H177.438V612.12H174.701V709.976Z" fill="black"/>
<path fill-rule="evenodd" clip-rule="evenodd" d="M174.701 709.976L142.814 718.422L140.756 716.059L174.701 700.161V709.976Z" fill="black"/>
<path fill-rule="evenodd" clip-rule="evenodd" d="M177.439 709.976L209.325 718.422L211.383 716.059L177.439 700.161V709.976Z" fill="black"/>
<path fill-rule="evenodd" clip-rule="evenodd" d="M173.898 721.33H178.242V707.151H173.898V721.33Z" fill="black"/>
<path fill-rule="evenodd" clip-rule="evenodd" d="M145.802 721.518C145.802 724.756 144.151 727.38 142.115 727.38C140.079 727.38 138.428 724.756 138.428 721.518C138.428 718.281 140.079 715.656 142.115 715.656C144.151 715.656 145.802 718.281 145.802 721.518Z" fill="black"/>
<path fill-rule="evenodd" clip-rule="evenodd" d="M179.756 721.518C179.756 724.756 178.106 727.38 176.069 727.38C174.034 727.38 172.383 724.756 172.383 721.518C172.383 718.281 174.034 715.656 176.069 715.656C178.106 715.656 179.756 718.281 179.756 721.518Z" fill="black"/>
<path fill-rule="evenodd" clip-rule="evenodd" d="M214.034 721.518C214.034 724.756 212.383 727.38 210.347 727.38C208.311 727.38 206.66 724.756 206.66 721.518C206.66 718.281 208.311 715.656 210.347 715.656C212.383 715.656 214.034 718.281 214.034 721.518Z" fill="black"/>
<path fill-rule="evenodd" clip-rule="evenodd" d="M220.362 606.696H131.694C131.694 592.839 138.759 581.606 147.473 581.606H204.582C213.297 581.606 220.362 592.839 220.362 606.696Z" fill="#A3B5D6"/>
<path fill-rule="evenodd" clip-rule="evenodd" d="M204.364 667.686L218.897 679.174C225.819 679.486 227.137 671.694 227.137 671.694L265.448 637.496C270.548 632.93 270.286 625.562 264.873 621.282C259.458 617.002 251.066 617.529 246.405 622.444L210.899 659.947C210.899 659.947 202.951 661.846 204.364 667.686Z" fill="#4E5C93"/>
<path fill-rule="evenodd" clip-rule="evenodd" d="M204.243 702.563L187.537 687.326L204.49 667.878L218.396 678.87L205.09 689.736L206.706 701.541C206.87 702.741 205.198 703.434 204.243 702.563Z" fill="#312812"/>
<path fill-rule="evenodd" clip-rule="evenodd" d="M208.42 659.659C215.017 658.038 219.001 652.169 217.477 646.317L202.485 588.747C200.432 580.862 191.266 576.086 182.377 578.269C173.489 580.453 168.493 588.708 171.418 596.379L192.768 652.387C194.938 658.079 201.825 661.278 208.42 659.659Z" fill="#4E5C93"/>
<path fill-rule="evenodd" clip-rule="evenodd" d="M264.48 638.682C269.706 634.802 270.537 628.011 266.37 623.247L225.37 576.384C219.754 569.964 209.151 568.967 202.108 574.197C195.066 579.425 194.449 588.754 200.755 594.661L246.792 637.784C251.472 642.168 259.254 642.563 264.48 638.682Z" fill="#4E5C93"/>
<path fill-rule="evenodd" clip-rule="evenodd" d="M209.681 706.655L228.802 702.988C233.12 698.238 226.655 692.763 226.655 692.763L217.217 645.563C215.948 639.271 208.958 635.169 201.834 636.536C194.711 637.902 190.316 644.188 192.163 650.369L206.302 697.495C206.302 697.495 203.439 704.262 209.681 706.655Z" fill="#4E5C93"/>
<path fill-rule="evenodd" clip-rule="evenodd" d="M241.978 727.042L218.114 730.076L209.932 706.677L228.228 703.168L230.568 718.972L242.464 724.692C243.672 725.273 243.343 726.868 241.978 727.042Z" fill="#312812"/>
<path fill-rule="evenodd" clip-rule="evenodd" d="M171.776 553.988C171.776 553.988 145.857 508.172 148.335 503.828C150.815 499.483 169.114 489.715 196.775 491.383C224.556 493.059 234.27 502.947 234.27 502.947C234.27 502.947 227.127 531.985 221.137 550.828C224.292 555.766 218.556 559.27 218.556 559.27C218.556 559.27 182.551 557.812 173.986 558.207C169.986 556.705 171.776 553.988 171.776 553.988Z" fill="#AA1215"/>
<path fill-rule="evenodd" clip-rule="evenodd" d="M231.722 586.854L204.315 598.36L171.873 596.86C171.873 596.86 164.345 578.849 173.236 563.088C174.379 560.335 174.843 558.27 174.843 558.27C174.843 558.27 203.128 554.515 218.556 559.271L219.128 563.777C219.128 563.777 222.713 570.437 224.87 574.847C228.296 581.851 231.722 586.854 231.722 586.854Z" fill="#4E5C93"/>
<path fill-rule="evenodd" clip-rule="evenodd" d="M177.415 487.927L178.841 466.127H202.411L202.389 489.679L195.628 500.944L177.415 487.927Z" fill="#FFC2BD"/>
<path d="M195.948 478.756C196.088 478.755 196.202 478.854 196.203 478.977C196.204 479.087 196.112 479.179 195.992 479.197L195.951 479.2L193.544 479.21C193.404 479.21 193.29 479.111 193.29 478.989C193.289 478.878 193.381 478.786 193.501 478.769L193.542 478.765L195.948 478.756Z" fill="#D18888"/>
<path fill-rule="evenodd" clip-rule="evenodd" d="M185.84 454.152C185.84 454.152 198.781 450.539 202.674 455.747C206.46 460.811 207.852 479.696 201.18 482.89C195.741 485.494 184.281 484.934 181.015 475.936C181.015 475.936 178.306 469.044 178.782 462.755C179.257 456.465 185.84 454.152 185.84 454.152Z" fill="#FFC2BD"/>
<path fill-rule="evenodd" clip-rule="evenodd" d="M180.68 470.437C180.68 470.437 176.748 464.604 174.236 467.981C171.723 471.358 176.654 477.143 180.633 476.706C184.612 476.27 180.68 470.437 180.68 470.437Z" fill="#FFC2BD"/>
<path fill-rule="evenodd" clip-rule="evenodd" d="M205.619 466.514C205.619 466.514 206.889 459.184 204.618 454.778C202.347 450.372 199.505 445.993 197.796 448.454C197.441 447.343 195.592 445.173 194.264 444.483C192.934 443.793 189.236 448.854 189.236 448.854C189.236 448.854 189.385 446.591 187.899 448.039C186.414 449.488 177.115 454.184 175.683 456.507C174.251 458.83 175.588 467.062 175.588 467.062C175.588 467.062 178.64 466.668 180.592 471.717C179.914 467.612 181.742 465.364 182.697 464.497C183.06 464.168 183.252 463.725 183.264 463.269C183.287 462.392 183.311 460.919 183.265 459.485C183.244 458.852 183.74 458.305 184.444 458.164C191.609 456.729 199.619 457.344 202.477 457.639C203.124 457.706 203.641 458.134 203.761 458.694L204.759 463.348C204.759 463.348 205.189 464.152 205.619 466.514Z" fill="black"/>
<path d="M188.742 465.052L188.804 465.056L193.473 465.547C193.786 465.58 194.009 465.829 193.972 466.104C193.936 466.361 193.684 466.549 193.395 466.544L193.337 466.541L188.793 466.062L186.533 466.703C186.252 466.783 185.951 466.661 185.835 466.429L185.814 466.381C185.723 466.135 185.862 465.871 186.127 465.769L186.181 465.751L188.56 465.076C188.619 465.06 188.681 465.052 188.742 465.052Z" fill="black"/>
<path d="M202.596 464.573C202.674 464.551 202.756 464.544 202.836 464.552L202.896 464.561L204.706 464.915C205.014 464.975 205.207 465.243 205.139 465.512C205.074 465.765 204.802 465.93 204.515 465.9L204.457 465.891L202.799 465.567L198.448 466.801C198.167 466.88 197.866 466.759 197.75 466.527L197.729 466.479C197.638 466.232 197.777 465.969 198.042 465.867L198.096 465.849L202.596 464.573Z" fill="black"/>
<path fill-rule="evenodd" clip-rule="evenodd" d="M181.04 472.833C181.04 472.833 184.881 475.182 186.967 477.716C189.464 474.686 192.206 473.304 192.206 473.304C192.206 473.304 195.565 475.256 197.237 474.52C197.738 473.932 197.645 473.363 197.645 473.363C197.645 473.363 200.59 474.166 202.783 476.695C203.525 474.781 205.789 472.24 205.789 472.24C205.789 472.24 207.047 484.455 196.787 485.123C186.41 485.608 182.645 480.739 181.21 476.576C180.858 475.266 180.235 471.931 181.04 472.833Z" fill="#EFADAB"/>
<path d="M190.708 476.271C190.767 476.116 190.959 476.032 191.136 476.084L191.304 476.13C191.361 476.145 191.428 476.162 191.505 476.181C191.806 476.255 192.146 476.329 192.516 476.399C193.945 476.666 195.4 476.786 196.749 476.675C197.472 476.616 198.14 476.491 198.742 476.295C198.917 476.238 199.112 476.316 199.177 476.469C199.242 476.623 199.153 476.793 198.978 476.85C198.316 477.066 197.591 477.201 196.812 477.265C195.385 477.382 193.865 477.257 192.375 476.978C191.99 476.906 191.636 476.828 191.322 476.751L191.05 476.681C190.997 476.667 190.953 476.655 190.922 476.646C190.745 476.594 190.649 476.426 190.708 476.271Z" fill="#D18888"/>
<path d="M197.089 466.444C197.232 466.449 197.347 466.545 197.362 466.666L197.364 466.703L197.307 468.047L197.477 468.613C197.613 469.079 197.749 469.574 197.876 470.077C197.981 470.495 198.076 470.901 198.157 471.287L198.22 471.593C198.554 473.287 198.574 474.349 198.1 474.709C197.633 475.063 196.755 474.981 195.525 474.614C195.212 474.521 194.884 474.41 194.545 474.286C194.166 474.147 193.795 473.998 193.445 473.849L193.115 473.704C193.056 473.678 193.014 473.659 192.992 473.649C192.853 473.584 192.8 473.433 192.873 473.311C192.947 473.189 193.12 473.142 193.259 473.207L193.374 473.259C193.469 473.301 193.576 473.348 193.695 473.399C194.035 473.544 194.398 473.689 194.766 473.825C195.093 473.945 195.409 474.051 195.709 474.141C196.738 474.447 197.481 474.517 197.726 474.331C197.986 474.134 197.936 472.994 197.596 471.378C197.516 470.997 197.423 470.598 197.319 470.185C197.218 469.787 197.112 469.394 197.005 469.017L196.889 468.618L196.745 468.142L196.735 468.066L196.794 466.685C196.8 466.547 196.932 466.439 197.089 466.444Z" fill="#D18888"/>
<path d="M191.005 469.191C191.191 469.183 191.35 469.308 191.36 469.471C191.413 470.343 190.857 471.108 190.051 471.145C189.244 471.183 188.599 470.474 188.545 469.603C188.535 469.44 188.678 469.3 188.864 469.291C189.051 469.283 189.21 469.408 189.22 469.571C189.256 470.15 189.639 470.571 190.015 470.554C190.39 470.536 190.72 470.082 190.685 469.503C190.675 469.339 190.818 469.2 191.005 469.191Z" fill="black"/>
<path d="M202.238 468.667C202.425 468.658 202.584 468.783 202.594 468.947C202.647 469.818 202.091 470.582 201.285 470.62C200.478 470.658 199.832 469.949 199.779 469.078C199.769 468.914 199.912 468.775 200.098 468.766C200.284 468.757 200.444 468.883 200.454 469.046C200.489 469.626 200.873 470.047 201.248 470.029C201.624 470.011 201.954 469.557 201.919 468.978C201.909 468.815 202.052 468.675 202.238 468.667Z" fill="black"/>
<path d="M191.287 475.14C191.412 475.018 191.626 475.008 191.764 475.118C191.891 475.217 191.912 475.381 191.821 475.501L191.79 475.536L190.034 477.248C189.91 477.369 189.696 477.379 189.557 477.27C189.431 477.171 189.41 477.007 189.501 476.886L189.532 476.852L191.287 475.14Z" fill="#D18888"/>
<path d="M181.244 476.71C181.392 476.664 181.555 476.731 181.609 476.861L181.654 476.966C181.682 477.025 181.718 477.101 181.764 477.193C181.899 477.463 182.068 477.765 182.27 478.091C182.851 479.022 183.592 479.954 184.507 480.823C187.893 484.04 192.648 485.554 199.028 484.426C199.183 484.398 199.333 484.486 199.364 484.621C199.395 484.757 199.295 484.888 199.141 484.916C192.557 486.08 187.604 484.503 184.088 481.162C183.139 480.261 182.372 479.296 181.77 478.33C181.594 478.048 181.443 477.782 181.315 477.538L181.241 477.394C181.204 477.319 181.171 477.25 181.142 477.188L181.072 477.03C181.018 476.9 181.096 476.757 181.244 476.71Z" fill="#D18888"/>
<path d="M175.131 469.787C175.237 469.203 175.747 468.918 176.605 469.162C177.916 469.535 178.152 470.334 177.86 471.811L177.813 472.032C177.616 472.924 177.993 473.403 178.935 473.523C179.091 473.542 179.199 473.669 179.176 473.806C179.154 473.942 179.009 474.037 178.853 474.017C177.62 473.861 177.028 473.147 177.234 472.034L177.299 471.718C177.545 470.475 177.37 469.905 176.429 469.638C175.909 469.49 175.746 469.581 175.694 469.865C175.675 469.972 175.678 470.092 175.696 470.206L175.706 470.265C175.707 470.269 175.708 470.272 175.708 470.275C175.742 470.41 175.644 470.543 175.49 470.572C175.336 470.602 175.184 470.516 175.151 470.381L175.141 470.336C175.137 470.318 175.134 470.297 175.13 470.272C175.106 470.114 175.102 469.948 175.131 469.787Z" fill="#D18888"/>
<path fill-rule="evenodd" clip-rule="evenodd" d="M192.212 478.412C192.196 478.54 192.064 478.633 191.917 478.619C191.769 478.605 191.663 478.488 191.68 478.36C191.696 478.231 191.829 478.138 191.976 478.153C192.123 478.166 192.228 478.283 192.212 478.412Z" fill="#D18888"/>
<path fill-rule="evenodd" clip-rule="evenodd" d="M188.25 479.481C188.234 479.61 188.102 479.703 187.954 479.689C187.808 479.674 187.702 479.558 187.718 479.429C187.735 479.301 187.867 479.208 188.014 479.222C188.161 479.236 188.267 479.353 188.25 479.481Z" fill="#D18888"/>
<path fill-rule="evenodd" clip-rule="evenodd" d="M201.233 479.643C201.292 479.762 201.23 479.9 201.094 479.951C200.958 480.003 200.801 479.948 200.742 479.829C200.683 479.711 200.745 479.572 200.881 479.521C201.016 479.469 201.175 479.524 201.233 479.643Z" fill="#D18888"/>
<path fill-rule="evenodd" clip-rule="evenodd" d="M203.675 478.405C203.734 478.524 203.672 478.662 203.536 478.714C203.4 478.765 203.243 478.711 203.184 478.592C203.125 478.473 203.187 478.335 203.323 478.283C203.458 478.231 203.616 478.286 203.675 478.405Z" fill="#D18888"/>
<path fill-rule="evenodd" clip-rule="evenodd" d="M199.096 480.427C199.155 480.546 199.093 480.684 198.957 480.736C198.822 480.787 198.664 480.733 198.605 480.614C198.546 480.495 198.608 480.356 198.744 480.305C198.88 480.253 199.037 480.308 199.096 480.427Z" fill="#D18888"/>
<path fill-rule="evenodd" clip-rule="evenodd" d="M195.942 480.035C196.001 480.155 195.939 480.293 195.803 480.344C195.668 480.396 195.509 480.341 195.451 480.222C195.392 480.104 195.454 479.965 195.59 479.913C195.726 479.862 195.883 479.916 195.942 480.035Z" fill="#D18888"/>
<path fill-rule="evenodd" clip-rule="evenodd" d="M185.076 478.663C185.135 478.782 185.072 478.92 184.937 478.972C184.801 479.023 184.643 478.969 184.584 478.85C184.526 478.731 184.588 478.593 184.724 478.541C184.86 478.49 185.017 478.544 185.076 478.663Z" fill="#D18888"/>
<path fill-rule="evenodd" clip-rule="evenodd" d="M190.395 481.795C190.378 481.924 190.246 482.017 190.099 482.002C189.952 481.988 189.846 481.872 189.862 481.743C189.879 481.614 190.011 481.521 190.158 481.536C190.305 481.55 190.411 481.666 190.395 481.795Z" fill="#D18888"/>
<path fill-rule="evenodd" clip-rule="evenodd" d="M192.448 481.335C192.431 481.464 192.299 481.556 192.152 481.542C192.005 481.528 191.899 481.412 191.915 481.282C191.932 481.154 192.064 481.061 192.211 481.076C192.358 481.089 192.464 481.206 192.448 481.335Z" fill="#D18888"/>
<path fill-rule="evenodd" clip-rule="evenodd" d="M200.867 481.574C200.851 481.703 200.719 481.796 200.572 481.781C200.425 481.767 200.318 481.651 200.335 481.522C200.352 481.393 200.484 481.3 200.631 481.315C200.778 481.329 200.884 481.445 200.867 481.574Z" fill="#D18888"/>
<path fill-rule="evenodd" clip-rule="evenodd" d="M199.371 478.867C199.355 478.996 199.222 479.089 199.076 479.075C198.928 479.06 198.822 478.944 198.838 478.815C198.855 478.687 198.988 478.594 199.135 478.608C199.282 478.622 199.387 478.739 199.371 478.867Z" fill="#D18888"/>
<path fill-rule="evenodd" clip-rule="evenodd" d="M200.191 476.479C200.175 476.608 200.043 476.7 199.896 476.686C199.749 476.672 199.642 476.556 199.659 476.427C199.676 476.298 199.808 476.205 199.955 476.22C200.102 476.234 200.208 476.35 200.191 476.479Z" fill="#D18888"/>
<path fill-rule="evenodd" clip-rule="evenodd" d="M188.076 480.955C188.06 481.083 187.927 481.176 187.78 481.162C187.633 481.148 187.527 481.031 187.544 480.902C187.56 480.773 187.693 480.681 187.84 480.695C187.987 480.709 188.092 480.825 188.076 480.955Z" fill="#D18888"/>
<path fill-rule="evenodd" clip-rule="evenodd" d="M204.842 492.934L203.771 489.117L198.96 489.491L196.079 499.19L189.7 488.512L175.465 487.239L173.462 493.247C173.462 493.247 182.734 504.286 197.771 502.259C205.199 501.257 204.842 492.934 204.842 492.934Z" fill="#AA1215"/>
<path fill-rule="evenodd" clip-rule="evenodd" d="M217.508 499.487C217.508 499.487 230.277 513.495 228.437 529.74C240.212 535.752 246.438 536.523 250.809 538.408C255.18 540.294 268.042 536.2 265.84 526.604C263.864 517.998 238.598 507.616 234.92 504.658C229.428 500.243 220.008 498.825 217.508 499.487Z" fill="#FFC2BD"/>
<path fill-rule="evenodd" clip-rule="evenodd" d="M249.704 512.605C242.872 507.011 236.432 504.442 234.517 502.903C229.025 498.488 219.57 498.452 217.069 499.114C217.069 499.114 226.232 512.161 224.393 528.406C229.455 530.901 234.833 532.564 238.313 533.673C238.313 533.673 237.472 531.619 240.212 524.248C243.532 515.318 249.704 512.605 249.704 512.605Z" fill="#AA1215"/>
<path d="M227.101 508.086C227.242 508.06 227.379 508.139 227.408 508.262L227.447 508.44C227.478 508.585 227.512 508.757 227.549 508.954L227.619 509.344C227.7 509.814 227.78 510.34 227.856 510.92C228.986 519.539 228.243 529.812 224.231 540.566C224.186 540.686 224.04 540.751 223.904 540.712C223.768 540.673 223.693 540.545 223.738 540.425C227.725 529.739 228.463 519.53 227.341 510.972C227.255 510.315 227.164 509.729 227.072 509.216L227.037 509.028C227.008 508.872 226.981 508.734 226.956 508.612L226.9 508.354C226.871 508.231 226.961 508.111 227.101 508.086Z" fill="black"/>
<path fill-rule="evenodd" clip-rule="evenodd" d="M219.199 563.839C197.45 561.398 173.129 562.797 173.129 562.797L173.986 557.446C173.986 557.446 201.628 554.348 218.698 558.353C219.091 560.919 219.199 563.839 219.199 563.839Z" fill="black"/>
<path d="M198.146 562.961C198.344 562.9 198.561 562.992 198.63 563.166L198.792 563.591C198.835 563.707 198.882 563.835 198.932 563.974L199.064 564.346C199.245 564.858 199.439 565.43 199.643 566.063L199.721 566.302C200.536 568.842 201.351 571.77 202.111 575.048C203.776 582.225 204.939 590.015 205.386 598.263L205.423 598.984L217.006 590.105C217.151 589.993 217.365 589.996 217.506 590.104L217.543 590.136C217.67 590.263 217.667 590.451 217.544 590.574L217.507 590.607L205.326 599.945C205.085 600.13 204.707 599.987 204.695 599.707C204.312 590.971 203.117 582.734 201.365 575.181C200.643 572.068 199.872 569.273 199.099 566.83L198.988 566.483C198.756 565.761 198.538 565.113 198.337 564.543L198.206 564.175C198.124 563.947 198.051 563.749 197.988 563.583L197.912 563.385C197.842 563.211 197.947 563.021 198.146 562.961Z" fill="black"/>
<path d="M206.462 563.203C206.665 563.158 206.873 563.265 206.925 563.443L207.125 564.137L207.442 565.265C207.509 565.507 207.579 565.757 207.65 566.017C208.194 567.994 208.737 570.068 209.245 572.14C209.501 573.185 209.741 574.204 209.964 575.19L210.073 575.681C211.668 582.874 212.106 587.247 210.829 588.118C210.247 588.514 209.584 588.903 208.853 589.282C207.89 589.783 206.86 590.243 205.83 590.653C205.541 590.767 205.27 590.872 205.018 590.965L204.575 591.125C204.523 591.143 204.482 591.157 204.451 591.167C204.255 591.233 204.035 591.148 203.96 590.976C203.884 590.804 203.982 590.611 204.178 590.545L204.543 590.416C204.836 590.31 205.163 590.186 205.515 590.045C206.522 589.645 207.528 589.196 208.465 588.709C209.17 588.343 209.807 587.969 210.362 587.591C211.247 586.988 210.816 582.58 209.374 576.025L209.326 575.808C209.075 574.675 208.798 573.495 208.501 572.28C208.058 570.473 207.587 568.663 207.114 566.917L206.771 565.667L206.354 564.185L206.188 563.609C206.135 563.431 206.258 563.249 206.462 563.203Z" fill="black"/>
<path fill-rule="evenodd" clip-rule="evenodd" d="M192.7 562.118V556.773C192.7 556.075 193.307 555.503 194.077 555.483C196.628 555.416 202.297 555.357 207.44 555.928C208.157 556.008 208.699 556.555 208.699 557.21V562.236C208.699 562.954 208.056 563.535 207.263 563.526C204.348 563.495 197.707 563.425 194.111 563.408C193.328 563.404 192.7 562.828 192.7 562.118Z" fill="#E4EBF7"/>
<path fill-rule="evenodd" clip-rule="evenodd" d="M194.35 561.195L194.351 557.657C194.351 557.196 194.848 556.817 195.476 556.803C197.557 556.76 202.182 556.722 206.378 557.102C206.963 557.155 207.405 557.518 207.405 557.952L207.403 561.278C207.403 561.754 206.878 562.138 206.231 562.132C203.853 562.11 198.434 562.062 195.501 562.049C194.862 562.047 194.35 561.665 194.35 561.195Z" fill="black"/>
<path fill-rule="evenodd" clip-rule="evenodd" d="M207.36 556.419L193.854 561.7L194.411 562.776L208.03 557.397L207.36 556.419Z" fill="#E4EBF7"/>
<path fill-rule="evenodd" clip-rule="evenodd" d="M207.94 561.531L194.402 556.312L193.867 557.397L207.563 562.623L207.94 561.531Z" fill="#E4EBF7"/>
<path d="M181.54 562.011C181.747 562.042 181.886 562.215 181.85 562.396L181.821 562.532L181.759 562.802L181.734 562.904C181.637 563.302 181.516 563.746 181.37 564.224C180.952 565.589 180.417 566.954 179.751 568.231C177.823 571.933 175.203 574.18 171.768 574.18C171.558 574.18 171.388 574.03 171.388 573.846C171.388 573.662 171.558 573.513 171.768 573.513C174.829 573.513 177.241 571.444 179.059 567.954C179.705 566.714 180.227 565.383 180.634 564.051C180.777 563.585 180.895 563.152 180.99 562.764L181.056 562.486L181.1 562.282C181.133 562.115 181.303 561.998 181.492 562.006L181.54 562.011Z" fill="black"/>
<path d="M174.6 493.357C174.644 493.251 174.769 493.191 174.891 493.211L174.932 493.221L184.36 496.225C184.494 496.268 184.564 496.398 184.515 496.516C184.471 496.622 184.346 496.682 184.223 496.662L184.183 496.652L174.755 493.648C174.62 493.605 174.551 493.475 174.6 493.357Z" fill="black"/>
<path d="M196.007 498.972C196.144 498.937 196.288 499.006 196.328 499.126L196.414 499.398L196.545 499.828C196.575 499.932 196.607 500.041 196.64 500.154C196.873 500.966 197.106 501.863 197.323 502.822C197.837 505.084 198.183 507.325 198.287 509.422C198.356 510.818 198.313 512.11 198.147 513.279C198.129 513.404 197.999 513.492 197.857 513.477C197.715 513.461 197.614 513.347 197.632 513.223C197.795 512.081 197.836 510.813 197.769 509.441C197.667 507.371 197.323 505.152 196.815 502.91C196.623 502.065 196.419 501.268 196.214 500.536L196.137 500.265C196.088 500.096 196.042 499.939 195.998 499.793L195.83 499.253C195.79 499.133 195.869 499.007 196.007 498.972Z" fill="black"/>
<path fill-rule="evenodd" clip-rule="evenodd" d="M298.24 508.248C291.09 514.442 275.025 529.6 263.716 536.516C263.716 536.516 251.727 543.467 244.755 534.209C237.956 525.183 250.593 518.604 250.593 518.604C264.553 510.975 281.221 502.448 288.839 497.957C288.839 497.957 293.056 495.726 297.311 499.609C302.36 504.215 298.24 508.248 298.24 508.248Z" fill="#FFC2BD"/>
<path fill-rule="evenodd" clip-rule="evenodd" d="M288.99 507.828C288.99 507.828 285.297 503.805 288.222 496.92C290.484 491.596 289.233 490.639 289.74 487.572C290.248 484.504 293.082 487.479 293.472 493.25C293.409 497.456 302.92 489.029 304.72 483.689C306.468 478.506 317.367 493.43 300.247 506.295C291.807 512.637 288.99 507.828 288.99 507.828Z" fill="#FFC2BD"/>
<path d="M307.322 489.219C307.688 488.653 308.126 488.465 308.508 488.531L308.558 488.542C308.565 488.544 308.572 488.546 308.578 488.548C308.724 488.595 308.799 488.736 308.745 488.863C308.697 488.978 308.562 489.043 308.429 489.021L308.399 489.014C308.365 489.008 308.312 489.013 308.241 489.044C308.106 489.102 307.959 489.232 307.811 489.461C307.6 489.788 307.416 490.272 307.27 490.934L307.24 491.079C306.568 494.388 303.838 496.899 298.809 499.138C297.58 499.685 296.699 500.341 296.119 501.081C295.283 502.149 295.132 503.279 295.374 504.29C295.41 504.441 295.446 504.546 295.467 504.598C295.52 504.725 295.446 504.867 295.3 504.913C295.154 504.96 294.993 504.894 294.94 504.767L294.911 504.691C294.885 504.617 294.854 504.516 294.825 504.392C294.553 503.259 294.722 501.995 295.656 500.803C296.291 499.992 297.245 499.282 298.555 498.699C303.362 496.559 305.967 494.201 306.655 491.144L306.687 490.993C306.847 490.205 307.061 489.622 307.322 489.219Z" fill="#D18888"/>
<path d="M306.667 486.53C307.271 485.893 307.969 485.701 308.455 486.14C308.563 486.238 308.56 486.394 308.449 486.488C308.337 486.583 308.159 486.58 308.051 486.483C307.859 486.308 307.519 486.402 307.099 486.845C306.578 487.394 306.114 488.327 305.831 489.487C305.578 490.526 304.947 491.612 304.055 492.701C303.645 493.201 303.206 493.67 302.767 494.093C302.651 494.204 302.542 494.307 302.44 494.399L302.259 494.562C302.223 494.593 302.195 494.617 302.177 494.632C302.064 494.726 301.887 494.722 301.779 494.624C301.672 494.526 301.676 494.37 301.789 494.276L301.941 494.143C302.064 494.033 302.202 493.906 302.351 493.762C302.776 493.352 303.202 492.898 303.598 492.414C304.449 491.375 305.047 490.346 305.282 489.384C305.582 488.152 306.082 487.147 306.667 486.53Z" fill="#D18888"/>
<path d="M306.656 484.55L306.667 484.556L306.64 484.55C306.528 484.533 306.36 484.585 306.118 484.796C305.678 485.18 305.211 485.954 304.746 487.203L304.69 487.355C304.282 488.484 303.708 489.521 303.01 490.465C302.497 491.16 301.946 491.764 301.395 492.275C301.241 492.419 301.094 492.547 300.959 492.659L300.77 492.812C300.717 492.854 300.676 492.884 300.649 492.903C300.529 492.989 300.352 492.973 300.254 492.868C300.156 492.763 300.174 492.608 300.294 492.522L300.365 492.469C300.396 492.445 300.434 492.415 300.479 492.378C300.632 492.255 300.803 492.108 300.987 491.937C301.515 491.447 302.045 490.866 302.539 490.198C303.21 489.29 303.762 488.291 304.154 487.206C305.066 484.687 306.011 483.861 306.834 484.086C306.88 484.098 306.916 484.113 306.942 484.127C307.075 484.196 307.12 484.347 307.04 484.464C306.961 484.581 306.789 484.619 306.656 484.55Z" fill="#D18888"/>
<path d="M196.097 482.161C196.209 482.063 196.389 482.063 196.501 482.161C196.591 482.24 196.718 482.376 196.844 482.56C197.356 483.308 197.356 484.134 196.501 484.883C196.389 484.981 196.209 484.981 196.097 484.883C195.986 484.786 195.986 484.627 196.097 484.53C196.744 483.963 196.744 483.386 196.355 482.817C196.255 482.672 196.157 482.567 196.097 482.514C195.986 482.417 195.986 482.258 196.097 482.161Z" fill="#D18888"/>
<path fill-rule="evenodd" clip-rule="evenodd" d="M346.54 611.299C360.335 603.847 368.556 623.39 361.619 634.271C353.153 647.549 348.816 662.827 346.401 667.43C344.364 671.313 338.783 680.78 332.063 676.417C325.879 672.401 329.25 656.64 329.25 656.64C329.25 656.64 329.523 620.491 346.54 611.299Z" fill="#5B8C00"/>
<path fill-rule="evenodd" clip-rule="evenodd" d="M305.049 673.382C300.359 666.157 298.647 655.787 303.882 653.128C308.9 650.579 317.213 656.856 321.064 668.936C324.914 681.016 327.136 689.702 323.369 691.212C317.19 693.689 311.243 682.926 305.049 673.382Z" fill="#5B8C00"/>
<path fill-rule="evenodd" clip-rule="evenodd" d="M354.352 673.931C349.047 681.029 341.393 695.309 336.598 690.308C333.692 687.277 337.577 672.923 348.212 665.113C357.258 658.47 359.656 666.832 354.352 673.931Z" fill="#7CB305"/>
<path fill-rule="evenodd" clip-rule="evenodd" d="M303.595 624.669C305.612 623.12 308.15 622.766 310.465 623.613C313.696 624.795 318.6 628.314 323.453 638.415C329.789 651.603 333.087 666.061 332.435 675.219C332.009 681.208 325.548 683.79 321.934 679.423C320.274 677.418 318.518 674.326 316.799 669.636C309.884 650.763 303.418 638.936 302.647 637.749C300.589 634.58 299.118 628.109 303.595 624.669Z" fill="#7CB305"/>
<path fill-rule="evenodd" clip-rule="evenodd" d="M308.233 632.197C308.302 633.129 307.696 633.948 306.88 634.026C306.064 634.104 305.347 633.412 305.278 632.48C305.21 631.549 305.816 630.73 306.632 630.652C307.448 630.573 308.165 631.266 308.233 632.197Z" fill="white"/>
<path fill-rule="evenodd" clip-rule="evenodd" d="M320.827 639.426C320.895 640.358 320.289 641.177 319.473 641.255C318.657 641.333 317.94 640.641 317.872 639.709C317.803 638.778 318.409 637.959 319.225 637.881C320.041 637.803 320.758 638.495 320.827 639.426Z" fill="white"/>
<path fill-rule="evenodd" clip-rule="evenodd" d="M318.716 658.674C318.794 659.741 318.1 660.679 317.166 660.768C316.231 660.858 315.41 660.065 315.332 658.998C315.254 657.931 315.948 656.994 316.882 656.904C317.816 656.814 318.637 657.607 318.716 658.674Z" fill="white"/>
<path fill-rule="evenodd" clip-rule="evenodd" d="M357.396 629.909C357.396 631.424 356.321 632.651 354.995 632.651C353.669 632.651 352.594 631.424 352.594 629.909C352.594 628.395 353.669 627.167 354.995 627.167C356.321 627.167 357.396 628.395 357.396 629.909Z" fill="white"/>
<path fill-rule="evenodd" clip-rule="evenodd" d="M338.066 638.283C338.066 639.797 336.991 641.025 335.665 641.025C334.339 641.025 333.264 639.797 333.264 638.283C333.264 636.769 334.339 635.541 335.665 635.541C336.991 635.541 338.066 636.769 338.066 638.283Z" fill="white"/>
<path fill-rule="evenodd" clip-rule="evenodd" d="M344.326 656.897C344.326 657.53 343.877 658.043 343.323 658.043C342.769 658.043 342.319 657.53 342.319 656.897C342.319 656.264 342.769 655.751 343.323 655.751C343.877 655.751 344.326 656.264 344.326 656.897Z" fill="white"/>
<path fill-rule="evenodd" clip-rule="evenodd" d="M351.557 671.555C351.557 672.49 350.893 673.248 350.074 673.248C349.255 673.248 348.592 672.49 348.592 671.555C348.592 670.62 349.255 669.862 350.074 669.862C350.893 669.862 351.557 670.62 351.557 671.555Z" fill="white"/>
<path d="M316.927 675.311C317.065 675.16 317.284 675.166 317.416 675.324L317.479 675.402L317.527 675.462C317.614 675.573 317.715 675.706 317.828 675.86C318.149 676.298 318.506 676.82 318.891 677.428C319.986 679.16 321.08 681.225 322.1 683.622C325.012 690.463 326.759 698.587 326.759 707.966C326.759 708.184 326.604 708.361 326.413 708.361C326.222 708.361 326.067 708.184 326.067 707.966C326.067 698.711 324.346 690.703 321.478 683.968C320.476 681.613 319.402 679.586 318.33 677.89C317.978 677.333 317.65 676.851 317.353 676.443L317.298 676.367C317.214 676.253 317.137 676.151 317.069 676.062L316.982 675.951C316.95 675.911 316.928 675.883 316.915 675.869C316.784 675.711 316.789 675.461 316.927 675.311Z" fill="black"/>
<path d="M343.046 678.074C343.16 677.899 343.377 677.863 343.53 677.994C343.683 678.124 343.714 678.372 343.6 678.546C342.341 680.472 341.179 682.543 340.11 684.738C337.851 689.378 336.104 694.353 334.808 699.328C334.354 701.07 333.99 702.686 333.705 704.136L333.648 704.434C333.58 704.788 333.521 705.112 333.472 705.402L333.439 705.591L333.382 705.949C333.35 706.164 333.172 706.309 332.984 706.273C332.795 706.237 332.669 706.033 332.7 705.818L332.72 705.691C332.736 705.589 332.756 705.468 332.779 705.329L332.837 705.001C332.892 704.687 332.957 704.341 333.031 703.964L333.094 703.647C333.371 702.263 333.72 700.737 334.145 699.103C335.455 694.076 337.22 689.049 339.506 684.354C340.589 682.129 341.768 680.029 343.046 678.074Z" fill="black"/>
<path d="M349.087 628.816C349.22 628.961 349.229 629.197 349.113 629.355L349.098 629.374C349.091 629.382 349.076 629.4 349.054 629.427L348.969 629.533L348.92 629.596C348.771 629.785 348.598 630.013 348.403 630.28C347.843 631.045 347.218 631.965 346.545 633.042C344.618 636.122 342.691 639.832 340.89 644.176C337.893 651.407 335.559 659.655 334.145 668.928C332.427 680.187 332.142 692.487 333.548 705.837C333.571 706.053 333.436 706.25 333.246 706.276C333.057 706.302 332.885 706.148 332.862 705.931C331.448 692.505 331.734 680.128 333.463 668.792C334.889 659.448 337.242 651.133 340.266 643.838C342.084 639.451 344.032 635.7 345.982 632.583L346.133 632.343C346.735 631.392 347.297 630.565 347.808 629.861L347.872 629.774C348.056 629.523 348.221 629.304 348.366 629.119L348.405 629.069C348.45 629.011 348.491 628.96 348.526 628.916L348.598 628.828C348.73 628.671 348.949 628.665 349.087 628.816Z" fill="black"/>
<path d="M319.163 652.229C319.326 652.116 319.538 652.176 319.637 652.362L319.672 652.429C319.7 652.482 319.732 652.546 319.769 652.62L319.824 652.728C319.916 652.914 320.021 653.128 320.135 653.369L320.23 653.57C320.582 654.318 320.967 655.183 321.379 656.163L321.435 656.297C322.777 659.508 324.118 663.263 325.37 667.529C328.875 679.476 331.006 693.036 331.086 707.964C331.087 708.182 330.934 708.36 330.743 708.361C330.552 708.362 330.396 708.187 330.395 707.969C330.316 693.128 328.196 679.651 324.714 667.78C323.495 663.622 322.19 659.955 320.884 656.811L320.811 656.637C320.365 655.569 319.949 654.637 319.574 653.845L319.462 653.608C319.353 653.382 319.256 653.184 319.17 653.013L319.129 652.933L319.046 652.771C318.947 652.585 318.999 652.342 319.163 652.229Z" fill="black"/>
<path fill-rule="evenodd" clip-rule="evenodd" d="M345.77 727.55H315.887C314.271 727.55 312.95 726.041 312.95 724.196V699.299C312.95 697.454 314.271 695.945 315.887 695.945H345.77C347.385 695.945 348.707 697.454 348.707 699.299V724.196C348.707 726.041 347.385 727.55 345.77 727.55Z" fill="black"/>
<path fill-rule="evenodd" clip-rule="evenodd" d="M289.158 526.152L223.285 526.749C220.78 526.771 218.969 524.449 219.686 522.135L233.575 477.368C234.042 475.862 235.472 474.824 237.102 474.81L302.976 474.213C305.48 474.19 307.292 476.513 306.574 478.827L292.685 523.593C292.218 525.099 290.787 526.136 289.158 526.152Z" fill="#A3B5D6"/>
<path fill-rule="evenodd" clip-rule="evenodd" d="M221.565 511.55C213.626 518.428 195.789 535.258 183.232 542.936C183.232 542.936 169.92 550.654 162.178 540.375C154.63 530.353 168.661 523.048 168.661 523.048C184.161 514.578 202.668 505.108 211.126 500.124C211.126 500.124 215.809 497.646 220.533 501.957C226.139 507.072 221.565 511.55 221.565 511.55Z" fill="#FFC2BD"/>
<path fill-rule="evenodd" clip-rule="evenodd" d="M167.607 500.558C165.129 497.226 157.711 488.613 147.609 494.762C140.782 498.918 139.287 506.627 141.608 511.797C145.149 519.689 153.409 530.544 160.939 539.317C160.939 539.317 169.097 549.538 180.303 542.624C189.785 536.772 183.812 527.855 183.812 527.855C183.812 527.855 170.44 504.366 167.607 500.558Z" fill="#FFC2BD"/>
<path fill-rule="evenodd" clip-rule="evenodd" d="M177.215 516.161C175.092 512.468 169.235 502.28 168.342 501.08C165.865 497.748 159.051 488.814 148.268 493.999C139.645 498.145 139.434 506.596 141.505 511.847C142.933 515.467 149.908 525.399 152.476 529.116L177.215 516.161Z" fill="#AA1215"/>
<path d="M166.851 499.304C166.962 499.241 167.11 499.268 167.182 499.365L167.277 499.498C168.472 501.22 175.13 512.094 177.259 515.798C177.309 515.885 177.283 515.989 177.201 516.051L177.168 516.072L152.429 529.027C152.315 529.087 152.168 529.054 152.1 528.955C152.04 528.866 152.063 528.755 152.148 528.69L152.183 528.667L176.731 515.812L176.235 514.962C173.699 510.648 168.079 501.483 166.91 499.776L166.781 499.594C166.709 499.497 166.74 499.367 166.851 499.304Z" fill="black"/>
<path fill-rule="evenodd" clip-rule="evenodd" d="M228.588 510.067C228.588 510.067 215.618 512.787 211.681 508.514C208.115 504.645 210.893 500.609 210.893 500.609C210.893 500.609 213.974 497.026 219.793 494.658C223.606 493.106 233.909 488.926 235.34 490.423C237.205 492.374 229.566 495.372 229.632 497.223C229.767 500.974 242.353 497.366 244.753 497.741C249.442 498.474 244.176 506.907 228.588 510.067Z" fill="#FFC2BD"/>
<path d="M244.93 499.459C245.083 499.389 245.271 499.441 245.351 499.575C245.43 499.709 245.371 499.874 245.218 499.944C244.427 500.305 243.588 500.625 242.708 500.906C240.624 501.572 238.396 501.995 236.156 502.224C235.347 502.307 234.585 502.359 233.885 502.386L233.498 502.399C233.297 502.405 233.122 502.407 232.974 502.408L232.773 502.407C232.601 502.404 232.464 502.279 232.467 502.128C232.47 501.99 232.59 501.878 232.743 501.862L232.801 501.86L232.974 501.861C233.201 501.86 233.499 501.854 233.857 501.84C234.542 501.814 235.29 501.763 236.084 501.681C238.279 501.456 240.46 501.042 242.494 500.393C243.349 500.12 244.163 499.809 244.93 499.459Z" fill="#D18888"/>
<path d="M244.058 502.268C244.207 502.192 244.397 502.237 244.484 502.367C244.57 502.498 244.519 502.665 244.37 502.741L244.282 502.784C244.232 502.808 244.167 502.838 244.089 502.873C243.862 502.976 243.593 503.09 243.283 503.212C242.4 503.561 241.364 503.91 240.18 504.234C237.738 504.904 234.996 505.386 231.979 505.598C231.807 505.61 231.657 505.498 231.643 505.347C231.629 505.197 231.758 505.065 231.929 505.053C234.899 504.844 237.595 504.371 239.993 503.713C241.153 503.395 242.166 503.054 243.026 502.714L243.312 502.599C243.449 502.542 243.575 502.489 243.69 502.438L243.802 502.387C243.931 502.329 244.017 502.288 244.058 502.268Z" fill="#D18888"/>
<path d="M239.306 505.913C239.469 505.864 239.647 505.94 239.703 506.082C239.76 506.225 239.673 506.38 239.511 506.43C236.925 507.215 234.629 507.728 232.648 508.022C231.952 508.125 231.345 508.194 230.83 508.234L230.624 508.249C230.559 508.253 230.498 508.256 230.441 508.259L230.191 508.269C230.019 508.271 229.877 508.15 229.875 507.999C229.873 507.848 230.011 507.724 230.183 507.722L230.327 507.718L230.488 507.709C230.546 507.706 230.608 507.702 230.673 507.697L230.774 507.689C231.274 507.65 231.864 507.584 232.544 507.483C234.491 507.195 236.754 506.689 239.306 505.913Z" fill="#D18888"/>
<g filter="url(#filter0_i_11390_1362)">
<path d="M115.767 399.046H149.655C162.353 399.046 172.646 409.612 172.646 422.646C172.646 435.679 162.353 446.245 149.655 446.245H115.767C103.07 446.245 92.7762 435.679 92.7762 422.646C92.7762 409.612 103.07 399.046 115.767 399.046Z" fill="black"/>
<path fill-rule="evenodd" clip-rule="evenodd" d="M161.57 439.38V451.735C161.57 452.278 161.141 452.718 160.612 452.718C160.364 452.718 160.125 452.619 159.947 452.442L151.102 443.683L161.57 439.38Z" fill="black"/>
<path class="dot" d="M148.099 425.595C146.048 425.595 144.386 423.89 144.386 421.785C144.386 419.681 146.048 417.975 148.099 417.975C150.149 417.975 151.811 419.681 151.811 421.785C151.811 423.89 150.149 425.595 148.099 425.595Z" fill="white"/>
<path class="dot" d="M132.891 425.595C130.841 425.595 129.179 423.89 129.179 421.785C129.179 419.681 130.841 417.975 132.891 417.975C134.941 417.975 136.603 419.681 136.603 421.785C136.603 423.89 134.941 425.595 132.891 425.595Z" fill="white"/>
<path class="dot" d="M117.324 425.595C115.274 425.595 113.612 423.89 113.612 421.785C113.612 419.681 115.274 417.975 117.324 417.975C119.374 417.975 121.036 419.681 121.036 421.785C121.036 423.89 119.374 425.595 117.324 425.595Z" fill="white"/>
</g>
<g filter="url(#filter1_i_11390_1362)">
<path d="M579.63 301.476H613.518C626.215 301.476 636.509 312.042 636.509 325.075C636.509 338.109 626.215 348.675 613.518 348.675H579.63C566.932 348.675 556.639 338.109 556.639 325.075C556.639 312.042 566.932 301.476 579.63 301.476Z" fill="black"/>
<path fill-rule="evenodd" clip-rule="evenodd" d="M625.432 341.81V354.164C625.432 354.707 625.003 355.148 624.474 355.148C624.226 355.148 623.988 355.049 623.809 354.872L614.964 346.112L625.432 341.81Z" fill="black"/>
<path class="dot" d="M611.961 328.025C609.911 328.025 608.249 326.319 608.249 324.215C608.249 322.11 609.911 320.405 611.961 320.405C614.011 320.405 615.673 322.11 615.673 324.215C615.673 326.319 614.011 328.025 611.961 328.025Z" fill="white"/>
<path class="dot" d="M596.753 328.025C594.703 328.025 593.041 326.319 593.041 324.215C593.041 322.11 594.703 320.405 596.753 320.405C598.803 320.405 600.465 322.11 600.465 324.215C600.465 326.319 598.803 328.025 596.753 328.025Z" fill="white"/>
<path class="dot" d="M581.186 328.025C579.136 328.025 577.474 326.319 577.474 324.215C577.474 322.11 579.136 320.405 581.186 320.405C583.236 320.405 584.898 322.11 584.898 324.215C584.898 326.319 583.236 328.025 581.186 328.025Z" fill="white"/>
</g>
<g filter="url(#filter2_i_11390_1362)">
<path d="M440.634 54.5109H406.746C394.048 54.5109 383.755 65.0767 383.755 78.1103C383.755 91.1438 394.048 101.71 406.746 101.71H440.634C453.331 101.71 463.625 91.1438 463.625 78.1103C463.625 65.0767 453.331 54.5109 440.634 54.5109Z" fill="black"/>
<path fill-rule="evenodd" clip-rule="evenodd" d="M394.831 94.845V107.199C394.831 107.743 395.26 108.183 395.789 108.183C396.037 108.183 396.276 108.084 396.454 107.907L405.299 99.1473L394.831 94.845Z" fill="black"/>
<path class="dot" d="M408.302 81.0602C410.353 81.0602 412.014 79.3543 412.014 77.2499C412.014 75.1455 410.353 73.4396 408.302 73.4396C406.252 73.4396 404.59 75.1455 404.59 77.2499C404.59 79.3543 406.252 81.0602 408.302 81.0602Z" fill="white"/>
<path class="dot" d="M423.51 81.0602C425.56 81.0602 427.222 79.3543 427.222 77.2499C427.222 75.1455 425.56 73.4396 423.51 73.4396C421.46 73.4396 419.798 75.1455 419.798 77.2499C419.798 79.3543 421.46 81.0602 423.51 81.0602Z" fill="white"/>
<path class="dot" d="M439.077 81.0602C441.127 81.0602 442.789 79.3543 442.789 77.2499C442.789 75.1455 441.127 73.4396 439.077 73.4396C437.027 73.4396 435.365 75.1455 435.365 77.2499C435.365 79.3543 437.027 81.0602 439.077 81.0602Z" fill="white"/>
</g>
<defs>
<filter id="filter0_i_11390_1362" x="75.1537" y="381.218" width="102.183" height="108.886" filterUnits="userSpaceOnUse" color-interpolation-filters="sRGB">
<feFlood flood-opacity="0" result="BackgroundImageFix"/>
<feBlend mode="normal" in="SourceGraphic" in2="BackgroundImageFix" result="shape"/>
<feColorMatrix in="SourceAlpha" type="matrix" values="0 0 0 0 0 0 0 0 0 0 0 0 0 0 0 0 0 0 127 0" result="hardAlpha"/>
<feOffset dy="-5"/>
<feGaussianBlur stdDeviation="2"/>
<feComposite in2="hardAlpha" operator="arithmetic" k2="-1" k3="1"/>
<feColorMatrix type="matrix" values="0 0 0 0 1 0 0 0 0 1 0 0 0 0 1 0 0 0 0.25 0"/>
<feBlend mode="normal" in2="shape" result="effect1_innerShadow_11390_1362"/>
</filter>
<filter id="filter1_i_11390_1362" x="539.016" y="283.648" width="102.183" height="108.886" filterUnits="userSpaceOnUse" color-interpolation-filters="sRGB">
<feFlood flood-opacity="0" result="BackgroundImageFix"/>
<feBlend mode="normal" in="SourceGraphic" in2="BackgroundImageFix" result="shape"/>
<feColorMatrix in="SourceAlpha" type="matrix" values="0 0 0 0 0 0 0 0 0 0 0 0 0 0 0 0 0 0 127 0" result="hardAlpha"/>
<feOffset dy="-5"/>
<feGaussianBlur stdDeviation="2"/>
<feComposite in2="hardAlpha" operator="arithmetic" k2="-1" k3="1"/>
<feColorMatrix type="matrix" values="0 0 0 0 1 0 0 0 0 1 0 0 0 0 1 0 0 0 0.25 0"/>
<feBlend mode="normal" in2="shape" result="effect1_innerShadow_11390_1362"/>
</filter>
<filter id="filter2_i_11390_1362" x="379.065" y="36.6831" width="102.183" height="108.886" filterUnits="userSpaceOnUse" color-interpolation-filters="sRGB">
<feFlood flood-opacity="0" result="BackgroundImageFix"/>
<feBlend mode="normal" in="SourceGraphic" in2="BackgroundImageFix" result="shape"/>
<feColorMatrix in="SourceAlpha" type="matrix" values="0 0 0 0 0 0 0 0 0 0 0 0 0 0 0 0 0 0 127 0" result="hardAlpha"/>
<feOffset dy="-5"/>
<feGaussianBlur stdDeviation="2"/>
<feComposite in2="hardAlpha" operator="arithmetic" k2="-1" k3="1"/>
<feColorMatrix type="matrix" values="0 0 0 0 1 0 0 0 0 1 0 0 0 0 1 0 0 0 0.25 0"/>
<feBlend mode="normal" in2="shape" result="effect1_innerShadow_11390_1362"/>
</filter>
<linearGradient id="paint0_linear_11390_1362" x1="444.434" y1="100.241" x2="444.434" y2="673.504" gradientUnits="userSpaceOnUse">
<stop stop-color="#FE4040"/>
<stop offset="1" stop-color="#FEC91E"/>
</linearGradient>
<linearGradient id="paint1_linear_11390_1362" x1="444.434" y1="100.241" x2="444.434" y2="673.504" gradientUnits="userSpaceOnUse">
<stop stop-color="#FE4040"/>
<stop offset="1" stop-color="#FEC91E"/>
</linearGradient>
<linearGradient id="paint2_linear_11390_1362" x1="435.031" y1="628.516" x2="435.031" y2="723.692" gradientUnits="userSpaceOnUse">
<stop stop-color="#FE4040"/>
<stop offset="1" stop-color="#FEC91E"/>
</linearGradient>
<linearGradient id="paint3_linear_11390_1362" x1="577.412" y1="176.342" x2="577.412" y2="271.669" gradientUnits="userSpaceOnUse">
<stop stop-color="#FE4040"/>
<stop offset="1" stop-color="#FEC91E"/>
</linearGradient>
<linearGradient id="paint4_linear_11390_1362" x1="677.902" y1="224.191" x2="677.902" y2="272.647" gradientUnits="userSpaceOnUse">
<stop stop-color="#FE4040"/>
<stop offset="1" stop-color="#FEC91E"/>
</linearGradient>
<linearGradient id="paint5_linear_11390_1362" x1="437.892" y1="542.299" x2="449.2" y2="604.954" gradientUnits="userSpaceOnUse">
<stop stop-color="#FE4040"/>
<stop offset="1" stop-color="#FEC91E"/>
</linearGradient>
<linearGradient id="paint6_linear_11390_1362" x1="621.524" y1="282.001" x2="621.524" y2="491.928" gradientUnits="userSpaceOnUse">
<stop stop-color="#FE935B"/>
<stop offset="1" stop-color="#FEC91E"/>
</linearGradient>
</defs>
</svg>
