<svg width="512" height="1021" viewBox="0 0 512 1021" fill="none" xmlns="http://www.w3.org/2000/svg">
<path fill-rule="evenodd" clip-rule="evenodd" d="M275.806 300.464C275.806 300.464 291.031 310.542 289.829 319.038C288.74 326.732 278.735 326.672 278.735 326.672C278.735 326.672 270.919 325.736 262.778 322.437C257.444 320.276 246.691 317.681 247.064 314.652C247.549 310.706 258.11 315.153 260.162 313.113C264.322 308.979 248.441 300.231 246.628 297.432C243.085 291.957 257.636 288.234 275.806 300.464Z" fill="#B78376"/>
<path d="M248.035 294.831C248.138 294.538 248.459 294.384 248.752 294.488C251.516 295.464 254.226 296.945 256.835 298.794C258.547 300.008 260.113 301.307 261.502 302.607C261.989 303.063 262.419 303.486 262.789 303.867L263.202 304.302C263.219 304.321 263.235 304.338 263.249 304.353C263.456 304.585 263.437 304.94 263.206 305.148C262.975 305.355 262.619 305.336 262.411 305.105L262.083 304.755L261.982 304.65C261.625 304.282 261.207 303.872 260.734 303.429C259.38 302.162 257.852 300.894 256.184 299.712C253.655 297.919 251.034 296.487 248.378 295.549C248.085 295.445 247.931 295.124 248.035 294.831Z" fill="#9B6160"/>
<path d="M252.033 292.728C252.124 292.431 252.438 292.263 252.735 292.354L252.955 292.426L253.065 292.464C253.324 292.555 253.625 292.668 253.966 292.805C254.933 293.194 256.023 293.697 257.214 294.326C260.608 296.117 264.138 298.554 267.625 301.736C267.855 301.945 267.871 302.301 267.662 302.53C267.452 302.76 267.097 302.776 266.867 302.567C263.453 299.452 260.001 297.068 256.689 295.321C255.532 294.711 254.477 294.224 253.545 293.848C253.383 293.783 253.231 293.724 253.089 293.67L252.514 293.464C252.466 293.448 252.431 293.437 252.408 293.43C252.111 293.34 251.943 293.025 252.033 292.728Z" fill="#9B6160"/>
<path d="M260.752 293.527C260.897 293.252 261.237 293.147 261.512 293.292C264.831 295.045 267.569 296.8 269.761 298.474C270.421 298.978 270.992 299.445 271.475 299.867L271.709 300.074C272.031 300.363 272.244 300.569 272.353 300.683C272.568 300.907 272.561 301.263 272.337 301.478C272.112 301.693 271.756 301.686 271.541 301.462L271.439 301.359C271.333 301.255 271.173 301.104 270.958 300.912C270.45 300.456 269.825 299.938 269.078 299.368C266.935 297.732 264.25 296.011 260.986 294.287C260.712 294.142 260.607 293.802 260.752 293.527Z" fill="#9B6160"/>
<path fill-rule="evenodd" clip-rule="evenodd" d="M329.098 388.195C329.098 388.195 345.486 402.193 357.63 388.88C370.155 375.152 355.057 360.997 355.057 360.997C355.057 360.997 344.187 351.298 330.843 339.286C322.695 331.952 313.537 324.035 306.064 319.24C297.972 314.047 293.718 317.314 287.646 323.971C280.435 331.874 278.257 335.876 284.344 343.255C290.146 350.29 299.128 358.676 305.793 365.489C318.501 378.481 329.098 388.195 329.098 388.195Z" fill="#ADC6FF"/>
<path fill-rule="evenodd" clip-rule="evenodd" d="M289.304 311.708L275.263 327.099L284.651 337.697L300.715 320.087L289.304 311.708Z" fill="#ADC6FF"/>
<path fill-rule="evenodd" clip-rule="evenodd" d="M258.343 365.254L255.295 343.031L225.693 345.682L226.968 368.203C227.418 376.922 234.969 383.555 243.673 382.877C243.84 382.864 244.005 382.85 244.173 382.838C253.074 382.148 259.558 374.101 258.343 365.254Z" fill="#C99382"/>
<path fill-rule="evenodd" clip-rule="evenodd" d="M265.5 319.615C265.5 319.615 272.294 310.337 277.406 318.086C282.264 325.447 274.616 336.764 267.149 335.291C263.324 328.331 265.5 319.615 265.5 319.615Z" fill="#C99382"/>
<path fill-rule="evenodd" clip-rule="evenodd" d="M212.809 324.3C212.809 324.3 204.484 316.367 200.819 324.896C197.338 332.999 206.861 342.789 213.952 340.02C216.488 332.496 212.809 324.3 212.809 324.3Z" fill="#C99382"/>
<path fill-rule="evenodd" clip-rule="evenodd" d="M268.764 321.164C271.14 347.895 258.491 356.142 242.111 357.599C225.732 359.055 212.972 353.351 209.448 326.438C206.207 301.68 219.776 292.064 236.154 290.607C252.534 289.151 266.676 297.695 268.764 321.164Z" fill="#C99382"/>
<path fill-rule="evenodd" clip-rule="evenodd" d="M242.078 326.642C242.304 332.057 246.878 336.264 252.294 336.038C257.709 335.811 261.917 331.236 261.689 325.821C261.462 320.406 256.889 316.2 251.474 316.425C246.057 316.653 241.851 321.227 242.078 326.642Z" fill="white"/>
<path d="M251.445 315.734C245.647 315.978 241.144 320.874 241.387 326.671C241.629 332.468 246.525 336.971 252.323 336.729C258.12 336.486 262.624 331.589 262.38 325.792C262.141 320.091 257.401 315.641 251.729 315.726L251.445 315.734ZM251.503 317.116C256.536 316.907 260.787 320.817 260.998 325.85C261.21 330.883 257.299 335.136 252.265 335.347C247.231 335.557 242.979 331.647 242.769 326.613C242.558 321.579 246.468 317.328 251.503 317.116Z" fill="#7D4556"/>
<path d="M251.745 322.38C253.405 322.31 254.593 323.071 255.322 324.338C255.725 325.039 255.912 325.729 255.97 326.217C256.016 326.597 255.745 326.941 255.365 326.986C255.018 327.027 254.7 326.803 254.614 326.473L254.578 326.263C254.564 326.188 254.542 326.09 254.51 325.975C254.422 325.65 254.295 325.326 254.124 325.028C253.636 324.181 252.909 323.716 251.803 323.762C250.758 323.806 250.142 324.316 249.791 325.203C249.597 325.694 249.517 326.211 249.507 326.624L249.507 326.794C249.523 327.182 249.226 327.505 248.845 327.521C248.495 327.536 248.195 327.288 248.135 326.953L248.124 326.824C248.111 326.222 248.203 325.458 248.505 324.695C249.044 323.331 250.11 322.449 251.745 322.38Z" fill="#7D4556"/>
<path d="M219.034 315.348C221.921 313.325 226.341 313.032 232.526 315.467C232.882 315.607 233.057 316.008 232.917 316.364C232.777 316.719 232.375 316.894 232.02 316.754C226.244 314.48 222.311 314.741 219.827 316.481C219.419 316.767 219.09 317.071 218.835 317.372L218.689 317.553C218.669 317.579 218.652 317.602 218.637 317.624L218.574 317.721C218.387 318.054 217.965 318.172 217.632 317.986C217.299 317.799 217.181 317.377 217.368 317.044C217.621 316.592 218.156 315.963 219.034 315.348Z" fill="#7D4556"/>
<path d="M252.873 311.795C254.69 311.671 256.323 311.934 257.716 312.654C258.055 312.83 258.188 313.247 258.012 313.586C257.837 313.926 257.42 314.058 257.08 313.883C255.934 313.29 254.549 313.067 252.967 313.174C251.247 313.291 249.384 313.789 247.501 314.546C246.888 314.793 246.307 315.054 245.768 315.317L245.372 315.515C244.987 315.712 244.714 315.864 244.573 315.947C244.244 316.142 243.82 316.033 243.625 315.704C243.431 315.375 243.54 314.951 243.869 314.757L244.105 314.623L244.512 314.403C244.586 314.365 244.663 314.325 244.743 314.284C245.424 313.936 246.178 313.588 246.985 313.263C248.991 312.456 250.988 311.923 252.873 311.795Z" fill="#7D4556"/>
<path d="M234.493 318.519C234.756 318.355 235.103 318.434 235.268 318.698L235.41 318.936C235.487 319.068 235.58 319.235 235.686 319.434C235.993 320.01 236.3 320.653 236.587 321.347C237.36 323.221 237.845 325.121 237.9 326.95C237.938 328.21 237.807 329.336 237.497 330.896L237.175 332.484C236.873 334.041 236.87 334.464 237.081 334.987C237.389 335.748 238.42 336.168 240.694 336.213C241.005 336.219 241.252 336.476 241.245 336.787C241.239 337.097 240.982 337.344 240.672 337.338C237.996 337.285 236.56 336.7 236.038 335.408L235.965 335.217C235.709 334.501 235.737 333.948 236.097 332.135L236.315 331.066C236.666 329.373 236.813 328.241 236.776 326.984C236.726 325.308 236.273 323.534 235.547 321.776C235.275 321.118 234.984 320.508 234.694 319.964L234.556 319.71C234.449 319.518 234.367 319.378 234.314 319.295C234.149 319.031 234.229 318.684 234.493 318.519Z" fill="#9B6160"/>
<path d="M246.996 338.163C247.304 338.053 247.642 338.214 247.751 338.521C247.861 338.829 247.701 339.167 247.393 339.276C242.792 340.916 237.951 341.228 233.635 340.786L233.122 340.729L232.422 340.631C232.379 340.624 232.344 340.618 232.318 340.614C231.997 340.556 231.783 340.249 231.841 339.928C231.899 339.606 232.206 339.393 232.527 339.45L232.732 339.483L232.839 339.499C233.103 339.537 233.409 339.575 233.756 339.61C237.912 340.036 242.586 339.734 246.996 338.163Z" fill="#7D4556"/>
<path fill-rule="evenodd" clip-rule="evenodd" d="M217.057 328.729C217.601 334.122 222.415 338.052 227.807 337.507C233.2 336.963 237.13 332.149 236.585 326.757C236.041 321.363 231.227 317.433 225.835 317.979C220.442 318.523 216.512 323.337 217.057 328.729Z" fill="white"/>
<path d="M225.765 317.291C219.993 317.873 215.786 323.026 216.369 328.798C216.951 334.571 222.104 338.778 227.877 338.195C233.649 337.612 237.856 332.46 237.273 326.687C236.69 320.913 231.538 316.706 225.765 317.291ZM235.897 326.826C236.403 331.839 232.75 336.313 227.738 336.819C222.725 337.325 218.251 333.672 217.745 328.66C217.238 323.647 220.892 319.173 225.904 318.667C230.917 318.159 235.391 321.812 235.897 326.826Z" fill="#7D4556"/>
<path d="M226.455 323.905C228.145 323.734 229.39 324.456 230.19 325.722C230.605 326.379 230.819 327.028 230.902 327.488C230.969 327.864 230.719 328.223 230.343 328.29C230.001 328.352 229.673 328.151 229.566 327.831L229.495 327.545C229.48 327.489 229.46 327.424 229.436 327.352C229.335 327.046 229.198 326.741 229.02 326.46C228.483 325.61 227.72 325.167 226.594 325.281C225.579 325.384 224.998 325.906 224.693 326.775C224.53 327.24 224.468 327.738 224.471 328.176L224.481 328.451C224.52 328.831 224.243 329.17 223.863 329.208C223.483 329.247 223.144 328.97 223.105 328.59L223.096 328.466C223.06 327.816 223.128 327.059 223.388 326.317C223.861 324.971 224.868 324.065 226.455 323.905Z" fill="#7D4556"/>
<path fill-rule="evenodd" clip-rule="evenodd" d="M236.819 324.106C236.819 324.106 239.356 322.473 241.949 323.65Z" fill="white"/>
<path d="M236.819 324.106C236.819 324.106 239.356 322.473 241.949 323.65" stroke="#7D4556" stroke-width="1.383"/>
<path d="M256.42 353.253C256.696 353.11 257.036 353.219 257.178 353.495C257.321 353.771 257.212 354.11 256.936 354.252C247.485 359.131 237.395 359.423 228.271 357.165C227.969 357.09 227.786 356.785 227.86 356.484C227.935 356.182 228.24 355.998 228.541 356.073C237.424 358.272 247.249 357.987 256.42 353.253Z" fill="#9B6160"/>
<path d="M242.817 344.077C243.126 344.049 243.399 344.278 243.427 344.587C243.452 344.866 243.269 345.115 243.007 345.182L242.916 345.197L238.499 345.59C238.19 345.618 237.916 345.389 237.889 345.08C237.864 344.801 238.047 344.552 238.309 344.485L238.399 344.47L242.817 344.077Z" fill="#9B6160"/>
<path d="M239.774 350.414C240.054 350.406 240.292 350.603 240.343 350.869L240.353 350.96L240.535 357.081C240.544 357.392 240.3 357.651 239.989 357.66C239.71 357.668 239.472 357.471 239.42 357.205L239.41 357.114L239.229 350.993C239.219 350.682 239.464 350.423 239.774 350.414Z" fill="#9B6160"/>
<path d="M242.281 352.034C242.557 351.988 242.819 352.151 242.906 352.408L242.928 352.497L243.701 357.121C243.752 357.427 243.545 357.717 243.239 357.769C242.963 357.815 242.7 357.652 242.613 357.395L242.591 357.306L241.819 352.682C241.767 352.375 241.974 352.086 242.281 352.034Z" fill="#9B6160"/>
<path d="M237.836 353.855C238.115 353.872 238.334 354.091 238.36 354.36L238.362 354.452L238.185 357.224C238.165 357.534 237.897 357.769 237.587 357.749C237.308 357.732 237.09 357.513 237.063 357.244L237.062 357.152L237.239 354.38C237.259 354.07 237.526 353.835 237.836 353.855Z" fill="#9B6160"/>
<path d="M244.566 353.037C244.834 352.957 245.115 353.086 245.233 353.329L245.266 353.415L246.205 356.556C246.294 356.853 246.125 357.167 245.828 357.256C245.56 357.336 245.279 357.207 245.161 356.963L245.128 356.878L244.189 353.737C244.1 353.439 244.269 353.126 244.566 353.037Z" fill="#9B6160"/>
<path d="M202.431 327.094C203.541 325.56 205.164 325.452 206.896 327.681C207.66 329.075 207.686 330.036 207.249 331.445L207.017 332.157C207.003 332.203 206.991 332.243 206.977 332.294C206.76 333.069 206.844 333.589 207.438 334.329C207.585 334.512 207.744 334.663 207.915 334.786C208.317 335.075 208.728 335.187 209.05 335.197L209.258 335.196C209.528 335.216 209.752 335.429 209.777 335.707C209.802 335.986 209.619 336.235 209.357 336.302L209.242 336.319L209.22 336.32C208.651 336.347 207.944 336.193 207.257 335.699C207.005 335.517 206.771 335.296 206.561 335.034C205.78 334.061 205.604 333.213 205.841 332.197L205.956 331.781C205.985 331.688 206.025 331.568 206.1 331.342C206.53 330.059 206.542 329.377 205.959 328.297C204.755 326.757 204.029 326.805 203.342 327.754C203.138 328.036 202.998 328.324 202.933 328.5C202.826 328.792 202.503 328.942 202.212 328.835C201.92 328.728 201.77 328.405 201.877 328.113C201.974 327.848 202.156 327.474 202.431 327.094Z" fill="#9B6160"/>
<path d="M273.343 319.834C274.059 319.789 274.698 320.134 275.262 320.71C275.56 321.015 275.776 321.317 275.902 321.531C276.058 321.8 275.968 322.144 275.7 322.301C275.431 322.457 275.087 322.367 274.93 322.099C274.848 321.958 274.682 321.726 274.458 321.497C274.1 321.132 273.738 320.936 273.412 320.956C272.996 320.982 272.53 321.352 272.035 322.217L271.938 322.392L271.881 322.574C271.578 323.597 271.689 324.247 272.181 325.202L272.529 325.851C273.132 327.007 273.194 327.917 272.511 329.17C272.274 329.604 271.974 329.958 271.625 330.236C271.059 330.688 270.489 330.874 270.076 330.91C269.767 330.938 269.494 330.709 269.466 330.4C269.439 330.091 269.667 329.817 269.976 329.79C270.188 329.771 270.554 329.652 270.923 329.357C271.157 329.171 271.359 328.932 271.523 328.632C271.977 327.799 271.976 327.29 271.615 326.537L271.404 326.133C271.376 326.082 271.344 326.023 271.304 325.95C270.544 324.555 270.357 323.568 270.921 321.908L270.935 321.881C271.636 320.566 272.442 319.889 273.343 319.834Z" fill="#9B6160"/>
<path fill-rule="evenodd" clip-rule="evenodd" d="M205.525 320.468C200.976 313.805 202.9 306.851 206.322 304.002C204.652 297.932 207.886 286.62 216.481 284.726C221.779 286.304 227.898 285.971 227.898 285.971C227.898 285.971 241.734 276.261 252.727 285.459C263.004 283.415 269.38 294.72 268.914 299.001C275.145 305.514 271.606 316.571 271.606 316.571C271.606 316.571 271.347 320.748 269.955 326.612C268.515 332.676 267 325.178 266.851 323.495C266.701 321.812 262.371 320.784 263.098 313.086C258.031 310.145 258.622 304.863 258.622 304.863C258.622 304.863 255.498 308.675 245.259 304.779C238.771 311.294 227.59 306.351 227.59 306.351C227.59 306.351 219.334 311.255 214.011 308.618C214.011 308.618 215.788 312.701 212.385 318.939C214.287 324.423 210.379 327.386 211.801 330.651C213.222 333.917 210.436 337.556 208.716 330.926C208.716 330.926 203.806 326.556 205.525 320.468Z" fill="#7D4556"/>
<path fill-rule="evenodd" clip-rule="evenodd" d="M285.617 659.469C287.617 620.264 289.285 579.714 289.876 547.428C289.876 547.428 286.348 523.878 264.839 527.027C243.76 530.112 242.753 556.544 242.753 556.544L247.867 660.837C247.867 660.837 248.888 677.814 267.749 676.799C284.953 675.875 285.617 659.469 285.617 659.469Z" fill="#FE4040"/>
<path fill-rule="evenodd" clip-rule="evenodd" d="M268.103 756.313C260.743 754.83 253.924 760.594 254.177 768.097C254.467 776.731 254.801 788.397 254.99 800.962C255.185 813.895 255.373 824.611 256.297 825.973C260.368 831.975 268.514 834.214 276.881 840.163C283.502 844.872 284.642 847.107 293.086 848.697C305.054 850.95 299.479 845.868 286.204 829.795C274.379 815.476 275.182 808.767 275.182 808.767L277.423 768.363C277.742 762.589 273.772 757.455 268.103 756.313Z" fill="#C99382"/>
<path fill-rule="evenodd" clip-rule="evenodd" d="M285.006 825.995C293.645 835.615 303.548 843.221 303.302 847.786C303.057 852.349 299.454 856.468 284.571 851.17C274.386 847.544 277.304 845.362 267.585 839.024C262.731 835.859 260.961 836.198 256.487 832.517C253.923 829.214 255.095 813.185 255.095 813.185L272.118 831.877C272.118 831.877 267.696 823.174 271.34 821.293C274.982 819.41 278.336 818.131 280.481 819.679C282.627 821.225 285.006 825.995 285.006 825.995Z" fill="#7D4556"/>
<path fill-rule="evenodd" clip-rule="evenodd" d="M285.498 662.929C281.643 730.783 278.699 798.709 278.699 798.709L252.819 799.099L247.269 663.46C247.269 663.46 249.042 643.096 267.927 643.403C284.967 643.681 285.498 662.929 285.498 662.929Z" fill="#FE4040"/>
<path fill-rule="evenodd" clip-rule="evenodd" d="M202.509 659.194C200.603 619.983 198.504 581.827 197.991 549.538C197.991 549.538 202.104 523.602 223.605 526.801C244.679 529.938 245.621 556.372 245.621 556.372L240.257 660.652C240.257 660.652 239.195 677.628 220.337 676.567C203.136 675.6 202.509 659.194 202.509 659.194Z" fill="#FE4040"/>
<path fill-rule="evenodd" clip-rule="evenodd" d="M219.79 756.08C227.154 754.615 233.959 760.394 233.689 767.899C233.377 776.531 233.014 788.195 232.795 800.759C232.57 813.692 232.356 824.41 231.429 825.769C227.343 831.76 219.192 833.98 210.811 839.909C204.178 844.601 203.031 846.833 194.584 848.402C182.611 850.627 188.199 845.558 201.511 829.517C213.373 815.228 212.584 808.517 212.584 808.517L210.444 768.107C210.135 762.332 214.119 757.208 219.79 756.08Z" fill="#C99382"/>
<path fill-rule="evenodd" clip-rule="evenodd" d="M202.719 825.721C194.059 835.32 184.135 842.902 184.371 847.467C184.605 852.033 188.197 856.159 203.094 850.897C213.288 847.296 210.375 845.106 220.108 838.792C224.97 835.639 226.74 835.981 231.223 832.311C233.794 829.014 232.663 812.983 232.663 812.983L215.592 831.633C215.592 831.633 220.036 822.942 216.397 821.052C212.758 819.16 209.409 817.873 207.258 819.415C205.11 820.957 202.719 825.721 202.719 825.721Z" fill="#7D4556"/>
<path fill-rule="evenodd" clip-rule="evenodd" d="M202.619 662.654C206.312 730.517 209.087 798.454 209.087 798.454L234.97 798.902L240.848 663.277C240.848 663.277 239.123 642.908 220.238 643.171C203.197 643.406 202.619 662.654 202.619 662.654Z" fill="#FE4040"/>
<path fill-rule="evenodd" clip-rule="evenodd" d="M263.587 375.295L261.691 368.326L224.817 369.333L223.335 376.012C223.335 376.012 193.575 379.786 189.153 390.847C184.59 402.259 200.325 466.951 205.393 478.215C200.887 487.225 204.153 495.847 204.153 495.847H279.153C279.153 495.847 288.172 493.419 282.541 483.846C285.543 463.42 297.09 393.946 294.367 383.047C291.367 371.047 263.587 375.295 263.587 375.295Z" fill="#ADC6FF"/>
<path d="M193.195 399.5C193.505 399.526 193.735 399.798 193.709 400.107C193.272 405.366 193.628 413.142 194.617 422.756C195.041 426.88 195.571 431.236 196.183 435.728C196.7 439.523 197.25 443.231 197.803 446.734L198.282 449.71L198.841 453.025C198.895 453.331 198.691 453.623 198.385 453.677C198.079 453.731 197.788 453.527 197.734 453.221L197.343 450.925C197.232 450.26 197.115 449.548 196.993 448.792L196.9 448.216C196.276 444.327 195.651 440.159 195.068 435.88C194.455 431.377 193.923 427.008 193.498 422.871L193.35 421.397C192.468 412.396 192.166 405.085 192.588 400.014C192.614 399.704 192.886 399.474 193.195 399.5Z" fill="#9B6160"/>
<path d="M260.633 376.03C260.932 375.947 261.243 376.122 261.326 376.421C261.409 376.721 261.234 377.031 260.935 377.114C257.587 378.046 253.728 378.659 249.456 378.99C243.079 379.483 236.264 379.329 229.702 378.774L228.604 378.676C227.892 378.61 227.222 378.543 226.596 378.475L225.615 378.363L224.819 378.264C224.511 378.222 224.296 377.938 224.338 377.63C224.38 377.322 224.663 377.107 224.971 377.149L225.748 377.246L226.262 377.306C227.306 377.424 228.492 377.542 229.797 377.653C236.303 378.203 243.062 378.356 249.369 377.868C253.574 377.543 257.363 376.941 260.633 376.03Z" fill="#4E5C93"/>
<path fill-rule="evenodd" clip-rule="evenodd" d="M290.198 550.011C287.804 524.67 284.084 511.354 281.241 506.593C220.167 508.339 204.953 507.537 204.953 507.537C204.953 507.537 198.225 520.825 197.474 550.573C197.474 550.573 220.32 578.356 244.586 578.356C266.462 578.356 290.198 550.011 290.198 550.011Z" fill="#FE4040"/>
<path fill-rule="evenodd" clip-rule="evenodd" d="M281.242 508.093L280.087 496.6L205.301 495.997L204.953 507.508C204.953 507.508 244.532 510.532 281.242 508.093Z" fill="#FE4040"/>
<path d="M242.101 506.646C242.419 506.642 242.679 506.896 242.684 507.213L242.917 524.026C242.979 528.344 243.043 532.64 243.107 536.855L243.375 553.616L243.645 568.571C243.713 572.024 243.777 575.043 243.838 577.592C243.846 577.909 243.595 578.173 243.277 578.181C242.96 578.188 242.696 577.937 242.688 577.619L242.535 570.614L242.276 556.685L242.118 547.204C242.032 541.823 241.945 536.205 241.861 530.496L241.533 507.229C241.529 506.911 241.783 506.65 242.101 506.646Z" fill="black"/>
<path d="M252.771 507.203C253.088 507.197 253.351 507.449 253.358 507.766L253.477 514.261L253.549 518.806C253.606 522.646 253.653 526.424 253.686 530.047L253.72 534.62C253.762 541.568 253.74 547.3 253.638 551.469C253.192 555.591 250.945 558.049 247.53 559.121C245.686 559.7 243.752 559.81 242.022 559.653L241.753 559.626C241.636 559.613 241.545 559.601 241.483 559.591C241.169 559.541 240.955 559.247 241.005 558.933C241.055 558.619 241.349 558.405 241.663 558.455L241.888 558.484C241.956 558.491 242.036 558.499 242.126 558.508C243.718 558.652 245.509 558.55 247.186 558.024C250.185 557.082 252.1 554.987 252.491 551.394L252.535 549.12C252.6 544.937 252.605 539.51 252.56 533.12L252.535 530.057C252.507 526.954 252.469 523.737 252.422 520.464L252.297 512.556L252.208 507.79C252.201 507.473 252.453 507.21 252.771 507.203Z" fill="black"/>
<path d="M274.559 508.795C274.876 508.79 275.138 509.043 275.143 509.361L275.156 509.764C275.162 509.898 275.169 510.056 275.18 510.237C275.219 510.942 275.283 511.729 275.376 512.577C275.643 514.998 276.093 517.417 276.766 519.67C278.309 524.831 280.774 528.303 284.308 529.374C284.612 529.466 284.783 529.787 284.691 530.091C284.599 530.395 284.278 530.567 283.974 530.475C279.986 529.266 277.306 525.493 275.664 519.999C274.968 517.673 274.507 515.188 274.233 512.703C274.137 511.834 274.072 511.027 274.031 510.301L273.993 509.379C273.988 509.061 274.241 508.8 274.559 508.795Z" fill="black"/>
<path d="M211.641 510.125C211.927 510.123 212.166 510.33 212.213 510.603L212.221 510.696L212.221 510.898C212.218 511.661 212.183 512.778 212.09 514.135C211.927 516.506 211.628 518.869 211.16 521.079C209.933 526.877 207.767 530.713 204.321 531.606C204.014 531.686 203.7 531.501 203.62 531.194C203.54 530.886 203.725 530.572 204.033 530.492C206.914 529.745 208.891 526.247 210.035 520.841C210.49 518.688 210.782 516.378 210.942 514.056L210.983 513.412C211.038 512.476 211.063 511.685 211.069 511.088L211.07 510.704C211.068 510.387 211.324 510.127 211.641 510.125Z" fill="black"/>
<path d="M279.903 496.022C280.221 496.022 280.478 496.279 280.478 496.597C280.478 496.883 280.269 497.12 279.996 497.165L279.903 497.172H204.903C204.585 497.172 204.328 496.915 204.328 496.597C204.328 496.311 204.536 496.074 204.81 496.029L204.903 496.022H279.903Z" fill="black"/>
<path d="M281.403 506.522C281.721 506.522 281.978 506.779 281.978 507.097C281.978 507.383 281.769 507.62 281.496 507.665L281.403 507.672H204.903C204.585 507.672 204.328 507.415 204.328 507.097C204.328 506.811 204.536 506.574 204.81 506.529L204.903 506.522H281.403Z" fill="black"/>
<path fill-rule="evenodd" clip-rule="evenodd" d="M181.758 397.666C181.758 397.666 187.79 377.553 206.121 383.388C224.814 389.338 217.916 409.452 217.916 409.452C217.916 409.452 213.924 423.546 208.544 440.448C204.341 453.655 201.165 463.806 197.669 472.002C193.899 480.844 184.503 485.982 175.917 483.249C162.869 479.095 160.001 469.467 162.485 460.23C164.901 451.248 168.534 439.228 171.416 429.388C176.96 410.467 181.758 397.666 181.758 397.666Z" fill="#ADC6FF"/>
<path fill-rule="evenodd" clip-rule="evenodd" d="M231.623 633.737L157.428 630.369C155.462 630.281 153.941 628.614 154.029 626.648L156.393 574.577C156.482 572.61 158.148 571.088 160.115 571.176L234.308 574.544C236.276 574.634 237.797 576.299 237.708 578.267L235.344 630.338C235.256 632.304 233.589 633.827 231.623 633.737Z" fill="#4E5C93"/>
<path fill-rule="evenodd" clip-rule="evenodd" d="M229.096 633.623L154.903 630.255C152.937 630.165 151.414 628.499 151.503 626.532L153.867 574.461C153.955 572.496 155.623 570.974 157.588 571.062L231.783 574.43C233.751 574.52 235.272 576.185 235.183 578.153L232.818 630.224C232.729 632.19 231.064 633.711 229.096 633.623Z" fill="black"/>
<path fill-rule="evenodd" clip-rule="evenodd" d="M199.108 572.96C194.51 572.624 190.873 572.96 188.914 572.871C183.859 572.645 185.255 589.605 184.241 592.278C182.698 596.346 173.137 594.023 169.457 578.741C168.41 574.397 168.706 567.923 168.7 561.768C168.7 561.768 169.966 546.986 175.879 546.141C181.007 545.408 185.333 550.886 185.333 550.886C185.333 550.886 190.777 558.498 193.564 565.421L199.108 572.96Z" fill="#C99382"/>
<path d="M180.777 576.761C181.083 576.813 181.29 577.103 181.238 577.409L181.156 577.96L181.081 578.537C181.044 578.842 181.007 579.17 180.972 579.52C180.576 583.484 180.571 587.818 181.218 592.041C181.265 592.348 181.054 592.635 180.747 592.682C180.44 592.729 180.153 592.519 180.106 592.211C179.443 587.883 179.448 583.459 179.853 579.408L179.927 578.721C179.952 578.502 179.977 578.293 180.003 578.095L180.129 577.221C180.175 576.946 180.415 576.751 180.686 576.753L180.777 576.761Z" fill="#9B6160"/>
<path d="M175.964 575.134C176.267 575.199 176.461 575.498 176.396 575.802C175.406 580.438 175.617 584.682 176.566 588.322C176.707 588.863 176.856 589.352 177.006 589.787L177.118 590.103C177.229 590.403 177.314 590.606 177.359 590.703C177.491 590.985 177.369 591.319 177.087 591.45C176.805 591.582 176.471 591.46 176.34 591.178L176.225 590.912C176.194 590.836 176.16 590.748 176.122 590.649L176.063 590.492C175.863 589.949 175.663 589.318 175.477 588.605C174.486 584.805 174.267 580.386 175.296 575.566C175.354 575.293 175.602 575.109 175.873 575.122L175.964 575.134Z" fill="#9B6160"/>
<path d="M171.583 572.182C171.892 572.216 172.115 572.494 172.081 572.802L172.053 573.131C172.044 573.243 172.035 573.378 172.026 573.535C171.868 576.321 172 580.065 172.647 584.591C172.691 584.899 172.477 585.184 172.17 585.228C171.862 585.272 171.577 585.058 171.534 584.751C170.904 580.347 170.753 576.662 170.884 573.849L170.922 573.17C170.937 572.944 170.952 572.781 170.963 572.68C170.993 572.403 171.221 572.194 171.491 572.18L171.583 572.182Z" fill="#9B6160"/>
<path fill-rule="evenodd" clip-rule="evenodd" d="M198.069 474.27C198.069 474.27 197.355 452.732 179.337 452.739C160.754 452.748 160.481 473.442 160.481 473.442C160.481 473.442 160.649 488.009 160.778 505.962C160.854 516.924 161.184 529.026 162.683 537.777C164.304 547.254 169.586 548.193 178.596 548.189C189.294 548.184 193.718 547.092 195.062 537.623C196.346 528.593 196.482 516.308 197.019 506.792C198.042 488.648 198.069 474.27 198.069 474.27Z" fill="#ADC6FF"/>
<path fill-rule="evenodd" clip-rule="evenodd" d="M169.547 557.484L190.384 557.475L191.878 543.396L168.041 543.407L169.547 557.484Z" fill="#ADC6FF"/>
<path fill-rule="evenodd" clip-rule="evenodd" d="M271.87 381.202C271.87 381.202 252.548 388.756 261.055 408.38C269.729 428.39 288.925 419.896 288.925 419.896C288.925 419.896 302.497 414.857 318.688 408.169C331.339 402.944 341.072 398.989 348.793 394.784C357.127 390.245 360.926 379.783 356.942 370.592C350.888 356.623 340.807 353.987 331.894 357.146C323.225 360.218 311.684 364.763 302.221 368.386C284.026 375.35 271.87 381.202 271.87 381.202Z" fill="#ADC6FF"/>
<path d="M290.951 414.021L291.042 414.022C291.351 414.053 291.577 414.328 291.547 414.637L290.704 423.02L290.446 425.538C289.676 433.033 288.881 440.527 288.096 447.602L287.882 449.521C287.647 451.622 287.415 453.655 287.189 455.613L286.633 460.354C285.125 473.015 283.944 481.19 283.172 483.727L283.147 483.806L283.21 483.933C285.741 489.198 285.182 493.006 282.63 495.483L282.465 495.64C281.581 496.451 280.697 496.922 280.083 497.13C279.789 497.23 279.469 497.073 279.37 496.779C279.27 496.484 279.427 496.165 279.721 496.065L279.863 496.01C279.979 495.962 280.134 495.89 280.32 495.791C280.791 495.54 281.264 495.215 281.704 494.811C284.072 492.636 284.596 489.215 282.038 484.098C281.969 483.96 281.959 483.799 282.012 483.654L282.076 483.464C282.841 481.065 284.116 472.13 285.733 458.388L286.345 453.1C286.483 451.891 286.623 450.655 286.764 449.396L287.192 445.539C287.692 440.993 288.195 436.292 288.692 431.544L289.585 422.906L290.427 414.527C290.455 414.249 290.68 414.038 290.951 414.021Z" fill="#4E5C93"/>
<path d="M193.538 411.205C193.848 411.188 194.113 411.426 194.129 411.737L194.219 413.151L194.319 414.536C194.38 415.35 194.451 416.236 194.533 417.192L194.69 418.968C195.046 422.88 195.51 427.19 196.097 431.827C198.03 447.115 200.876 462.824 204.812 478.073C204.848 478.211 204.829 478.358 204.761 478.483C203.795 480.254 203.398 482.692 203.489 485.625C203.56 487.879 203.913 490.3 204.458 492.739C204.63 493.509 204.812 494.239 204.995 494.914L205.231 495.747C205.322 496.057 205.393 496.285 205.438 496.422C205.535 496.717 205.374 497.035 205.079 497.132C204.784 497.229 204.466 497.069 204.369 496.774L204.171 496.131C204.133 496.001 204.093 495.864 204.051 495.718C203.816 494.889 203.58 493.969 203.36 492.984C202.801 490.482 202.438 487.993 202.365 485.66C202.272 482.701 202.654 480.185 203.617 478.246L203.669 478.144L203.214 476.356C199.695 462.353 197.082 448.001 195.239 433.971L194.981 431.969L194.718 429.846C194.209 425.647 193.804 421.737 193.489 418.171L193.319 416.169C193.26 415.447 193.207 414.769 193.161 414.139L193.052 412.551L193.006 411.797C192.989 411.487 193.228 411.222 193.538 411.205Z" fill="#4E5C93"/>
</svg>
