<svg width="250" height="499" viewBox="0 0 250 499" fill="none" xmlns="http://www.w3.org/2000/svg">
<path fill-rule="evenodd" clip-rule="evenodd" d="M134.401 146.417C134.401 146.417 141.821 151.329 141.235 155.469C140.704 159.218 135.829 159.189 135.829 159.189C135.829 159.189 132.02 158.732 128.053 157.125C125.454 156.072 120.213 154.807 120.395 153.331C120.632 151.408 125.778 153.576 126.778 152.581C128.805 150.567 121.067 146.304 120.183 144.94C118.456 142.272 125.547 140.458 134.401 146.417Z" fill="#B78376"/>
<path d="M120.868 143.672C120.919 143.53 121.075 143.455 121.218 143.505C122.565 143.981 123.885 144.702 125.157 145.604C125.991 146.195 126.754 146.828 127.431 147.462C127.669 147.684 127.878 147.89 128.058 148.076L128.259 148.288C128.268 148.297 128.276 148.305 128.282 148.313C128.383 148.425 128.374 148.599 128.261 148.7C128.149 148.801 127.975 148.792 127.874 148.679L127.714 148.508L127.665 148.458C127.491 148.278 127.287 148.078 127.057 147.862C126.397 147.245 125.652 146.627 124.84 146.051C123.607 145.177 122.33 144.479 121.036 144.022C120.893 143.972 120.818 143.815 120.868 143.672Z" fill="#9B6160"/>
<path d="M122.817 142.648C122.861 142.503 123.014 142.421 123.159 142.465L123.266 142.5L123.32 142.519C123.446 142.563 123.593 142.618 123.759 142.685C124.23 142.875 124.761 143.12 125.341 143.426C126.996 144.299 128.716 145.487 130.415 147.037C130.527 147.139 130.535 147.313 130.433 147.425C130.331 147.536 130.157 147.544 130.046 147.442C128.382 145.924 126.7 144.763 125.086 143.911C124.522 143.614 124.008 143.377 123.554 143.194C123.475 143.162 123.401 143.133 123.331 143.107L123.051 143.006C123.028 142.999 123.011 142.993 123 142.99C122.855 142.946 122.773 142.793 122.817 142.648Z" fill="#9B6160"/>
<path d="M127.066 143.037C127.136 142.903 127.302 142.852 127.436 142.923C129.054 143.777 130.388 144.632 131.456 145.448C131.778 145.693 132.056 145.921 132.291 146.126L132.405 146.228C132.562 146.368 132.666 146.469 132.719 146.524C132.824 146.633 132.82 146.807 132.711 146.912C132.602 147.016 132.428 147.013 132.323 146.904L132.274 146.854C132.222 146.803 132.144 146.73 132.039 146.636C131.792 146.414 131.487 146.161 131.123 145.883C130.079 145.086 128.77 144.247 127.18 143.407C127.046 143.337 126.995 143.171 127.066 143.037Z" fill="#9B6160"/>
<path fill-rule="evenodd" clip-rule="evenodd" d="M160.371 189.169C160.371 189.169 168.357 195.99 174.275 189.503C180.378 182.813 173.021 175.915 173.021 175.915C173.021 175.915 167.724 171.189 161.221 165.335C157.251 161.762 152.788 157.904 149.146 155.567C145.203 153.036 143.13 154.628 140.171 157.872C136.657 161.724 135.596 163.674 138.562 167.27C141.39 170.698 145.766 174.785 149.014 178.105C155.207 184.435 160.371 189.169 160.371 189.169Z" fill="#ADC6FF"/>
<path fill-rule="evenodd" clip-rule="evenodd" d="M140.979 151.896L134.137 159.397L138.712 164.561L146.54 155.98L140.979 151.896Z" fill="#ADC6FF"/>
<path fill-rule="evenodd" clip-rule="evenodd" d="M125.892 177.99L124.407 167.161L109.981 168.452L110.602 179.427C110.822 183.676 114.501 186.908 118.743 186.578C118.824 186.571 118.905 186.565 118.986 186.559C123.324 186.223 126.484 182.301 125.892 177.99Z" fill="#C99382"/>
<path fill-rule="evenodd" clip-rule="evenodd" d="M129.38 155.75C129.38 155.75 132.69 151.229 135.181 155.005C137.549 158.592 133.822 164.107 130.183 163.389C128.319 159.997 129.38 155.75 129.38 155.75Z" fill="#C99382"/>
<path fill-rule="evenodd" clip-rule="evenodd" d="M103.703 158.033C103.703 158.033 99.6458 154.167 97.8601 158.323C96.1635 162.272 100.804 167.043 104.26 165.694C105.496 162.027 103.703 158.033 103.703 158.033Z" fill="#C99382"/>
<path fill-rule="evenodd" clip-rule="evenodd" d="M130.97 156.505C132.128 169.531 125.964 173.55 117.982 174.26C110 174.969 103.782 172.189 102.065 159.075C100.485 147.01 107.098 142.324 115.079 141.614C123.061 140.904 129.953 145.068 130.97 156.505Z" fill="#C99382"/>
<path fill-rule="evenodd" clip-rule="evenodd" d="M117.966 159.174C118.076 161.813 120.305 163.863 122.944 163.753C125.583 163.642 127.633 161.413 127.522 158.774C127.412 156.136 125.183 154.086 122.544 154.196C119.905 154.307 117.855 156.535 117.966 159.174Z" fill="white"/>
<path d="M122.53 153.859C119.705 153.978 117.511 156.363 117.629 159.188C117.747 162.013 120.133 164.207 122.958 164.089C125.783 163.971 127.978 161.585 127.859 158.76C127.743 155.982 125.433 153.813 122.669 153.855L122.53 153.859ZM122.558 154.532C125.011 154.43 127.083 156.336 127.185 158.788C127.289 161.241 125.383 163.313 122.93 163.416C120.477 163.519 118.405 161.613 118.302 159.16C118.2 156.707 120.105 154.635 122.558 154.532Z" fill="#232E36"/>
<path d="M122.676 157.097C123.485 157.063 124.064 157.434 124.42 158.052C124.616 158.393 124.707 158.729 124.736 158.967C124.758 159.152 124.626 159.32 124.441 159.342C124.271 159.362 124.116 159.253 124.075 159.092L124.057 158.99C124.05 158.953 124.039 158.905 124.024 158.849C123.981 158.691 123.919 158.533 123.836 158.388C123.598 157.975 123.244 157.748 122.705 157.771C122.196 157.792 121.895 158.041 121.724 158.473C121.63 158.712 121.591 158.964 121.586 159.165L121.586 159.248C121.594 159.438 121.449 159.595 121.263 159.602C121.093 159.61 120.947 159.489 120.917 159.326L120.912 159.263C120.905 158.969 120.951 158.597 121.098 158.225C121.36 157.561 121.88 157.131 122.676 157.097Z" fill="#232E36"/>
<path d="M106.736 153.67C108.143 152.685 110.297 152.542 113.311 153.729C113.484 153.797 113.57 153.992 113.501 154.166C113.433 154.339 113.238 154.424 113.064 154.356C110.25 153.248 108.333 153.375 107.123 154.222C106.924 154.362 106.764 154.51 106.639 154.657L106.568 154.745C106.558 154.758 106.55 154.769 106.543 154.779L106.512 154.827C106.421 154.989 106.216 155.047 106.053 154.956C105.891 154.865 105.833 154.659 105.924 154.497C106.048 154.277 106.309 153.97 106.736 153.67Z" fill="#232E36"/>
<path d="M123.226 151.939C124.112 151.879 124.908 152.007 125.586 152.358C125.751 152.444 125.816 152.647 125.731 152.812C125.645 152.977 125.442 153.042 125.277 152.957C124.718 152.668 124.043 152.559 123.272 152.611C122.434 152.668 121.526 152.911 120.609 153.28C120.31 153.4 120.026 153.527 119.764 153.656L119.571 153.752C119.384 153.848 119.25 153.922 119.181 153.963C119.021 154.057 118.815 154.004 118.72 153.844C118.625 153.684 118.678 153.477 118.838 153.383L118.953 153.317L119.152 153.21C119.188 153.191 119.225 153.172 119.264 153.152C119.596 152.982 119.964 152.813 120.357 152.655C121.335 152.261 122.308 152.001 123.226 151.939Z" fill="#232E36"/>
<path d="M114.269 155.216C114.398 155.136 114.567 155.174 114.647 155.303L114.717 155.419C114.754 155.483 114.799 155.565 114.851 155.662C115.001 155.942 115.15 156.255 115.29 156.594C115.667 157.507 115.903 158.433 115.93 159.324C115.948 159.938 115.884 160.487 115.734 161.247L115.577 162.021C115.429 162.78 115.428 162.986 115.531 163.24C115.681 163.611 116.183 163.816 117.291 163.838C117.443 163.841 117.563 163.966 117.56 164.118C117.557 164.269 117.432 164.389 117.281 164.386C115.977 164.36 115.277 164.075 115.022 163.446L114.987 163.353C114.862 163.004 114.876 162.734 115.051 161.851L115.157 161.33C115.328 160.505 115.4 159.953 115.382 159.341C115.357 158.524 115.137 157.66 114.783 156.803C114.651 156.482 114.509 156.185 114.367 155.92L114.3 155.796C114.248 155.703 114.208 155.634 114.182 155.594C114.102 155.465 114.141 155.296 114.269 155.216Z" fill="#9B6160"/>
<path d="M120.363 164.788C120.512 164.735 120.677 164.813 120.73 164.963C120.784 165.113 120.706 165.277 120.556 165.331C118.314 166.13 115.955 166.282 113.851 166.067L113.601 166.039L113.26 165.991C113.239 165.988 113.222 165.985 113.21 165.983C113.053 165.955 112.949 165.805 112.977 165.648C113.005 165.492 113.155 165.388 113.312 165.416L113.411 165.432L113.464 165.439C113.592 165.458 113.741 165.476 113.91 165.494C115.935 165.701 118.213 165.554 120.363 164.788Z" fill="#232E36"/>
<path fill-rule="evenodd" clip-rule="evenodd" d="M105.773 160.191C106.038 162.819 108.384 164.734 111.011 164.469C113.639 164.203 115.554 161.858 115.289 159.23C115.024 156.601 112.678 154.686 110.05 154.952C107.422 155.218 105.507 157.563 105.773 160.191Z" fill="white"/>
<path d="M110.016 154.617C107.204 154.901 105.153 157.412 105.437 160.225C105.721 163.038 108.232 165.088 111.045 164.804C113.858 164.52 115.908 162.009 115.624 159.196C115.34 156.383 112.829 154.332 110.016 154.617ZM114.954 159.264C115.2 161.707 113.42 163.887 110.978 164.134C108.535 164.38 106.355 162.6 106.108 160.157C105.861 157.715 107.642 155.534 110.084 155.288C112.527 155.04 114.707 156.821 114.954 159.264Z" fill="#232E36"/>
<path d="M110.353 157.84C111.176 157.757 111.783 158.109 112.173 158.726C112.375 159.046 112.479 159.362 112.519 159.586C112.552 159.769 112.43 159.945 112.247 159.977C112.081 160.007 111.921 159.909 111.868 159.754L111.834 159.614C111.826 159.587 111.817 159.555 111.805 159.52C111.756 159.371 111.689 159.222 111.603 159.086C111.341 158.671 110.969 158.456 110.42 158.511C109.926 158.561 109.643 158.815 109.494 159.239C109.414 159.466 109.384 159.708 109.386 159.922L109.391 160.056C109.41 160.241 109.275 160.406 109.089 160.425C108.904 160.443 108.739 160.308 108.72 160.123L108.716 160.063C108.698 159.746 108.731 159.377 108.858 159.016C109.089 158.36 109.579 157.918 110.353 157.84Z" fill="#232E36"/>
<path fill-rule="evenodd" clip-rule="evenodd" d="M115.403 157.938C115.403 157.938 116.639 157.142 117.903 157.716Z" fill="white"/>
<path d="M115.403 157.938C115.403 157.938 116.639 157.142 117.903 157.716" stroke="#232E36" stroke-width="1.383"/>
<path d="M124.955 172.142C125.089 172.072 125.255 172.125 125.324 172.26C125.393 172.394 125.341 172.559 125.206 172.629C120.601 175.006 115.684 175.149 111.238 174.048C111.091 174.012 111.001 173.863 111.037 173.716C111.074 173.569 111.222 173.48 111.369 173.516C115.698 174.587 120.485 174.449 124.955 172.142Z" fill="#9B6160"/>
<path d="M118.326 167.67C118.477 167.657 118.61 167.768 118.623 167.919C118.635 168.054 118.546 168.176 118.418 168.209L118.374 168.216L116.222 168.408C116.071 168.421 115.938 168.31 115.924 168.159C115.912 168.023 116.001 167.902 116.129 167.869L116.173 167.862L118.326 167.67Z" fill="#9B6160"/>
<path d="M116.843 170.758C116.979 170.754 117.095 170.85 117.12 170.98L117.125 171.024L117.214 174.007C117.218 174.159 117.099 174.285 116.948 174.289C116.812 174.293 116.696 174.197 116.671 174.068L116.666 174.024L116.577 171.041C116.573 170.889 116.692 170.763 116.843 170.758Z" fill="#9B6160"/>
<path d="M118.065 171.548C118.199 171.526 118.327 171.605 118.369 171.73L118.38 171.773L118.757 174.027C118.781 174.176 118.681 174.317 118.531 174.342C118.397 174.365 118.269 174.285 118.227 174.16L118.216 174.117L117.839 171.864C117.814 171.714 117.915 171.573 118.065 171.548Z" fill="#9B6160"/>
<path d="M115.899 172.435C116.035 172.444 116.141 172.55 116.154 172.681L116.155 172.726L116.068 174.077C116.059 174.228 115.929 174.342 115.777 174.333C115.641 174.324 115.535 174.218 115.522 174.086L115.521 174.042L115.608 172.691C115.617 172.54 115.748 172.425 115.899 172.435Z" fill="#9B6160"/>
<path d="M119.178 172.036C119.309 171.997 119.446 172.06 119.503 172.179L119.52 172.221L119.977 173.751C120.02 173.896 119.938 174.049 119.793 174.092C119.662 174.131 119.526 174.068 119.468 173.95L119.452 173.908L118.994 172.378C118.951 172.233 119.033 172.08 119.178 172.036Z" fill="#9B6160"/>
<path d="M98.6456 159.394C99.1867 158.647 99.9772 158.594 100.821 159.68C101.194 160.36 101.206 160.828 100.993 161.515L100.88 161.862C100.873 161.884 100.868 161.904 100.861 161.928C100.755 162.306 100.796 162.56 101.086 162.92C101.157 163.009 101.235 163.083 101.318 163.143C101.514 163.284 101.714 163.338 101.871 163.343L101.973 163.343C102.104 163.352 102.213 163.456 102.225 163.592C102.237 163.727 102.148 163.849 102.021 163.882L101.965 163.89L101.954 163.89C101.677 163.903 101.332 163.828 100.997 163.587C100.874 163.499 100.761 163.391 100.658 163.264C100.277 162.789 100.192 162.376 100.307 161.881L100.363 161.678C100.377 161.633 100.397 161.574 100.434 161.464C100.643 160.839 100.649 160.507 100.365 159.981C99.7783 159.23 99.4242 159.254 99.0896 159.716C98.99 159.853 98.9219 159.994 98.8904 160.08C98.8383 160.222 98.6808 160.295 98.5387 160.243C98.3965 160.191 98.3235 160.033 98.3756 159.891C98.423 159.762 98.5116 159.579 98.6456 159.394Z" fill="#9B6160"/>
<path d="M133.201 155.856C133.55 155.835 133.861 156.003 134.136 156.283C134.282 156.432 134.387 156.579 134.448 156.684C134.525 156.814 134.48 156.982 134.35 157.059C134.219 157.135 134.051 157.091 133.975 156.96C133.935 156.891 133.854 156.779 133.745 156.667C133.57 156.489 133.394 156.394 133.235 156.404C133.032 156.416 132.805 156.596 132.564 157.018L132.517 157.103L132.489 157.192C132.341 157.69 132.395 158.007 132.635 158.473L132.805 158.789C133.099 159.352 133.129 159.795 132.796 160.406C132.68 160.618 132.534 160.79 132.364 160.926C132.088 161.146 131.811 161.236 131.609 161.254C131.459 161.268 131.326 161.156 131.312 161.005C131.299 160.855 131.41 160.721 131.561 160.708C131.664 160.699 131.842 160.641 132.022 160.497C132.136 160.406 132.235 160.29 132.314 160.144C132.536 159.738 132.535 159.49 132.359 159.123L132.257 158.926C132.243 158.901 132.227 158.872 132.208 158.837C131.838 158.157 131.746 157.676 132.021 156.867L132.028 156.854C132.369 156.213 132.762 155.884 133.201 155.856Z" fill="#9B6160"/>
<path fill-rule="evenodd" clip-rule="evenodd" d="M100.153 156.166C97.9364 152.919 98.8742 149.53 100.542 148.142C99.728 145.184 101.304 139.672 105.492 138.748C108.074 139.517 111.056 139.355 111.056 139.355C111.056 139.355 117.798 134.624 123.155 139.106C128.163 138.109 131.27 143.619 131.043 145.705C134.079 148.879 132.355 154.267 132.355 154.267C132.355 154.267 132.229 156.302 131.55 159.16C130.848 162.115 130.11 158.461 130.038 157.641C129.965 156.82 127.854 156.32 128.209 152.569C125.74 151.135 126.028 148.561 126.028 148.561C126.028 148.561 124.505 150.419 119.516 148.52C116.354 151.695 110.906 149.287 110.906 149.287C110.906 149.287 106.883 151.676 104.288 150.391C104.288 150.391 105.155 152.381 103.496 155.421C104.423 158.093 102.519 159.537 103.212 161.128C103.904 162.719 102.547 164.493 101.708 161.262C101.708 161.262 99.3157 159.133 100.153 156.166Z" fill="#232E36"/>
<path fill-rule="evenodd" clip-rule="evenodd" d="M139.183 321.362C140.157 302.257 140.97 282.497 141.258 266.764C141.258 266.764 139.539 255.288 129.057 256.822C118.785 258.326 118.295 271.206 118.295 271.206L120.787 322.029C120.787 322.029 121.284 330.302 130.475 329.807C138.859 329.357 139.183 321.362 139.183 321.362Z" fill="#4092FE"/>
<path fill-rule="evenodd" clip-rule="evenodd" d="M130.648 368.555C127.061 367.832 123.738 370.641 123.862 374.297C124.003 378.505 124.166 384.189 124.258 390.313C124.353 396.615 124.444 401.837 124.895 402.501C126.878 405.425 130.848 406.517 134.926 409.415C138.152 411.71 138.708 412.799 142.822 413.574C148.654 414.672 145.937 412.195 139.468 404.363C133.706 397.385 134.097 394.116 134.097 394.116L135.189 374.427C135.345 371.613 133.41 369.111 130.648 368.555Z" fill="#C99382"/>
<path fill-rule="evenodd" clip-rule="evenodd" d="M138.885 402.511C143.094 407.199 147.92 410.906 147.8 413.13C147.681 415.354 145.925 417.361 138.673 414.779C133.71 413.012 135.131 411.949 130.396 408.861C128.03 407.318 127.168 407.483 124.987 405.69C123.738 404.08 124.309 396.269 124.309 396.269L132.605 405.378C132.605 405.378 130.45 401.137 132.225 400.22C134 399.303 135.634 398.679 136.68 399.433C137.726 400.187 138.885 402.511 138.885 402.511Z" fill="#232E36"/>
<path fill-rule="evenodd" clip-rule="evenodd" d="M139.125 323.048C137.246 356.114 135.811 389.215 135.811 389.215L123.2 389.405L120.496 323.307C120.496 323.307 121.36 313.384 130.562 313.533C138.866 313.669 139.125 323.048 139.125 323.048Z" fill="#4092FE"/>
<path fill-rule="evenodd" clip-rule="evenodd" d="M98.6837 321.228C97.7546 302.12 96.732 283.527 96.482 267.792C96.482 267.792 98.4863 255.153 108.964 256.713C119.233 258.241 119.692 271.123 119.692 271.123L117.078 321.939C117.078 321.939 116.561 330.211 107.371 329.694C98.9892 329.223 98.6837 321.228 98.6837 321.228Z" fill="#4092FE"/>
<path fill-rule="evenodd" clip-rule="evenodd" d="M107.105 368.442C110.693 367.727 114.009 370.544 113.878 374.201C113.726 378.407 113.549 384.091 113.442 390.214C113.332 396.516 113.228 401.739 112.776 402.401C110.785 405.321 106.813 406.402 102.729 409.292C99.4969 411.578 98.9377 412.666 94.8217 413.431C88.9872 414.515 91.71 412.045 98.1973 404.228C103.978 397.265 103.593 393.994 103.593 393.994L102.55 374.302C102.4 371.488 104.341 368.991 107.105 368.442Z" fill="#C99382"/>
<path fill-rule="evenodd" clip-rule="evenodd" d="M98.7858 402.378C94.566 407.055 89.7299 410.75 89.8447 412.975C89.9587 415.2 91.7094 417.211 98.9685 414.646C103.936 412.891 102.517 411.824 107.26 408.748C109.629 407.211 110.491 407.378 112.676 405.589C113.929 403.982 113.378 396.171 113.378 396.171L105.059 405.259C105.059 405.259 107.225 401.023 105.451 400.102C103.678 399.181 102.046 398.554 100.998 399.305C99.9509 400.056 98.7858 402.378 98.7858 402.378Z" fill="#232E36"/>
<path fill-rule="evenodd" clip-rule="evenodd" d="M98.7372 322.915C100.537 355.985 101.889 389.09 101.889 389.09L114.502 389.309L117.366 323.218C117.366 323.218 116.526 313.292 107.323 313.42C99.0187 313.535 98.7372 322.915 98.7372 322.915Z" fill="#4092FE"/>
<path fill-rule="evenodd" clip-rule="evenodd" d="M128.447 182.883L127.523 179.487L109.554 179.978L108.832 183.232C108.832 183.232 94.3299 185.072 92.1751 190.462C89.9515 196.023 97.6192 227.547 100.089 233.036C97.8933 237.427 99.4846 241.629 99.4846 241.629H136.032C136.032 241.629 140.428 240.445 137.684 235.78C139.146 225.827 144.773 191.972 143.447 186.661C141.985 180.813 128.447 182.883 128.447 182.883Z" fill="#ADC6FF"/>
<path d="M94.1449 194.678C94.2958 194.691 94.4079 194.823 94.3954 194.974C94.1822 197.537 94.356 201.326 94.8377 206.011C95.0443 208.021 95.3026 210.143 95.6008 212.332C95.8528 214.182 96.1207 215.989 96.3905 217.696L96.624 219.146L96.8964 220.761C96.9227 220.91 96.8231 221.053 96.674 221.079C96.525 221.105 96.3828 221.006 96.3565 220.857L96.1662 219.738C96.1122 219.414 96.0552 219.067 95.9956 218.698L95.9504 218.418C95.6461 216.522 95.3417 214.491 95.0576 212.406C94.7587 210.212 94.4997 208.083 94.2924 206.067L94.2202 205.349C93.7905 200.962 93.6435 197.4 93.849 194.929C93.8616 194.778 93.994 194.666 94.1449 194.678Z" fill="#9B6160"/>
<path d="M127.008 183.241C127.154 183.201 127.305 183.286 127.345 183.432C127.386 183.578 127.301 183.729 127.155 183.769C125.524 184.224 123.643 184.522 121.561 184.683C118.454 184.924 115.133 184.849 111.935 184.578L111.4 184.531C111.053 184.499 110.726 184.466 110.421 184.432L109.943 184.378L109.555 184.33C109.405 184.309 109.3 184.171 109.321 184.021C109.341 183.871 109.479 183.766 109.629 183.786L110.008 183.834L110.259 183.863C110.767 183.92 111.345 183.978 111.981 184.032C115.152 184.3 118.445 184.374 121.519 184.137C123.568 183.978 125.414 183.685 127.008 183.241Z" fill="#4E5C93"/>
<path fill-rule="evenodd" clip-rule="evenodd" d="M141.415 268.023C140.248 255.674 138.435 249.185 137.05 246.865C107.288 247.716 99.8744 247.325 99.8744 247.325C99.8744 247.325 96.596 253.801 96.2298 268.297C96.2298 268.297 107.363 281.836 119.188 281.836C129.848 281.836 141.415 268.023 141.415 268.023Z" fill="#4092FE"/>
<path fill-rule="evenodd" clip-rule="evenodd" d="M137.05 247.596L136.488 241.995L100.044 241.701L99.8746 247.311C99.8746 247.311 119.162 248.784 137.05 247.596Z" fill="#4092FE"/>
<path d="M117.977 246.891C118.132 246.889 118.259 247.013 118.261 247.168L118.375 255.361C118.405 257.464 118.436 259.558 118.467 261.612L118.598 269.78L118.729 277.067C118.762 278.75 118.794 280.222 118.824 281.463C118.827 281.618 118.705 281.747 118.55 281.751C118.395 281.754 118.267 281.631 118.263 281.477L118.188 278.063L118.062 271.276L117.985 266.655C117.943 264.033 117.901 261.295 117.86 258.513L117.7 247.175C117.698 247.02 117.822 246.893 117.977 246.891Z" fill="black"/>
<path d="M123.176 247.162C123.331 247.159 123.459 247.282 123.462 247.437L123.521 250.602L123.556 252.817C123.583 254.688 123.606 256.529 123.622 258.295L123.639 260.523C123.659 263.909 123.649 266.702 123.599 268.734C123.382 270.742 122.287 271.94 120.623 272.463C119.724 272.745 118.782 272.798 117.939 272.722L117.808 272.709C117.75 272.702 117.706 272.696 117.676 272.691C117.523 272.667 117.419 272.524 117.443 272.371C117.467 272.218 117.611 272.114 117.764 272.138L117.873 272.152C117.906 272.156 117.945 272.16 117.989 272.164C118.765 272.234 119.638 272.184 120.455 271.928C121.916 271.469 122.85 270.448 123.04 268.697L123.062 267.589C123.093 265.551 123.096 262.906 123.074 259.792L123.062 258.3C123.048 256.787 123.029 255.219 123.007 253.625L122.946 249.771L122.902 247.449C122.899 247.294 123.022 247.166 123.176 247.162Z" fill="black"/>
<path d="M133.794 247.938C133.949 247.936 134.076 248.059 134.078 248.214L134.085 248.411C134.088 248.476 134.091 248.553 134.096 248.641C134.116 248.985 134.147 249.368 134.192 249.781C134.322 250.961 134.541 252.14 134.869 253.237C135.621 255.753 136.823 257.445 138.544 257.966C138.693 258.011 138.776 258.168 138.731 258.316C138.687 258.464 138.53 258.548 138.382 258.503C136.438 257.914 135.132 256.075 134.332 253.398C133.993 252.265 133.768 251.053 133.635 249.843C133.588 249.419 133.556 249.026 133.537 248.672L133.518 248.223C133.515 248.068 133.639 247.941 133.794 247.938Z" fill="black"/>
<path d="M103.134 248.586C103.273 248.585 103.389 248.686 103.412 248.819L103.416 248.864L103.416 248.963C103.415 249.335 103.398 249.879 103.352 250.54C103.273 251.696 103.127 252.847 102.899 253.924C102.301 256.75 101.246 258.619 99.5668 259.054C99.4169 259.093 99.2639 259.003 99.2251 258.853C99.1862 258.703 99.2762 258.55 99.4261 258.511C100.83 258.147 101.793 256.442 102.351 253.808C102.573 252.759 102.715 251.633 102.793 250.502L102.813 250.188C102.84 249.732 102.852 249.347 102.855 249.055L102.856 248.869C102.854 248.714 102.979 248.587 103.134 248.586Z" fill="black"/>
<path d="M136.398 241.714C136.553 241.714 136.678 241.839 136.678 241.994C136.678 242.134 136.577 242.249 136.443 242.271L136.398 242.274H99.8501C99.6953 242.274 99.5698 242.149 99.5698 241.994C99.5698 241.855 99.6715 241.739 99.8046 241.718L99.8501 241.714H136.398Z" fill="black"/>
<path d="M137.129 246.831C137.284 246.831 137.409 246.956 137.409 247.111C137.409 247.25 137.308 247.366 137.174 247.388L137.129 247.391H99.8501C99.6953 247.391 99.5698 247.266 99.5698 247.111C99.5698 246.972 99.6715 246.856 99.8046 246.834L99.8501 246.831H137.129Z" fill="black"/>
<path fill-rule="evenodd" clip-rule="evenodd" d="M88.5717 193.785C88.5717 193.785 91.5109 183.983 100.444 186.827C109.553 189.726 106.191 199.528 106.191 199.528C106.191 199.528 104.246 206.396 101.624 214.632C99.5762 221.068 98.0288 226.015 96.3249 230.009C94.488 234.318 89.9093 236.821 85.7253 235.489C79.3667 233.465 77.9691 228.773 79.1796 224.272C80.3572 219.895 82.1276 214.038 83.5317 209.243C86.2333 200.023 88.5717 193.785 88.5717 193.785Z" fill="#ADC6FF"/>
<path fill-rule="evenodd" clip-rule="evenodd" d="M112.871 308.823L76.7156 307.182C75.7573 307.139 75.0161 306.327 75.0593 305.368L76.2113 279.994C76.2544 279.036 77.0665 278.294 78.0248 278.337L114.179 279.978C115.138 280.022 115.88 280.833 115.836 281.792L114.684 307.166C114.641 308.125 113.829 308.867 112.871 308.823Z" fill="#4E5C93"/>
<path fill-rule="evenodd" clip-rule="evenodd" d="M111.64 308.767L75.4851 307.126C74.5268 307.082 73.7848 306.27 73.828 305.312L74.98 279.937C75.0231 278.98 75.8359 278.238 76.7935 278.281L112.949 279.922C113.908 279.966 114.649 280.777 114.606 281.736L113.453 307.111C113.41 308.069 112.599 308.81 111.64 308.767Z" fill="black"/>
<path fill-rule="evenodd" clip-rule="evenodd" d="M97.0262 279.206C94.7858 279.042 93.0133 279.206 92.0586 279.163C89.5953 279.052 90.2758 287.317 89.7817 288.62C89.0295 290.602 84.3704 289.47 82.5774 282.023C82.0672 279.906 82.2112 276.751 82.2083 273.752C82.2083 273.752 82.8252 266.549 85.7066 266.137C88.2058 265.78 90.3138 268.449 90.3138 268.449C90.3138 268.449 92.9665 272.159 94.3246 275.532L97.0262 279.206Z" fill="#C99382"/>
<path d="M88.0935 281.058C88.2428 281.083 88.3433 281.225 88.318 281.374L88.2781 281.642L88.2417 281.924C88.2236 282.072 88.2058 282.232 88.1887 282.403C87.9954 284.334 87.9931 286.446 88.3084 288.504C88.3314 288.654 88.2286 288.794 88.079 288.817C87.9294 288.84 87.7895 288.737 87.7665 288.587C87.4434 286.478 87.4457 284.322 87.6432 282.348L87.6791 282.013C87.6913 281.906 87.7037 281.805 87.7162 281.708L87.7775 281.283C87.8002 281.148 87.9171 281.053 88.0491 281.054L88.0935 281.058Z" fill="#9B6160"/>
<path d="M85.7479 280.265C85.8959 280.297 85.9903 280.443 85.9587 280.591C85.4761 282.85 85.5789 284.918 86.0413 286.692C86.1101 286.956 86.1826 287.194 86.2558 287.406L86.3107 287.56C86.3648 287.706 86.406 287.805 86.4281 287.852C86.492 287.99 86.4326 288.153 86.2953 288.216C86.1581 288.28 85.995 288.221 85.9311 288.084L85.8754 287.954C85.8602 287.917 85.8434 287.874 85.825 287.826L85.7964 287.75C85.6987 287.485 85.6014 287.178 85.5108 286.83C85.028 284.978 84.9209 282.825 85.4225 280.476C85.451 280.343 85.5718 280.253 85.7036 280.26L85.7479 280.265Z" fill="#9B6160"/>
<path d="M83.6131 278.827C83.7636 278.843 83.8723 278.979 83.8559 279.129L83.842 279.289C83.838 279.344 83.8336 279.41 83.8293 279.486C83.7519 280.844 83.8165 282.668 84.1318 284.874C84.1532 285.024 84.0491 285.163 83.8992 285.184C83.7494 285.206 83.6105 285.101 83.5891 284.952C83.2824 282.806 83.2088 281.01 83.2724 279.639L83.2911 279.308C83.2985 279.198 83.3056 279.118 83.3109 279.07C83.3257 278.934 83.4368 278.833 83.5685 278.826L83.6131 278.827Z" fill="#9B6160"/>
<path fill-rule="evenodd" clip-rule="evenodd" d="M96.5201 231.114C96.5201 231.114 96.1722 220.618 87.3919 220.622C78.3361 220.626 78.203 230.71 78.203 230.71C78.203 230.71 78.2849 237.809 78.3478 246.558C78.3851 251.899 78.5459 257.797 79.2761 262.061C80.0663 266.679 82.64 267.137 87.0308 267.135C92.244 267.133 94.3996 266.601 95.0545 261.986C95.6802 257.586 95.7467 251.599 96.0084 246.962C96.5069 238.12 96.5201 231.114 96.5201 231.114Z" fill="#ADC6FF"/>
<path fill-rule="evenodd" clip-rule="evenodd" d="M82.6212 271.665L92.7749 271.66L93.5029 264.8L81.8873 264.805L82.6212 271.665Z" fill="#ADC6FF"/>
<path fill-rule="evenodd" clip-rule="evenodd" d="M132.483 185.761C132.483 185.761 123.068 189.443 127.213 199.006C131.44 208.757 140.794 204.617 140.794 204.617C140.794 204.617 147.408 202.162 155.298 198.903C161.463 196.357 166.206 194.429 169.968 192.38C174.029 190.168 175.881 185.07 173.94 180.591C170.989 173.784 166.077 172.5 161.733 174.039C157.509 175.536 151.885 177.751 147.274 179.516C138.407 182.91 132.483 185.761 132.483 185.761Z" fill="#ADC6FF"/>
<path d="M141.782 201.754L141.826 201.755C141.977 201.77 142.087 201.904 142.072 202.055L141.662 206.14L141.536 207.367C141.161 211.019 140.773 214.671 140.39 218.119L140.286 219.054C140.171 220.078 140.059 221.068 139.949 222.023L139.678 224.333C138.943 230.503 138.367 234.486 137.991 235.723L137.979 235.761L138.009 235.823C139.243 238.389 138.97 240.244 137.727 241.451L137.646 241.528C137.216 241.923 136.785 242.153 136.486 242.254C136.342 242.303 136.187 242.226 136.138 242.083C136.089 241.939 136.166 241.784 136.31 241.735L136.379 241.708C136.435 241.685 136.511 241.649 136.601 241.601C136.831 241.479 137.061 241.321 137.276 241.124C138.429 240.064 138.685 238.397 137.438 235.903C137.405 235.836 137.4 235.758 137.426 235.687L137.457 235.595C137.83 234.425 138.451 230.071 139.239 223.375L139.537 220.798C139.605 220.209 139.673 219.607 139.741 218.993L139.95 217.113C140.194 214.898 140.439 212.607 140.681 210.294L141.116 206.084L141.527 202.001C141.54 201.866 141.65 201.763 141.782 201.754Z" fill="#4E5C93"/>
<path d="M94.3118 200.382C94.463 200.374 94.5921 200.49 94.6002 200.641L94.6439 201.331L94.6925 202.006C94.7224 202.402 94.757 202.834 94.7968 203.3L94.8733 204.165C95.0469 206.072 95.2731 208.172 95.5588 210.432C96.5007 217.881 97.888 225.536 99.8058 232.967C99.8232 233.035 99.8143 233.106 99.781 233.167C99.3102 234.03 99.1166 235.218 99.1614 236.648C99.1958 237.746 99.3678 238.926 99.6332 240.114C99.717 240.49 99.8057 240.845 99.8952 241.174L100.01 241.58C100.054 241.731 100.089 241.842 100.111 241.909C100.158 242.053 100.08 242.207 99.9361 242.255C99.7923 242.302 99.6374 242.224 99.59 242.08L99.4935 241.767C99.4748 241.704 99.4554 241.637 99.4352 241.566C99.3203 241.162 99.2054 240.714 99.0982 240.234C98.8258 239.014 98.649 237.801 98.6134 236.665C98.5682 235.222 98.7541 233.996 99.2233 233.051L99.2489 233.002L99.027 232.131C97.3124 225.307 96.0388 218.313 95.1407 211.476L95.0149 210.5L94.8869 209.466C94.6392 207.42 94.4414 205.515 94.288 203.777L94.2051 202.801C94.1764 202.449 94.1509 202.119 94.1284 201.812L94.075 201.038L94.0528 200.671C94.0447 200.519 94.1607 200.39 94.3118 200.382Z" fill="#4E5C93"/>
</svg>
