<svg width="598" height="1024" viewBox="0 0 598 1024" fill="none" xmlns="http://www.w3.org/2000/svg">
<path fill-rule="evenodd" clip-rule="evenodd" d="M374.154 644.565L396.322 634.263C396.322 634.263 402.55 643.371 404.982 653.244C409.144 670.136 411.685 664.332 420.439 683.034C428.152 699.509 423.879 713.652 417.534 707.499C399.271 689.787 386.703 683.478 386.703 683.478C386.703 683.478 358.014 685.091 351.594 675.327C341.506 659.988 374.154 644.565 374.154 644.565Z" fill="#E4EBF7"/>
<path fill-rule="evenodd" clip-rule="evenodd" d="M417.141 705.112C417.141 705.112 419.62 704.244 420.001 693.051C420.445 680.014 407.899 665.017 401.512 655.908C391.675 641.878 394.216 639.4 390.988 637.296C394.183 633.162 399.247 634.428 399.247 634.428C399.247 634.428 402.22 637.111 406.371 648.958C410.521 660.804 413.65 659.515 420.715 673.653C430.666 693.573 428.557 706.044 424.567 708.357C419.547 711.267 415.984 708.21 417.141 705.112Z" fill="#A3B5D6"/>
<path fill-rule="evenodd" clip-rule="evenodd" d="M244.747 709.284C238.582 692.706 247.6 674.352 264.495 669.113C296.941 659.046 343.14 644.729 343.14 644.729H343.141C347.109 638.544 363.465 636.714 363.336 647.948C363.1 668.501 374.604 681.981 372.238 689.97C369.871 697.959 358.21 695.961 358.206 695.961C358.206 695.961 315.955 713.897 285.789 726.857C269.601 733.812 250.888 725.798 244.747 709.284Z" fill="black"/>
<path fill-rule="evenodd" clip-rule="evenodd" d="M194.107 821.589L186.888 851.457C186.888 851.457 173.056 850.454 161.44 845.118C141.57 835.991 145.288 843.032 120.039 837.003C97.7983 831.693 87.2323 816.423 98.2498 814.998C129.967 810.899 146.011 803.474 146.011 803.474C146.011 803.474 166.881 773.994 181.509 775.32C204.49 777.405 194.107 821.589 194.107 821.589Z" fill="#E4EBF7"/>
<path fill-rule="evenodd" clip-rule="evenodd" d="M100.905 816.479C100.905 816.479 99.8179 819.598 110.529 828.733C123.006 839.375 147.576 838.772 161.535 839.621C183.035 840.926 183.483 845.366 188.079 843.839C189.647 850.216 184.437 854.206 184.437 854.206C184.437 854.206 179.469 855.031 164.568 849.839C149.669 844.649 148.487 848.737 129.051 844.618C101.67 838.816 91.0534 826.979 91.9024 821.243C92.9689 814.028 98.7648 812.917 100.905 816.479Z" fill="#A3B5D6"/>
<path fill-rule="evenodd" clip-rule="evenodd" d="M285.355 725.224C267.111 735.424 243.844 729.125 232.447 710.899L187.272 638.657C173.853 617.197 180.606 589.135 202.083 577.117C223.432 565.171 250.716 573.91 262.107 596.344L300.688 672.313C310.488 691.61 303.723 714.953 285.355 725.224Z" fill="black"/>
<path fill-rule="evenodd" clip-rule="evenodd" d="M175.978 546.848C175.978 546.848 171.07 571.097 172.387 589.805C176.611 649.777 211.243 662.447 243.34 659.912C246.743 659.645 288.529 651.445 308.38 639.452C335.41 623.122 345.545 590.65 328.829 558.674C324.511 550.411 322.895 541.064 322.895 541.064C322.895 541.064 188.648 546.848 175.978 546.848Z" fill="#4E5C93"/>
<path fill-rule="evenodd" clip-rule="evenodd" d="M217.343 652.701C238.625 659.133 249.758 683.278 241.706 705.556C226.241 748.348 204.207 809.262 204.207 809.262V809.263C207.231 818.397 196.217 837.412 185.172 828.426C164.969 811.987 142.572 813.732 136.502 804.895C130.434 796.062 141.561 785.106 141.566 785.101V785.1C141.566 785.1 156.912 725.578 167.717 682.959C173.514 660.087 196.143 646.294 217.343 652.701Z" fill="#4E5C93"/>
<path fill-rule="evenodd" clip-rule="evenodd" d="M178.425 719.877C162.336 705.726 161.899 679.472 177.433 660.173L239.001 583.683C257.289 560.961 288.504 555.876 307.455 572.531C326.29 589.086 325.396 620.448 305.487 641.529L238.06 712.922C220.933 731.057 194.623 734.124 178.425 719.877Z" fill="#4E5C93"/>
<path d="M221.496 567.393C221.905 567.456 222.186 567.839 222.123 568.248L222.026 568.91C221.533 572.451 221.158 577.836 220.888 584.568C220.728 588.542 220.613 592.77 220.536 597.027L220.479 600.711L220.438 605.012C220.438 605.131 220.409 605.249 220.354 605.354L220.291 605.455L174.679 667.117C174.433 667.45 173.963 667.52 173.63 667.274C173.327 667.05 173.242 666.641 173.414 666.319L173.473 666.225L218.939 604.76L218.951 603.243C218.963 601.842 218.982 600.281 219.009 598.6C219.086 593.796 219.209 588.992 219.389 584.508L219.5 581.951C219.78 575.941 220.156 571.171 220.64 568.02C220.698 567.645 221.025 567.378 221.394 567.384L221.496 567.393Z" fill="black"/>
<path d="M318.593 553.125C318.968 552.948 319.415 553.107 319.592 553.482C319.77 553.856 319.61 554.303 319.236 554.481C289.867 568.399 263.141 575.502 239.095 576.948C220.743 578.052 205.147 575.821 192.347 571.42C188.646 570.148 185.463 568.784 182.8 567.417C181.998 567.006 181.292 566.619 180.683 566.263L180.386 566.088C179.978 565.844 179.701 565.668 179.557 565.569C179.214 565.336 179.126 564.87 179.359 564.527C179.592 564.185 180.058 564.096 180.401 564.329L180.591 564.454C180.728 564.541 180.916 564.658 181.155 564.801C181.801 565.186 182.578 565.617 183.485 566.083C186.085 567.417 189.203 568.753 192.834 570.002C205.452 574.339 220.853 576.542 239.005 575.451C262.855 574.016 289.394 566.963 318.593 553.125Z" fill="black"/>
<path fill-rule="evenodd" clip-rule="evenodd" d="M197.476 340.334C197.476 340.334 194.932 354.803 203.491 357.8C211.012 360.432 217.65 358.254 217.056 348.522C216.462 338.79 209.203 312.969 203.062 314.738C196.92 316.505 197.476 340.334 197.476 340.334Z" fill="#4A3D39"/>
<path fill-rule="evenodd" clip-rule="evenodd" d="M260.352 333.826L263.706 360.166C265.62 375.184 255.499 389.092 240.621 391.891C224.248 394.974 208.716 383.466 206.895 366.904L203.905 339.69L260.352 333.826Z" fill="#9E7D6C"/>
<path fill-rule="evenodd" clip-rule="evenodd" d="M236.547 363.07C236.547 363.07 252.667 362.522 261.687 354.7C272.515 345.308 265.646 320.429 264.158 312.208C261.55 297.782 254.063 291.026 254.063 291.026C254.063 291.026 245.903 279.742 220.543 283.516C195.181 287.29 197.779 310.975 199.396 321.844C201.014 332.713 206.84 352.94 214.433 357.565C223.595 363.145 236.547 363.07 236.547 363.07Z" fill="#B0927B"/>
<path fill-rule="evenodd" clip-rule="evenodd" d="M261.452 303.352C261.452 303.352 270.704 290.866 265.348 282.866C259.991 274.868 251.704 275.176 242.984 278.789C234.263 282.4 197.377 277.583 196.21 297.32C183.305 316.369 196.682 329.353 196.682 329.353C196.682 329.353 202.01 321.403 205.15 326.954C208.291 332.504 210.658 336.241 212.2 334.16C213.742 332.078 211.061 325.33 213.76 321.688C216.458 318.046 218.935 307.681 215.336 301.418C213.824 297.476 247.723 291.97 255.44 294.062C259.793 295.241 261.452 303.352 261.452 303.352Z" fill="#4A3D39"/>
<path d="M250.47 308.187C254.679 306.731 257.806 306.839 259.946 308.01C260.628 308.383 261.081 308.792 261.335 309.135C261.829 309.8 261.691 310.739 261.026 311.233C260.4 311.699 259.531 311.603 259.019 311.036L258.927 310.924C258.92 310.915 258.79 310.797 258.506 310.642C257.16 309.905 254.904 309.827 251.451 311.023C250.668 311.293 249.814 310.878 249.543 310.096C249.272 309.313 249.687 308.458 250.47 308.187Z" fill="#4A3D39"/>
<path d="M228.257 311.829C230.829 310.864 233.474 310.604 235.711 310.724L235.926 310.737C235.987 310.742 236.036 310.746 236.073 310.749C236.897 310.83 237.5 311.563 237.42 312.388C237.344 313.164 236.69 313.744 235.926 313.742L235.551 313.72C233.691 313.62 231.432 313.842 229.31 314.638C228.45 314.96 227.662 315.365 226.958 315.859C226.28 316.334 225.345 316.169 224.869 315.491C224.394 314.813 224.558 313.877 225.237 313.402C226.156 312.757 227.169 312.237 228.257 311.829Z" fill="#4A3D39"/>
<path d="M246.566 316.936C246.774 316.706 247.129 316.687 247.36 316.895L247.627 317.145L247.956 317.464C248.071 317.577 248.19 317.698 248.315 317.825C249.025 318.55 249.735 319.344 250.398 320.182C251.593 321.691 252.506 323.175 253.024 324.586C254.522 328.662 252.549 331.571 246.394 332.487C246.087 332.533 245.801 332.321 245.755 332.013C245.709 331.706 245.921 331.42 246.229 331.374C251.709 330.558 253.208 328.348 251.968 324.974C251.497 323.692 250.643 322.304 249.517 320.881C248.879 320.076 248.195 319.311 247.511 318.611L247.166 318.265L246.607 317.731C246.376 317.523 246.358 317.167 246.566 316.936Z" fill="#7C5B4D"/>
<path fill-rule="evenodd" clip-rule="evenodd" d="M231.18 325.447C231.421 327.073 232.734 328.225 234.109 328.019C235.485 327.815 236.403 326.332 236.161 324.706C235.92 323.08 234.609 321.928 233.233 322.133C231.858 322.337 230.938 323.822 231.18 325.447Z" fill="#4A3D39"/>
<path fill-rule="evenodd" clip-rule="evenodd" d="M254.73 321.943C254.972 323.569 256.283 324.721 257.658 324.516C259.035 324.312 259.953 322.827 259.712 321.202C259.47 319.576 258.159 318.424 256.782 318.63C255.407 318.834 254.487 320.317 254.73 321.943Z" fill="#4A3D39"/>
<path fill-rule="evenodd" clip-rule="evenodd" d="M260.634 336.347C260.634 336.347 259.123 330.024 250.129 330.794C242.361 331.458 237.715 333.917 235.807 339.756C233.898 345.596 249.73 337.685 249.73 337.685C249.73 337.685 263.775 341.897 260.634 336.347Z" fill="#4A3D39"/>
<path fill-rule="evenodd" clip-rule="evenodd" d="M193.78 336.357C195.629 342.357 200.558 346.162 204.786 344.857C209.015 343.554 210.943 337.633 209.093 331.635C207.244 325.635 202.315 321.829 198.088 323.134C193.858 324.438 191.93 330.357 193.78 336.357Z" fill="#9E7D6C"/>
<path d="M260.538 354.802C260.778 354.604 261.132 354.638 261.33 354.878C261.527 355.118 261.493 355.472 261.254 355.67L261.062 355.82C261.004 355.863 260.937 355.913 260.861 355.969C260.546 356.198 260.173 356.451 259.74 356.724C258.509 357.498 257.049 358.271 255.364 358.991C247.05 362.544 236.723 363.547 224.533 360.461C224.232 360.385 224.049 360.079 224.125 359.778C224.202 359.477 224.508 359.294 224.809 359.371C236.752 362.394 246.828 361.415 254.922 357.956C256.551 357.26 257.959 356.515 259.14 355.772C259.469 355.565 259.761 355.37 260.015 355.191L260.378 354.927C260.453 354.87 260.506 354.828 260.538 354.802Z" fill="#7C5B4D"/>
<path d="M248.868 352.618C249.169 352.545 249.474 352.73 249.547 353.032L249.588 353.217C249.618 353.363 249.652 353.554 249.686 353.783C249.852 354.896 249.884 356.062 249.694 357.167C249.36 359.114 248.381 360.557 246.606 361.195C246.314 361.301 245.992 361.149 245.887 360.857C245.781 360.564 245.933 360.242 246.226 360.137C247.571 359.653 248.314 358.558 248.585 356.977C248.752 356.007 248.723 354.954 248.574 353.949L248.507 353.552C248.487 353.442 248.468 353.356 248.454 353.297C248.38 352.996 248.566 352.691 248.868 352.618Z" fill="#7C5B4D"/>
<path d="M202.33 328.844C203.889 329.753 204.964 331.446 205.351 334.04C205.389 334.299 205.245 334.549 205.002 334.646C203.073 335.414 202.303 336.194 202.355 336.936C202.401 337.587 203.058 338.378 204.236 339.235C204.487 339.418 204.542 339.769 204.36 340.021C204.177 340.272 203.825 340.327 203.574 340.145C202.148 339.107 201.31 338.098 201.233 337.016C201.144 335.765 202.089 334.704 204.07 333.818L204.164 333.777L204.132 333.609C203.756 331.786 202.985 330.603 201.932 329.92L201.763 329.816C200.923 329.326 200.037 329.19 199.311 329.249L199.231 329.257C198.924 329.303 198.638 329.091 198.592 328.784C198.546 328.476 198.758 328.19 199.065 328.144L199.22 328.128C200.156 328.052 201.262 328.221 202.33 328.844Z" fill="#7C5B4D"/>
<path fill-rule="evenodd" clip-rule="evenodd" d="M49.9202 342.111C49.9202 342.111 54.0197 373.576 68.3417 377.436C81.3122 380.931 88.7192 366.748 88.7192 366.748C88.7192 366.748 93.0992 355.086 93.9917 341.421C94.5767 332.466 98.5382 315.567 93.4757 314.112C86.8757 312.214 85.9847 330.055 81.2237 331.621C71.5742 334.794 69.6587 306.621 66.5942 302.226C60.6047 293.634 42.0332 308.077 49.9202 342.111Z" fill="#B0927B"/>
<path d="M59.3778 300.618C61.0991 300.298 62.2622 301.591 63.0066 303.793C63.2262 304.442 63.3949 305.133 63.5202 305.823L63.5612 306.058L63.6269 306.49C63.6438 306.612 63.6544 306.701 63.6522 306.702C64.1106 309.055 64.4972 311.261 64.8882 313.697L66.0018 320.835L66.1405 321.644C66.7392 325.033 67.3171 326.91 68.2755 328.398C68.4437 328.659 68.3683 329.007 68.1072 329.175C67.846 329.343 67.4979 329.268 67.3297 329.007C66.2315 327.302 65.6118 325.224 64.9642 321.447L64.7985 320.441C64.5335 318.776 63.9804 315.158 63.9448 314.931C63.4968 312.075 63.0689 309.591 62.5406 306.868L62.5201 306.696C62.498 306.527 62.4631 306.298 62.4133 306.024C62.2971 305.384 62.141 304.745 61.9409 304.153C61.3558 302.423 60.5636 301.542 59.5833 301.724C59.2779 301.781 58.9843 301.579 58.9275 301.274C58.8708 300.968 59.0724 300.675 59.3778 300.618Z" fill="#7C5B4D"/>
<path d="M51.9218 307.245C54.2884 304.857 56.4944 305.462 58.1713 307.813C58.4753 308.24 58.7389 308.693 58.9625 309.147L59.104 309.445C59.1444 309.534 59.178 309.612 59.2047 309.677L59.2396 309.765L59.2763 309.942L59.3293 310.848C59.3458 311.094 59.365 311.36 59.3873 311.646L59.4756 312.697C59.5725 313.776 59.696 314.937 59.8493 316.164C60.4332 320.837 61.3246 325.51 62.5855 329.866C63.0973 331.634 63.6618 333.316 64.2812 334.9C64.3943 335.189 64.2515 335.516 63.9621 335.629C63.6728 335.742 63.3465 335.599 63.2334 335.31C62.6011 333.693 62.0258 331.978 61.5049 330.178C60.2258 325.76 59.3237 321.031 58.733 316.303C58.5521 314.856 58.4123 313.499 58.3082 312.258L58.2245 311.18L58.1566 310.087L58.0198 309.781L57.9535 309.644C57.755 309.242 57.5211 308.839 57.2553 308.466C55.9374 306.618 54.5137 306.228 52.7208 308.037C52.5022 308.258 52.146 308.26 51.9253 308.041C51.7047 307.822 51.7031 307.466 51.9218 307.245Z" fill="#7C5B4D"/>
<path d="M49.7869 315.036C52.1625 314.37 53.6772 315.664 54.4178 318.06C54.6185 318.71 54.7493 319.399 54.8252 320.087C54.8428 320.247 54.8566 320.4 54.867 320.544L54.889 320.962C54.8893 320.976 54.8895 320.988 54.8895 320.995C55.1499 326.403 56.165 331.908 57.6948 337.262C58.323 339.461 58.9961 341.483 59.6688 343.281L59.9424 344C59.9866 344.114 60.0299 344.225 60.0724 344.333L60.373 345.077L60.4726 345.315L60.8106 345.468C61.2415 345.668 61.7206 345.908 62.2359 346.188C63.7068 346.988 65.1775 347.953 66.5525 349.087C71.7244 353.353 74.166 358.755 72.2891 365.268C72.2031 365.566 71.8913 365.738 71.5928 365.652C71.2943 365.566 71.1221 365.255 71.2081 364.956C72.9431 358.936 70.695 353.963 65.8366 349.955C64.5214 348.871 63.1098 347.944 61.6984 347.177C61.3036 346.962 60.9317 346.772 60.589 346.608L60.3375 346.489C60.0941 346.376 59.9227 346.302 59.8352 346.267C59.6995 346.212 59.5904 346.107 59.5312 345.973L59.3341 345.508L59.2767 345.369C59.0768 344.882 58.8544 344.315 58.6151 343.675C57.9323 341.85 57.2499 339.8 56.613 337.571C55.0611 332.14 54.0308 326.551 53.7652 321.028L53.7601 320.863C53.7526 320.7 53.7363 320.477 53.7069 320.21C53.6383 319.588 53.5204 318.967 53.343 318.393C52.7606 316.508 51.758 315.652 50.0903 316.119C49.7912 316.203 49.4807 316.028 49.397 315.729C49.3132 315.43 49.4878 315.119 49.7869 315.036Z" fill="#7C5B4D"/>
<path d="M80.8504 331.2C81.083 330.994 81.4385 331.016 81.6445 331.248C81.8504 331.481 81.8289 331.836 81.5963 332.042L81.3087 332.31C81.0735 332.535 80.8107 332.798 80.5272 333.097C79.7157 333.95 78.9038 334.913 78.1468 335.961C75.2226 340.011 73.9447 344.109 75.1882 347.881C75.267 348.12 75.3559 348.357 75.4552 348.593C75.5759 348.879 75.4417 349.209 75.1554 349.329C74.8692 349.45 74.5393 349.316 74.4186 349.03C74.3076 348.766 74.208 348.501 74.1198 348.233C72.7393 344.046 74.1208 339.615 77.2348 335.302C78.0233 334.21 78.8673 333.21 79.7117 332.322C79.9338 332.088 80.1442 331.874 80.34 331.682L80.6908 331.346C80.7604 331.281 80.8141 331.232 80.8504 331.2Z" fill="#7C5B4D"/>
<path fill-rule="evenodd" clip-rule="evenodd" d="M324.569 542.82C314.112 549.21 301.481 556.335 266.765 563.868C248.673 567.792 224.922 567.343 199.179 564.067C145.637 557.253 168.518 487.108 168.518 487.108C165.344 473.134 165.381 457.851 165.381 457.851C152.823 423.396 158.448 387.681 158.448 387.681C177.032 379.233 184.632 375.855 202.568 374.355C212.973 373.485 224.838 390.942 235.919 389.512C249.269 387.79 255.063 363.741 269.223 365.211C285.624 366.913 309.71 366.823 325.694 373.32C341.396 385.02 339.512 465.097 333.086 509.125C333.086 509.125 344.841 530.431 324.569 542.82Z" fill="#E4EBF7"/>
<path fill-rule="evenodd" clip-rule="evenodd" d="M207.496 381.243C207.496 381.243 217.842 433.893 231.222 457.416C254.032 400.324 269.139 365.793 269.958 365.58L234.633 387.141L207.496 381.243Z" fill="white"/>
<path fill-rule="evenodd" clip-rule="evenodd" d="M219.679 396.087L231.556 384.919L247.142 394.579L240.682 406.464L223.808 408.532L219.679 396.087Z" fill="black"/>
<path fill-rule="evenodd" clip-rule="evenodd" d="M218.417 425.462L224.085 408.329L240.866 406.369L246.549 418.774L231.978 459.028L218.417 425.462Z" fill="black"/>
<path fill-rule="evenodd" clip-rule="evenodd" d="M212.251 401.804L232.99 385.208L209.033 371.849L205.823 375.908L212.251 401.804Z" fill="white"/>
<path fill-rule="evenodd" clip-rule="evenodd" d="M232.989 385.207L254.265 397.46L270.377 365.53L265.593 360.986L232.989 385.207Z" fill="white"/>
<path fill-rule="evenodd" clip-rule="evenodd" d="M211.557 402.99L232.102 384.886L208.303 369.871L204.936 375.586L211.557 402.99Z" fill="white"/>
<path d="M233.349 384.786L208.049 368.824L204.135 375.467L211.119 404.374L233.349 384.786ZM208.555 370.917L230.853 384.985L211.992 401.604L205.734 375.704L208.555 370.917Z" fill="#E4EBF7"/>
<path fill-rule="evenodd" clip-rule="evenodd" d="M232.102 384.885L254.96 399.618L271 365.853L264.824 358.73L232.102 384.885Z" fill="white"/>
<path d="M271.887 365.733L264.918 357.694L230.818 384.951L255.271 400.711L271.887 365.733ZM264.729 359.766L270.112 365.974L254.648 398.525L233.385 384.82L264.729 359.766Z" fill="#E4EBF7"/>
<path d="M231.188 457.232C231.564 457.181 231.913 457.419 232.011 457.775L232.031 457.875L236.315 489.69C236.332 489.811 236.318 489.935 236.276 490.05L236.154 490.391L236.011 490.803C235.833 491.323 235.639 491.914 235.431 492.573L235.304 492.976C234.571 495.331 233.838 497.982 233.153 500.869C230.582 511.709 229.392 522.732 230.346 532.997C231.469 545.078 235.51 555.103 243.018 562.414C243.314 562.703 243.321 563.178 243.032 563.474C242.743 563.771 242.268 563.778 241.971 563.489C234.181 555.902 230.006 545.545 228.853 533.136C227.881 522.686 229.088 511.509 231.693 500.523C232.317 497.893 232.981 495.457 233.649 493.256L233.872 492.531C234.045 491.973 234.211 491.458 234.366 490.989L234.646 490.161L234.804 489.709L230.545 458.075C230.494 457.699 230.732 457.35 231.088 457.252L231.188 457.232Z" fill="#A3B5D6"/>
<path d="M164.077 451.58C164.454 451.533 164.8 451.774 164.895 452.132L164.914 452.232L169.557 489.534C169.572 489.657 169.556 489.782 169.511 489.898L169.339 490.362L169.061 491.149C168.982 491.378 168.9 491.619 168.816 491.874L168.687 492.265C168.064 494.177 167.44 496.337 166.858 498.698C164.445 508.486 163.47 518.507 164.759 527.838C167.044 544.388 176.137 556.387 193.817 562.002L194.537 562.168L195.173 562.307C195.51 562.379 195.873 562.455 196.262 562.533L196.66 562.613C198.986 563.074 201.678 563.536 204.7 563.967C216.948 565.713 230.644 566.444 245.142 565.581C264.46 564.43 283.291 560.527 300.989 553.294C309.877 549.662 318.369 545.227 326.41 539.941C326.756 539.714 327.221 539.81 327.449 540.156C327.677 540.502 327.58 540.967 327.234 541.194C319.11 546.535 310.533 551.015 301.557 554.683C283.696 561.982 264.705 565.918 245.231 567.078C230.626 567.948 216.83 567.211 204.488 565.452C201.439 565.017 198.721 564.551 196.368 564.084L195.209 563.848C194.85 563.773 194.516 563.701 194.21 563.632L193.506 563.469C193.472 563.461 193.44 563.453 193.41 563.445C175.101 557.632 165.634 545.139 163.273 528.043C161.955 518.498 162.947 508.296 165.402 498.339C165.993 495.941 166.627 493.746 167.261 491.8L167.52 491.02C167.604 490.773 167.684 490.539 167.762 490.318L168.044 489.533L163.426 452.417C163.379 452.04 163.62 451.694 163.977 451.599L164.077 451.58Z" fill="#A3B5D6"/>
<path d="M270.772 365.426C270.981 365.068 271.441 364.948 271.798 365.158C272.155 365.367 272.275 365.827 272.066 366.184L271.621 366.952C267.724 373.748 262.815 384.189 257.131 397.539C255.595 401.146 254.014 404.938 252.395 408.895C247.835 420.039 243.174 431.981 238.663 443.923L237.244 447.693C236.784 448.92 236.337 450.115 235.905 451.277L233.572 457.588L232.749 459.843C232.529 460.45 231.695 460.514 231.385 459.948C226.636 451.257 221.863 439.186 217.155 424.584C213.852 414.341 210.76 403.416 207.95 392.448L207.392 390.254C206.516 386.789 205.723 383.533 205.018 380.545L204.413 377.951L203.666 374.646C203.578 374.242 203.834 373.842 204.239 373.754C204.61 373.673 204.977 373.882 205.103 374.229L205.144 374.384L205.379 375.442C205.555 376.223 205.758 377.112 205.987 378.1L206.478 380.201C207.181 383.181 207.972 386.429 208.846 389.886C211.795 401.56 215.07 413.232 218.582 424.123L219.194 426.006C223.276 438.458 227.399 448.964 231.495 456.948L231.913 457.753L233.55 453.31C234.474 450.813 235.474 448.133 236.54 445.302L237.26 443.392C241.775 431.439 246.441 419.485 251.007 408.327C252.426 404.859 253.816 401.517 255.171 398.315L256.406 395.418C262.053 382.24 266.914 372.006 270.772 365.426Z" fill="#A3B5D6"/>
<path d="M263.044 489.351C263.441 489.231 263.859 489.456 263.979 489.853C264.098 490.249 263.874 490.668 263.477 490.787C242.705 497.05 226.036 498.473 214.034 497.165L213.26 497.075C213.014 497.044 212.781 497.013 212.559 496.982L211.932 496.887C211.573 496.829 211.328 496.784 211.199 496.756C210.794 496.67 210.535 496.272 210.621 495.867C210.707 495.462 211.105 495.203 211.51 495.289L212.034 495.384L212.773 495.497C213.199 495.558 213.673 495.617 214.197 495.674C226.002 496.96 242.469 495.554 263.044 489.351Z" fill="#A3B5D6"/>
<path d="M250.848 480.451C251.252 480.362 251.652 480.618 251.741 481.022C251.83 481.427 251.574 481.827 251.17 481.916L250.813 481.99C249.609 482.227 247.703 482.491 245.17 482.779L243.923 482.917C241.695 483.159 239.092 483.412 236.191 483.674C233.137 483.949 229.892 484.221 226.623 484.48L220.235 484.967C219.821 484.997 219.462 484.686 219.433 484.273C219.403 483.86 219.714 483.501 220.127 483.471L224.459 483.145L227.901 482.873C230.225 482.686 232.525 482.493 234.739 482.297L238.169 481.986C239.766 481.836 241.256 481.69 242.621 481.547L244.59 481.335C247.552 481.003 249.691 480.705 250.848 480.451Z" fill="#A3B5D6"/>
<path d="M158.926 425.287C159.339 425.257 159.697 425.569 159.727 425.982C160.456 436.277 162.052 445.622 164.711 453.31C164.846 453.702 164.639 454.129 164.247 454.264C163.856 454.399 163.429 454.192 163.293 453.8C160.586 445.969 158.968 436.503 158.23 426.088C158.201 425.675 158.512 425.316 158.926 425.287Z" fill="#A3B5D6"/>
<path fill-rule="evenodd" clip-rule="evenodd" d="M402.363 489.516C406.371 495.489 415.558 497.681 422.881 494.411C430.204 491.141 432.892 483.65 428.883 477.677C424.873 471.704 415.687 469.514 408.364 472.782C401.041 476.052 398.353 483.545 402.363 489.516Z" fill="#B0927B"/>
<path d="M124.013 400.694C124.351 400.522 124.759 400.633 124.968 400.937L125.02 401.025L143.275 437.161C143.462 437.531 143.314 437.982 142.944 438.169C142.605 438.34 142.198 438.23 141.988 437.925L141.936 437.838L123.681 401.701C123.495 401.331 123.643 400.88 124.013 400.694Z" fill="#A3B5D6"/>
<path fill-rule="evenodd" clip-rule="evenodd" d="M403.518 440.93C409.862 424.444 402.12 405.884 385.943 398.794L328.223 373.493C310.511 365.729 289.878 374.042 282.497 391.916C275.1 409.828 283.904 430.315 301.989 437.273L360.806 459.905C377.84 466.46 396.963 457.964 403.518 440.93Z" fill="#E4EBF7"/>
<path d="M311.722 375.262C312.05 375.008 312.521 375.069 312.774 375.396C313.027 375.724 312.967 376.195 312.639 376.448L312.534 376.533C312.447 376.606 312.325 376.711 312.172 376.849C311.782 377.202 311.345 377.632 310.872 378.142C309.514 379.607 308.152 381.41 306.879 383.562C300.849 393.758 298.926 407.601 303.615 425.501C303.72 425.902 303.48 426.312 303.079 426.417C302.679 426.522 302.269 426.282 302.164 425.881C297.374 407.594 299.354 393.34 305.588 382.798C306.917 380.551 308.343 378.664 309.772 377.122C310.191 376.67 310.587 376.274 310.951 375.934L311.166 375.736C311.425 375.503 311.614 375.345 311.722 375.262Z" fill="#A3B5D6"/>
<path fill-rule="evenodd" clip-rule="evenodd" d="M97.879 475.12C108.466 489.26 128.299 492.577 142.911 482.65L196.254 446.401C211.581 435.986 215.35 415.009 204.61 399.908L202.899 397.502C192.136 382.373 171.027 379.076 156.163 390.203L104.53 428.857C89.9185 439.796 86.941 460.508 97.879 475.12Z" fill="#E4EBF7"/>
<path fill-rule="evenodd" clip-rule="evenodd" d="M88.4288 359.656L62.4128 371.971C55.6313 375.183 52.5803 383.163 55.4918 390.078L90.2333 472.62C97.8668 488.748 117.13 495.633 133.258 487.998C149.386 480.364 156.272 461.1 148.637 444.972L106.82 365.781C103.318 359.146 95.2103 356.446 88.4288 359.656Z" fill="#E4EBF7"/>
<path fill-rule="evenodd" clip-rule="evenodd" d="M417.92 641.87L503.961 582.008C506.242 580.421 506.803 577.285 505.217 575.006L463.205 514.62C461.616 512.339 458.483 511.777 456.202 513.363L370.162 573.226C367.882 574.812 367.32 577.948 368.906 580.228L410.919 640.613C412.504 642.894 415.64 643.456 417.92 641.87Z" fill="#AEAEB2"/>
<path fill-rule="evenodd" clip-rule="evenodd" d="M420.85 639.831L506.89 579.97C509.171 578.383 509.733 575.248 508.146 572.968L466.134 512.582C464.546 510.301 461.412 509.74 459.131 511.325L373.092 571.187C370.811 572.775 370.249 575.91 371.835 578.19L413.848 638.576C415.434 640.856 418.569 641.418 420.85 639.831Z" fill="#8E8E93"/>
<path fill-rule="evenodd" clip-rule="evenodd" d="M446.732 520.243C446.732 520.243 434.983 494.512 421.693 494.301C409.658 494.108 407.333 509.434 407.333 509.434C407.333 509.434 408.604 518.527 409.606 531.504C410.122 538.186 403.218 552.005 406.882 549.022C414.196 543.071 416.447 541.468 420.065 538.818C427.396 533.454 440.48 562.175 444.327 565.626C451.848 572.37 461.059 551.001 446.732 520.243Z" fill="#B0927B"/>
<path d="M436.716 538.634C436.475 538.83 436.438 539.184 436.634 539.425L437.02 539.919L437.414 540.444C437.621 540.723 437.841 541.026 438.072 541.353C441.844 546.674 445.206 552.997 447.08 559.684C447.424 560.912 447.71 562.133 447.934 563.345C447.99 563.65 448.284 563.852 448.589 563.795C448.895 563.739 449.097 563.445 449.04 563.14C448.81 561.895 448.516 560.641 448.163 559.38C446.249 552.55 442.83 546.12 438.99 540.702L438.533 540.067C438.46 539.967 438.388 539.869 438.318 539.774L437.739 539.009C437.635 538.875 437.557 538.777 437.507 538.716C437.331 538.499 437.026 538.447 436.791 538.582L436.716 538.634Z" fill="#7C5B4D"/>
<path d="M441.773 532.465C441.514 532.636 441.442 532.985 441.613 533.244C445.925 539.781 448.876 546.14 450.722 551.988C451.163 553.387 451.509 554.66 451.77 555.79L451.864 556.207C451.94 556.55 452.002 556.859 452.053 557.131L452.152 557.705C452.195 558.012 452.479 558.227 452.786 558.184C453.094 558.141 453.309 557.857 453.266 557.549L453.197 557.132L453.117 556.705C453.088 556.554 453.055 556.394 453.019 556.225L452.963 555.965C452.686 554.702 452.302 553.256 451.794 551.649C449.918 545.706 446.924 539.251 442.553 532.625C442.381 532.366 442.033 532.294 441.773 532.465Z" fill="#7C5B4D"/>
<path d="M444.528 525.553C444.281 525.741 444.233 526.094 444.421 526.342L444.644 526.653C444.719 526.761 444.809 526.892 444.911 527.046C447.359 530.717 450.201 536.425 452.897 544.313C452.997 544.607 453.317 544.764 453.611 544.664C453.905 544.563 454.062 544.244 453.961 543.95C451.31 536.189 448.508 530.497 446.057 526.739L445.847 526.422C445.595 526.043 445.415 525.791 445.316 525.661C445.147 525.438 444.844 525.377 444.605 525.504L444.528 525.553Z" fill="#7C5B4D"/>
<path fill-rule="evenodd" clip-rule="evenodd" d="M406.372 511.359L432.462 501.442C439.263 498.858 442.362 492.363 439.492 486.709L405.244 419.226C397.707 406.035 378.484 400.326 362.31 406.473C346.137 412.621 339.136 428.296 346.675 441.487L388.017 506.274C391.48 511.702 399.571 513.943 406.372 511.359Z" fill="#E4EBF7"/>
<path d="M317.053 442.74C317.205 442.355 317.641 442.167 318.026 442.319L321.207 443.573C330.973 447.407 339.523 450.612 346.856 453.231L349.649 454.221C351.267 454.79 352.747 455.301 354.089 455.758L356.358 456.521L358.519 457.224C358.654 457.266 358.774 457.346 358.865 457.452L358.928 457.537L390.567 507.175C390.79 507.524 390.687 507.988 390.338 508.21C390.02 508.413 389.608 508.346 389.369 508.07L389.302 507.981L357.809 458.572L356.23 458.058L354.105 457.348C352.629 456.848 350.977 456.278 349.152 455.636L346.353 454.644C338.217 451.738 328.591 448.114 317.474 443.714C317.089 443.561 316.9 443.125 317.053 442.74Z" fill="#A3B5D6"/>
</svg>
