<svg width="512" height="1024" viewBox="0 0 512 1024" fill="none" xmlns="http://www.w3.org/2000/svg">
<path fill-rule="evenodd" clip-rule="evenodd" d="M262.07 679.97L302.138 652.754C304.922 650.864 306.633 647.39 306.632 643.634L314.799 605.954C314.799 605.954 253.496 586.106 224.175 597.014C215.156 600.371 213.438 626.303 213.438 626.303C205.214 632.474 214.566 649.044 215.973 651.246C220.284 658.001 232.914 662.439 253.073 678.386C255.807 680.549 259.28 682.037 262.07 679.97Z" fill="black"/>
<path d="M258.359 594.701C258.189 594.507 257.909 594.468 257.695 594.595L257.619 594.651L254.239 597.605C254.021 597.795 253.999 598.126 254.19 598.344C254.359 598.538 254.639 598.577 254.853 598.45L254.929 598.394L258.309 595.441C258.527 595.25 258.549 594.919 258.359 594.701Z" fill="black"/>
<path fill-rule="evenodd" clip-rule="evenodd" d="M236.914 765.357L248.344 674.092C250.928 655.239 268.025 642.333 284.632 646.702C299.005 650.484 307.663 665.952 304.466 682.132L286.499 773.053C286.499 773.053 282.667 799.186 257.971 795.1C233.954 791.125 236.914 765.357 236.914 765.357Z" fill="black"/>
<path fill-rule="evenodd" clip-rule="evenodd" d="M249.166 442.846L250.861 442.807C249.593 452.258 287.989 453.571 293.941 442.595C294.091 442.315 294.209 442.054 294.311 441.802L298.988 441.694L300.683 606.307C300.683 606.307 260.389 602.264 224.731 604.868C210.989 473.464 249.166 442.846 249.166 442.846Z" fill="#FE4040"/>
<path fill-rule="evenodd" clip-rule="evenodd" d="M327.494 777.657C327.588 770.097 334.164 764.261 341.681 765.081C354.528 766.485 374.309 768.39 392.769 769.133C409.313 769.799 420.563 766.985 424.956 770.099C429.693 773.456 426.038 780.993 432.174 786.801C438.309 792.609 443.01 796.784 440.081 813.201C436.653 832.401 430.899 815.742 422.487 807.197C407.633 792.105 400.811 790.47 390.257 790.023C368.639 789.108 352.025 789.815 341.195 790.596C333.725 791.135 327.402 785.147 327.494 777.657Z" fill="#FFC999"/>
<path fill-rule="evenodd" clip-rule="evenodd" d="M256.141 746.017L384.856 761.119C387.933 761.48 390.36 764.342 390.579 767.867L392.122 792.742C392.382 796.933 389.457 800.423 385.786 800.302L258.262 796.099C258.262 796.099 236.577 796.316 236.902 769.78C237.205 745.025 256.141 746.017 256.141 746.017Z" fill="black"/>
<path fill-rule="evenodd" clip-rule="evenodd" d="M408.838 768.982C408.838 768.982 412.486 771.532 420.306 780.543C426.472 787.648 430.219 792.279 428.632 796.333C425.739 803.736 424.344 809.407 424.344 809.407C424.344 809.407 428.049 816.066 432.127 821.025C436.206 825.982 442.593 825.142 443.973 813.838C445.353 802.533 444.468 796.093 435.946 785.712C427.426 775.33 430.641 770.578 425.914 769.086C418.527 766.755 408.838 768.982 408.838 768.982Z" fill="black"/>
<path fill-rule="evenodd" clip-rule="evenodd" d="M391.046 760.402L393.577 801.184C393.632 802.048 392.947 802.777 392.08 802.777L374.524 802.783C373.732 802.783 373.076 802.167 373.027 801.376L370.337 758.037C370.279 757.089 371.107 756.324 372.049 756.46L389.764 759.01C390.467 759.112 391.003 759.693 391.046 760.402Z" fill="#4E5C93"/>
<path fill-rule="evenodd" clip-rule="evenodd" d="M163.061 734.843C170.616 734.595 176.745 740.901 176.265 748.445C175.446 761.343 174.437 781.19 174.53 799.664C174.612 816.221 177.933 827.333 175.022 831.863C171.882 836.747 164.187 833.436 158.663 839.829C153.138 846.221 149.18 851.105 132.648 848.923C113.313 846.368 129.695 839.864 137.849 831.076C152.253 815.554 153.797 808.574 152.922 798.045C151.269 778.163 148.922 760.82 147.653 750.037C146.777 742.598 155.576 735.089 163.061 734.843Z" fill="#FFC999"/>
<path fill-rule="evenodd" clip-rule="evenodd" d="M175.408 815.711C175.408 815.711 173.026 819.47 164.377 827.688C157.558 834.171 153.103 838.122 148.979 836.723C141.452 834.165 135.725 833.03 135.725 833.03C135.725 833.03 129.241 837.03 124.472 841.329C119.704 845.63 120.832 851.97 132.188 852.837C143.543 853.704 149.938 852.53 159.922 843.548C169.907 834.566 174.799 837.563 176.075 832.773C178.07 825.288 175.408 815.711 175.408 815.711Z" fill="black"/>
<path fill-rule="evenodd" clip-rule="evenodd" d="M179.187 649.585L178.985 792.808L141.398 797.031L129.54 656.535C129.54 656.535 126.666 631.899 153.152 629.865C177.855 627.969 179.187 649.585 179.187 649.585Z" fill="black"/>
<path fill-rule="evenodd" clip-rule="evenodd" d="M179.176 797.126L141.857 801.047C140.059 801.236 138.442 799.94 138.233 798.145L136.61 784.159C136.398 782.335 137.717 780.688 139.544 780.496L178.895 776.363C180.881 776.155 182.595 777.743 182.537 779.74L182.131 793.939C182.081 795.592 180.82 796.954 179.176 797.126Z" fill="#4E5C93"/>
<path fill-rule="evenodd" clip-rule="evenodd" d="M291.857 389.626C291.857 389.626 293.45 358.432 254.75 363.144C233.288 367.231 236.77 403.171 236.77 403.171C236.77 403.171 235.885 410.851 239.366 418.392C243.265 426.838 251.77 429.069 262.735 429.148C282.896 426.76 290.126 414.967 290.126 414.967C290.126 414.967 304.138 414.856 301.52 397.434C298.982 381.28 291.857 389.626 291.857 389.626Z" fill="#FFC999"/>
<path fill-rule="evenodd" clip-rule="evenodd" d="M286.871 368.609C287.367 376.568 294.221 382.616 302.18 382.118C310.139 381.621 316.187 374.766 315.69 366.809C315.192 358.851 308.339 352.802 300.38 353.298C292.421 353.796 286.373 360.65 286.871 368.609Z" fill="black"/>
<path fill-rule="evenodd" clip-rule="evenodd" d="M237.028 404.279C237.028 404.279 231.783 396.369 228.331 386.763C224.88 377.159 242.277 356.43 244.704 354.695C247.129 352.959 248.293 351.302 266.044 356.529C317.7 355.373 308.425 403.346 308.425 403.346C308.425 403.346 314.695 407.313 311.955 419.207C308.581 431.139 292.476 432.554 292.476 432.554L290.773 414.323C290.773 414.323 296.25 414.392 299.959 407.825C303.667 401.256 299.643 393.809 297.079 393.335C294.726 391.79 289.159 392.984 289.579 399.728C289.792 403.122 282.853 395.916 279.516 383.148C261.312 380.799 256.024 368.561 256.024 368.561C256.024 368.561 256.141 380.591 259.297 385.464C249.652 383.214 244.288 378.48 245.532 373.017C235.098 378.422 237.028 404.279 237.028 404.279Z" fill="black"/>
<path fill-rule="evenodd" clip-rule="evenodd" d="M292.839 436.416L290.46 407.595L255.001 410.632C255.001 410.632 256.3 429.219 256.068 436.807C233.745 450.963 285.028 461.074 296.217 445.989C299.673 441.33 292.839 436.416 292.839 436.416Z" fill="#FFC999"/>
<path fill-rule="evenodd" clip-rule="evenodd" d="M257.001 397.156C258.096 404.017 263.802 408.809 269.744 407.86C275.685 406.91 279.612 400.579 278.517 393.718C277.421 386.857 271.716 382.064 265.775 383.014C259.833 383.963 255.906 390.295 257.001 397.156Z" fill="white"/>
<path d="M279.258 393.6C280.415 400.849 276.238 407.582 269.862 408.601C263.486 409.62 257.417 404.522 256.261 397.274C255.104 390.026 259.281 383.292 265.656 382.274C272.032 381.255 278.099 386.351 279.258 393.6ZM265.893 383.755C260.386 384.635 256.709 390.564 257.742 397.038C258.775 403.511 264.118 408 269.625 407.12C275.132 406.24 278.81 400.311 277.777 393.836C276.742 387.362 271.4 382.875 265.893 383.755Z" fill="black"/>
<path fill-rule="evenodd" clip-rule="evenodd" d="M232.773 397.738C233.868 404.599 239.266 409.44 244.83 408.552C250.392 407.662 254.013 401.38 252.918 394.519C251.82 387.658 246.423 382.816 240.861 383.706C235.297 384.594 231.678 390.877 232.773 397.738Z" fill="white"/>
<path d="M253.658 394.401C254.814 401.641 250.957 408.332 244.948 409.293C238.937 410.252 233.187 405.096 232.032 397.857C230.876 390.616 234.732 383.925 240.742 382.965C246.751 382.004 252.499 387.161 253.658 394.401ZM240.979 384.447C235.863 385.263 232.478 391.137 233.513 397.62C234.548 404.102 239.595 408.628 244.711 407.811C249.826 406.993 253.211 401.12 252.177 394.638C251.139 388.155 246.093 383.629 240.979 384.447Z" fill="black"/>
<path d="M255.218 398.918C255.002 398.741 254.695 398.749 254.49 398.923L254.418 398.996L250.747 403.457C250.566 403.677 250.579 403.992 250.762 404.197L250.839 404.268L255.352 407.753C255.601 407.944 255.958 407.899 256.15 407.65C256.32 407.429 256.303 407.122 256.122 406.922L256.047 406.853L251.998 403.726L255.296 399.718C255.473 399.503 255.465 399.196 255.291 398.99L255.218 398.918Z" fill="#DD936F"/>
<path d="M264.523 409.21C264.387 408.819 263.96 408.611 263.569 408.747L263.324 408.829C263.187 408.874 263.014 408.93 262.809 408.994C262.209 409.181 261.56 409.368 260.887 409.542C260.012 409.769 259.163 409.957 258.366 410.093C256.997 410.328 255.858 410.395 255.05 410.267C254.64 410.203 254.256 410.482 254.192 410.891C254.127 411.301 254.407 411.685 254.816 411.749C255.818 411.907 257.103 411.831 258.619 411.572C259.461 411.428 260.35 411.231 261.263 410.994C261.787 410.859 262.295 410.716 262.78 410.571L263.552 410.332C263.778 410.26 263.95 410.202 264.06 410.164C264.451 410.029 264.658 409.602 264.523 409.21Z" fill="#F5222D"/>
<path fill-rule="evenodd" clip-rule="evenodd" d="M256.631 393.887C256.631 393.887 254.657 392.741 253.047 394.11Z" fill="white"/>
<path d="M256.631 393.887C256.631 393.887 254.657 392.741 253.047 394.11" stroke="black" stroke-width="1.5" stroke-linecap="round" stroke-linejoin="round"/>
<path d="M275.14 426.169C275.048 425.869 274.73 425.7 274.43 425.792C272.889 426.265 271.105 426.674 269.126 427.021C266.59 427.467 263.869 427.792 261.147 428.014C260.576 428.061 260.028 428.101 259.511 428.135L258.04 428.22C257.809 428.231 257.635 428.238 257.523 428.242C257.21 428.253 256.964 428.516 256.975 428.83C256.986 429.144 257.249 429.39 257.563 429.379L258.242 429.348L258.578 429.331C259.382 429.286 260.276 429.226 261.24 429.148C263.994 428.923 266.749 428.594 269.323 428.141C271.344 427.786 273.173 427.367 274.763 426.879C275.064 426.787 275.232 426.469 275.14 426.169Z" fill="#DD936F"/>
<path fill-rule="evenodd" clip-rule="evenodd" d="M263.048 394.989C263.153 396.696 263.996 398.032 264.926 397.974C265.857 397.917 266.525 396.486 266.42 394.777C266.313 393.07 265.47 391.734 264.54 391.792C263.609 391.851 262.941 393.282 263.048 394.989Z" fill="black"/>
<path fill-rule="evenodd" clip-rule="evenodd" d="M241.146 396.638C241.252 398.345 242.094 399.683 243.025 399.625C243.957 399.566 244.624 398.135 244.518 396.428C244.411 394.721 243.57 393.385 242.638 393.442C241.708 393.5 241.039 394.931 241.146 396.638Z" fill="black"/>
<path d="M278.517 393.718L288.333 393.316" stroke="black" stroke-width="1.5" stroke-linecap="round" stroke-linejoin="round"/>
<path fill-rule="evenodd" clip-rule="evenodd" d="M172.234 551.896C162.536 545.629 159.755 532.687 166.021 522.99L201.916 467.446C208.183 457.749 221.125 454.968 230.822 461.235C240.518 467.502 243.299 480.444 237.032 490.141L201.14 545.685C194.873 555.382 181.931 558.163 172.234 551.896Z" fill="#E4EBF7"/>
<path d="M254.569 455.946C254.281 455.81 253.939 455.933 253.803 456.221C253.668 456.508 253.791 456.851 254.078 456.986C254.891 457.369 255.714 457.721 256.549 458.042C265.568 461.509 275.178 461.286 284.257 458.832C285.712 458.438 287.027 458.017 288.178 457.595C288.481 457.483 288.757 457.378 289.004 457.28L289.622 457.024C289.912 456.895 290.042 456.555 289.913 456.265C289.783 455.975 289.443 455.844 289.153 455.974L288.807 456.119C288.516 456.238 288.173 456.371 287.782 456.514C286.661 456.925 285.379 457.337 283.957 457.721C275.093 460.117 265.719 460.335 256.962 456.968C256.153 456.657 255.356 456.317 254.569 455.946Z" fill="#FE4040"/>
<path fill-rule="evenodd" clip-rule="evenodd" d="M256.014 438.261C256.014 438.261 242.199 462.197 242.178 550.323C242.158 638.576 201.049 639.702 201.049 639.702L177.961 645.333C177.961 645.333 202.423 626.325 203.551 581.454C205.605 499.733 207.027 477.417 213.928 459.234C221.614 454.956 229.756 452.049 241.633 445.818C244.519 444.303 249.555 440.189 251.389 439.212C256.372 436.562 256.014 438.261 256.014 438.261Z" fill="#E4EBF7"/>
<path d="M211.282 479.576C210.872 479.515 210.49 479.798 210.429 480.207L210.152 482.147C209.955 483.569 209.737 485.199 209.503 487.024L209.159 489.761C208.495 495.138 207.837 501.059 207.217 507.418C205.237 527.737 204.037 548.443 204.007 568.336C204.006 568.75 204.341 569.087 204.756 569.087C205.17 569.087 205.506 568.752 205.507 568.338C205.537 548.498 206.734 527.838 208.71 507.564L208.959 505.049C209.546 499.237 210.162 493.818 210.78 488.879L211.144 486.031C211.269 485.068 211.389 484.167 211.504 483.328L211.912 480.429C211.974 480.02 211.691 479.638 211.282 479.576Z" fill="#A3B5D6"/>
<path d="M256.2 436.474C256.003 436.15 255.599 436.028 255.26 436.176L255.17 436.223L240.401 445.196C240.221 445.305 240.096 445.484 240.055 445.69L239.948 446.276L239.782 447.278C239.734 447.586 239.684 447.918 239.632 448.273L239.579 448.637C239.248 450.953 238.916 453.758 238.605 457.07L238.543 457.739C236.199 483.402 236.292 520.756 240.46 571.315C240.494 571.728 240.856 572.035 241.269 572.001C241.682 571.967 241.989 571.605 241.955 571.192L241.71 568.179C237.791 519.23 237.747 482.937 240.037 457.876L240.16 456.56C240.451 453.554 240.758 450.988 241.064 448.849L241.216 447.824C241.248 447.612 241.28 447.41 241.311 447.22L241.448 446.406L241.467 446.303L255.949 437.505C256.273 437.308 256.395 436.904 256.247 436.565L256.2 436.474Z" fill="#A3B5D6"/>
<path fill-rule="evenodd" clip-rule="evenodd" d="M94.4577 470.246C94.4577 470.246 110.788 476.532 117.715 468.887C123.99 461.963 117.838 454.872 117.838 454.872C117.838 454.872 112.839 446.853 104.29 440.748C98.6577 436.727 87.1722 430.166 84.6597 432.839C81.3837 436.323 94.8147 442.994 93.3102 446.132C91.7667 449.352 88.8897 448.179 81.4707 447.666C76.8327 447.345 72.3882 445.205 68.4042 445.683C60.6177 446.618 69.1767 462.855 94.4577 470.246Z" fill="#FFC999"/>
<path d="M68.772 447.59C68.5008 447.432 68.1527 447.524 67.9944 447.795C67.8361 448.066 67.9276 448.414 68.1988 448.572C75.1067 452.604 81.6666 453.763 86.9248 453.313L87.2895 453.279C87.6862 453.239 87.9653 453.199 88.1171 453.17C88.4257 453.112 88.629 452.815 88.5712 452.507C88.5133 452.198 88.2162 451.995 87.9076 452.053L87.7733 452.075C87.6359 452.096 87.4354 452.122 87.1754 452.148C82.0806 452.662 75.614 451.584 68.772 447.59Z" fill="#DD936F"/>
<path d="M72.4012 453.738C72.135 453.571 71.7842 453.652 71.6178 453.919C71.4513 454.185 71.5322 454.536 71.7984 454.702L71.9759 454.809L72.1602 454.916C72.4488 455.082 72.7853 455.267 73.167 455.465C74.2542 456.029 75.4876 456.592 76.845 457.118C80.5685 458.561 84.5048 459.452 88.4925 459.521C88.8065 459.526 89.0653 459.276 89.0709 458.962C89.0761 458.648 88.826 458.389 88.5121 458.384C84.6711 458.318 80.8629 457.456 77.2557 456.058C75.9386 455.548 74.7426 455.001 73.6908 454.455C73.4156 454.313 73.1655 454.178 72.9417 454.052L72.492 453.793C72.4528 453.77 72.4225 453.751 72.4012 453.738Z" fill="#DD936F"/>
<path d="M77.9025 460.356C77.6134 460.234 77.2798 460.369 77.1573 460.658C77.0349 460.947 77.1701 461.281 77.4592 461.403C81.1792 462.978 84.5316 463.971 87.486 464.491C89.311 464.812 90.7377 464.915 91.7417 464.892L92.1135 464.875L92.3148 464.819L92.6962 464.641C92.8617 464.567 93.0646 464.479 93.3019 464.379C94.0969 464.044 94.9831 463.709 95.9368 463.396C98.6087 462.52 101.274 461.989 103.747 461.972C107.384 461.948 110.271 463.04 112.193 465.486C112.387 465.733 112.744 465.776 112.991 465.582C113.238 465.388 113.281 465.031 113.087 464.784C110.922 462.028 107.699 460.808 103.739 460.835C101.133 460.853 98.3572 461.406 95.5825 462.316C94.598 462.639 93.683 462.985 92.8607 463.331L92.2664 463.589L91.92 463.747L91.9004 463.749C91.0333 463.787 89.7426 463.712 88.0516 463.434L87.6832 463.371C84.8134 462.866 81.5436 461.898 77.9025 460.356Z" fill="#DD936F"/>
<path fill-rule="evenodd" clip-rule="evenodd" d="M128.022 453.084L101.566 477.222L165.093 551.298C172.875 559.827 186.099 560.431 194.628 552.649C203.157 544.867 203.763 531.645 195.981 523.114L128.022 453.084Z" fill="#E4EBF7"/>
<path d="M128.22 452.188C127.966 451.91 127.551 451.867 127.248 452.071L127.161 452.14L100.705 476.278C100.399 476.557 100.377 477.031 100.657 477.337C100.91 477.616 101.325 477.659 101.629 477.455L101.716 477.386L128.172 453.248C128.478 452.969 128.499 452.494 128.22 452.188Z" fill="#A3B5D6"/>
<path d="M136.699 465.568C136.445 465.29 136.03 465.247 135.727 465.451L135.639 465.52L113.175 486.016C112.869 486.295 112.848 486.769 113.127 487.075C113.381 487.354 113.796 487.397 114.099 487.193L114.186 487.124L136.65 466.628C136.956 466.349 136.978 465.874 136.699 465.568Z" fill="#A3B5D6"/>
<path fill-rule="evenodd" clip-rule="evenodd" d="M244.409 563.699L222.706 495.807C222.347 494.688 221.315 493.922 220.139 493.907L159.28 493.083C157.39 493.058 156.046 494.913 156.659 496.701L179.315 562.79C179.68 563.853 180.658 564.584 181.78 564.633L241.688 567.261C243.587 567.344 244.99 565.511 244.409 563.699Z" fill="#4E5C93"/>
<path fill-rule="evenodd" clip-rule="evenodd" d="M241.201 562.871L219.876 496.161C219.442 494.807 218.191 493.88 216.769 493.86L155.158 493.026C153.835 493.008 152.896 494.307 153.324 495.557L176.295 562.56C176.698 563.738 177.781 564.548 179.023 564.602L237.906 567.183C240.205 567.285 241.903 565.064 241.201 562.871Z" fill="black"/>
<path fill-rule="evenodd" clip-rule="evenodd" d="M211.534 500.288C210.844 501.055 211.093 502.402 212.087 503.296C213.082 504.191 214.447 504.295 215.135 503.528C215.825 502.762 215.576 501.415 214.582 500.521C213.587 499.627 212.222 499.522 211.534 500.288Z" fill="black"/>
<path fill-rule="evenodd" clip-rule="evenodd" d="M212.351 501.09C211.994 501.489 212.123 502.186 212.638 502.651C213.155 503.116 213.865 503.17 214.222 502.773C214.579 502.374 214.45 501.675 213.935 501.211C213.418 500.746 212.708 500.692 212.351 501.09Z" fill="#E4EBF7"/>
<path fill-rule="evenodd" clip-rule="evenodd" d="M338.195 456.258C326.235 450.621 313.152 448.378 305.579 444.156C300.726 441.451 296.822 437.796 293.01 436.561C268.467 546.586 275.325 673.303 280.167 736.558C308.976 740.118 325.115 720.021 325.115 720.021C331.098 725.469 326.291 636.493 331.451 569.245C335.112 521.497 341.252 457.699 338.195 456.258Z" fill="#E4EBF7"/>
<path d="M293.754 435.559C293.411 435.326 292.945 435.414 292.712 435.757C292.5 436.068 292.554 436.482 292.823 436.73L292.91 436.799L304.477 444.667L304.493 445.091L304.516 445.891C304.601 449.727 304.401 454.973 303.713 461.484C302.648 471.562 300.596 482.661 297.334 494.618L296.604 497.25C296.086 499.101 295.567 500.947 295.007 502.919L290.737 517.887C288.578 525.499 287.171 530.722 285.92 535.9C283.307 546.706 281.535 556.874 280.09 569.873C280.044 570.285 280.341 570.656 280.753 570.702C281.164 570.747 281.535 570.451 281.581 570.039C282.974 557.506 284.671 547.63 287.137 537.258L287.621 535.254C288.726 530.749 289.979 526.092 291.773 519.737L296.864 501.869C297.338 500.19 297.79 498.583 298.243 496.958L298.438 496.26C301.921 483.748 304.094 472.149 305.204 461.642C305.924 454.83 306.116 449.375 306.005 445.441L305.969 444.466C305.964 444.355 305.959 444.268 305.954 444.206C305.942 444.014 305.856 443.836 305.717 443.707L305.628 443.636L293.754 435.559Z" fill="#A3B5D6"/>
<path d="M325.565 607.786L299.777 612.132C299.441 612.188 299.19 612.462 299.155 612.793L299.152 612.894L300.769 666.633C300.919 671.628 305.361 675.368 310.276 674.711L310.53 674.673L328.535 671.718C328.943 671.651 329.22 671.266 329.153 670.857C329.092 670.482 328.763 670.218 328.393 670.228L328.292 670.238L310.287 673.193C306.243 673.857 302.534 670.875 302.279 666.819L302.268 666.588L300.671 613.501L325.814 609.265C326.188 609.202 326.451 608.872 326.439 608.503L326.429 608.401C326.366 608.027 326.035 607.764 325.666 607.776L325.565 607.786Z" fill="#A3B5D6"/>
<path fill-rule="evenodd" clip-rule="evenodd" d="M354.107 572.386C365.276 569.464 371.963 558.041 369.043 546.871L348.406 467.968C345.484 456.797 334.061 450.11 322.889 453.032C311.72 455.953 305.033 467.377 307.954 478.547L328.591 557.45C331.513 568.621 342.937 575.308 354.107 572.386Z" fill="#E4EBF7"/>
<path fill-rule="evenodd" clip-rule="evenodd" d="M216.639 561.183C213.178 560.235 211.582 558.446 212.419 555.572C208.419 553.511 209.509 550.008 209.509 550.008C209.509 550.008 201.384 548.48 200.613 544.763C200.313 543.32 201.597 542.051 203.062 542.202C220.719 544.026 234.756 536.924 234.756 536.924C234.756 536.924 229.632 525.666 231.159 521.142C231.609 519.804 233.484 519.669 234.133 520.923C239.692 531.657 252.837 541.59 252.837 541.59C252.837 541.59 267.358 560.801 247.305 564.923C247.305 564.923 232 568.16 222.154 565.719C217.491 564.564 216.639 561.183 216.639 561.183Z" fill="#F4B784"/>
<path d="M222.897 549.12C222.792 548.824 222.468 548.668 222.171 548.773C221.012 549.182 219.714 549.472 218.304 549.655C215.604 550.003 212.705 549.941 209.936 549.624C209.56 549.581 209.21 549.536 208.89 549.49L208.331 549.404C208.224 549.387 208.145 549.373 208.095 549.364C207.786 549.306 207.489 549.51 207.432 549.818C207.374 550.127 207.578 550.424 207.886 550.481L208.408 550.568L208.93 550.643C209.204 550.681 209.497 550.718 209.807 550.754C212.66 551.08 215.646 551.144 218.45 550.782C219.935 550.59 221.309 550.283 222.55 549.845C222.846 549.741 223.001 549.416 222.897 549.12Z" fill="#DD936F"/>
<path d="M223.614 554.767C223.528 554.465 223.213 554.291 222.911 554.377C219.696 555.3 216.357 555.438 213.377 555.118L213.021 555.077C212.693 555.037 212.453 555 212.312 554.974C212.003 554.916 211.706 555.12 211.649 555.429C211.591 555.737 211.795 556.034 212.104 556.092L212.414 556.142L212.808 556.196C212.949 556.214 213.098 556.232 213.256 556.249C216.369 556.583 219.849 556.439 223.225 555.47C223.526 555.383 223.701 555.069 223.614 554.767Z" fill="#DD936F"/>
<path d="M216.707 560.619C216.395 560.581 216.112 560.804 216.074 561.115C216.037 561.427 216.259 561.71 216.571 561.748L217.205 561.819L217.976 561.898C218.108 561.911 218.243 561.924 218.38 561.937L218.794 561.975C219.59 562.046 220.366 562.103 221.097 562.143L221.773 562.175C223.406 562.241 224.612 562.195 225.299 561.998C225.601 561.912 225.775 561.597 225.689 561.295C225.602 560.993 225.288 560.819 224.986 560.905C224.375 561.08 223.003 561.108 221.158 561.007C220.621 560.978 220.057 560.939 219.478 560.892L218.486 560.805L216.854 560.636C216.794 560.629 216.745 560.623 216.707 560.619Z" fill="#DD936F"/>
<path fill-rule="evenodd" clip-rule="evenodd" d="M251.033 538.34L251.74 574.145L349.318 575.22C360.862 574.994 370.036 565.451 369.808 553.907C369.58 542.363 360.038 533.189 348.494 533.417L251.033 538.34Z" fill="#E4EBF7"/>
<path d="M348.456 532.668L250.469 537.602C250.098 537.62 249.802 537.906 249.761 538.266L249.757 538.366L250.463 574.171C250.47 574.544 250.75 574.85 251.111 574.899L251.211 574.906L335.07 575.131C335.484 575.132 335.821 574.797 335.822 574.383C335.823 574.003 335.542 573.689 335.176 573.638L335.074 573.631L251.949 573.407L251.271 539.062L348.532 534.166C348.911 534.147 349.21 533.85 349.241 533.482L349.243 533.38C349.224 533 348.926 532.701 348.558 532.67L348.456 532.668Z" fill="#A3B5D6"/>
<path d="M266.142 540.047C265.763 540.055 265.454 540.343 265.412 540.71L265.407 540.812L266.006 571.216C266.014 571.63 266.356 571.959 266.77 571.951C267.15 571.943 267.458 571.655 267.501 571.288L267.505 571.186L266.907 540.782C266.899 540.368 266.556 540.039 266.142 540.047Z" fill="#A3B5D6"/>
<path fill-rule="evenodd" clip-rule="evenodd" d="M156.069 679.176L243.905 677.891C262.07 677.403 275.9 661.853 273.257 644.886C270.971 630.203 257.048 619.899 241.37 621.291L153.266 629.105C153.266 629.105 128.063 630.029 129.701 654.995C131.291 679.274 156.069 679.176 156.069 679.176Z" fill="black"/>
<path d="M316.113 497.554C315.74 497.62 315.48 497.953 315.496 498.322L315.507 498.424L321.843 533.9C321.916 534.308 322.305 534.579 322.713 534.507C323.087 534.44 323.346 534.107 323.331 533.738L323.32 533.636L316.984 498.16C316.917 497.786 316.584 497.527 316.215 497.542L316.113 497.554Z" fill="#A3B5D6"/>
</svg>
