<svg width="1440" height="900" viewBox="0 0 1440 900" fill="none" xmlns="http://www.w3.org/2000/svg">
<g clip-path="url(#clip0_396_20)">
<rect width="1440" height="900" fill="white"/>
<path d="M513.748 223.803H490.939C488.419 223.803 486.377 225.846 486.377 228.365C486.377 230.884 488.419 232.927 490.939 232.927H513.748C516.268 232.927 518.31 230.884 518.31 228.365C518.31 225.846 516.268 223.803 513.748 223.803Z" fill="#CCD7EE"/>
<path d="M374.156 150.242L452.163 228.249H758.902V342.059" stroke="#CCD7EE" stroke-width="1.14048"/>
<path d="M763.513 264.86C763.513 262.341 761.471 260.298 758.952 260.298C756.432 260.298 754.39 262.341 754.39 264.86C754.39 267.38 756.432 269.422 758.952 269.422C761.471 269.422 763.513 267.38 763.513 264.86Z" fill="#023861"/>
<path d="M763.513 228.365C763.513 225.846 761.471 223.803 758.952 223.803C756.432 223.803 754.39 225.846 754.39 228.365C754.39 230.884 756.432 232.927 758.952 232.927C761.471 232.927 763.513 230.884 763.513 228.365Z" fill="#CCD7EE"/>
<path d="M456.724 228.365C456.724 225.846 454.682 223.803 452.163 223.803C449.643 223.803 447.601 225.846 447.601 228.365C447.601 230.884 449.643 232.927 452.163 232.927C454.682 232.927 456.724 230.884 456.724 228.365Z" fill="#56CCF2"/>
<path d="M533.137 228.365C533.137 225.846 531.094 223.803 528.575 223.803C526.055 223.803 524.013 225.846 524.013 228.365C524.013 230.884 526.055 232.927 528.575 232.927C531.094 232.927 533.137 230.884 533.137 228.365Z" fill="#023861"/>
<path d="M914.183 96.6919V178.671L877.49 215.364V413.977H830.802" stroke="#CCD7EE" stroke-width="1.14048"/>
<path d="M882.123 413.123C882.123 410.603 880.081 408.561 877.561 408.561C875.042 408.561 873 410.603 873 413.123C873 415.642 875.042 417.685 877.561 417.685C880.081 417.685 882.123 415.642 882.123 413.123Z" fill="#CCD7EE"/>
<path fill-rule="evenodd" clip-rule="evenodd" d="M519.322 352.359C519.322 352.275 519.325 352.191 519.325 352.107C519.325 306.442 482.475 269.422 437.017 269.422C403.313 269.422 374.346 289.777 361.617 318.914C358.389 318.355 355.071 318.061 351.684 318.061C319.596 318.061 293.584 344.192 293.584 376.426C293.584 408.661 319.596 434.792 351.684 434.792H523.865C546.593 434.792 565.018 416.282 565.018 393.449C565.018 370.616 546.593 352.107 523.865 352.107C522.329 352.107 520.814 352.194 519.322 352.359Z" fill="url(#paint0_linear_396_20)"/>
<path fill-rule="evenodd" clip-rule="evenodd" d="M958.612 408.404C958.612 408.32 958.609 408.236 958.609 408.152C958.609 362.487 995.46 325.468 1040.92 325.468C1074.62 325.468 1103.59 345.822 1116.32 374.959C1119.55 374.4 1122.86 374.106 1126.25 374.106C1158.34 374.106 1184.35 400.237 1184.35 432.471C1184.35 464.706 1158.34 490.837 1126.25 490.837H954.07C931.341 490.837 912.916 472.327 912.916 449.494C912.916 426.662 931.341 408.152 954.07 408.152C955.605 408.152 957.121 408.24 958.612 408.404Z" fill="url(#paint1_linear_396_20)"/>
<path d="M877.562 215.82V70" stroke="#CCD7EE" stroke-width="1.14048"/>
<path d="M882.123 215.82C882.123 213.3 880.081 211.258 877.561 211.258C875.042 211.258 873 213.3 873 215.82C873 218.339 875.042 220.382 877.561 220.382C880.081 220.382 882.123 218.339 882.123 215.82Z" fill="#CCD7EE"/>
<path d="M882.123 273.984C882.123 271.465 880.081 269.422 877.561 269.422C875.042 269.422 873 271.465 873 273.984C873 276.504 875.042 278.546 877.561 278.546C880.081 278.546 882.123 276.504 882.123 273.984Z" fill="#56CCF2"/>
<path d="M882.123 343.842C882.123 341.322 880.081 339.28 877.561 339.28C875.042 339.28 873 341.322 873 343.842C873 346.361 875.042 348.404 877.561 348.404C880.081 348.404 882.123 346.361 882.123 343.842Z" fill="#56CCF2"/>
<path d="M900.371 465.585C900.371 463.065 898.329 461.023 895.809 461.023C893.29 461.023 891.248 463.065 891.248 465.585C891.248 468.104 893.29 470.147 895.809 470.147C898.329 470.147 900.371 468.104 900.371 465.585Z" fill="#CCD7EE"/>
<path d="M477.517 499.961L450.851 526.627H256" stroke="#E4EBF7" stroke-width="1.14048"/>
<path d="M454.444 527.332C454.444 524.813 452.401 522.771 449.882 522.771C447.362 522.771 445.32 524.813 445.32 527.332C445.32 529.852 447.362 531.894 449.882 531.894C452.401 531.894 454.444 529.852 454.444 527.332Z" fill="#56CCF2"/>
<path d="M668.854 462.325C668.854 459.806 666.811 457.763 664.292 457.763C661.772 457.763 659.73 459.806 659.73 462.325C659.73 464.845 661.772 466.887 664.292 466.887C666.811 466.887 668.854 464.845 668.854 462.325Z" fill="#CCD7EE"/>
<path d="M882.123 178.184C882.123 175.665 880.081 173.622 877.561 173.622C875.042 173.622 873 175.665 873 178.184C873 180.703 875.042 182.746 877.561 182.746C880.081 182.746 882.123 180.703 882.123 178.184Z" fill="#56CCF2"/>
<path d="M880.983 124.581C880.983 122.692 879.451 121.16 877.562 121.16C875.672 121.16 874.14 122.692 874.14 124.581V164.498C874.14 166.388 875.672 167.92 877.562 167.92C879.451 167.92 880.983 166.388 880.983 164.498V124.581Z" fill="#56CCF2"/>
<path d="M880.983 305.405C880.983 303.516 879.451 301.984 877.562 301.984C875.672 301.984 874.14 303.516 874.14 305.405V315.411C874.14 317.3 875.672 318.832 877.562 318.832C879.451 318.832 880.983 317.3 880.983 315.411V305.405Z" fill="#56CCF2"/>
<path d="M882.124 274.554H927.743" stroke="#E4EBF7" stroke-width="1.14048" stroke-linecap="square"/>
<path d="M829.662 465.585L1074.29 466.155" stroke="#E4EBF7" stroke-width="1.14048" stroke-linecap="square"/>
<path d="M895.809 466.155L923.219 493.565H1009.86" stroke="#E4EBF7" stroke-width="1.14048"/>
<path d="M696.93 462.474H664.615L653.446 473.642" stroke="#E4EBF7" stroke-width="1.14048"/>
<path d="M608.408 223.803H547.963C545.443 223.803 543.401 225.846 543.401 228.365C543.401 230.884 545.443 232.927 547.963 232.927H608.408C610.928 232.927 612.97 230.884 612.97 228.365C612.97 225.846 610.928 223.803 608.408 223.803Z" fill="#56CCF2"/>
<path fill-rule="evenodd" clip-rule="evenodd" d="M942.309 766.552H987.827V757.249H942.309V766.552Z" fill="#253368"/>
<path fill-rule="evenodd" clip-rule="evenodd" d="M986.967 662.245L999.157 812.445H988.69L976.501 662.245H986.967ZM953.635 662.245L941.445 812.445H930.979L943.168 662.245H953.635Z" fill="#4E5C93"/>
<path fill-rule="evenodd" clip-rule="evenodd" d="M938.724 672.022C933.324 672.022 928.947 667.645 928.947 662.246C928.947 656.847 933.324 652.469 938.724 652.469H992.368C997.766 652.469 1002.14 656.847 1002.14 662.246C1002.14 667.645 997.766 672.022 992.368 672.022H938.724Z" fill="#A3B5D6"/>
<path fill-rule="evenodd" clip-rule="evenodd" d="M845.974 596.285L859.69 618.066L920.163 582.536C927.186 578.115 929.294 568.838 924.872 561.815C920.45 554.792 911.174 552.684 904.151 557.106L845.974 596.285Z" fill="#E4EBF7"/>
<path d="M903.85 556.659C904.097 556.492 904.432 556.558 904.598 556.805C904.749 557.029 904.709 557.326 904.515 557.504L904.452 557.553L846.387 596.642L859.543 617.534L910.804 586.84C911.038 586.7 911.336 586.758 911.502 586.966L911.544 587.026C911.684 587.26 911.626 587.558 911.418 587.724L911.358 587.765L859.646 618.73C859.417 618.867 859.127 618.815 858.959 618.618L858.913 618.555L845.197 596.774C845.056 596.55 845.1 596.26 845.29 596.087L845.352 596.039L903.85 556.659Z" fill="#A3B5D6"/>
<path d="M855.909 591.733C856.138 591.588 856.434 591.638 856.605 591.837L856.653 591.902L868.298 610.397C868.457 610.649 868.381 610.982 868.129 611.14C867.9 611.284 867.605 611.235 867.433 611.036L867.386 610.971L855.74 592.476C855.582 592.224 855.657 591.891 855.909 591.733Z" fill="#A3B5D6"/>
<path fill-rule="evenodd" clip-rule="evenodd" d="M908.157 584.249C899.994 582.754 894.59 574.924 896.085 566.761L907.511 504.392C909.006 496.229 916.837 490.824 924.999 492.319C933.162 493.815 938.567 501.644 937.071 509.808L925.645 572.177C924.15 580.34 916.319 585.744 908.157 584.249Z" fill="#E4EBF7"/>
<path fill-rule="evenodd" clip-rule="evenodd" d="M971.33 445.365C971.33 445.365 970.568 422.928 943.14 428.662C928.018 432.898 932.705 458.426 932.705 458.426C932.705 458.426 932.54 463.979 935.493 469.167C938.801 474.978 945.028 476.057 952.885 475.445C967.178 472.505 971.636 463.618 971.636 463.618C971.636 463.618 981.664 462.684 978.726 450.366C975.924 438.953 971.33 445.365 971.33 445.365Z" fill="#FFC999"/>
<path fill-rule="evenodd" clip-rule="evenodd" d="M964.862 431.903C965.704 437.571 970.981 441.485 976.651 440.644C982.319 439.802 986.232 434.525 985.391 428.856C984.551 423.187 979.272 419.274 973.603 420.114C967.934 420.956 964.021 426.234 964.862 431.903Z" fill="#253368"/>
<path fill-rule="evenodd" clip-rule="evenodd" d="M932.957 459.203C932.957 459.203 928.718 453.858 925.661 447.19C922.603 440.521 933.797 424.615 935.429 423.225C937.061 421.833 937.793 420.576 950.824 423.236C987.748 419.257 984.031 454.18 984.031 454.18C984.031 454.18 988.765 456.638 987.527 465.322C985.839 474.073 974.392 476.069 974.392 476.069L972.061 463.117C972.061 463.117 975.986 462.833 978.242 457.902C980.497 452.973 977.16 447.884 975.295 447.702C973.515 446.738 969.602 447.933 970.314 452.737C970.673 455.156 965.265 450.418 962.096 441.477C948.916 440.907 944.382 432.464 944.382 432.464C944.382 432.464 945.2 441.073 947.758 444.37C940.713 443.347 936.582 440.285 937.139 436.296C929.997 440.802 932.957 459.203 932.957 459.203Z" fill="#253368"/>
<path fill-rule="evenodd" clip-rule="evenodd" d="M974.886 478.813L971.424 458.318L946.217 462.657C946.217 462.657 947.551 475.493 947.849 480.941C932.727 492.441 970.798 496.95 977.89 485.463C980.08 481.915 974.886 478.813 974.886 478.813Z" fill="#FFC999"/>
<path fill-rule="evenodd" clip-rule="evenodd" d="M946.918 453.957C948.121 458.805 952.501 461.888 956.697 460.846C960.894 459.803 963.321 455.03 962.117 450.183C960.913 445.336 956.535 442.252 952.338 443.295C948.142 444.337 945.715 449.11 946.918 453.957Z" fill="white"/>
<path d="M952.208 442.772C947.704 443.89 945.124 448.967 946.395 454.087C947.666 459.207 952.323 462.488 956.826 461.369C961.331 460.25 963.911 455.174 962.64 450.053C961.387 445.009 956.85 441.751 952.409 442.724L952.208 442.772ZM961.594 450.313C962.729 454.886 960.457 459.356 956.566 460.322C952.677 461.289 948.576 458.401 947.441 453.827C946.306 449.254 948.578 444.784 952.467 443.818C956.358 442.852 960.458 445.739 961.594 450.313Z" fill="#253368"/>
<path fill-rule="evenodd" clip-rule="evenodd" d="M929.601 455.852C930.806 460.7 934.967 463.837 938.896 462.861C942.826 461.886 945.035 457.166 943.832 452.318C942.628 447.472 938.468 444.334 934.537 445.309C930.608 446.285 928.398 451.005 929.601 455.852Z" fill="white"/>
<path d="M934.407 444.786C930.163 445.841 927.809 450.868 929.078 455.982C930.349 461.097 934.781 464.439 939.026 463.385C943.272 462.331 945.625 457.304 944.355 452.189C943.104 447.152 938.787 443.834 934.601 444.741L934.407 444.786ZM943.309 452.448C944.445 457.028 942.38 461.441 938.766 462.338C935.153 463.236 931.262 460.302 930.125 455.723C928.988 451.143 931.054 446.73 934.667 445.833C938.282 444.936 942.172 447.869 943.309 452.448Z" fill="#253368"/>
<path d="M945.18 455.433C945.308 455.247 945.563 455.2 945.748 455.328C945.913 455.442 945.969 455.656 945.889 455.832L945.853 455.897L943.735 458.968L946.826 460.96C946.994 461.068 947.056 461.28 946.982 461.459L946.948 461.525C946.839 461.693 946.627 461.755 946.448 461.681L946.383 461.647L942.938 459.427C942.764 459.314 942.704 459.092 942.789 458.91L942.823 458.851L945.18 455.433Z" fill="#DD936F"/>
<path d="M952.42 462.932C952.692 462.811 953.011 462.934 953.132 463.206C953.253 463.478 953.13 463.796 952.858 463.917L952.455 464.089C952.384 464.118 952.306 464.15 952.221 464.184C951.731 464.383 951.204 464.581 950.662 464.766C950.074 464.968 949.501 465.142 948.958 465.28C947.926 465.542 947.041 465.666 946.335 465.616C946.038 465.595 945.814 465.337 945.835 465.04C945.857 464.743 946.114 464.52 946.411 464.541C946.98 464.581 947.762 464.472 948.692 464.235C949.205 464.104 949.75 463.939 950.313 463.746C950.705 463.612 951.089 463.471 951.456 463.328L951.817 463.185C952.101 463.07 952.309 462.982 952.42 462.932Z" fill="#F5222D"/>
<path fill-rule="evenodd" clip-rule="evenodd" d="M946.362 450.564C946.362 450.564 944.877 449.864 943.81 450.943L946.362 450.564Z" fill="white"/>
<path d="M946.362 450.564C946.362 450.564 944.877 449.864 943.81 450.943" stroke="#253368" stroke-width="1.5" stroke-linecap="round" stroke-linejoin="round"/>
<path d="M961.055 472.328C961.265 472.244 961.503 472.345 961.587 472.554C961.671 472.764 961.57 473.002 961.361 473.086C960.212 473.549 958.878 473.973 957.393 474.361C955.598 474.831 953.678 475.224 951.758 475.545C951.221 475.635 950.714 475.714 950.246 475.782L949.333 475.908C949.278 475.915 949.232 475.921 949.195 475.926C948.971 475.952 948.767 475.793 948.74 475.569C948.713 475.345 948.873 475.141 949.097 475.114L949.789 475.022C950.342 474.945 950.959 474.85 951.623 474.739C953.521 474.422 955.418 474.033 957.186 473.571C958.64 473.191 959.943 472.776 961.055 472.328Z" fill="#DD936F"/>
<path fill-rule="evenodd" clip-rule="evenodd" d="M951.207 453.111C951.387 454.327 952.072 455.233 952.735 455.134C953.398 455.036 953.791 453.97 953.61 452.754C953.429 451.538 952.745 450.632 952.082 450.73C951.418 450.828 951.027 451.895 951.207 453.111Z" fill="#253368"/>
<path fill-rule="evenodd" clip-rule="evenodd" d="M935.623 455.628C935.804 456.844 936.488 457.751 937.151 457.652C937.814 457.554 938.206 456.488 938.026 455.271C937.845 454.056 937.161 453.15 936.498 453.248C935.833 453.347 935.443 454.412 935.623 455.628Z" fill="#253368"/>
<path d="M962.025 449.108L969.03 448.222" stroke="#253368" stroke-width="1.5" stroke-linecap="round" stroke-linejoin="round"/>
<path fill-rule="evenodd" clip-rule="evenodd" d="M952.961 652.177L981.76 635.396C983.761 634.23 984.991 632.088 984.99 629.772L987.919 597.81C987.919 597.81 946.121 574.511 925.083 584.15C918.895 586.985 918.008 619.086 918.008 619.086C912.096 622.89 918.818 633.108 919.83 634.466C922.928 638.631 932.006 641.368 946.495 651.2C948.46 652.535 950.956 653.452 952.961 652.177Z" fill="#253368"/>
<path d="M947.14 607.416C947.308 607.446 947.427 607.593 947.427 607.758L947.421 607.821L946.374 613.618C946.34 613.808 946.159 613.934 945.969 613.899C945.8 613.869 945.682 613.722 945.682 613.557L945.688 613.494L946.735 607.697C946.765 607.529 946.912 607.41 947.077 607.41L947.14 607.416Z" fill="#253368"/>
<path fill-rule="evenodd" clip-rule="evenodd" d="M893.207 656.738L967.078 655.395C982.361 654.959 994.504 643.672 992.847 631.443C991.413 620.856 980.055 613.489 966.83 614.567L892.515 620.62C892.515 620.62 871.302 621.406 871.847 639.413C872.378 656.925 893.207 656.738 893.207 656.738Z" fill="#253368"/>
<path fill-rule="evenodd" clip-rule="evenodd" d="M943.686 481.643L944.905 481.615C944.006 488.933 971.605 489.999 975.87 481.506C975.977 481.29 976.063 481.088 976.135 480.892L979.496 480.815L980.634 603.274C969.098 597.811 959.173 592.623 929.635 594.168C919.588 492.378 943.686 481.643 943.686 481.643Z" fill="#597EF7"/>
<path fill-rule="evenodd" clip-rule="evenodd" d="M919.542 697.748C924.434 695.823 930.213 698.179 931.999 702.833C935.052 710.791 939.914 722.974 945.119 734.072C949.783 744.019 955.055 749.928 954.405 753.338C953.704 757.016 947.73 756.83 945.882 761.976C944.035 767.122 942.795 770.992 931.331 773.561C917.925 776.564 926.871 768.802 929.779 761.596C934.915 748.869 933.867 744.411 930.905 738.06C924.84 725.05 919.271 715.422 915.434 709.229C912.788 704.957 914.694 699.654 919.542 697.748Z" fill="#FFC999"/>
<path fill-rule="evenodd" clip-rule="evenodd" d="M911.293 636.346L947.573 726.863C948.44 729.026 947.459 731.396 945.259 732.448L929.73 739.874C927.115 741.126 923.811 740.052 922.577 737.549L879.677 650.634C879.677 650.634 871.779 636.092 889.051 629.498C905.162 623.346 911.293 636.346 911.293 636.346Z" fill="#253368"/>
<path fill-rule="evenodd" clip-rule="evenodd" d="M950.162 743.526C950.162 743.526 949.645 746.348 946.254 753.326C943.581 758.831 941.755 762.256 938.658 762.381C933.004 762.61 928.927 763.271 928.927 763.271C928.927 763.271 925.784 767.203 923.85 770.911C921.916 774.62 924.421 778.171 932.119 776.026C939.816 773.88 943.687 771.671 947.743 763.919C951.8 756.167 955.845 756.822 955.351 753.64C954.578 748.665 950.162 743.526 950.162 743.526Z" fill="#253368"/>
<path fill-rule="evenodd" clip-rule="evenodd" d="M950.205 730.769L924.747 742.944C924.208 743.202 923.528 742.988 923.261 742.477L917.853 732.109C917.61 731.641 917.804 731.091 918.298 730.856L945.352 717.916C945.945 717.633 946.69 717.922 946.894 718.514L950.705 729.646C950.856 730.088 950.648 730.557 950.205 730.769Z" fill="#4E5C93"/>
<path fill-rule="evenodd" clip-rule="evenodd" d="M876.426 703.339C881.668 704.77 884.541 710.397 882.613 715.479C879.319 724.163 874.422 737.581 870.572 750.289C867.122 761.678 867.048 770.013 864.09 772.508C860.899 775.197 856.316 771.294 851.167 774.515C846.017 777.734 842.263 780.25 831.372 775.249C818.633 769.399 831.262 768.402 838.725 764.093C851.906 756.483 854.276 752.032 856.493 744.77C861.031 729.895 863.54 718.208 864.95 710.534C865.925 705.24 871.233 701.921 876.426 703.339Z" fill="#FFC999"/>
<path fill-rule="evenodd" clip-rule="evenodd" d="M867.776 761.496C867.776 761.496 865.344 763.574 857.663 767.386C851.606 770.394 847.709 772.165 845.174 770.329C840.546 766.978 836.852 764.985 836.852 764.985C836.852 764.985 831.551 766.36 827.366 768.302C823.18 770.246 822.611 774.84 830.227 777.841C837.842 780.842 842.482 781.39 851.243 777.335C860.004 773.281 862.728 776.376 864.62 773.357C867.576 768.639 867.776 761.496 867.776 761.496Z" fill="#253368"/>
<path fill-rule="evenodd" clip-rule="evenodd" d="M904.418 640.432L876.741 742.925C876.08 745.376 873.734 746.981 871.21 746.71L853.399 744.796C850.399 744.473 848.315 741.655 848.885 738.692L868.688 635.778C868.688 635.778 871.396 618.157 890.137 621.8C907.619 625.199 904.418 640.432 904.418 640.432Z" fill="#253368"/>
<path fill-rule="evenodd" clip-rule="evenodd" d="M877.209 748.201L847.866 746.975C847.245 746.949 846.775 746.405 846.838 745.787L848.142 733.235C848.201 732.668 848.69 732.245 849.259 732.269L880.441 733.573C881.125 733.601 881.608 734.251 881.441 734.913L878.3 747.387C878.175 747.883 877.719 748.223 877.209 748.201Z" fill="#4E5C93"/>
<path d="M947.02 491.255C947.117 491.049 947.364 490.96 947.57 491.058C948.136 491.324 948.709 491.569 949.29 491.792C955.585 494.213 962.322 494.057 968.694 492.335C969.588 492.093 970.405 491.836 971.135 491.578L971.443 491.467C971.654 491.39 971.845 491.317 972.015 491.249L972.428 491.079C972.636 490.986 972.881 491.079 972.974 491.288C973.067 491.496 972.973 491.741 972.765 491.834L972.566 491.918L972.492 491.949C972.273 492.038 972.018 492.137 971.727 492.244C970.9 492.547 969.955 492.85 968.909 493.133C962.383 494.897 955.476 495.057 948.994 492.564C948.394 492.334 947.802 492.081 947.218 491.806C947.011 491.708 946.923 491.462 947.02 491.255Z" fill="#597EF7"/>
<path fill-rule="evenodd" clip-rule="evenodd" d="M948.456 479.423C948.456 479.423 937.846 503.203 937.832 566.544C937.817 629.977 920.224 617.541 920.224 617.541L889.263 623.005C889.263 623.005 910.092 613.519 910.902 581.267C912.377 522.53 913.399 506.491 918.36 493.421C923.885 490.348 929.737 488.257 938.273 483.778C940.347 482.691 948.456 479.423 948.456 479.423Z" fill="#E4EBF7"/>
<path d="M917.22 513.794C917.493 513.809 917.706 514.025 917.727 514.29L917.726 514.388L917.614 516.559L917.52 518.568C917.416 520.882 917.313 523.485 917.216 526.351L917.12 529.344C916.6 546.404 916.517 565.094 917.122 584.133C917.132 584.431 916.898 584.679 916.601 584.689C916.303 584.698 916.054 584.465 916.045 584.167C915.439 565.103 915.522 546.392 916.042 529.311L916.139 526.314C916.236 523.445 916.339 520.838 916.443 518.52L916.594 515.371L916.651 514.301C916.668 514.004 916.923 513.776 917.22 513.794Z" fill="#A3B5D6"/>
<path d="M947.315 478.632C947.584 478.505 947.906 478.62 948.033 478.889C948.15 479.136 948.063 479.427 947.84 479.571L947.776 479.607L938.123 484.172L938.033 484.533L938.001 484.665C937.851 485.283 937.684 486.032 937.504 486.912L937.341 487.726C936.88 490.083 936.422 492.881 935.99 496.128L935.835 497.321C933.347 516.948 932.872 543.286 935.637 576.82C935.661 577.117 935.441 577.378 935.144 577.402C934.847 577.426 934.587 577.206 934.562 576.909C931.764 542.958 932.278 516.349 934.843 496.583L934.922 495.986C935.407 492.332 935.927 489.24 936.448 486.695L936.582 486.051C936.67 485.637 936.755 485.257 936.835 484.909L936.992 484.251L937.095 483.842C937.121 483.746 937.138 483.681 937.148 483.647C937.183 483.522 937.262 483.414 937.369 483.343L937.436 483.305L947.315 478.632Z" fill="#A3B5D6"/>
<path fill-rule="evenodd" clip-rule="evenodd" d="M1008.26 497.94C999.757 491.262 989.677 485.619 984.233 482.584C980.747 480.64 977.939 478.013 975.2 477.125C957.56 556.205 962.489 647.283 965.969 692.748C986.675 695.306 1008.47 680 1008.47 680C1012.77 683.915 1002.08 618.645 1002.79 574.436C1003.34 540.021 1010.17 499.441 1008.26 497.94Z" fill="#E4EBF7"/>
<path d="M974.986 476.548C975.138 476.324 975.429 476.251 975.666 476.366L975.735 476.406L984.27 482.211C984.407 482.305 984.493 482.456 984.504 482.621L984.527 483.099L984.532 483.22C984.63 486.067 984.5 490.088 983.965 495.153C983.194 502.453 981.709 510.487 979.349 519.138L979.101 520.035C977.827 524.611 971.35 546.452 969.849 552.208C967.554 561.011 966.05 568.807 965.081 577.531C965.048 577.827 964.781 578.04 964.485 578.008C964.19 577.975 963.976 577.708 964.009 577.412C964.944 568.999 966.373 561.442 968.522 553.037L968.91 551.541C970.588 545.227 976.82 524.207 978.063 519.746C980.55 510.812 982.101 502.533 982.893 495.04C983.388 490.36 983.532 486.589 983.47 483.832L983.442 482.952L975.129 477.297C974.905 477.145 974.832 476.854 974.946 476.617L974.986 476.548Z" fill="#A3B5D6"/>
<path d="M1003.94 601.221C1004.24 601.186 1004.51 601.398 1004.54 601.694C1004.57 601.965 1004.4 602.212 1004.14 602.278L1004.07 602.292L987.313 604.256L988.196 642.397C988.264 645.342 990.864 647.568 993.764 647.208L993.928 647.185L1006.88 645.152C1007.18 645.106 1007.45 645.307 1007.5 645.601C1007.54 645.871 1007.38 646.125 1007.12 646.201L1007.05 646.217L994.095 648.25C990.547 648.808 987.314 646.167 987.125 642.607L987.118 642.422L986.224 603.79C986.219 603.538 986.388 603.318 986.627 603.256L986.701 603.242L1003.94 601.221Z" fill="#A3B5D6"/>
<path fill-rule="evenodd" clip-rule="evenodd" d="M895.29 635.209L958.492 627.763L896.998 606.452L844.733 617.8L895.29 635.209Z" fill="#CCD7EE"/>
<path fill-rule="evenodd" clip-rule="evenodd" d="M893.097 630.737L938.999 625.328L895.415 609.809L856.377 618.092L893.097 630.737Z" fill="#253368"/>
<path fill-rule="evenodd" clip-rule="evenodd" d="M958.326 631.002L958.505 627.784L894.021 634.869L894.971 638.349L958.326 631.002Z" fill="#A3B5D6"/>
<path d="M886.593 612.33C886.643 612.21 886.77 612.145 886.893 612.168L886.945 612.184L922.322 626.771C922.459 626.828 922.525 626.985 922.468 627.123C922.418 627.243 922.292 627.309 922.168 627.285L922.116 627.269L886.74 612.682C886.602 612.626 886.536 612.468 886.593 612.33Z" fill="#CCD7EE"/>
<path d="M891.43 610.612C891.477 610.491 891.603 610.423 891.727 610.445L891.779 610.46L931.366 626.012C931.504 626.066 931.573 626.222 931.518 626.361C931.471 626.482 931.345 626.55 931.221 626.528L931.169 626.513L891.582 610.961C891.444 610.907 891.375 610.751 891.43 610.612Z" fill="#CCD7EE"/>
<path d="M885.923 615.573C885.974 615.453 886.102 615.39 886.225 615.415L886.277 615.431L915.965 628.157C916.102 628.216 916.165 628.375 916.107 628.511C916.055 628.631 915.927 628.695 915.805 628.669L915.753 628.653L886.064 615.927C885.927 615.868 885.864 615.71 885.923 615.573Z" fill="#CCD7EE"/>
<path d="M877.63 616.068C877.682 615.949 877.809 615.885 877.932 615.91L877.984 615.927L907.673 628.654C907.809 628.713 907.873 628.871 907.814 629.008C907.763 629.128 907.635 629.191 907.512 629.166L907.46 629.149L877.772 616.422C877.635 616.363 877.572 616.205 877.63 616.068Z" fill="#CCD7EE"/>
<path d="M869.951 617.064C870.002 616.944 870.13 616.88 870.253 616.906L870.305 616.922L899.993 629.649C900.13 629.708 900.194 629.866 900.135 630.003C900.084 630.123 899.956 630.186 899.833 630.161L899.781 630.145L870.093 617.417C869.956 617.359 869.892 617.2 869.951 617.064Z" fill="#CCD7EE"/>
<path d="M931.617 623.055C931.765 623.043 931.895 623.153 931.908 623.302C931.919 623.431 931.835 623.547 931.715 623.583L931.661 623.593L892.435 626.857C892.287 626.87 892.156 626.759 892.144 626.611C892.133 626.481 892.216 626.365 892.337 626.33L892.39 626.32L931.617 623.055Z" fill="#CCD7EE"/>
<path d="M923.079 619.658C923.227 619.646 923.358 619.756 923.37 619.904C923.381 620.034 923.298 620.15 923.178 620.185L923.124 620.195L883.897 623.461C883.749 623.473 883.619 623.363 883.606 623.214C883.596 623.085 883.679 622.969 883.799 622.933L883.853 622.924L923.079 619.658Z" fill="#CCD7EE"/>
<path d="M912.153 616.398C912.3 616.377 912.437 616.48 912.458 616.627C912.476 616.756 912.4 616.877 912.282 616.919L912.229 616.932L872.143 622.62C871.995 622.641 871.859 622.538 871.838 622.391C871.82 622.262 871.896 622.141 872.014 622.099L872.067 622.086L912.153 616.398Z" fill="#CCD7EE"/>
<path d="M904.601 612.637C904.748 612.615 904.886 612.716 904.908 612.864C904.928 612.992 904.853 613.114 904.735 613.157L904.682 613.17L869.14 618.56C868.992 618.582 868.855 618.481 868.833 618.334C868.813 618.205 868.888 618.084 869.006 618.041L869.059 618.027L904.601 612.637Z" fill="#CCD7EE"/>
<path fill-rule="evenodd" clip-rule="evenodd" d="M894.92 638.35L892.088 638.483L844.267 621.346L827.947 538.706L879.692 551.189L894.92 638.35Z" fill="#A3B5D6"/>
<path fill-rule="evenodd" clip-rule="evenodd" d="M891.987 638.484L841.557 620.436C841.095 620.27 840.755 619.876 840.66 619.395L824.888 539.973C824.69 538.974 825.594 538.108 826.583 538.348L875.662 550.259C876.2 550.391 876.61 550.827 876.706 551.373L891.987 638.484Z" fill="#4E5C93"/>
<path fill-rule="evenodd" clip-rule="evenodd" d="M996.39 588.666L997.221 588.737C1005.71 589.458 1013.18 583.157 1013.9 574.665L1019.06 513.915C1019.78 505.422 1013.48 497.953 1004.99 497.233L1004.15 497.161C995.661 496.441 988.192 502.742 987.471 511.234L982.316 571.983C981.596 580.477 987.896 587.946 996.39 588.666Z" fill="#E4EBF7"/>
<path fill-rule="evenodd" clip-rule="evenodd" d="M931.718 599.587C926.596 603.184 910.74 600.826 910.74 600.826L900.169 606.056C898.536 606.71 898.144 605.62 897.336 605.62C895.157 605.62 895.157 603.332 895.157 603.332C894.406 602.975 893.196 603.55 892.869 601.479C892.869 601.479 891.343 601.37 891.233 599.518C891.176 598.539 901.109 584.409 901.109 584.409L915.933 584.813C915.933 584.813 937.586 585.219 940.015 590.076C942.443 594.933 931.718 599.587 931.718 599.587Z" fill="#F4B784"/>
<path d="M909.623 591.834C909.834 591.758 910.067 591.868 910.142 592.08C910.21 592.27 910.128 592.477 909.957 592.572L909.896 592.599L903.888 594.744L896.53 602.751C896.482 602.797 896.409 602.88 896.33 602.99L896.27 603.076C896.065 603.388 895.977 603.687 896.044 603.931C896.157 604.343 896.719 604.714 897.926 604.956C898.146 605 898.289 605.214 898.245 605.434C898.201 605.654 897.987 605.797 897.766 605.753C896.291 605.458 895.472 604.917 895.26 604.147C895.119 603.631 895.27 603.117 895.591 602.629C895.705 602.456 895.819 602.318 895.902 602.231L895.947 602.185L903.358 594.12C903.388 594.088 903.423 594.061 903.461 594.04L903.521 594.013L909.623 591.834Z" fill="#DD936F"/>
<path d="M905.988 588.363C906.19 588.266 906.433 588.352 906.53 588.554C906.617 588.737 906.556 588.951 906.395 589.063L906.338 589.096L901.627 591.344L894.58 600.123L894.527 600.183L894.444 600.281C894.337 600.413 894.23 600.558 894.131 600.713C893.906 601.061 893.757 601.401 893.713 601.697C893.622 602.318 894.001 602.734 895.221 602.93C895.442 602.966 895.593 603.175 895.557 603.396C895.522 603.618 895.313 603.769 895.091 603.733C893.466 603.471 892.747 602.682 892.909 601.579C892.972 601.149 893.166 600.71 893.447 600.273C893.525 600.152 893.607 600.036 893.689 599.927L893.858 599.715L893.967 599.59L901.051 590.764C901.077 590.732 901.107 590.704 901.14 590.682L901.193 590.651L905.988 588.363Z" fill="#DD936F"/>
<path d="M913.392 595.522C913.613 595.481 913.824 595.628 913.864 595.849C913.901 596.047 913.786 596.239 913.601 596.304L913.537 596.321L906.466 597.607L898.799 605.061L898.799 605.074C898.796 605.12 898.8 605.167 898.812 605.212L898.837 605.277C898.951 605.508 899.332 605.672 900.159 605.649C900.844 605.632 902.196 605.021 903.954 603.976C904.315 603.762 904.689 603.532 905.073 603.288C905.905 602.761 906.746 602.196 907.555 601.631L908.609 600.879C908.667 600.837 908.734 600.81 908.805 600.802L909.21 600.763L909.623 600.728C909.841 600.71 910.077 600.693 910.328 600.677C912.043 600.565 913.929 600.519 915.898 600.575L916.727 600.605L918.081 600.668C924.663 600.983 928.447 600.594 932.958 598.412C933.16 598.314 933.403 598.398 933.501 598.6C933.599 598.802 933.514 599.045 933.312 599.143C928.85 601.303 925.09 601.763 918.901 601.517L916.694 601.417L916.524 601.41C914.349 601.323 912.26 601.365 910.381 601.488L909.688 601.538L909.002 601.599L908.431 602.009C908.301 602.101 908.164 602.197 908.021 602.297C907.203 602.869 906.351 603.441 905.508 603.975C905.118 604.222 904.737 604.457 904.369 604.675L903.907 604.945C902.25 605.898 900.985 606.441 900.18 606.462C899.069 606.492 898.387 606.199 898.108 605.639C897.976 605.371 897.96 605.098 898.01 604.847L898.031 604.759C898.034 604.747 898.038 604.736 898.041 604.727C898.055 604.686 898.075 604.649 898.1 604.615L898.142 604.567L905.989 596.938C906.032 596.896 906.085 596.864 906.141 596.844L906.2 596.829L913.392 595.522Z" fill="#DD936F"/>
<path d="M901.122 584.003L928.695 584.812C928.919 584.818 929.096 585.006 929.089 585.23C929.083 585.432 928.931 585.595 928.737 585.621L928.671 585.624L901.325 584.822L891.592 599.71L891.558 599.779C891.545 599.809 891.53 599.844 891.515 599.884L891.492 599.947C891.423 600.141 891.385 600.332 891.391 600.497C891.405 600.949 891.746 601.179 892.83 601.075C893.053 601.053 893.252 601.217 893.273 601.44C893.295 601.664 893.131 601.862 892.908 601.884C891.396 602.03 890.609 601.497 890.578 600.523C890.569 600.243 890.626 599.958 890.725 599.677C890.766 599.562 890.807 599.465 890.85 599.379L890.893 599.296L900.77 584.187C900.834 584.088 900.938 584.024 901.052 584.007L901.122 584.003Z" fill="#DD936F"/>
<path fill-rule="evenodd" clip-rule="evenodd" d="M927.007 579.666L933.498 604.574L1001.88 588.983C1009.91 586.891 1014.73 578.684 1012.63 570.654C1010.54 562.623 1002.33 557.811 994.304 559.902L927.007 579.666Z" fill="#E4EBF7"/>
<path d="M994.152 559.385C994.438 559.301 994.737 559.465 994.821 559.75C994.898 560.012 994.767 560.286 994.525 560.394L994.456 560.419L927.293 580.131L933.519 604.024L991.659 590.257C991.925 590.194 992.191 590.34 992.286 590.587L992.308 590.658C992.371 590.923 992.225 591.189 991.978 591.285L991.908 591.306L933.254 605.195C932.993 605.257 932.73 605.117 932.631 604.875L932.608 604.806L926.118 579.897C926.051 579.639 926.183 579.374 926.421 579.269L926.488 579.244L994.152 559.385Z" fill="#A3B5D6"/>
<path d="M937.853 578.33C938.117 578.261 938.386 578.4 938.487 578.646L938.511 578.716L944.021 599.865C944.096 600.153 943.923 600.448 943.635 600.523C943.371 600.592 943.102 600.452 943.001 600.207L942.978 600.137L937.467 578.987C937.392 578.699 937.565 578.405 937.853 578.33Z" fill="#A3B5D6"/>
<path d="M988.283 523.511C988.554 523.542 988.755 523.769 988.76 524.034L988.757 524.108L984.508 561.141C984.474 561.437 984.207 561.649 983.911 561.615C983.64 561.584 983.439 561.357 983.434 561.091L983.437 561.018L987.686 523.985C987.717 523.714 987.944 523.513 988.21 523.507L988.283 523.511Z" fill="#A3B5D6"/>
<path fill-rule="evenodd" clip-rule="evenodd" d="M770.599 525.617H768.27C765.067 525.617 762.446 523.003 762.446 519.806V473.327C762.446 470.131 765.067 467.517 768.27 467.517H770.599C773.801 467.517 776.422 470.131 776.422 473.327V519.806C776.422 523.003 773.801 525.617 770.599 525.617Z" fill="#253368"/>
<path fill-rule="evenodd" clip-rule="evenodd" d="M839.804 527.352C839.804 531.203 836.676 534.324 832.816 534.324H707.038C703.178 534.324 700.05 531.203 700.05 527.352C700.05 523.502 703.178 520.38 707.038 520.38H832.816C836.676 520.38 839.804 523.502 839.804 527.352Z" fill="#253368"/>
<path fill-rule="evenodd" clip-rule="evenodd" d="M749.564 539.131C747.643 539.131 746.072 537.562 746.072 535.645V519.06C746.072 517.143 747.643 515.576 749.564 515.576H789.305C791.226 515.576 792.799 517.143 792.799 519.06V535.645C792.799 537.562 791.226 539.131 789.305 539.131H749.564Z" fill="#A3B5D6"/>
<path d="M751.875 519.01V535.696" stroke="#4E5C93" stroke-width="6" stroke-linecap="round" stroke-linejoin="round"/>
<path d="M786.414 519.01V535.696" stroke="#4E5C93" stroke-width="6" stroke-linecap="round" stroke-linejoin="round"/>
<path fill-rule="evenodd" clip-rule="evenodd" d="M704.41 494.43H835.441V341.716H704.41V494.43Z" fill="#4E5C93"/>
<path fill-rule="evenodd" clip-rule="evenodd" d="M703.822 495.746C700.542 495.746 697.859 493.069 697.859 489.797V454.63C697.859 451.359 700.542 448.682 703.822 448.682H836.031C839.31 448.682 841.994 451.359 841.994 454.63V489.797C841.994 493.069 839.31 495.746 836.031 495.746H703.822Z" fill="#A3B5D6"/>
<path fill-rule="evenodd" clip-rule="evenodd" d="M703.822 385.869C700.542 385.869 697.859 383.192 697.859 379.919V344.754C697.859 341.482 700.542 338.804 703.822 338.804H836.031C839.31 338.804 841.994 341.482 841.994 344.754V379.919C841.994 383.192 839.31 385.869 836.031 385.869H703.822Z" fill="#A3B5D6"/>
<path fill-rule="evenodd" clip-rule="evenodd" d="M714.566 366.799C712.097 366.799 710.095 364.8 710.095 362.336C710.095 359.873 712.097 357.875 714.566 357.875C717.037 357.875 719.038 359.873 719.038 362.336C719.038 364.8 717.037 366.799 714.566 366.799Z" fill="white"/>
<path fill-rule="evenodd" clip-rule="evenodd" d="M723.877 362.336C723.877 359.873 725.879 357.875 728.35 357.875C730.819 357.875 732.822 359.873 732.822 362.336C732.822 364.8 730.819 366.799 728.35 366.799C725.879 366.799 723.877 364.8 723.877 362.336Z" fill="white"/>
<path fill-rule="evenodd" clip-rule="evenodd" d="M742.134 366.799C739.663 366.799 737.661 364.8 737.661 362.336C737.661 359.873 739.663 357.875 742.134 357.875C744.603 357.875 746.605 359.873 746.605 362.336C746.605 364.8 744.603 366.799 742.134 366.799Z" fill="white"/>
<path fill-rule="evenodd" clip-rule="evenodd" d="M789.596 366.799C788.915 366.799 788.363 366.248 788.363 365.568V359.106C788.363 358.426 788.915 357.875 789.596 357.875H831.849C832.531 357.875 833.083 358.426 833.083 359.106V365.568C833.083 366.248 832.531 366.799 831.849 366.799H789.596Z" fill="#4E5C93"/>
<path fill-rule="evenodd" clip-rule="evenodd" d="M703.822 440.808C700.542 440.808 697.859 438.131 697.859 434.858V399.693C697.859 396.421 700.542 393.743 703.822 393.743H836.031C839.31 393.743 841.994 396.421 841.994 399.693V434.858C841.994 438.131 839.31 440.808 836.031 440.808H703.822Z" fill="#A3B5D6"/>
<path fill-rule="evenodd" clip-rule="evenodd" d="M714.566 423.332C712.097 423.332 710.095 421.334 710.095 418.869C710.095 416.406 712.097 414.408 714.566 414.408C717.037 414.408 719.038 416.406 719.038 418.869C719.038 421.334 717.037 423.332 714.566 423.332Z" fill="white"/>
<path fill-rule="evenodd" clip-rule="evenodd" d="M728.35 423.332C725.879 423.332 723.877 421.334 723.877 418.869C723.877 416.406 725.879 414.408 728.35 414.408C730.819 414.408 732.822 416.406 732.822 418.869C732.822 421.334 730.819 423.332 728.35 423.332Z" fill="#4E5C93"/>
<path fill-rule="evenodd" clip-rule="evenodd" d="M742.134 423.332C739.663 423.332 737.661 421.334 737.661 418.869C737.661 416.406 739.663 414.408 742.134 414.408C744.603 414.408 746.605 416.406 746.605 418.869C746.605 421.334 744.603 423.332 742.134 423.332Z" fill="#4E5C93"/>
<path fill-rule="evenodd" clip-rule="evenodd" d="M831.592 423.332H789.854C789.03 423.332 788.363 422.666 788.363 421.844V415.894C788.363 415.074 789.03 414.408 789.854 414.408H831.592C832.416 414.408 833.083 415.074 833.083 415.894V421.844C833.083 422.666 832.416 423.332 831.592 423.332Z" fill="white"/>
<path fill-rule="evenodd" clip-rule="evenodd" d="M710.095 472.543C710.095 470.079 712.097 468.082 714.566 468.082C717.037 468.082 719.038 470.079 719.038 472.543C719.038 475.007 717.037 477.005 714.566 477.005C712.097 477.005 710.095 475.007 710.095 472.543Z" fill="white"/>
<path fill-rule="evenodd" clip-rule="evenodd" d="M728.35 477.005C725.879 477.005 723.877 475.007 723.877 472.543C723.877 470.079 725.879 468.082 728.35 468.082C730.819 468.082 732.822 470.079 732.822 472.543C732.822 475.007 730.819 477.005 728.35 477.005Z" fill="white"/>
<path fill-rule="evenodd" clip-rule="evenodd" d="M742.134 477.005C739.663 477.005 737.661 475.007 737.661 472.543C737.661 470.079 739.663 468.082 742.134 468.082C744.603 468.082 746.605 470.079 746.605 472.543C746.605 475.007 744.603 477.005 742.134 477.005Z" fill="white"/>
<path fill-rule="evenodd" clip-rule="evenodd" d="M831.592 477.005H789.854C789.03 477.005 788.363 476.339 788.363 475.518V469.568C788.363 468.747 789.03 468.082 789.854 468.082H831.592C832.416 468.082 833.083 468.747 833.083 469.568V475.518C833.083 476.339 832.416 477.005 831.592 477.005Z" fill="#4E5C93"/>
<path fill-rule="evenodd" clip-rule="evenodd" d="M506.204 769.395C506.204 769.395 504.614 780.611 520.54 791.465C526.512 795.535 529.735 803.97 524.156 805.575C520.312 806.682 512.653 803.307 504.755 799.479C493.717 794.13 497.262 788.804 490.876 786.906C487.174 785.806 477.781 781.491 477.983 778.952C478.337 774.515 479.411 773.946 483.15 768.11C506.602 731.503 513.535 747.345 506.204 769.395Z" fill="#253368"/>
<path fill-rule="evenodd" clip-rule="evenodd" d="M487.128 760.333L528.541 663.646C531.894 655.816 542.338 653.038 551.324 657.583C560.001 661.971 563.897 671.479 559.982 678.714L509.836 771.396C509.836 771.396 498.564 771.351 487.128 760.333Z" fill="#4E5C93"/>
<path fill-rule="evenodd" clip-rule="evenodd" d="M547.232 678.175C556.406 678.64 564.276 672.373 565.052 663.986L573.685 570.489C574.687 559.635 565.65 550.112 553.778 549.51C541.905 548.907 531.948 557.466 531.844 568.367L530.945 662.256C530.864 670.678 538.059 677.71 547.232 678.175Z" fill="#4E5C93"/>
<path fill-rule="evenodd" clip-rule="evenodd" d="M560.226 419.388L560.989 391.784L536.123 390.892L532.387 417.028C531.258 424.922 536.963 432.157 544.912 432.913C552.974 433.68 560.003 427.472 560.226 419.388Z" fill="#FFC999"/>
<path fill-rule="evenodd" clip-rule="evenodd" d="M567.673 389.485C567.673 389.485 571.84 385.95 573.171 388.737C574.503 391.523 570.787 400.651 566.665 400.491C561.16 400.278 567.673 389.485 567.673 389.485Z" fill="#CCD7EE"/>
<path fill-rule="evenodd" clip-rule="evenodd" d="M541.452 411.221C541.452 411.221 548.842 418.587 560.134 413.117C568.262 409.18 570.882 392.291 570.631 379.682C570.489 372.547 567.607 368.433 560.926 365.67C554.246 362.907 535.58 361.006 533.421 381.749C531.015 404.854 541.452 411.221 541.452 411.221Z" fill="#FFC999"/>
<path d="M557.873 382.018C557.945 381.821 558.163 381.718 558.361 381.79C558.536 381.853 558.637 382.032 558.607 382.21L558.59 382.276L557.074 386.474L558.257 398.451C558.279 398.667 558.116 398.852 557.908 398.868L557.844 398.867L552.861 398.421C552.651 398.402 552.497 398.218 552.516 398.008C552.533 397.82 552.684 397.676 552.867 397.663L552.929 397.664L557.454 398.068L556.308 386.463C556.305 386.426 556.307 386.388 556.314 386.351L556.329 386.297L557.873 382.018Z" fill="#DD936F"/>
<path d="M548.464 400.923C548.565 400.647 548.87 400.505 549.146 400.606L549.309 400.661C549.381 400.684 549.469 400.712 549.574 400.743L549.684 400.775C550.14 400.906 550.674 401.038 551.283 401.161C553.145 401.538 555.268 401.754 557.604 401.724C557.897 401.72 558.139 401.955 558.142 402.248C558.146 402.541 557.911 402.782 557.617 402.786C555.203 402.817 553.006 402.594 551.071 402.202C550.541 402.094 550.062 401.98 549.637 401.865L549.389 401.795C549.096 401.711 548.891 401.644 548.781 401.604C548.505 401.503 548.363 401.198 548.464 400.923Z" fill="#FF7946"/>
<path fill-rule="evenodd" clip-rule="evenodd" d="M534.905 390.879L531.649 382.482C531.649 382.482 530.228 370.702 533.393 366.009C538.304 358.725 547.775 359.873 553.612 358.379C559.449 356.885 559.584 354.987 561.838 355.528C564.091 356.069 572.327 363.109 572.679 369.65C572.989 375.402 570.11 389.69 570.11 389.69C570.11 389.69 569.785 376.752 568.888 373.255C564.609 370.95 548.397 369.249 541.419 370.662C541.419 370.662 540.399 374.954 539.756 377.985C535.873 380.216 534.905 390.879 534.905 390.879Z" fill="#253368"/>
<path d="M543.191 412.329C543.285 412.141 543.514 412.066 543.702 412.16C549.79 415.216 554.745 415.258 558.535 413.515C559.07 413.269 559.53 413.006 559.914 412.744L560.089 412.622C560.218 412.528 560.308 412.455 560.357 412.411C560.514 412.271 560.754 412.284 560.895 412.44C561.035 412.596 561.023 412.836 560.866 412.977C560.773 413.061 560.598 413.199 560.343 413.372C559.925 413.657 559.428 413.941 558.854 414.205C554.855 416.045 549.657 416.001 543.36 412.839C543.172 412.745 543.097 412.517 543.191 412.329Z" fill="#DD936F"/>
<path d="M553.929 385.571L557.606 385.784C558.026 385.808 558.346 386.168 558.322 386.587C558.299 386.978 557.984 387.283 557.601 387.302L557.518 387.302L553.842 387.09C553.422 387.065 553.101 386.706 553.125 386.287C553.148 385.895 553.463 385.59 553.846 385.571L553.929 385.571Z" fill="#253368"/>
<path d="M553.953 387.958C554.646 387.718 555.356 387.596 556.046 387.663C556.87 387.743 557.592 388.091 558.135 388.746C558.403 389.07 558.357 389.549 558.033 389.817C557.732 390.065 557.297 390.044 557.021 389.78L556.961 389.715C556.69 389.388 556.341 389.22 555.9 389.177C555.459 389.134 554.955 389.221 554.451 389.395L554.251 389.469C554.098 389.528 553.982 389.582 553.915 389.618C553.544 389.816 553.083 389.676 552.885 389.305C552.687 388.935 552.827 388.474 553.198 388.276L553.359 388.196C553.513 388.124 553.714 388.041 553.953 387.958Z" fill="#253368"/>
<path d="M552.11 405.061L555.104 405.273C555.313 405.288 555.471 405.47 555.456 405.679C555.443 405.868 555.294 406.014 555.112 406.031L555.05 406.032L552.056 405.819C551.846 405.804 551.688 405.622 551.703 405.413C551.717 405.224 551.865 405.078 552.048 405.061L552.11 405.061Z" fill="#DD936F"/>
<path d="M534.313 384.118L540.335 384.579C540.754 384.611 541.068 384.977 541.036 385.396C541.006 385.786 540.685 386.085 540.301 386.097L540.218 386.096L534.197 385.635C533.778 385.603 533.464 385.237 533.496 384.818C533.526 384.428 533.847 384.129 534.23 384.116L534.313 384.118Z" fill="#253368"/>
<path fill-rule="evenodd" clip-rule="evenodd" d="M540.812 384.181L552.312 384.996C553.116 385.053 553.72 385.746 553.658 386.548C553.541 388.044 553.286 390.436 552.751 392.462C552.12 394.851 549.833 396.18 547.358 396.119C544.268 396.043 541.503 395.85 540.219 394.155C538.262 391.572 539.069 387.604 539.264 385.486C539.337 384.71 540.032 384.126 540.812 384.181Z" fill="white"/>
<path d="M540.83 383.928C539.912 383.863 539.097 384.55 539.012 385.463L538.963 385.93L538.866 386.77C538.697 388.257 538.637 389.279 538.708 390.348C538.812 391.93 539.218 393.253 540.017 394.308C541.182 395.846 543.118 396.267 547.352 396.372C550.054 396.438 552.358 394.942 552.997 392.526C553.452 390.804 553.743 388.722 553.912 386.568C553.984 385.626 553.275 384.81 552.33 384.743L540.83 383.928ZM540.794 384.434L552.294 385.248C552.959 385.296 553.457 385.868 553.406 386.529C553.24 388.655 552.952 390.71 552.506 392.397C551.932 394.571 549.844 395.926 547.365 395.866L546.811 395.85C543.125 395.726 541.405 395.301 540.422 394.003C539.69 393.036 539.313 391.806 539.214 390.315C539.156 389.437 539.189 388.584 539.303 387.449L539.495 385.73C539.504 385.652 539.511 385.579 539.517 385.509C539.577 384.872 540.151 384.388 540.794 384.434Z" fill="#253368"/>
<path fill-rule="evenodd" clip-rule="evenodd" d="M558.759 385.324L571.78 386.247C572.127 388.181 571.141 395.496 568.794 396.913C565.69 398.266 559.691 397.161 558.866 395.499C557.611 392.977 557.411 388.324 557.577 386.338C557.628 385.732 558.153 385.281 558.759 385.324Z" fill="white"/>
<path d="M558.777 385.072C558.033 385.018 557.386 385.573 557.323 386.316C557.088 389.133 557.551 393.427 558.638 395.611C559.577 397.502 565.813 398.489 568.895 397.145C571.021 395.865 572.534 389.016 572.03 386.203C572.009 386.089 571.914 386.003 571.798 385.995L558.777 385.072ZM571.56 386.485L571.575 386.6C571.892 389.406 570.464 395.609 568.663 396.696C565.829 397.929 559.888 396.989 559.092 395.386C558.054 393.301 557.601 389.091 557.829 386.359C557.868 385.891 558.274 385.544 558.741 385.577L571.56 386.485Z" fill="#253368"/>
<path d="M539.632 383.415L553.861 384.798C554.28 384.838 554.586 385.21 554.546 385.628C554.508 386.018 554.181 386.311 553.797 386.315L553.714 386.311L539.485 384.928C539.066 384.888 538.76 384.516 538.801 384.098C538.839 383.708 539.165 383.415 539.549 383.411L539.632 383.415Z" fill="#253368"/>
<path d="M557.925 384.988L571.91 385.782C572.329 385.806 572.65 386.165 572.627 386.584C572.604 386.975 572.289 387.281 571.906 387.3L571.823 387.3L557.838 386.507C557.419 386.483 557.098 386.124 557.121 385.704C557.144 385.313 557.458 385.008 557.842 384.988L557.925 384.988Z" fill="#253368"/>
<path fill-rule="evenodd" clip-rule="evenodd" d="M533.727 384.238C532.43 382.57 530.204 381.901 528.403 383.461C525.502 385.973 526.746 396.65 533.682 397.86C536.376 397.788 535.753 386.842 533.727 384.238Z" fill="#FFC999"/>
<path d="M530.167 385.031C530.263 384.844 530.492 384.769 530.679 384.865L530.799 384.93C530.869 384.971 530.956 385.024 531.055 385.089C531.327 385.269 531.599 385.481 531.853 385.727C532.874 386.712 533.335 387.929 532.879 389.326C532.712 389.836 532.445 390.099 531.981 390.325L531.77 390.421C531.361 390.601 531.255 390.697 531.191 391.022C531.065 391.662 531.328 392.168 531.874 392.58C532.042 392.707 532.223 392.813 532.404 392.9L532.519 392.952C532.569 392.973 532.608 392.988 532.632 392.996C532.832 393.064 532.938 393.28 532.871 393.479C532.804 393.677 532.587 393.784 532.388 393.717C532.137 393.632 531.777 393.46 531.415 393.187C530.657 392.615 530.254 391.839 530.444 390.875C530.559 390.293 530.813 390.031 531.345 389.779L531.551 389.687C531.912 389.526 532.053 389.402 532.155 389.09C532.508 388.008 532.155 387.076 531.324 386.274C531.105 386.063 530.87 385.879 530.635 385.723L530.485 385.628C530.419 385.588 530.367 385.559 530.334 385.542C530.147 385.447 530.072 385.218 530.167 385.031Z" fill="#DD936F"/>
<path d="M541.705 379.574C541.875 379.013 542.468 378.695 543.031 378.864C545.47 379.599 548.949 380.209 551.564 380.18C552.151 380.173 552.633 380.643 552.639 381.23C552.646 381.816 552.175 382.297 551.588 382.304C548.729 382.335 545.046 381.69 542.416 380.898C541.854 380.728 541.536 380.136 541.705 379.574Z" fill="#253368"/>
<path d="M559.833 380.231C561.709 379.86 563.712 379.864 565.625 380.505C566.604 380.833 567.51 381.319 568.325 381.978C568.781 382.347 568.851 383.016 568.482 383.472C568.112 383.928 567.442 383.998 566.986 383.628C566.374 383.133 565.692 382.768 564.948 382.519C563.438 382.013 561.79 382.009 560.246 382.315C559.868 382.389 559.6 382.462 559.471 382.504C558.913 382.688 558.311 382.386 558.127 381.829C557.943 381.272 558.246 380.671 558.803 380.487L558.986 380.431C559.195 380.371 559.481 380.301 559.833 380.231Z" fill="#253368"/>
<path d="M544.296 387.248C544.589 387.269 544.81 387.523 544.789 387.816C544.715 388.86 545.374 389.731 546.22 389.791C547.066 389.851 547.841 389.081 547.915 388.037C547.936 387.744 548.19 387.524 548.483 387.545C548.776 387.565 548.997 387.819 548.976 388.112C548.863 389.711 547.611 390.954 546.145 390.85C544.679 390.747 543.615 389.341 543.728 387.741C543.749 387.448 544.003 387.228 544.296 387.248Z" fill="#5C4E4A"/>
<path d="M560.549 388.4C560.842 388.421 561.063 388.675 561.042 388.967C560.968 390.012 561.627 390.883 562.472 390.943C563.318 391.002 564.093 390.233 564.167 389.189C564.188 388.896 564.442 388.676 564.735 388.696C565.028 388.717 565.249 388.971 565.228 389.264C565.115 390.864 563.863 392.106 562.397 392.002C560.931 391.898 559.868 390.493 559.981 388.892C560 388.624 560.216 388.417 560.477 388.4L560.549 388.4Z" fill="#5C4E4A"/>
<path fill-rule="evenodd" clip-rule="evenodd" d="M572.338 525.018C564.637 524.526 558.713 518.022 558.95 510.318L560.949 445.441C561.235 436.144 569.174 428.933 578.469 429.528C587.764 430.123 594.716 438.288 593.812 447.545L587.496 512.146C586.746 519.817 580.041 525.511 572.338 525.018Z" fill="#597EF7"/>
<path fill-rule="evenodd" clip-rule="evenodd" d="M571.668 571.511L556.097 587.16L533.34 577.591C533.34 577.591 515.971 596.033 509.683 579.886C503.394 563.739 511.479 534.635 511.479 534.635L570.749 535.033C570.749 535.033 577.656 560.348 571.668 571.511Z" fill="#ADC6FF"/>
<path fill-rule="evenodd" clip-rule="evenodd" d="M647.772 500.112L647.907 521.385L572.218 525.415C564.112 525.847 557.29 519.428 557.239 511.324C557.187 503.218 563.927 496.714 572.037 497.043L647.772 500.112Z" fill="#FFC999"/>
<path d="M575.964 496.593L647.395 499.584C647.655 499.595 647.865 499.791 647.899 500.041L647.904 500.111L648.039 521.383C648.041 521.665 647.823 521.899 647.541 521.916L637.791 522.516C631.426 522.902 624.896 523.288 618.464 523.654L613.84 523.915L605.003 524.4C584.465 525.499 571.542 525.993 569.294 525.646C569.004 525.602 568.805 525.33 568.85 525.041C568.894 524.751 569.166 524.552 569.456 524.597L569.606 524.617C572.28 524.921 586.477 524.348 608.251 523.161L615.197 522.776L621.626 522.409C624.854 522.223 628.095 522.033 631.318 521.841L646.972 520.887L646.844 500.623L575.92 497.654C575.651 497.643 575.437 497.434 575.413 497.174L575.411 497.102C575.422 496.833 575.631 496.619 575.892 496.595L575.964 496.593Z" fill="#597EF7"/>
<path d="M636.203 501.587C636.472 501.585 636.696 501.783 636.732 502.042L636.738 502.114L636.856 520.654C636.858 520.947 636.621 521.186 636.327 521.188C636.058 521.19 635.835 520.992 635.798 520.733L635.792 520.661L635.674 502.121C635.672 501.828 635.909 501.589 636.203 501.587Z" fill="#597EF7"/>
<path fill-rule="evenodd" clip-rule="evenodd" d="M642.273 514.322C643.187 514.317 643.934 515.052 643.939 515.965C643.944 516.878 643.207 517.623 642.294 517.629C641.379 517.636 640.633 516.9 640.627 515.986C640.621 515.073 641.358 514.327 642.273 514.322Z" fill="white"/>
<path fill-rule="evenodd" clip-rule="evenodd" d="M571.627 518.379C571.627 518.379 587.446 461.613 583.305 431.364C575.592 427.79 571.99 425.979 558.967 422.591C556.181 421.866 550.004 426.801 546.602 426.639C541.572 426.4 533.85 420.015 529.11 420.817C510.955 423.888 500.964 429.788 500.964 429.788L505.267 477.114C505.804 480.514 506.082 502.957 507.362 517.781C508.221 527.733 507.026 532.432 516.045 532.432C532.814 532.432 559.766 534.822 570.744 531.633C575.489 530.254 573.716 523.914 571.627 518.379Z" fill="#597EF7"/>
<path fill-rule="evenodd" clip-rule="evenodd" d="M559.833 419.257L564.662 425.393L557.553 436.148L548.071 425.484L559.833 419.257Z" fill="#597EF7"/>
<path fill-rule="evenodd" clip-rule="evenodd" d="M547.218 425.78L532.489 415.329L526.675 422.297L536.21 435.349L547.218 425.78Z" fill="#597EF7"/>
<path d="M528.071 422.262C528.282 422.12 528.562 422.158 528.729 422.341L528.776 422.4L536.719 434.204L547.35 425.49C547.525 425.346 547.771 425.338 547.954 425.46L548.02 425.512L558.459 435.303L563.699 424.365C563.809 424.136 564.07 424.026 564.306 424.099L564.376 424.127C564.606 424.237 564.716 424.497 564.643 424.733L564.615 424.803L559.075 436.367C558.938 436.655 558.577 436.741 558.326 436.564L558.27 436.518L547.649 426.557L536.932 435.342C536.72 435.516 536.412 435.488 536.234 435.291L536.188 435.233L527.933 422.966C527.776 422.734 527.838 422.419 528.071 422.262Z" fill="#253368"/>
<path d="M547.636 425.376C547.916 425.357 548.159 425.567 548.179 425.846L548.312 427.872L548.444 430.025C548.643 433.36 548.842 437.102 549.028 441.164C549.644 454.615 549.969 468.215 549.856 480.99L549.838 482.727C549.658 497.631 548.869 510.233 547.359 519.818L547.238 520.564L547.39 520.699C548.795 521.975 549.538 523.57 549.701 525.396L549.719 525.635C549.832 527.489 549.367 529.451 548.525 531.394C548.262 532.001 547.981 532.562 547.698 533.064C547.624 533.196 547.554 533.318 547.488 533.427L547.315 533.707C547.16 533.94 546.845 534.005 546.611 533.851C546.377 533.697 546.312 533.383 546.466 533.149L546.581 532.966C546.628 532.888 546.684 532.794 546.747 532.683L546.813 532.568C547.078 532.095 547.345 531.565 547.593 530.991C548.377 529.182 548.807 527.367 548.705 525.697C548.595 523.886 547.859 522.357 546.372 521.164C546.229 521.049 546.159 520.866 546.19 520.685C547.799 511.041 548.636 498.113 548.822 482.715C548.976 470.038 548.684 456.488 548.096 443.043L548.014 441.21C547.84 437.424 547.656 433.916 547.47 430.757L547.258 427.303L547.165 425.918C547.146 425.638 547.357 425.396 547.636 425.376Z" fill="#253368"/>
<path d="M582.574 446.406C582.829 446.432 583.021 446.644 583.03 446.893L583.022 447.018L582.682 450.233C582.445 452.433 582.178 454.847 581.884 457.428L581.721 458.852C580.76 467.211 579.719 475.571 578.629 483.441L578.41 485.008C576.556 498.196 574.746 508.621 573.043 515.257C572.767 516.332 572.494 517.304 572.225 518.169L572.17 518.343L572.229 518.472C574.795 524.091 574.683 528.054 572.862 530.599L572.761 530.737C572.218 531.455 571.667 531.885 571.274 532.085C571.024 532.212 570.719 532.112 570.592 531.863C570.464 531.613 570.564 531.308 570.814 531.181C570.868 531.153 570.984 531.081 571.141 530.958C571.415 530.745 571.691 530.469 571.95 530.126C573.656 527.866 573.778 524.162 571.167 518.594C571.113 518.478 571.104 518.346 571.143 518.224C571.443 517.29 571.748 516.215 572.059 515.005L572.226 514.344C573.869 507.731 575.616 497.589 577.404 484.867C578.573 476.554 579.688 467.645 580.712 458.736L581.185 454.569C581.334 453.232 581.475 451.949 581.607 450.729L582.017 446.859C582.043 446.604 582.255 446.412 582.505 446.404L582.574 446.406Z" fill="#253368"/>
<path d="M581.734 451.986L563.769 451.586C563.503 451.58 563.278 451.78 563.252 452.044L561.655 468.391C561.641 468.534 561.688 468.677 561.785 468.783L570.17 477.952C570.348 478.147 570.646 478.173 570.855 478.011L579.638 471.234C579.745 471.152 579.814 471.031 579.831 470.898L582.226 452.558C582.265 452.259 582.036 451.992 581.734 451.986ZM564.217 452.61L581.146 452.986L578.851 470.559L570.605 476.923L562.688 468.265L564.217 452.61Z" fill="#253368"/>
<path fill-rule="evenodd" clip-rule="evenodd" d="M551.157 436.692C551.255 437.633 551.971 438.33 552.756 438.248C553.541 438.167 554.099 437.338 554 436.397C553.902 435.456 553.186 434.76 552.401 434.841C551.617 434.922 551.059 435.752 551.157 436.692Z" fill="white"/>
<path fill-rule="evenodd" clip-rule="evenodd" d="M551.956 453.836C552.054 454.777 552.77 455.474 553.554 455.392C554.34 455.31 554.898 454.482 554.799 453.541C554.701 452.6 553.985 451.903 553.2 451.985C552.415 452.067 551.858 452.895 551.956 453.836Z" fill="white"/>
<path fill-rule="evenodd" clip-rule="evenodd" d="M552.754 472.974C552.852 473.915 553.569 474.611 554.354 474.529C555.139 474.448 555.696 473.619 555.598 472.678C555.5 471.737 554.783 471.041 553.999 471.122C553.214 471.203 552.656 472.033 552.754 472.974Z" fill="white"/>
<path fill-rule="evenodd" clip-rule="evenodd" d="M552.381 492.052C552.176 492.976 552.634 493.863 553.405 494.034C554.175 494.204 554.966 493.594 555.172 492.672C555.377 491.748 554.918 490.86 554.149 490.69C553.378 490.519 552.586 491.128 552.381 492.052Z" fill="white"/>
<path fill-rule="evenodd" clip-rule="evenodd" d="M549.633 519.997C549.32 520.889 549.668 521.824 550.414 522.086C551.158 522.347 552.017 521.835 552.33 520.943C552.644 520.05 552.295 519.115 551.551 518.854C550.806 518.593 549.947 519.105 549.633 519.997Z" fill="white"/>
<path fill-rule="evenodd" clip-rule="evenodd" d="M489.372 521.128C481.863 519.345 477.123 511.937 478.658 504.383L491.578 440.771C493.43 431.656 502.473 425.885 511.534 428.036C520.595 430.188 526.071 439.405 523.616 448.378L506.487 510.991C504.453 518.426 496.882 522.91 489.372 521.128Z" fill="#FFC999"/>
<path fill-rule="evenodd" clip-rule="evenodd" d="M512.255 493.558L524.427 447.719C526.881 438.749 521.406 429.529 512.345 427.379C503.284 425.227 492.947 431.416 491.095 440.532L481.513 487.178C481.513 487.178 511.944 493.247 512.255 493.558Z" fill="#597EF7"/>
<path fill-rule="evenodd" clip-rule="evenodd" d="M604.318 792.806C604.318 792.806 612.017 803.229 629.233 797.661C636.219 795.402 644.917 800.04 640.611 806.034C637.97 809.712 631.058 813.148 623.545 815.602C612.283 819.279 612.082 813.815 606.433 816.953C603.159 818.772 593.747 822.102 592.044 819.809C589.068 815.805 588.679 814.65 587.65 806.828C583.882 778.197 593.256 768.766 604.318 792.806Z" fill="#253368"/>
<path fill-rule="evenodd" clip-rule="evenodd" d="M582.078 796.809L552.325 680.846C549.83 671.454 555.794 661.91 565.337 660.023C574.552 658.199 583.48 664.254 585.183 673.48L606.988 791.654C606.988 791.654 597.55 799.179 582.078 796.809Z" fill="#ADC6FF"/>
<path d="M518.149 466.33C518.213 466.058 518.487 465.889 518.76 465.953C519.01 466.012 519.173 466.246 519.149 466.495L519.138 466.563L512.749 493.674C512.691 493.92 512.461 494.083 512.215 494.063L512.148 494.053L482.604 487.674C482.33 487.615 482.156 487.345 482.215 487.071C482.27 486.82 482.501 486.653 482.751 486.672L482.819 486.682L511.875 492.956L518.149 466.33Z" fill="#253368"/>
<path fill-rule="evenodd" clip-rule="evenodd" d="M641.384 529.034L570.541 529.698C567.847 529.723 565.9 527.137 566.672 524.559L581.607 474.698C582.11 473.021 583.648 471.866 585.402 471.85L656.245 471.185C658.939 471.159 660.886 473.746 660.114 476.324L645.179 526.184C644.676 527.861 643.138 529.017 641.384 529.034Z" fill="#ADC6FF"/>
<path fill-rule="evenodd" clip-rule="evenodd" d="M643.38 529.034L572.537 529.698C569.844 529.723 567.896 527.137 568.668 524.559L583.604 474.698C584.107 473.021 585.644 471.866 587.398 471.85L658.241 471.185C660.935 471.159 662.883 473.746 662.11 476.324L647.175 526.184C646.672 527.861 645.134 529.017 643.38 529.034Z" fill="black"/>
<path fill-rule="evenodd" clip-rule="evenodd" d="M568.172 527.794C568.172 527.794 552.355 525.088 550.311 517.838C548.46 511.274 553.377 507.911 553.377 507.911C553.377 507.911 563.145 505.768 570.862 505.535C575.918 505.381 585.486 503.661 586.26 506.223C587.268 509.566 577.198 509.732 576.271 512.097C574.392 516.889 590.263 518.294 592.714 519.902C597.504 523.043 587.12 531.185 568.172 527.794Z" fill="#FFC999"/>
<path d="M576.749 519.618C576.836 519.427 577.061 519.342 577.253 519.428L577.525 519.545L577.815 519.664C577.917 519.705 578.026 519.748 578.14 519.792L578.315 519.86C579.172 520.186 580.137 520.513 581.186 520.818C584.816 521.873 588.51 522.409 591.982 522.146C592.191 522.13 592.374 522.287 592.39 522.497C592.406 522.706 592.249 522.889 592.039 522.904C588.464 523.175 584.683 522.627 580.973 521.548C580.056 521.281 579.202 520.998 578.426 520.713L578.044 520.57C577.798 520.476 577.575 520.388 577.376 520.306L576.939 520.121C576.748 520.035 576.663 519.81 576.749 519.618Z" fill="#DD936F"/>
<path d="M574.097 523.287C574.164 523.088 574.38 522.981 574.579 523.048C580.246 524.951 585.118 525.513 588.731 525.329L589.022 525.313C589.259 525.298 589.419 525.283 589.498 525.274C589.707 525.249 589.896 525.397 589.921 525.606C589.947 525.814 589.798 526.003 589.589 526.029L589.389 526.048C589.302 526.056 589.196 526.064 589.07 526.072C585.336 526.307 580.256 525.757 574.337 523.768C574.137 523.702 574.03 523.486 574.097 523.287Z" fill="#DD936F"/>
<path d="M570.708 525.794C570.788 525.6 571.011 525.507 571.205 525.587L571.444 525.677C571.651 525.752 571.9 525.835 572.192 525.925C573.029 526.184 574.037 526.443 575.214 526.686C577.274 527.11 579.627 527.435 582.273 527.622C582.482 527.637 582.64 527.819 582.625 528.028C582.611 528.238 582.429 528.395 582.219 528.381C579.539 528.191 577.153 527.861 575.06 527.43C573.992 527.211 573.059 526.976 572.26 526.74L571.967 526.652C571.785 526.596 571.618 526.542 571.467 526.491L571.186 526.393C571.053 526.345 570.963 526.31 570.915 526.29C570.72 526.21 570.628 525.988 570.708 525.794Z" fill="#DD936F"/>
<path fill-rule="evenodd" clip-rule="evenodd" d="M560.572 515.541C560.342 519.789 556.885 523.149 552.627 523.264L492.896 524.874C484.551 525.024 477.759 518.373 477.983 510.27C478.207 502.168 485.357 495.901 493.68 496.512L553.82 507.057C557.896 507.772 560.795 511.414 560.572 515.541Z" fill="#FFC999"/>
<path fill-rule="evenodd" clip-rule="evenodd" d="M573.492 688.844C582.066 685.552 586.5 676.081 583.532 667.401L550.432 570.624C546.59 559.389 534.171 553.59 523.074 557.849C511.978 562.108 506.645 574.721 511.326 585.633L551.654 679.636C555.272 688.067 564.917 692.135 573.492 688.844Z" fill="#ADC6FF"/>
<path fill-rule="evenodd" clip-rule="evenodd" d="M572.38 540.22H511.299L512.633 531.854L571.316 531.583L572.38 540.22Z" fill="#ADC6FF"/>
<path d="M507.768 431.463L507.978 431.514C508.067 431.537 508.174 431.567 508.297 431.603C508.702 431.723 509.152 431.88 509.635 432.079C511.012 432.646 512.389 433.435 513.674 434.482C517.346 437.473 519.551 441.934 519.551 448.107C519.551 448.388 519.323 448.615 519.043 448.615C518.762 448.615 518.535 448.388 518.535 448.107C518.535 442.244 516.472 438.07 513.032 435.268C511.829 434.287 510.538 433.548 509.248 433.017C508.888 432.869 508.549 432.746 508.237 432.646L508.008 432.575C507.788 432.51 507.635 432.472 507.559 432.456C507.285 432.398 507.109 432.129 507.167 431.855C507.22 431.604 507.45 431.436 507.7 431.454L507.768 431.463Z" fill="#253368"/>
<path fill-rule="evenodd" clip-rule="evenodd" d="M648.688 500.937C648.688 500.937 657.816 497.061 659.955 498.154C663.268 499.849 658.329 505.63 658.329 505.63C658.329 505.63 660.525 508.714 657.259 511.36C657.216 515.138 654.775 516.013 654.775 516.013C654.775 516.013 655.726 519.264 652.2 520.238C648.672 521.212 642.683 518.212 645.285 514.259C643.722 510.899 646.703 509.319 646.703 509.319C646.703 509.319 645.778 506.34 648.714 504.873C647.297 503.141 647.74 501.351 648.688 500.937Z" fill="#FFC999"/>
<path d="M656.755 503.224C656.963 503.191 657.158 503.333 657.19 503.54C657.22 503.727 657.108 503.903 656.934 503.961L656.873 503.975L648.773 505.248C648.565 505.281 648.37 505.139 648.338 504.932C648.308 504.745 648.42 504.569 648.594 504.512L648.655 504.497L656.755 503.224Z" fill="#DD936F"/>
<path d="M646.74 508.941L653.811 509.619C654.02 509.639 654.174 509.825 654.154 510.034C654.135 510.222 653.983 510.365 653.8 510.377L653.738 510.376L646.667 509.698C646.458 509.678 646.304 509.492 646.325 509.283C646.343 509.095 646.495 508.952 646.678 508.94L646.74 508.941Z" fill="#DD936F"/>
<path d="M645.357 513.886L651.934 515.156C652.14 515.196 652.275 515.395 652.235 515.601C652.2 515.787 652.034 515.915 651.851 515.909L651.789 515.902L645.213 514.632C645.006 514.592 644.871 514.393 644.911 514.187C644.947 514.001 645.113 513.874 645.296 513.879L645.357 513.886Z" fill="#DD936F"/>
<path fill-rule="evenodd" clip-rule="evenodd" d="M555.751 536.477C555.849 537.418 556.564 538.115 557.349 538.033C558.135 537.952 558.691 537.123 558.594 536.182C558.496 535.241 557.78 534.545 556.994 534.626C556.21 534.707 555.653 535.537 555.751 536.477Z" fill="white"/>
<path d="M572.214 530.99C572.425 530.99 572.595 531.16 572.595 531.37C572.595 531.559 572.457 531.715 572.276 531.745L572.214 531.75H512.197C511.987 531.75 511.816 531.58 511.816 531.37C511.816 531.181 511.954 531.024 512.135 530.994L512.197 530.99H572.214Z" fill="#597EF7"/>
<path d="M570.253 539.063C570.463 539.063 570.633 539.233 570.633 539.443C570.633 539.632 570.495 539.789 570.314 539.818L570.253 539.823H512.362C512.152 539.823 511.981 539.653 511.981 539.443C511.981 539.254 512.12 539.097 512.3 539.068L512.362 539.063H570.253Z" fill="#597EF7"/>
<path d="M552.56 531.587C552.749 531.579 552.913 531.708 552.951 531.887L552.959 531.949L553.354 539.858L553.421 540.025L553.525 540.306L553.66 540.686C553.776 541.021 553.9 541.399 554.031 541.822C554.552 543.507 555.072 545.55 555.557 547.959C557.661 558.402 558.448 571.963 557.15 588.81C557.134 589.02 556.951 589.176 556.741 589.16C556.531 589.144 556.374 588.961 556.391 588.752L556.507 587.164C557.632 571.121 556.835 558.154 554.811 548.109C554.331 545.726 553.817 543.707 553.303 542.046L553.153 541.57C553.08 541.343 553.009 541.132 552.941 540.936L552.773 540.467L552.627 540.089L552.598 539.96L552.199 531.987C552.188 531.777 552.35 531.598 552.56 531.587Z" fill="#597EF7"/>
<path d="M559.969 538.676C560.173 538.624 560.381 538.746 560.433 538.949L560.586 539.565L560.847 540.658C560.893 540.856 560.94 541.062 560.989 541.275C561.404 543.105 561.82 545.111 562.208 547.23C562.938 551.218 563.483 555.133 563.767 558.803C564.269 565.283 563.923 570.501 562.514 574.028L562.411 574.277L562.365 574.357C560.764 576.49 559.266 577.871 557.908 578.645C557.065 579.127 556.438 579.294 556.072 579.294C555.862 579.294 555.691 579.123 555.691 578.913C555.691 578.703 555.862 578.533 556.072 578.533C556.114 578.533 556.226 578.519 556.405 578.471C556.723 578.386 557.1 578.231 557.53 577.985C558.738 577.296 560.091 576.067 561.556 574.165L561.726 573.938L561.808 573.741C563.13 570.43 563.485 565.475 563.042 559.314L563.008 558.861C562.726 555.22 562.184 551.331 561.459 547.367C561.116 545.493 560.751 543.708 560.384 542.056L560.246 541.444C560.125 540.913 560.012 540.43 559.908 539.998L559.696 539.139C559.643 538.936 559.766 538.729 559.969 538.676Z" fill="#597EF7"/>
<g opacity="0.5">
<path fill-rule="evenodd" clip-rule="evenodd" d="M1042.02 738.903C1042.02 738.903 1039.8 721.168 1063.75 713.188C1087.69 705.207 1093.01 709.419 1093.01 709.419L1090.79 716.513C1090.79 716.513 1087.02 734.247 1069.73 736.686C1052.44 739.124 1045.79 735.577 1042.02 738.903Z" fill="#7CB305"/>
<path d="M1090.44 710.256L1091.14 710.8L1091.08 710.872C1091.06 710.904 1091.03 710.942 1090.99 710.986L1090.88 711.117C1090.8 711.208 1090.71 711.306 1090.62 711.412L1090.55 711.492C1090.06 712.031 1089.48 712.631 1088.79 713.277C1086.82 715.116 1084.43 716.953 1081.6 718.667C1075.92 722.109 1069.21 724.611 1061.44 725.777L1061.15 725.819C1055.92 726.579 1051.75 728.316 1048.52 730.735C1046.97 731.895 1045.74 733.136 1044.8 734.374C1044.47 734.805 1044.2 735.204 1043.99 735.561L1043.92 735.679C1043.89 735.736 1043.86 735.789 1043.83 735.838L1043.76 735.98L1043.75 735.989L1042.95 735.61L1042.97 735.559C1043.03 735.458 1043.11 735.305 1043.23 735.106C1043.46 734.722 1043.74 734.295 1044.09 733.837C1045.08 732.535 1046.37 731.236 1047.99 730.025C1051.29 727.554 1055.52 725.774 1060.79 724.976L1061.02 724.942C1068.8 723.813 1075.49 721.333 1081.14 717.909C1083.92 716.228 1086.26 714.428 1088.18 712.629C1088.81 712.043 1089.34 711.497 1089.79 711.003L1089.89 710.898C1090.03 710.742 1090.15 710.602 1090.26 710.478L1090.37 710.338L1090.44 710.256Z" fill="#7CB305"/>
<path fill-rule="evenodd" clip-rule="evenodd" d="M1090.13 750.873H1093.01V709.419H1090.13L1090.9 722.157C1091.12 725.781 1091.15 729.415 1090.97 733.042L1090.13 750.873Z" fill="#7CB305"/>
<path fill-rule="evenodd" clip-rule="evenodd" d="M1045.74 678.207C1045.74 678.207 1054.56 664.789 1075.59 673.291C1096.61 681.793 1097.66 688.582 1097.66 688.582L1092.14 691.332C1092.14 691.332 1079.22 701.26 1065.98 692.847C1052.73 684.433 1050.26 678.13 1045.74 678.207Z" fill="#7CB305"/>
<path fill-rule="evenodd" clip-rule="evenodd" d="M1094.78 762.401H1097L1097.87 689.223C1097.88 688.321 1097.28 687.523 1096.41 687.275L1094.78 686.808C1094.78 686.808 1095.34 693.607 1095.22 702.104C1095.12 710.232 1094.34 719.903 1094.34 727.066C1094.34 747.327 1094.78 762.401 1094.78 762.401Z" fill="#7CB305"/>
<path fill-rule="evenodd" clip-rule="evenodd" d="M1075.72 677.719C1085.28 685.144 1095 689.911 1095 689.911L1092.14 691.332C1092.14 691.332 1079.22 701.26 1065.98 692.847C1052.73 684.433 1050.26 678.13 1045.74 678.207C1045.74 678.207 1060.86 666.192 1075.72 677.719Z" fill="#5B8C00"/>
<path fill-rule="evenodd" clip-rule="evenodd" d="M1149.48 709.945C1149.48 709.945 1143.53 700.939 1129.35 706.645C1115.17 712.352 1114.46 716.908 1114.46 716.908L1118.18 718.754C1118.18 718.754 1126.89 725.418 1135.83 719.771C1144.76 714.124 1146.44 709.893 1149.48 709.945Z" fill="#7CB305"/>
<path fill-rule="evenodd" clip-rule="evenodd" d="M1116.37 766.821H1114.83L1114.23 717.464C1114.23 716.855 1114.64 716.317 1115.24 716.15L1116.37 715.835C1116.37 715.835 1115.98 720.421 1116.06 726.152C1116.14 731.634 1116.67 738.157 1116.67 742.989C1116.67 756.654 1116.37 766.821 1116.37 766.821Z" fill="#7CB305"/>
<path fill-rule="evenodd" clip-rule="evenodd" d="M1151.14 661.137C1151.14 661.137 1142.31 647.719 1121.29 656.221C1100.27 664.723 1099.21 671.512 1099.21 671.512L1104.74 674.263C1104.74 674.263 1117.65 684.191 1130.9 675.777C1144.14 667.363 1146.62 661.061 1151.14 661.137Z" fill="#7CB305"/>
<path fill-rule="evenodd" clip-rule="evenodd" d="M1102.1 748.213H1099.88L1099.01 672.154C1099 671.252 1099.59 670.453 1100.46 670.205L1102.1 669.739C1102.1 669.739 1101.54 676.538 1101.65 685.034C1101.76 693.162 1102.54 702.834 1102.54 709.997C1102.54 730.257 1102.1 748.213 1102.1 748.213Z" fill="#7CB305"/>
<path fill-rule="evenodd" clip-rule="evenodd" d="M1151.14 661.137C1151.14 661.137 1136.01 649.122 1121.16 660.65C1111.59 668.074 1101.87 672.842 1101.87 672.842L1104.74 674.262C1104.74 674.262 1117.65 684.191 1130.9 675.777C1144.14 667.363 1146.62 661.061 1151.14 661.137Z" fill="#5B8C00"/>
<path fill-rule="evenodd" clip-rule="evenodd" d="M1106.09 747.548H1109.85L1111.35 700.437L1108.51 655.971C1108.52 655.069 1107.92 654.271 1107.05 654.023L1105.42 653.556C1105.42 653.556 1108.97 688.868 1108.97 696.031C1108.97 716.291 1106.09 747.548 1106.09 747.548Z" fill="#7CB305"/>
<path fill-rule="evenodd" clip-rule="evenodd" d="M1063.68 628.677C1063.68 628.677 1071.73 616.757 1090.79 628.728C1110 640.786 1108.66 656.605 1108.66 656.605L1102.52 657.244C1102.52 657.244 1086.95 662.011 1077.5 649.486C1068.04 636.961 1067.93 630.189 1063.68 628.677Z" fill="#7CB305"/>
<path fill-rule="evenodd" clip-rule="evenodd" d="M1063.68 628.677C1063.68 628.677 1072.34 622.29 1079.71 631.388C1083.48 636.043 1090.14 639.553 1093.01 642.25C1100.45 649.258 1105.7 656.918 1105.7 656.918L1102.52 657.244C1102.52 657.244 1086.95 662.011 1077.5 649.486C1068.04 636.961 1067.93 630.189 1063.68 628.677Z" fill="#5B8C00"/>
<path fill-rule="evenodd" clip-rule="evenodd" d="M1127.09 809.619H1075.66C1072.72 809.619 1070.34 807.237 1070.34 804.298V752.869C1070.34 749.93 1072.72 747.548 1075.66 747.548H1127.09C1130.03 747.548 1132.41 749.93 1132.41 752.869V804.298C1132.41 807.237 1130.03 809.619 1127.09 809.619Z" fill="#253368"/>
</g>
<g opacity="0.2">
<path fill-rule="evenodd" clip-rule="evenodd" d="M419.953 656.259H273.023V643.066C273.023 640.204 275.339 637.884 278.195 637.884H414.782C417.638 637.884 419.953 640.204 419.953 643.066V656.259Z" fill="#253368"/>
<path fill-rule="evenodd" clip-rule="evenodd" d="M414.782 783.291H278.195C275.339 783.291 273.023 780.971 273.023 778.108V654.714H419.953V778.108C419.953 780.971 417.638 783.291 414.782 783.291Z" fill="#E4EBF7"/>
<path fill-rule="evenodd" clip-rule="evenodd" d="M284.964 646.436C284.964 648.232 283.511 649.688 281.718 649.688C279.926 649.688 278.473 648.232 278.473 646.436C278.473 644.64 279.926 643.183 281.718 643.183C283.511 643.183 284.964 644.64 284.964 646.436Z" fill="#FF7946"/>
<path fill-rule="evenodd" clip-rule="evenodd" d="M297.084 646.436C297.084 648.232 295.631 649.688 293.839 649.688C292.046 649.688 290.593 648.232 290.593 646.436C290.593 644.64 292.046 643.183 293.839 643.183C295.631 643.183 297.084 644.64 297.084 646.436Z" fill="#FAAD14"/>
<path fill-rule="evenodd" clip-rule="evenodd" d="M309.205 646.436C309.205 648.232 307.752 649.688 305.959 649.688C304.167 649.688 302.714 648.232 302.714 646.436C302.714 644.64 304.167 643.183 305.959 643.183C307.752 643.183 309.205 644.64 309.205 646.436Z" fill="#7CB305"/>
<path fill-rule="evenodd" clip-rule="evenodd" d="M288.904 765.801C288.012 765.801 287.29 765.078 287.29 764.185V670.514C287.29 669.621 288.012 668.898 288.904 668.898H405.678C406.569 668.898 407.292 669.621 407.292 670.514V764.185C407.292 765.078 406.569 765.801 405.678 765.801H288.904Z" fill="white"/>
<path d="M327.846 709.728C328.518 709.153 329.535 709.282 330.044 709.997L330.07 710.035L353.568 745.257L371.745 732.485C371.96 732.334 372.212 732.242 372.473 732.218L372.529 732.214L396.546 730.961C397.374 730.918 398.08 731.554 398.123 732.381C398.165 733.194 397.552 733.89 396.746 733.955L396.703 733.957L373.117 735.188L354.036 748.596C353.359 749.072 352.428 748.908 351.952 748.239L351.926 748.201L328.512 713.107L301.149 736.535C300.531 737.063 299.607 737.003 299.064 736.405L299.034 736.371C298.505 735.753 298.566 734.829 299.163 734.286L299.197 734.255L327.846 709.728Z" fill="#FF7946"/>
<path d="M392.99 688.471C393.451 687.783 394.383 687.599 395.071 688.061C395.747 688.514 395.936 689.42 395.506 690.105L395.482 690.142L374.115 722.004C373.579 722.803 372.444 722.895 371.785 722.206L371.753 722.171L347.33 694.998L330.401 706.42C330.162 706.581 329.882 706.67 329.595 706.677L329.537 706.677L300.149 706.196C299.32 706.183 298.66 705.5 298.673 704.672C298.687 703.858 299.346 703.206 300.154 703.196L300.198 703.196L329.114 703.669L346.734 691.78C347.342 691.37 348.154 691.46 348.657 691.987L348.689 692.021L372.696 718.732L392.99 688.471Z" fill="#FAAD14"/>
<path d="M355.973 708.876C356.348 708.548 356.859 708.428 357.338 708.553L357.388 708.566L373.033 713.207L396.093 709.533C396.897 709.405 397.653 709.941 397.803 710.736L397.811 710.779C397.939 711.583 397.403 712.339 396.608 712.489L396.565 712.496L373.169 716.224C372.968 716.256 372.763 716.247 372.566 716.197L372.507 716.181L357.327 711.678L330.949 734.748C330.463 735.173 329.762 735.238 329.207 734.915L329.166 734.89L297.653 715.173C296.951 714.734 296.738 713.808 297.177 713.106C297.609 712.416 298.509 712.198 299.207 712.606L299.245 712.629L329.813 731.755L355.973 708.876Z" fill="#597EF7"/>
<path fill-rule="evenodd" clip-rule="evenodd" d="M328.917 681.161H299.357C298.147 681.161 297.157 680.169 297.157 678.956C297.157 677.743 298.147 676.751 299.357 676.751H328.917C330.127 676.751 331.118 677.743 331.118 678.956C331.118 680.169 330.127 681.161 328.917 681.161Z" fill="#CCD7EE"/>
<path fill-rule="evenodd" clip-rule="evenodd" d="M311.826 691.56H300.825C299.61 691.56 298.625 690.573 298.625 689.355C298.625 688.137 299.61 687.15 300.825 687.15H311.826C313.042 687.15 314.027 688.137 314.027 689.355C314.027 690.573 313.042 691.56 311.826 691.56Z" fill="#CCD7EE"/>
<path d="M391.534 739.539C386.382 739.539 382.217 743.772 382.217 748.98C382.217 754.188 386.382 758.421 391.534 758.421C396.687 758.421 400.852 754.188 400.852 748.98C400.852 743.772 396.687 739.539 391.534 739.539ZM391.534 743.09C394.712 743.09 397.3 745.721 397.3 748.98C397.3 752.239 394.712 754.87 391.534 754.87C388.356 754.87 385.768 752.239 385.768 748.98C385.768 745.721 388.356 743.09 391.534 743.09Z" fill="#CCD7EE"/>
<path d="M397.731 744C398.632 743.615 399.676 744.033 400.062 744.934C400.58 746.146 400.851 747.464 400.851 748.82C400.851 749.929 400.67 751.015 400.318 752.039C400 752.967 398.99 753.461 398.062 753.143C397.149 752.83 396.656 751.847 396.944 750.932L396.959 750.887C397.183 750.233 397.3 749.536 397.3 748.82C397.3 747.982 397.14 747.172 396.837 746.428L396.796 746.331C396.411 745.43 396.829 744.386 397.731 744Z" fill="#597EF7"/>
</g>
</g>
<defs>
<linearGradient id="paint0_linear_396_20" x1="429.301" y1="382.798" x2="419.527" y2="311.771" gradientUnits="userSpaceOnUse">
<stop stop-color="#F2F4F9" stop-opacity="0"/>
<stop offset="1" stop-color="#E0E5F1"/>
</linearGradient>
<linearGradient id="paint1_linear_396_20" x1="1062.37" y1="473.962" x2="1062.37" y2="300.979" gradientUnits="userSpaceOnUse">
<stop stop-color="#F2F4F9" stop-opacity="0"/>
<stop offset="1" stop-color="#E0E5F1"/>
</linearGradient>
<clipPath id="clip0_396_20">
<rect width="1440" height="900" fill="white"/>
</clipPath>
</defs>
</svg>
